%TF.GenerationSoftware,KiCad,Pcbnew,9.0.6-9.0.6~ubuntu24.04.1*%
%TF.CreationDate,2025-11-15T19:24:54+01:00*%
%TF.ProjectId,EEZ DIB DCP405plus front mask,45455a20-4449-4422-9044-435034303570,r4B2*%
%TF.SameCoordinates,Original*%
%TF.FileFunction,Copper,L2,Bot*%
%TF.FilePolarity,Positive*%
%FSLAX46Y46*%
G04 Gerber Fmt 4.6, Leading zero omitted, Abs format (unit mm)*
G04 Created by KiCad (PCBNEW 9.0.6-9.0.6~ubuntu24.04.1) date 2025-11-15 19:24:54*
%MOMM*%
%LPD*%
G01*
G04 APERTURE LIST*
G04 APERTURE END LIST*
%TA.AperFunction,NonConductor*%
G36*
X175242539Y-38720185D02*
G01*
X175288294Y-38772989D01*
X175299500Y-38824500D01*
X175299500Y-149675500D01*
X175279815Y-149742539D01*
X175227011Y-149788294D01*
X175175500Y-149799500D01*
X140824500Y-149799500D01*
X140757461Y-149779815D01*
X140711706Y-149727011D01*
X140700500Y-149675500D01*
X140700500Y-146655513D01*
X156799500Y-146655513D01*
X156799500Y-146844486D01*
X156829059Y-147031118D01*
X156887454Y-147210836D01*
X156967545Y-147368022D01*
X156973240Y-147379199D01*
X157084310Y-147532073D01*
X157217927Y-147665690D01*
X157370801Y-147776760D01*
X157450347Y-147817290D01*
X157539163Y-147862545D01*
X157539165Y-147862545D01*
X157539168Y-147862547D01*
X157635497Y-147893846D01*
X157718881Y-147920940D01*
X157905514Y-147950500D01*
X157905519Y-147950500D01*
X158094486Y-147950500D01*
X158281118Y-147920940D01*
X158460832Y-147862547D01*
X158629199Y-147776760D01*
X158782073Y-147665690D01*
X158915690Y-147532073D01*
X159026760Y-147379199D01*
X159112547Y-147210832D01*
X159170940Y-147031118D01*
X159178706Y-146982083D01*
X159200500Y-146844486D01*
X159200500Y-146655513D01*
X159170940Y-146468881D01*
X159112545Y-146289163D01*
X159026759Y-146120800D01*
X158915690Y-145967927D01*
X158782073Y-145834310D01*
X158629199Y-145723240D01*
X158460836Y-145637454D01*
X158281118Y-145579059D01*
X158094486Y-145549500D01*
X158094481Y-145549500D01*
X157905519Y-145549500D01*
X157905514Y-145549500D01*
X157718881Y-145579059D01*
X157539163Y-145637454D01*
X157370800Y-145723240D01*
X157283579Y-145786610D01*
X157217927Y-145834310D01*
X157217925Y-145834312D01*
X157217924Y-145834312D01*
X157084312Y-145967924D01*
X157084312Y-145967925D01*
X157084310Y-145967927D01*
X157036610Y-146033579D01*
X156973240Y-146120800D01*
X156887454Y-146289163D01*
X156829059Y-146468881D01*
X156799500Y-146655513D01*
X140700500Y-146655513D01*
X140700500Y-136944494D01*
X146169500Y-136944494D01*
X146169500Y-137180503D01*
X146169501Y-137180519D01*
X146200306Y-137414509D01*
X146261394Y-137642492D01*
X146351714Y-137860544D01*
X146351719Y-137860555D01*
X146422677Y-137983456D01*
X146469727Y-138064949D01*
X146469729Y-138064952D01*
X146469730Y-138064953D01*
X146613406Y-138252196D01*
X146613412Y-138252203D01*
X146780295Y-138419086D01*
X146780302Y-138419092D01*
X146830598Y-138457685D01*
X146967550Y-138562772D01*
X147098918Y-138638617D01*
X147171943Y-138680779D01*
X147171948Y-138680781D01*
X147171951Y-138680783D01*
X147390007Y-138771105D01*
X147617986Y-138832192D01*
X147851989Y-138862999D01*
X147851996Y-138862999D01*
X148088004Y-138862999D01*
X148088011Y-138862999D01*
X148322014Y-138832192D01*
X148549993Y-138771105D01*
X148768049Y-138680783D01*
X148972450Y-138562772D01*
X149159699Y-138419091D01*
X149326592Y-138252198D01*
X149470273Y-138064949D01*
X149588284Y-137860548D01*
X149678606Y-137642492D01*
X149739693Y-137414513D01*
X149770500Y-137180510D01*
X149770500Y-136944488D01*
X149739693Y-136710485D01*
X149678606Y-136482506D01*
X149588284Y-136264450D01*
X149588282Y-136264447D01*
X149588280Y-136264442D01*
X149524282Y-136153596D01*
X149470273Y-136060049D01*
X149326592Y-135872800D01*
X149326587Y-135872794D01*
X149159704Y-135705911D01*
X149159697Y-135705905D01*
X148972454Y-135562229D01*
X148972453Y-135562228D01*
X148972450Y-135562226D01*
X148890957Y-135515176D01*
X148768056Y-135444218D01*
X148768045Y-135444213D01*
X148549993Y-135353893D01*
X148322010Y-135292805D01*
X148088020Y-135262000D01*
X148088017Y-135261999D01*
X148088011Y-135261999D01*
X147851989Y-135261999D01*
X147851983Y-135261999D01*
X147851979Y-135262000D01*
X147617989Y-135292805D01*
X147390006Y-135353893D01*
X147171954Y-135444213D01*
X147171943Y-135444218D01*
X146967545Y-135562229D01*
X146780302Y-135705905D01*
X146780295Y-135705911D01*
X146613412Y-135872794D01*
X146613406Y-135872801D01*
X146469730Y-136060044D01*
X146351719Y-136264442D01*
X146351714Y-136264453D01*
X146261394Y-136482505D01*
X146200306Y-136710488D01*
X146169501Y-136944478D01*
X146169500Y-136944494D01*
X140700500Y-136944494D01*
X140700500Y-120772937D01*
X147899500Y-120772937D01*
X147899500Y-121227062D01*
X147939079Y-121679450D01*
X148017935Y-122126660D01*
X148017938Y-122126673D01*
X148135466Y-122565299D01*
X148135469Y-122565309D01*
X148135470Y-122565310D01*
X148290788Y-122992041D01*
X148290791Y-122992048D01*
X148290792Y-122992050D01*
X148482701Y-123403602D01*
X148482706Y-123403611D01*
X148709765Y-123796888D01*
X148709769Y-123796894D01*
X148709776Y-123796905D01*
X148970236Y-124168881D01*
X149032006Y-124242495D01*
X149262137Y-124516754D01*
X149583246Y-124837863D01*
X149727888Y-124959232D01*
X149931118Y-125129763D01*
X150303094Y-125390223D01*
X150303101Y-125390227D01*
X150303112Y-125390235D01*
X150627230Y-125577365D01*
X150696382Y-125617290D01*
X150696397Y-125617298D01*
X150843157Y-125685733D01*
X151107959Y-125809212D01*
X151534690Y-125964530D01*
X151534696Y-125964531D01*
X151534700Y-125964533D01*
X151654151Y-125996539D01*
X151973334Y-126082064D01*
X152420552Y-126160921D01*
X152872939Y-126200499D01*
X152872940Y-126200500D01*
X152872941Y-126200500D01*
X153327060Y-126200500D01*
X153327060Y-126200499D01*
X153779448Y-126160921D01*
X154226666Y-126082064D01*
X154665310Y-125964530D01*
X155092041Y-125809212D01*
X155503611Y-125617294D01*
X155896888Y-125390235D01*
X156268880Y-125129764D01*
X156616754Y-124837863D01*
X156937863Y-124516754D01*
X157229764Y-124168880D01*
X157490235Y-123796888D01*
X157717294Y-123403611D01*
X157909212Y-122992041D01*
X158064530Y-122565310D01*
X158182064Y-122126666D01*
X158260921Y-121679448D01*
X158300500Y-121227059D01*
X158300500Y-120772941D01*
X158300500Y-120772937D01*
X162899500Y-120772937D01*
X162899500Y-121227062D01*
X162939079Y-121679450D01*
X163017935Y-122126660D01*
X163017938Y-122126673D01*
X163135466Y-122565299D01*
X163135469Y-122565309D01*
X163135470Y-122565310D01*
X163290788Y-122992041D01*
X163290791Y-122992048D01*
X163290792Y-122992050D01*
X163482701Y-123403602D01*
X163482706Y-123403611D01*
X163709765Y-123796888D01*
X163709769Y-123796894D01*
X163709776Y-123796905D01*
X163970236Y-124168881D01*
X164032006Y-124242495D01*
X164262137Y-124516754D01*
X164583246Y-124837863D01*
X164727888Y-124959232D01*
X164931118Y-125129763D01*
X165303094Y-125390223D01*
X165303101Y-125390227D01*
X165303112Y-125390235D01*
X165627230Y-125577365D01*
X165696382Y-125617290D01*
X165696397Y-125617298D01*
X165843157Y-125685733D01*
X166107959Y-125809212D01*
X166534690Y-125964530D01*
X166534696Y-125964531D01*
X166534700Y-125964533D01*
X166654151Y-125996539D01*
X166973334Y-126082064D01*
X167420552Y-126160921D01*
X167872939Y-126200499D01*
X167872940Y-126200500D01*
X167872941Y-126200500D01*
X168327060Y-126200500D01*
X168327060Y-126200499D01*
X168779448Y-126160921D01*
X169226666Y-126082064D01*
X169665310Y-125964530D01*
X170092041Y-125809212D01*
X170503611Y-125617294D01*
X170896888Y-125390235D01*
X171268880Y-125129764D01*
X171616754Y-124837863D01*
X171937863Y-124516754D01*
X172229764Y-124168880D01*
X172490235Y-123796888D01*
X172717294Y-123403611D01*
X172909212Y-122992041D01*
X173064530Y-122565310D01*
X173182064Y-122126666D01*
X173260921Y-121679448D01*
X173300500Y-121227059D01*
X173300500Y-120772941D01*
X173260921Y-120320552D01*
X173182064Y-119873334D01*
X173064530Y-119434690D01*
X172909212Y-119007959D01*
X172717294Y-118596389D01*
X172490235Y-118203112D01*
X172490227Y-118203101D01*
X172490223Y-118203094D01*
X172229763Y-117831118D01*
X171937860Y-117483243D01*
X171616756Y-117162139D01*
X171268881Y-116870236D01*
X170896905Y-116609776D01*
X170896894Y-116609769D01*
X170896888Y-116609765D01*
X170780043Y-116542304D01*
X170503617Y-116382709D01*
X170503602Y-116382701D01*
X170092050Y-116190792D01*
X170092048Y-116190791D01*
X170092041Y-116190788D01*
X169665310Y-116035470D01*
X169665309Y-116035469D01*
X169665299Y-116035466D01*
X169226673Y-115917938D01*
X169226676Y-115917938D01*
X169226666Y-115917936D01*
X169163527Y-115906802D01*
X168779450Y-115839079D01*
X168327062Y-115799500D01*
X168327059Y-115799500D01*
X167872941Y-115799500D01*
X167872937Y-115799500D01*
X167420549Y-115839079D01*
X166973339Y-115917935D01*
X166973336Y-115917935D01*
X166973334Y-115917936D01*
X166973329Y-115917937D01*
X166973326Y-115917938D01*
X166534700Y-116035466D01*
X166321324Y-116113129D01*
X166107959Y-116190788D01*
X166107955Y-116190789D01*
X166107949Y-116190792D01*
X165696397Y-116382701D01*
X165696382Y-116382709D01*
X165303120Y-116609760D01*
X165303094Y-116609776D01*
X164931118Y-116870236D01*
X164583243Y-117162139D01*
X164262139Y-117483243D01*
X163970236Y-117831118D01*
X163709776Y-118203094D01*
X163709760Y-118203120D01*
X163482709Y-118596382D01*
X163482701Y-118596397D01*
X163290792Y-119007949D01*
X163135466Y-119434700D01*
X163017938Y-119873326D01*
X163017935Y-119873339D01*
X162939079Y-120320549D01*
X162899500Y-120772937D01*
X158300500Y-120772937D01*
X158260921Y-120320552D01*
X158182064Y-119873334D01*
X158064530Y-119434690D01*
X157909212Y-119007959D01*
X157717294Y-118596389D01*
X157490235Y-118203112D01*
X157490227Y-118203101D01*
X157490223Y-118203094D01*
X157229763Y-117831118D01*
X156937860Y-117483243D01*
X156616756Y-117162139D01*
X156268881Y-116870236D01*
X155896905Y-116609776D01*
X155896894Y-116609769D01*
X155896888Y-116609765D01*
X155780043Y-116542304D01*
X155503617Y-116382709D01*
X155503602Y-116382701D01*
X155092050Y-116190792D01*
X155092048Y-116190791D01*
X155092041Y-116190788D01*
X154665310Y-116035470D01*
X154665309Y-116035469D01*
X154665299Y-116035466D01*
X154226673Y-115917938D01*
X154226676Y-115917938D01*
X154226666Y-115917936D01*
X154163527Y-115906802D01*
X153779450Y-115839079D01*
X153327062Y-115799500D01*
X153327059Y-115799500D01*
X152872941Y-115799500D01*
X152872937Y-115799500D01*
X152420549Y-115839079D01*
X151973339Y-115917935D01*
X151973336Y-115917935D01*
X151973334Y-115917936D01*
X151973329Y-115917937D01*
X151973326Y-115917938D01*
X151534700Y-116035466D01*
X151321324Y-116113129D01*
X151107959Y-116190788D01*
X151107955Y-116190789D01*
X151107949Y-116190792D01*
X150696397Y-116382701D01*
X150696382Y-116382709D01*
X150303120Y-116609760D01*
X150303094Y-116609776D01*
X149931118Y-116870236D01*
X149583243Y-117162139D01*
X149262139Y-117483243D01*
X148970236Y-117831118D01*
X148709776Y-118203094D01*
X148709760Y-118203120D01*
X148482709Y-118596382D01*
X148482701Y-118596397D01*
X148290792Y-119007949D01*
X148135466Y-119434700D01*
X148017938Y-119873326D01*
X148017935Y-119873339D01*
X147939079Y-120320549D01*
X147899500Y-120772937D01*
X140700500Y-120772937D01*
X140700500Y-101722937D01*
X147899500Y-101722937D01*
X147899500Y-102177062D01*
X147939079Y-102629450D01*
X148017935Y-103076660D01*
X148017938Y-103076673D01*
X148135466Y-103515299D01*
X148135469Y-103515309D01*
X148135470Y-103515310D01*
X148290788Y-103942041D01*
X148290791Y-103942048D01*
X148290792Y-103942050D01*
X148482701Y-104353602D01*
X148482706Y-104353611D01*
X148709765Y-104746888D01*
X148709769Y-104746894D01*
X148709776Y-104746905D01*
X148970236Y-105118881D01*
X149032006Y-105192495D01*
X149262137Y-105466754D01*
X149583246Y-105787863D01*
X149727888Y-105909232D01*
X149931118Y-106079763D01*
X150303094Y-106340223D01*
X150303101Y-106340227D01*
X150303112Y-106340235D01*
X150627230Y-106527365D01*
X150696382Y-106567290D01*
X150696397Y-106567298D01*
X150843157Y-106635733D01*
X151107959Y-106759212D01*
X151534690Y-106914530D01*
X151534696Y-106914531D01*
X151534700Y-106914533D01*
X151654151Y-106946539D01*
X151973334Y-107032064D01*
X152420552Y-107110921D01*
X152872939Y-107150499D01*
X152872940Y-107150500D01*
X152872941Y-107150500D01*
X153327060Y-107150500D01*
X153327060Y-107150499D01*
X153779448Y-107110921D01*
X154226666Y-107032064D01*
X154665310Y-106914530D01*
X155092041Y-106759212D01*
X155503611Y-106567294D01*
X155896888Y-106340235D01*
X156268880Y-106079764D01*
X156616754Y-105787863D01*
X156937863Y-105466754D01*
X157229764Y-105118880D01*
X157490235Y-104746888D01*
X157717294Y-104353611D01*
X157909212Y-103942041D01*
X158064530Y-103515310D01*
X158182064Y-103076666D01*
X158260921Y-102629448D01*
X158300500Y-102177059D01*
X158300500Y-101722941D01*
X158300500Y-101722937D01*
X162899500Y-101722937D01*
X162899500Y-102177062D01*
X162939079Y-102629450D01*
X163017935Y-103076660D01*
X163017938Y-103076673D01*
X163135466Y-103515299D01*
X163135469Y-103515309D01*
X163135470Y-103515310D01*
X163290788Y-103942041D01*
X163290791Y-103942048D01*
X163290792Y-103942050D01*
X163482701Y-104353602D01*
X163482706Y-104353611D01*
X163709765Y-104746888D01*
X163709769Y-104746894D01*
X163709776Y-104746905D01*
X163970236Y-105118881D01*
X164032006Y-105192495D01*
X164262137Y-105466754D01*
X164583246Y-105787863D01*
X164727888Y-105909232D01*
X164931118Y-106079763D01*
X165303094Y-106340223D01*
X165303101Y-106340227D01*
X165303112Y-106340235D01*
X165627230Y-106527365D01*
X165696382Y-106567290D01*
X165696397Y-106567298D01*
X165843157Y-106635733D01*
X166107959Y-106759212D01*
X166534690Y-106914530D01*
X166534696Y-106914531D01*
X166534700Y-106914533D01*
X166654151Y-106946539D01*
X166973334Y-107032064D01*
X167420552Y-107110921D01*
X167872939Y-107150499D01*
X167872940Y-107150500D01*
X167872941Y-107150500D01*
X168327060Y-107150500D01*
X168327060Y-107150499D01*
X168779448Y-107110921D01*
X169226666Y-107032064D01*
X169665310Y-106914530D01*
X170092041Y-106759212D01*
X170503611Y-106567294D01*
X170896888Y-106340235D01*
X171268880Y-106079764D01*
X171616754Y-105787863D01*
X171937863Y-105466754D01*
X172229764Y-105118880D01*
X172490235Y-104746888D01*
X172717294Y-104353611D01*
X172909212Y-103942041D01*
X173064530Y-103515310D01*
X173182064Y-103076666D01*
X173260921Y-102629448D01*
X173300500Y-102177059D01*
X173300500Y-101722941D01*
X173260921Y-101270552D01*
X173182064Y-100823334D01*
X173064530Y-100384690D01*
X172909212Y-99957959D01*
X172717294Y-99546389D01*
X172490235Y-99153112D01*
X172490227Y-99153101D01*
X172490223Y-99153094D01*
X172229763Y-98781118D01*
X171937860Y-98433243D01*
X171616756Y-98112139D01*
X171268881Y-97820236D01*
X170896905Y-97559776D01*
X170896894Y-97559769D01*
X170896888Y-97559765D01*
X170780043Y-97492304D01*
X170503617Y-97332709D01*
X170503602Y-97332701D01*
X170092050Y-97140792D01*
X170092048Y-97140791D01*
X170092041Y-97140788D01*
X169665310Y-96985470D01*
X169665309Y-96985469D01*
X169665299Y-96985466D01*
X169226673Y-96867938D01*
X169226676Y-96867938D01*
X169226666Y-96867936D01*
X169163527Y-96856802D01*
X168779450Y-96789079D01*
X168327062Y-96749500D01*
X168327059Y-96749500D01*
X167872941Y-96749500D01*
X167872937Y-96749500D01*
X167420549Y-96789079D01*
X166973339Y-96867935D01*
X166973336Y-96867935D01*
X166973334Y-96867936D01*
X166973329Y-96867937D01*
X166973326Y-96867938D01*
X166534700Y-96985466D01*
X166321324Y-97063129D01*
X166107959Y-97140788D01*
X166107955Y-97140789D01*
X166107949Y-97140792D01*
X165696397Y-97332701D01*
X165696382Y-97332709D01*
X165303120Y-97559760D01*
X165303094Y-97559776D01*
X164931118Y-97820236D01*
X164583243Y-98112139D01*
X164262139Y-98433243D01*
X163970236Y-98781118D01*
X163709776Y-99153094D01*
X163709760Y-99153120D01*
X163482709Y-99546382D01*
X163482701Y-99546397D01*
X163290792Y-99957949D01*
X163135466Y-100384700D01*
X163017938Y-100823326D01*
X163017935Y-100823339D01*
X162939079Y-101270549D01*
X162899500Y-101722937D01*
X158300500Y-101722937D01*
X158260921Y-101270552D01*
X158182064Y-100823334D01*
X158064530Y-100384690D01*
X157909212Y-99957959D01*
X157717294Y-99546389D01*
X157490235Y-99153112D01*
X157490227Y-99153101D01*
X157490223Y-99153094D01*
X157229763Y-98781118D01*
X156937860Y-98433243D01*
X156616756Y-98112139D01*
X156268881Y-97820236D01*
X155896905Y-97559776D01*
X155896894Y-97559769D01*
X155896888Y-97559765D01*
X155780043Y-97492304D01*
X155503617Y-97332709D01*
X155503602Y-97332701D01*
X155092050Y-97140792D01*
X155092048Y-97140791D01*
X155092041Y-97140788D01*
X154665310Y-96985470D01*
X154665309Y-96985469D01*
X154665299Y-96985466D01*
X154226673Y-96867938D01*
X154226676Y-96867938D01*
X154226666Y-96867936D01*
X154163527Y-96856802D01*
X153779450Y-96789079D01*
X153327062Y-96749500D01*
X153327059Y-96749500D01*
X152872941Y-96749500D01*
X152872937Y-96749500D01*
X152420549Y-96789079D01*
X151973339Y-96867935D01*
X151973336Y-96867935D01*
X151973334Y-96867936D01*
X151973329Y-96867937D01*
X151973326Y-96867938D01*
X151534700Y-96985466D01*
X151321324Y-97063129D01*
X151107959Y-97140788D01*
X151107955Y-97140789D01*
X151107949Y-97140792D01*
X150696397Y-97332701D01*
X150696382Y-97332709D01*
X150303120Y-97559760D01*
X150303094Y-97559776D01*
X149931118Y-97820236D01*
X149583243Y-98112139D01*
X149262139Y-98433243D01*
X148970236Y-98781118D01*
X148709776Y-99153094D01*
X148709760Y-99153120D01*
X148482709Y-99546382D01*
X148482701Y-99546397D01*
X148290792Y-99957949D01*
X148135466Y-100384700D01*
X148017938Y-100823326D01*
X148017935Y-100823339D01*
X147939079Y-101270549D01*
X147899500Y-101722937D01*
X140700500Y-101722937D01*
X140700500Y-90885258D01*
X147549500Y-90885258D01*
X147549500Y-91114741D01*
X147574446Y-91304215D01*
X147579452Y-91342238D01*
X147579453Y-91342240D01*
X147638842Y-91563887D01*
X147726650Y-91775876D01*
X147726657Y-91775890D01*
X147841392Y-91974617D01*
X147981081Y-92156661D01*
X147981089Y-92156670D01*
X148143330Y-92318911D01*
X148143338Y-92318918D01*
X148325382Y-92458607D01*
X148325385Y-92458608D01*
X148325388Y-92458611D01*
X148524112Y-92573344D01*
X148524117Y-92573346D01*
X148524123Y-92573349D01*
X148615480Y-92611190D01*
X148736113Y-92661158D01*
X148957762Y-92720548D01*
X149185266Y-92750500D01*
X149185273Y-92750500D01*
X149414727Y-92750500D01*
X149414734Y-92750500D01*
X149642238Y-92720548D01*
X149863887Y-92661158D01*
X150075888Y-92573344D01*
X150274612Y-92458611D01*
X150456661Y-92318919D01*
X150456665Y-92318914D01*
X150456670Y-92318911D01*
X150618911Y-92156670D01*
X150618914Y-92156665D01*
X150618919Y-92156661D01*
X150758611Y-91974612D01*
X150873344Y-91775888D01*
X150961158Y-91563887D01*
X151020548Y-91342238D01*
X151050500Y-91114734D01*
X151050500Y-90885266D01*
X151020548Y-90657762D01*
X150961158Y-90436113D01*
X150911190Y-90315480D01*
X150873349Y-90224123D01*
X150873346Y-90224117D01*
X150873344Y-90224112D01*
X150758611Y-90025388D01*
X150758608Y-90025385D01*
X150758607Y-90025382D01*
X150657764Y-89893962D01*
X150618919Y-89843339D01*
X150618918Y-89843338D01*
X150618911Y-89843330D01*
X150456670Y-89681089D01*
X150456661Y-89681081D01*
X150274617Y-89541392D01*
X150075890Y-89426657D01*
X150075876Y-89426650D01*
X149863887Y-89338842D01*
X149642238Y-89279452D01*
X149604215Y-89274446D01*
X149414741Y-89249500D01*
X149414734Y-89249500D01*
X149185266Y-89249500D01*
X149185258Y-89249500D01*
X148968715Y-89278009D01*
X148957762Y-89279452D01*
X148864076Y-89304554D01*
X148736112Y-89338842D01*
X148524123Y-89426650D01*
X148524109Y-89426657D01*
X148325382Y-89541392D01*
X148143338Y-89681081D01*
X147981081Y-89843338D01*
X147841392Y-90025382D01*
X147726657Y-90224109D01*
X147726650Y-90224123D01*
X147638842Y-90436112D01*
X147579453Y-90657759D01*
X147579451Y-90657770D01*
X147549500Y-90885258D01*
X140700500Y-90885258D01*
X140700500Y-74460116D01*
X145099500Y-74460116D01*
X145099500Y-74460118D01*
X145099500Y-86839882D01*
X145130024Y-86913574D01*
X145186426Y-86969976D01*
X145260118Y-87000500D01*
X145260120Y-87000500D01*
X152839880Y-87000500D01*
X152839882Y-87000500D01*
X152913574Y-86969976D01*
X152969976Y-86913574D01*
X153000500Y-86839882D01*
X153000500Y-74460118D01*
X152969976Y-74386426D01*
X152913574Y-74330024D01*
X152839883Y-74299500D01*
X152839882Y-74299500D01*
X145339882Y-74299500D01*
X145260118Y-74299500D01*
X145260116Y-74299500D01*
X145186425Y-74330024D01*
X145130024Y-74386425D01*
X145099500Y-74460116D01*
X140700500Y-74460116D01*
X140700500Y-70885258D01*
X146249500Y-70885258D01*
X146249500Y-71114741D01*
X146274446Y-71304215D01*
X146279452Y-71342238D01*
X146279453Y-71342240D01*
X146338842Y-71563887D01*
X146426650Y-71775876D01*
X146426657Y-71775890D01*
X146541392Y-71974617D01*
X146681081Y-72156661D01*
X146681089Y-72156670D01*
X146843330Y-72318911D01*
X146843338Y-72318918D01*
X147025382Y-72458607D01*
X147025385Y-72458608D01*
X147025388Y-72458611D01*
X147224112Y-72573344D01*
X147224117Y-72573346D01*
X147224123Y-72573349D01*
X147315480Y-72611190D01*
X147436113Y-72661158D01*
X147657762Y-72720548D01*
X147885266Y-72750500D01*
X147885273Y-72750500D01*
X148114727Y-72750500D01*
X148114734Y-72750500D01*
X148342238Y-72720548D01*
X148563887Y-72661158D01*
X148775888Y-72573344D01*
X148974612Y-72458611D01*
X149156661Y-72318919D01*
X149156665Y-72318914D01*
X149156670Y-72318911D01*
X149318911Y-72156670D01*
X149318914Y-72156665D01*
X149318919Y-72156661D01*
X149458611Y-71974612D01*
X149573344Y-71775888D01*
X149661158Y-71563887D01*
X149720548Y-71342238D01*
X149750500Y-71114734D01*
X149750500Y-70885266D01*
X149750499Y-70885258D01*
X151329500Y-70885258D01*
X151329500Y-71114741D01*
X151354446Y-71304215D01*
X151359452Y-71342238D01*
X151359453Y-71342240D01*
X151418842Y-71563887D01*
X151506650Y-71775876D01*
X151506657Y-71775890D01*
X151621392Y-71974617D01*
X151761081Y-72156661D01*
X151761089Y-72156670D01*
X151923330Y-72318911D01*
X151923338Y-72318918D01*
X152105382Y-72458607D01*
X152105385Y-72458608D01*
X152105388Y-72458611D01*
X152304112Y-72573344D01*
X152304117Y-72573346D01*
X152304123Y-72573349D01*
X152395480Y-72611190D01*
X152516113Y-72661158D01*
X152737762Y-72720548D01*
X152965266Y-72750500D01*
X152965273Y-72750500D01*
X153194727Y-72750500D01*
X153194734Y-72750500D01*
X153422238Y-72720548D01*
X153643887Y-72661158D01*
X153855888Y-72573344D01*
X154054612Y-72458611D01*
X154236661Y-72318919D01*
X154236665Y-72318914D01*
X154236670Y-72318911D01*
X154398911Y-72156670D01*
X154398914Y-72156665D01*
X154398919Y-72156661D01*
X154538611Y-71974612D01*
X154653344Y-71775888D01*
X154741158Y-71563887D01*
X154800548Y-71342238D01*
X154830500Y-71114734D01*
X154830500Y-70885266D01*
X154830499Y-70885258D01*
X156409500Y-70885258D01*
X156409500Y-71114741D01*
X156434446Y-71304215D01*
X156439452Y-71342238D01*
X156439453Y-71342240D01*
X156498842Y-71563887D01*
X156586650Y-71775876D01*
X156586657Y-71775890D01*
X156701392Y-71974617D01*
X156841081Y-72156661D01*
X156841089Y-72156670D01*
X157003330Y-72318911D01*
X157003338Y-72318918D01*
X157185382Y-72458607D01*
X157185385Y-72458608D01*
X157185388Y-72458611D01*
X157384112Y-72573344D01*
X157384117Y-72573346D01*
X157384123Y-72573349D01*
X157475480Y-72611190D01*
X157596113Y-72661158D01*
X157817762Y-72720548D01*
X158045266Y-72750500D01*
X158045273Y-72750500D01*
X158274727Y-72750500D01*
X158274734Y-72750500D01*
X158502238Y-72720548D01*
X158723887Y-72661158D01*
X158935888Y-72573344D01*
X159134612Y-72458611D01*
X159316661Y-72318919D01*
X159316665Y-72318914D01*
X159316670Y-72318911D01*
X159478911Y-72156670D01*
X159478914Y-72156665D01*
X159478919Y-72156661D01*
X159618611Y-71974612D01*
X159733344Y-71775888D01*
X159821158Y-71563887D01*
X159880548Y-71342238D01*
X159910500Y-71114734D01*
X159910500Y-70885266D01*
X159880548Y-70657762D01*
X159821158Y-70436113D01*
X159771190Y-70315480D01*
X159733349Y-70224123D01*
X159733346Y-70224117D01*
X159733344Y-70224112D01*
X159618611Y-70025388D01*
X159618608Y-70025385D01*
X159618607Y-70025382D01*
X159517764Y-69893962D01*
X159478919Y-69843339D01*
X159478918Y-69843338D01*
X159478911Y-69843330D01*
X159316670Y-69681089D01*
X159316661Y-69681081D01*
X159134617Y-69541392D01*
X158935890Y-69426657D01*
X158935876Y-69426650D01*
X158723887Y-69338842D01*
X158502238Y-69279452D01*
X158464215Y-69274446D01*
X158274741Y-69249500D01*
X158274734Y-69249500D01*
X158045266Y-69249500D01*
X158045258Y-69249500D01*
X157828715Y-69278009D01*
X157817762Y-69279452D01*
X157724076Y-69304554D01*
X157596112Y-69338842D01*
X157384123Y-69426650D01*
X157384109Y-69426657D01*
X157185382Y-69541392D01*
X157003338Y-69681081D01*
X156841081Y-69843338D01*
X156701392Y-70025382D01*
X156586657Y-70224109D01*
X156586650Y-70224123D01*
X156498842Y-70436112D01*
X156439453Y-70657759D01*
X156439451Y-70657770D01*
X156409500Y-70885258D01*
X154830499Y-70885258D01*
X154800548Y-70657762D01*
X154741158Y-70436113D01*
X154691190Y-70315480D01*
X154653349Y-70224123D01*
X154653346Y-70224117D01*
X154653344Y-70224112D01*
X154538611Y-70025388D01*
X154538608Y-70025385D01*
X154538607Y-70025382D01*
X154437764Y-69893962D01*
X154398919Y-69843339D01*
X154398918Y-69843338D01*
X154398911Y-69843330D01*
X154236670Y-69681089D01*
X154236661Y-69681081D01*
X154054617Y-69541392D01*
X153855890Y-69426657D01*
X153855876Y-69426650D01*
X153643887Y-69338842D01*
X153422238Y-69279452D01*
X153384215Y-69274446D01*
X153194741Y-69249500D01*
X153194734Y-69249500D01*
X152965266Y-69249500D01*
X152965258Y-69249500D01*
X152748715Y-69278009D01*
X152737762Y-69279452D01*
X152644076Y-69304554D01*
X152516112Y-69338842D01*
X152304123Y-69426650D01*
X152304109Y-69426657D01*
X152105382Y-69541392D01*
X151923338Y-69681081D01*
X151761081Y-69843338D01*
X151621392Y-70025382D01*
X151506657Y-70224109D01*
X151506650Y-70224123D01*
X151418842Y-70436112D01*
X151359453Y-70657759D01*
X151359451Y-70657770D01*
X151329500Y-70885258D01*
X149750499Y-70885258D01*
X149720548Y-70657762D01*
X149661158Y-70436113D01*
X149611190Y-70315480D01*
X149573349Y-70224123D01*
X149573346Y-70224117D01*
X149573344Y-70224112D01*
X149458611Y-70025388D01*
X149458608Y-70025385D01*
X149458607Y-70025382D01*
X149357764Y-69893962D01*
X149318919Y-69843339D01*
X149318918Y-69843338D01*
X149318911Y-69843330D01*
X149156670Y-69681089D01*
X149156661Y-69681081D01*
X148974617Y-69541392D01*
X148775890Y-69426657D01*
X148775876Y-69426650D01*
X148563887Y-69338842D01*
X148342238Y-69279452D01*
X148304215Y-69274446D01*
X148114741Y-69249500D01*
X148114734Y-69249500D01*
X147885266Y-69249500D01*
X147885258Y-69249500D01*
X147668715Y-69278009D01*
X147657762Y-69279452D01*
X147564076Y-69304554D01*
X147436112Y-69338842D01*
X147224123Y-69426650D01*
X147224109Y-69426657D01*
X147025382Y-69541392D01*
X146843338Y-69681081D01*
X146681081Y-69843338D01*
X146541392Y-70025382D01*
X146426657Y-70224109D01*
X146426650Y-70224123D01*
X146338842Y-70436112D01*
X146279453Y-70657759D01*
X146279451Y-70657770D01*
X146249500Y-70885258D01*
X140700500Y-70885258D01*
X140700500Y-63885258D01*
X146249500Y-63885258D01*
X146249500Y-64114741D01*
X146274446Y-64304215D01*
X146279452Y-64342238D01*
X146279453Y-64342240D01*
X146338842Y-64563887D01*
X146426650Y-64775876D01*
X146426657Y-64775890D01*
X146541392Y-64974617D01*
X146681081Y-65156661D01*
X146681089Y-65156670D01*
X146843330Y-65318911D01*
X146843338Y-65318918D01*
X147025382Y-65458607D01*
X147025385Y-65458608D01*
X147025388Y-65458611D01*
X147224112Y-65573344D01*
X147224117Y-65573346D01*
X147224123Y-65573349D01*
X147315480Y-65611190D01*
X147436113Y-65661158D01*
X147657762Y-65720548D01*
X147885266Y-65750500D01*
X147885273Y-65750500D01*
X148114727Y-65750500D01*
X148114734Y-65750500D01*
X148342238Y-65720548D01*
X148563887Y-65661158D01*
X148775888Y-65573344D01*
X148974612Y-65458611D01*
X149156661Y-65318919D01*
X149156665Y-65318914D01*
X149156670Y-65318911D01*
X149318911Y-65156670D01*
X149318914Y-65156665D01*
X149318919Y-65156661D01*
X149458611Y-64974612D01*
X149573344Y-64775888D01*
X149661158Y-64563887D01*
X149720548Y-64342238D01*
X149750500Y-64114734D01*
X149750500Y-63885266D01*
X149750499Y-63885258D01*
X151329500Y-63885258D01*
X151329500Y-64114741D01*
X151354446Y-64304215D01*
X151359452Y-64342238D01*
X151359453Y-64342240D01*
X151418842Y-64563887D01*
X151506650Y-64775876D01*
X151506657Y-64775890D01*
X151621392Y-64974617D01*
X151761081Y-65156661D01*
X151761089Y-65156670D01*
X151923330Y-65318911D01*
X151923338Y-65318918D01*
X152105382Y-65458607D01*
X152105385Y-65458608D01*
X152105388Y-65458611D01*
X152304112Y-65573344D01*
X152304117Y-65573346D01*
X152304123Y-65573349D01*
X152395480Y-65611190D01*
X152516113Y-65661158D01*
X152737762Y-65720548D01*
X152965266Y-65750500D01*
X152965273Y-65750500D01*
X153194727Y-65750500D01*
X153194734Y-65750500D01*
X153422238Y-65720548D01*
X153643887Y-65661158D01*
X153855888Y-65573344D01*
X154054612Y-65458611D01*
X154236661Y-65318919D01*
X154236665Y-65318914D01*
X154236670Y-65318911D01*
X154398911Y-65156670D01*
X154398914Y-65156665D01*
X154398919Y-65156661D01*
X154538611Y-64974612D01*
X154653344Y-64775888D01*
X154741158Y-64563887D01*
X154800548Y-64342238D01*
X154830500Y-64114734D01*
X154830500Y-63885266D01*
X154800548Y-63657762D01*
X154741158Y-63436113D01*
X154691190Y-63315480D01*
X154653349Y-63224123D01*
X154653346Y-63224117D01*
X154653344Y-63224112D01*
X154538611Y-63025388D01*
X154538608Y-63025385D01*
X154538607Y-63025382D01*
X154437764Y-62893962D01*
X154398919Y-62843339D01*
X154398918Y-62843338D01*
X154398911Y-62843330D01*
X154236670Y-62681089D01*
X154236661Y-62681081D01*
X154054617Y-62541392D01*
X153855890Y-62426657D01*
X153855876Y-62426650D01*
X153643887Y-62338842D01*
X153422238Y-62279452D01*
X153384215Y-62274446D01*
X153194741Y-62249500D01*
X153194734Y-62249500D01*
X152965266Y-62249500D01*
X152965258Y-62249500D01*
X152748715Y-62278009D01*
X152737762Y-62279452D01*
X152644076Y-62304554D01*
X152516112Y-62338842D01*
X152304123Y-62426650D01*
X152304109Y-62426657D01*
X152105382Y-62541392D01*
X151923338Y-62681081D01*
X151761081Y-62843338D01*
X151621392Y-63025382D01*
X151506657Y-63224109D01*
X151506650Y-63224123D01*
X151418842Y-63436112D01*
X151359453Y-63657759D01*
X151359451Y-63657770D01*
X151329500Y-63885258D01*
X149750499Y-63885258D01*
X149720548Y-63657762D01*
X149661158Y-63436113D01*
X149611190Y-63315480D01*
X149573349Y-63224123D01*
X149573346Y-63224117D01*
X149573344Y-63224112D01*
X149458611Y-63025388D01*
X149458608Y-63025385D01*
X149458607Y-63025382D01*
X149357764Y-62893962D01*
X149318919Y-62843339D01*
X149318918Y-62843338D01*
X149318911Y-62843330D01*
X149156670Y-62681089D01*
X149156661Y-62681081D01*
X148974617Y-62541392D01*
X148775890Y-62426657D01*
X148775876Y-62426650D01*
X148563887Y-62338842D01*
X148342238Y-62279452D01*
X148304215Y-62274446D01*
X148114741Y-62249500D01*
X148114734Y-62249500D01*
X147885266Y-62249500D01*
X147885258Y-62249500D01*
X147668715Y-62278009D01*
X147657762Y-62279452D01*
X147564076Y-62304554D01*
X147436112Y-62338842D01*
X147224123Y-62426650D01*
X147224109Y-62426657D01*
X147025382Y-62541392D01*
X146843338Y-62681081D01*
X146681081Y-62843338D01*
X146541392Y-63025382D01*
X146426657Y-63224109D01*
X146426650Y-63224123D01*
X146338842Y-63436112D01*
X146279453Y-63657759D01*
X146279451Y-63657770D01*
X146249500Y-63885258D01*
X140700500Y-63885258D01*
X140700500Y-52881995D01*
X146199500Y-52881995D01*
X146199500Y-53118004D01*
X146199501Y-53118020D01*
X146230306Y-53352010D01*
X146291394Y-53579993D01*
X146381714Y-53798045D01*
X146381719Y-53798056D01*
X146452677Y-53920957D01*
X146499727Y-54002450D01*
X146499729Y-54002453D01*
X146499730Y-54002454D01*
X146643406Y-54189697D01*
X146643412Y-54189704D01*
X146810295Y-54356587D01*
X146810302Y-54356593D01*
X146860598Y-54395186D01*
X146997550Y-54500273D01*
X147128918Y-54576118D01*
X147201943Y-54618280D01*
X147201948Y-54618282D01*
X147201951Y-54618284D01*
X147420007Y-54708606D01*
X147647986Y-54769693D01*
X147881989Y-54800500D01*
X147881996Y-54800500D01*
X148118004Y-54800500D01*
X148118011Y-54800500D01*
X148352014Y-54769693D01*
X148579993Y-54708606D01*
X148798049Y-54618284D01*
X149002450Y-54500273D01*
X149189699Y-54356592D01*
X149356592Y-54189699D01*
X149500273Y-54002450D01*
X149618284Y-53798049D01*
X149708606Y-53579993D01*
X149769693Y-53352014D01*
X149800500Y-53118011D01*
X149800500Y-52881989D01*
X149769693Y-52647986D01*
X149708606Y-52420007D01*
X149618284Y-52201951D01*
X149618282Y-52201948D01*
X149618280Y-52201943D01*
X149554282Y-52091097D01*
X149500273Y-51997550D01*
X149356592Y-51810301D01*
X149356587Y-51810295D01*
X149189704Y-51643412D01*
X149189697Y-51643406D01*
X149002454Y-51499730D01*
X149002453Y-51499729D01*
X149002450Y-51499727D01*
X148920957Y-51452677D01*
X148798056Y-51381719D01*
X148798045Y-51381714D01*
X148579993Y-51291394D01*
X148352010Y-51230306D01*
X148118020Y-51199501D01*
X148118017Y-51199500D01*
X148118011Y-51199500D01*
X147881989Y-51199500D01*
X147881983Y-51199500D01*
X147881979Y-51199501D01*
X147647989Y-51230306D01*
X147420006Y-51291394D01*
X147201954Y-51381714D01*
X147201943Y-51381719D01*
X146997545Y-51499730D01*
X146810302Y-51643406D01*
X146810295Y-51643412D01*
X146643412Y-51810295D01*
X146643406Y-51810302D01*
X146499730Y-51997545D01*
X146381719Y-52201943D01*
X146381714Y-52201954D01*
X146291394Y-52420006D01*
X146230306Y-52647989D01*
X146199501Y-52881979D01*
X146199500Y-52881995D01*
X140700500Y-52881995D01*
X140700500Y-41655513D01*
X156799500Y-41655513D01*
X156799500Y-41844486D01*
X156829059Y-42031118D01*
X156887454Y-42210836D01*
X156967545Y-42368022D01*
X156973240Y-42379199D01*
X157084310Y-42532073D01*
X157217927Y-42665690D01*
X157370801Y-42776760D01*
X157450347Y-42817290D01*
X157539163Y-42862545D01*
X157539165Y-42862545D01*
X157539168Y-42862547D01*
X157635497Y-42893846D01*
X157718881Y-42920940D01*
X157905514Y-42950500D01*
X157905519Y-42950500D01*
X158094486Y-42950500D01*
X158281118Y-42920940D01*
X158460832Y-42862547D01*
X158629199Y-42776760D01*
X158782073Y-42665690D01*
X158915690Y-42532073D01*
X159026760Y-42379199D01*
X159112547Y-42210832D01*
X159170940Y-42031118D01*
X159178706Y-41982083D01*
X159200500Y-41844486D01*
X159200500Y-41655513D01*
X159170940Y-41468881D01*
X159112545Y-41289163D01*
X159026759Y-41120800D01*
X158915690Y-40967927D01*
X158782073Y-40834310D01*
X158629199Y-40723240D01*
X158460836Y-40637454D01*
X158281118Y-40579059D01*
X158094486Y-40549500D01*
X158094481Y-40549500D01*
X157905519Y-40549500D01*
X157905514Y-40549500D01*
X157718881Y-40579059D01*
X157539163Y-40637454D01*
X157370800Y-40723240D01*
X157283579Y-40786610D01*
X157217927Y-40834310D01*
X157217925Y-40834312D01*
X157217924Y-40834312D01*
X157084312Y-40967924D01*
X157084312Y-40967925D01*
X157084310Y-40967927D01*
X157036610Y-41033579D01*
X156973240Y-41120800D01*
X156887454Y-41289163D01*
X156829059Y-41468881D01*
X156799500Y-41655513D01*
X140700500Y-41655513D01*
X140700500Y-38824500D01*
X140720185Y-38757461D01*
X140772989Y-38711706D01*
X140824500Y-38700500D01*
X175175500Y-38700500D01*
X175242539Y-38720185D01*
G37*
%TD.AperFunction*%
M02*
