%TF.GenerationSoftware,KiCad,Pcbnew,9.0.6-9.0.6~ubuntu24.04.1*%
%TF.CreationDate,2025-11-12T09:43:01+01:00*%
%TF.ProjectId,EEZ DIB DCP405plus,45455a20-4449-4422-9044-435034303570,r4B2*%
%TF.SameCoordinates,Original*%
%TF.FileFunction,Copper,L3,Inr*%
%TF.FilePolarity,Positive*%
%FSLAX46Y46*%
G04 Gerber Fmt 4.6, Leading zero omitted, Abs format (unit mm)*
G04 Created by KiCad (PCBNEW 9.0.6-9.0.6~ubuntu24.04.1) date 2025-11-12 09:43:01*
%MOMM*%
%LPD*%
G01*
G04 APERTURE LIST*
G04 Aperture macros list*
%AMOutline5P*
0 Free polygon, 5 corners , with rotation*
0 The origin of the aperture is its center*
0 number of corners: always 5*
0 $1 to $10 corner X, Y*
0 $11 Rotation angle, in degrees counterclockwise*
0 create outline with 5 corners*
4,1,5,$1,$2,$3,$4,$5,$6,$7,$8,$9,$10,$1,$2,$11*%
%AMOutline6P*
0 Free polygon, 6 corners , with rotation*
0 The origin of the aperture is its center*
0 number of corners: always 6*
0 $1 to $12 corner X, Y*
0 $13 Rotation angle, in degrees counterclockwise*
0 create outline with 6 corners*
4,1,6,$1,$2,$3,$4,$5,$6,$7,$8,$9,$10,$11,$12,$1,$2,$13*%
%AMOutline7P*
0 Free polygon, 7 corners , with rotation*
0 The origin of the aperture is its center*
0 number of corners: always 7*
0 $1 to $14 corner X, Y*
0 $15 Rotation angle, in degrees counterclockwise*
0 create outline with 7 corners*
4,1,7,$1,$2,$3,$4,$5,$6,$7,$8,$9,$10,$11,$12,$13,$14,$1,$2,$15*%
%AMOutline8P*
0 Free polygon, 8 corners , with rotation*
0 The origin of the aperture is its center*
0 number of corners: always 8*
0 $1 to $16 corner X, Y*
0 $17 Rotation angle, in degrees counterclockwise*
0 create outline with 8 corners*
4,1,8,$1,$2,$3,$4,$5,$6,$7,$8,$9,$10,$11,$12,$13,$14,$15,$16,$1,$2,$17*%
G04 Aperture macros list end*
%ADD10C,0.101600*%
%TA.AperFunction,NonConductor*%
%ADD11C,0.101600*%
%TD*%
%TA.AperFunction,ComponentPad*%
%ADD12O,1.524000X3.048000*%
%TD*%
%TA.AperFunction,ComponentPad*%
%ADD13C,1.270000*%
%TD*%
%TA.AperFunction,ComponentPad*%
%ADD14O,3.500000X2.640000*%
%TD*%
%TA.AperFunction,ComponentPad*%
%ADD15O,4.500000X2.640000*%
%TD*%
%TA.AperFunction,ComponentPad*%
%ADD16R,1.500000X1.500000*%
%TD*%
%TA.AperFunction,ComponentPad*%
%ADD17Outline8P,-0.750000X0.310660X-0.310660X0.750000X0.310660X0.750000X0.750000X0.310660X0.750000X-0.310660X0.310660X-0.750000X-0.310660X-0.750000X-0.750000X-0.310660X180.000000*%
%TD*%
%TA.AperFunction,ComponentPad*%
%ADD18R,2.100000X2.100000*%
%TD*%
%TA.AperFunction,ComponentPad*%
%ADD19C,2.100000*%
%TD*%
%TA.AperFunction,ComponentPad*%
%ADD20Outline8P,-0.675000X0.279594X-0.279594X0.675000X0.279594X0.675000X0.675000X0.279594X0.675000X-0.279594X0.279594X-0.675000X-0.279594X-0.675000X-0.675000X-0.279594X180.000000*%
%TD*%
%TA.AperFunction,ComponentPad*%
%ADD21C,5.500000*%
%TD*%
%TA.AperFunction,ComponentPad*%
%ADD22R,2.640000X2.640000*%
%TD*%
%TA.AperFunction,ComponentPad*%
%ADD23C,2.640000*%
%TD*%
%TA.AperFunction,ComponentPad*%
%ADD24Outline8P,-0.750000X0.310660X-0.310660X0.750000X0.310660X0.750000X0.750000X0.310660X0.750000X-0.310660X0.310660X-0.750000X-0.310660X-0.750000X-0.750000X-0.310660X0.000000*%
%TD*%
%TA.AperFunction,ComponentPad*%
%ADD25R,1.358000X1.358000*%
%TD*%
%TA.AperFunction,ComponentPad*%
%ADD26C,1.358000*%
%TD*%
%TA.AperFunction,ComponentPad*%
%ADD27Outline8P,-1.270000X0.526051X-0.526051X1.270000X0.526051X1.270000X1.270000X0.526051X1.270000X-0.526051X0.526051X-1.270000X-0.526051X-1.270000X-1.270000X-0.526051X0.000000*%
%TD*%
%TA.AperFunction,ComponentPad*%
%ADD28C,2.540000*%
%TD*%
%TA.AperFunction,ComponentPad*%
%ADD29C,4.000000*%
%TD*%
%TA.AperFunction,ComponentPad*%
%ADD30C,6.000000*%
%TD*%
%TA.AperFunction,ViaPad*%
%ADD31C,0.600000*%
%TD*%
%TA.AperFunction,ViaPad*%
%ADD32C,0.806400*%
%TD*%
%TA.AperFunction,Conductor*%
%ADD33C,0.609600*%
%TD*%
%TA.AperFunction,Conductor*%
%ADD34C,0.203200*%
%TD*%
%TA.AperFunction,Conductor*%
%ADD35C,0.254000*%
%TD*%
%TA.AperFunction,Conductor*%
%ADD36C,0.200000*%
%TD*%
%TA.AperFunction,Conductor*%
%ADD37C,0.406400*%
%TD*%
%TA.AperFunction,Conductor*%
%ADD38C,0.812800*%
%TD*%
%TA.AperFunction,Conductor*%
%ADD39C,0.304800*%
%TD*%
%TA.AperFunction,Conductor*%
%ADD40C,1.270000*%
%TD*%
%TA.AperFunction,Conductor*%
%ADD41C,0.508000*%
%TD*%
%TA.AperFunction,Conductor*%
%ADD42C,1.676400*%
%TD*%
G04 APERTURE END LIST*
D10*
D11*
X67773550Y-56734360D02*
X68339607Y-56734360D01*
X68339607Y-56734360D02*
X68034807Y-57082703D01*
X68034807Y-57082703D02*
X68165436Y-57082703D01*
X68165436Y-57082703D02*
X68252522Y-57126246D01*
X68252522Y-57126246D02*
X68296064Y-57169789D01*
X68296064Y-57169789D02*
X68339607Y-57256875D01*
X68339607Y-57256875D02*
X68339607Y-57474589D01*
X68339607Y-57474589D02*
X68296064Y-57561675D01*
X68296064Y-57561675D02*
X68252522Y-57605218D01*
X68252522Y-57605218D02*
X68165436Y-57648760D01*
X68165436Y-57648760D02*
X67904179Y-57648760D01*
X67904179Y-57648760D02*
X67817093Y-57605218D01*
X67817093Y-57605218D02*
X67773550Y-57561675D01*
D12*
%TO.N,Net-(Q17-S)*%
%TO.C,R78*%
X134726100Y-60697500D03*
%TO.N,POST_OUT+*%
X129646100Y-60697500D03*
%TD*%
D13*
%TO.N,+VREF*%
%TO.C,TP2*%
X148818600Y-100152200D03*
%TD*%
%TO.N,PREG_OUT+*%
%TO.C,TP10*%
X193040000Y-60452000D03*
%TD*%
%TO.N,-9V*%
%TO.C,TP3*%
X199390000Y-99060000D03*
%TD*%
%TO.N,Net-(IC13-Vout)*%
%TO.C,TP5*%
X192278000Y-104140000D03*
%TD*%
D14*
%TO.N,Net-(Q14-G)*%
%TO.C,Q14*%
X164098000Y-60212900D03*
D15*
%TO.N,PREG_OUT+*%
X158648000Y-60212900D03*
D14*
%TO.N,POST_OUT+*%
X153198000Y-60212900D03*
%TD*%
D13*
%TO.N,GND*%
%TO.C,TP8*%
X213868000Y-115824000D03*
%TD*%
D16*
%TO.N,/Rsense protection\u002C power output\u002C Rprog/OUTC+*%
%TO.C,X5*%
X76140000Y-142540000D03*
D17*
X76140000Y-140000000D03*
X78680000Y-142540000D03*
X78680000Y-140000000D03*
X81220000Y-142540000D03*
%TO.N,Net-(F1-Pad2)*%
X81220000Y-140000000D03*
X83760000Y-142540000D03*
X83760000Y-140000000D03*
X86300000Y-142540000D03*
X86300000Y-140000000D03*
%TO.N,POST_OUT-*%
X88840000Y-142540000D03*
X88840000Y-140000000D03*
X91380000Y-142540000D03*
X91380000Y-140000000D03*
%TO.N,/Rsense protection\u002C power output\u002C Rprog/OUTC-*%
X93920000Y-142540000D03*
X93920000Y-140000000D03*
X96460000Y-142540000D03*
X96460000Y-140000000D03*
%TO.N,/Rsense protection\u002C power output\u002C Rprog/SENSE_IN-*%
X99000000Y-142540000D03*
%TO.N,/Rsense protection\u002C power output\u002C Rprog/SENSE_IN+*%
X99000000Y-140000000D03*
%TD*%
D18*
%TO.N,Net-(TP11-P$1)*%
%TO.C,X4*%
X64800000Y-87000000D03*
D19*
%TO.N,Net-(TP12-P$1)*%
X64800000Y-90500000D03*
%TO.N,PE*%
X64800000Y-94000000D03*
%TD*%
D13*
%TO.N,Net-(TP11-P$1)*%
%TO.C,TP11*%
X68580000Y-85090000D03*
%TD*%
%TO.N,+VNR*%
%TO.C,TP4*%
X192278000Y-115824000D03*
%TD*%
%TO.N,Net-(IC12-Vout)*%
%TO.C,TP6*%
X199390000Y-104140000D03*
%TD*%
D12*
%TO.N,Net-(Q17-G)*%
%TO.C,Q17*%
X147172100Y-60240300D03*
%TO.N,PREG_OUT-*%
X144632100Y-60240300D03*
%TO.N,Net-(Q17-S)*%
X142092100Y-60240300D03*
%TD*%
D20*
%TO.N,Net-(LED1-C)*%
%TO.C,LED1*%
X66445000Y-101000000D03*
%TO.N,Net-(LED1-AG)*%
X68350000Y-101000000D03*
%TO.N,Net-(LED1-AR)*%
X64540000Y-101000000D03*
%TD*%
D21*
%TO.N,*%
%TO.C,KK1*%
X69500000Y-63000000D03*
%TD*%
D22*
%TO.N,/Power pre-regulator/DC-*%
%TO.C,X3*%
X235781000Y-138176000D03*
D23*
%TO.N,unconnected-(X3-Pin_2-Pad2)*%
X231821000Y-138176000D03*
%TO.N,unconnected-(X3-Pin_3-Pad3)*%
X227861000Y-138176000D03*
%TO.N,/Power pre-regulator/DC+*%
X223901000Y-138176000D03*
%TD*%
D13*
%TO.N,+3V3*%
%TO.C,TP7*%
X198120000Y-87630000D03*
%TD*%
%TO.N,POST_OE*%
%TO.C,TP1*%
X177800000Y-73660000D03*
%TD*%
D24*
%TO.N,+VLED*%
%TO.C,LED3*%
X62930000Y-72730000D03*
%TO.N,Net-(LED3B-C)*%
X62930000Y-75270000D03*
%TO.N,+VLED*%
X65470000Y-72730000D03*
%TO.N,Net-(LED3A-C)*%
X65470000Y-75270000D03*
%TD*%
D25*
%TO.N,OE_TRIG*%
%TO.C,JP4*%
X185565800Y-75184000D03*
D26*
%TO.N,+3V3*%
X183565800Y-75184000D03*
%TD*%
D21*
%TO.N,*%
%TO.C,KK2*%
X69500000Y-147000000D03*
%TD*%
D27*
%TO.N,POST_OUT+*%
%TO.C,F1*%
X106362500Y-111360000D03*
%TO.N,Net-(F1-Pad2)*%
X106362500Y-133860000D03*
%TD*%
D13*
%TO.N,Net-(TP12-P$1)*%
%TO.C,TP12*%
X68580000Y-92710000D03*
%TD*%
D28*
%TO.N,/Power pre-regulator/DC+*%
%TO.C,L1*%
X223803200Y-120149000D03*
%TO.N,DC_OUT*%
X223803200Y-105149000D03*
%TO.N,/Power pre-regulator/DC-*%
X233803200Y-120149000D03*
%TO.N,PREG_OUT-*%
X233803200Y-105149000D03*
%TD*%
D29*
%TO.N,/Rsense protection\u002C power output\u002C Rprog/OUTC+*%
%TO.C,J1*%
X75900000Y-111950000D03*
X60600000Y-111950000D03*
%TO.N,/Rsense protection\u002C power output\u002C Rprog/SENSE_IN+*%
X83500000Y-111950000D03*
%TD*%
D24*
%TO.N,Net-(LED2B-A)*%
%TO.C,LED2*%
X62930000Y-79730000D03*
%TO.N,Net-(LED2B-C)*%
X62930000Y-82270000D03*
%TO.N,+VLED*%
X65470000Y-79730000D03*
%TO.N,Net-(LED2A-C)*%
X65470000Y-82270000D03*
%TD*%
D25*
%TO.N,DC_OUT*%
%TO.C,JP7*%
X204758800Y-75184000D03*
D26*
%TO.N,Net-(JP7-Pad2)*%
X202758800Y-75184000D03*
%TD*%
D13*
%TO.N,DC_OUT*%
%TO.C,TP9*%
X213868000Y-109220000D03*
%TD*%
D30*
%TO.N,unconnected-(KK3-Pad1)*%
%TO.C,KK3*%
X195604800Y-67047000D03*
%TO.N,unconnected-(KK3-Pad2)*%
X131604800Y-67047000D03*
%TD*%
D29*
%TO.N,/Rsense protection\u002C power output\u002C Rprog/OUTC-*%
%TO.C,J2*%
X75900000Y-131000000D03*
X60600000Y-131000000D03*
%TO.N,/Rsense protection\u002C power output\u002C Rprog/SENSE_IN-*%
X83500000Y-131000000D03*
%TD*%
D31*
%TO.N,PE*%
X123190000Y-142950000D03*
X228850200Y-123451000D03*
D32*
X72629500Y-122872500D03*
D31*
X114510000Y-142940000D03*
%TO.N,PWRGOOD*%
X212132600Y-130865000D03*
X150655986Y-110734477D03*
X150723600Y-106857800D03*
X193751200Y-82321400D03*
X181203600Y-106146600D03*
X185928000Y-108839000D03*
X188163200Y-108839000D03*
%TO.N,GND*%
X139344400Y-106578400D03*
D32*
X142539135Y-122038433D03*
X195697000Y-111932800D03*
X84292500Y-75989000D03*
X210164100Y-132960500D03*
X70612000Y-81026000D03*
D31*
X196342000Y-74777600D03*
X191900000Y-87254600D03*
D32*
X142862300Y-113593300D03*
D31*
X189230000Y-97510600D03*
D32*
X112470278Y-81257563D03*
X205028800Y-107238800D03*
X85982900Y-92903400D03*
X86445300Y-86423500D03*
X209362200Y-113331800D03*
X195697000Y-109583300D03*
X164579300Y-94691200D03*
X201845600Y-126039000D03*
D31*
X150583900Y-116001800D03*
D32*
X181254000Y-74246400D03*
X92928500Y-76624000D03*
X132402000Y-116793400D03*
X201083600Y-126039000D03*
D31*
X153225500Y-112877600D03*
D32*
X143108100Y-95419300D03*
D31*
X190210000Y-87260000D03*
D32*
X162356800Y-99923600D03*
X130478100Y-106277800D03*
X201803000Y-117983000D03*
D31*
X181254000Y-77738900D03*
D32*
X123048600Y-59681500D03*
D31*
X151955500Y-114515900D03*
D32*
X198110000Y-113139300D03*
X112609869Y-79612925D03*
D31*
X161074100Y-116840000D03*
D32*
X198110000Y-109583300D03*
D31*
X181510000Y-92190000D03*
D32*
X204177500Y-116600900D03*
D31*
X169976800Y-119634000D03*
X154863800Y-111150400D03*
X154863800Y-112826800D03*
D32*
X127812800Y-121202800D03*
D31*
X183860000Y-92160000D03*
D32*
X195697000Y-113075800D03*
D31*
X166268000Y-87073400D03*
D32*
X143078200Y-117627400D03*
X147153200Y-88154900D03*
D31*
X142000107Y-98672400D03*
D32*
X105791000Y-81335000D03*
D31*
X119214500Y-124601900D03*
D32*
X198120000Y-107061000D03*
X136140700Y-116448300D03*
X115301600Y-87202400D03*
X119278000Y-76913400D03*
X90083700Y-94581800D03*
X121524600Y-81627100D03*
D31*
X172300500Y-101551400D03*
X153225500Y-111163100D03*
D32*
X154703200Y-103966400D03*
X164977500Y-99953200D03*
X207284300Y-113331800D03*
X173056152Y-59323900D03*
X73304400Y-103555800D03*
D31*
X149017900Y-117462300D03*
X143916000Y-98693900D03*
D32*
X210926100Y-133722500D03*
X137552000Y-102010600D03*
X109458600Y-60000000D03*
D31*
X202907500Y-84531200D03*
D32*
X121080100Y-60126000D03*
X210164100Y-133722500D03*
X87467500Y-70591500D03*
D31*
X148209000Y-114147600D03*
D32*
X77747500Y-84214400D03*
X110285100Y-69143000D03*
X89471500Y-79629000D03*
X198110000Y-110726300D03*
D31*
X191171300Y-89350100D03*
D32*
X75847000Y-92880000D03*
D31*
X205384000Y-85166200D03*
D32*
X200321600Y-126039000D03*
X215493600Y-123901200D03*
X110271400Y-53459500D03*
X77851000Y-81026000D03*
X215493600Y-123088400D03*
X83248500Y-120904000D03*
X130541600Y-103090100D03*
X196265800Y-107289600D03*
X135466400Y-123503300D03*
X198110000Y-111932800D03*
X110348600Y-67238000D03*
X195697000Y-110726300D03*
X208749500Y-117934400D03*
X137101400Y-120829800D03*
X215493600Y-122288300D03*
D31*
X145973800Y-101828600D03*
D32*
X184198500Y-60547450D03*
D31*
X191055000Y-87250000D03*
D32*
X206933800Y-105232200D03*
D31*
X196138800Y-92735400D03*
D32*
X77815500Y-73385500D03*
D31*
X144179200Y-106578400D03*
D32*
X79886900Y-96205400D03*
D31*
X158623000Y-119659400D03*
D32*
X210926100Y-132960500D03*
%TO.N,POST_OUT+*%
X92798900Y-110439200D03*
X104423900Y-102489000D03*
X146219600Y-55236500D03*
D31*
X194360800Y-75412600D03*
X129755500Y-56593400D03*
D32*
X195152700Y-59872000D03*
X88074500Y-113919000D03*
X93624400Y-110439200D03*
X91973400Y-110439200D03*
D31*
X129057000Y-56593400D03*
D32*
X169316000Y-59265400D03*
X102988800Y-73143500D03*
X92583000Y-128143000D03*
D31*
X128358500Y-56593400D03*
D32*
%TO.N,I_MON*%
X108516000Y-82401800D03*
X147383500Y-95097600D03*
X128401500Y-82363700D03*
X116127100Y-71175000D03*
%TO.N,SENSE-*%
X99885500Y-130429000D03*
X123659500Y-95025600D03*
X105346500Y-91884500D03*
%TO.N,SENSE+*%
X124040500Y-88256500D03*
X103695500Y-92456000D03*
X94805500Y-131381500D03*
X124040500Y-90860000D03*
D31*
%TO.N,U_MON*%
X140022400Y-112979200D03*
X141757000Y-93115600D03*
X171792500Y-92978900D03*
D32*
%TO.N,I_SET*%
X91698500Y-94644600D03*
D31*
X132461000Y-107162600D03*
D32*
X85835400Y-76966900D03*
D31*
X169519600Y-101523800D03*
D32*
X84286000Y-72750500D03*
D31*
X142367000Y-104546400D03*
D32*
X117035000Y-96117800D03*
%TO.N,POST_OE*%
X159300600Y-73118100D03*
D31*
%TO.N,U_SET_OUT*%
X137820000Y-103646900D03*
X137617200Y-106654600D03*
D32*
%TO.N,GCOM*%
X116260300Y-89704300D03*
X109791500Y-64507500D03*
X83689100Y-80129200D03*
X138320200Y-92892000D03*
X116260300Y-81081000D03*
D31*
%TO.N,+VREF*%
X138582400Y-106248200D03*
D32*
X140088200Y-100326700D03*
X140081000Y-96037400D03*
X118063700Y-92218900D03*
%TO.N,CURR_HI*%
X106997500Y-63754000D03*
D31*
X107619800Y-102514400D03*
D32*
X107004700Y-79823320D03*
D31*
X157637201Y-110450855D03*
X103809800Y-80010000D03*
D32*
X106652900Y-53471200D03*
D31*
%TO.N,OE_TRIG*%
X183261000Y-107543600D03*
%TO.N,CV_ACTIVE*%
X170649500Y-87200400D03*
X149593300Y-111887000D03*
X152882600Y-88226900D03*
%TO.N,CC_ACTIVE*%
X169633500Y-87009900D03*
X149072600Y-110807500D03*
X152260300Y-87655400D03*
D32*
%TO.N,/Power pre-regulator/SW*%
X220347588Y-79939282D03*
X221173088Y-79939282D03*
X221173088Y-79113782D03*
X218696588Y-79113782D03*
X219522088Y-79939282D03*
X221998588Y-79113782D03*
X218696588Y-79939282D03*
X221998588Y-79939282D03*
X220347588Y-79113782D03*
X219522088Y-79113782D03*
%TO.N,AUX_USET_SW*%
X95072200Y-104597200D03*
D31*
X157543500Y-113599203D03*
%TO.N,RSENSE*%
X157581600Y-111201200D03*
D32*
X87147400Y-105460800D03*
D31*
%TO.N,RSENSE_ERR*%
X148124000Y-110101200D03*
D32*
X73661000Y-95402400D03*
%TO.N,U_SET*%
X117750165Y-95337600D03*
D31*
X138053901Y-113085701D03*
D32*
X128909500Y-103052000D03*
X91203200Y-93654000D03*
D31*
X142836500Y-103583400D03*
X169545000Y-100609400D03*
X139928598Y-104817300D03*
D32*
X131690800Y-104309300D03*
D31*
%TO.N,/Power pre-regulator/VCC*%
X210108800Y-70764400D03*
D32*
X205333600Y-90530600D03*
D31*
X215521588Y-74224282D03*
D32*
X211711588Y-76192782D03*
D31*
%TO.N,/Power pre-regulator/FB*%
X212900488Y-67490782D03*
X203796500Y-61165400D03*
%TO.N,/Power pre-regulator/AGND*%
X213995000Y-59359800D03*
X211912200Y-64897000D03*
%TO.N,+3V3*%
X182714500Y-89760000D03*
X176260000Y-88710000D03*
D32*
X110083600Y-80899000D03*
X182714500Y-97487400D03*
D31*
X183286400Y-80492600D03*
X202209000Y-82372200D03*
X178962100Y-78437400D03*
D32*
X95102100Y-97487400D03*
X109245000Y-97487400D03*
X134599100Y-103090100D03*
D31*
X160337500Y-119011700D03*
X182720000Y-87630000D03*
X149085300Y-119024400D03*
X152146000Y-116916200D03*
D32*
X134611800Y-106481000D03*
D31*
X182720000Y-87070000D03*
X169633500Y-89295900D03*
D32*
X71687175Y-94525789D03*
D31*
X144106500Y-100421400D03*
D32*
X134581500Y-97487400D03*
D31*
%TO.N,~{OVP_FAULT}*%
X153678421Y-88675300D03*
X133883400Y-117576600D03*
X150152100Y-112522000D03*
X181215900Y-87750000D03*
X134327900Y-111311600D03*
%TO.N,ISO_OE_SYNC*%
X185521600Y-76530200D03*
X183095900Y-112483900D03*
X153111200Y-117500400D03*
D32*
%TO.N,/Power pre-regulator/EN_ULVO*%
X219077588Y-70096782D03*
X201853800Y-73253600D03*
%TO.N,Net-(K1A-C2)*%
X91440000Y-125158500D03*
X77266800Y-102108000D03*
X70040500Y-83439000D03*
X85471000Y-124079000D03*
%TO.N,/Power pre-regulator/HO*%
X217871088Y-74351282D03*
X217490088Y-80447282D03*
%TO.N,/Power pre-regulator/LO*%
X223205088Y-85654282D03*
X214886588Y-75113282D03*
%TO.N,/Rsense protection\u002C power output\u002C Rprog/AUX_OUT*%
X118686000Y-94720800D03*
X90669800Y-92676100D03*
%TO.N,/Rsense protection\u002C power output\u002C Rprog/SENSE_IN+*%
X92519500Y-132588000D03*
%TO.N,/Rsense protection\u002C power output\u002C Rprog/SENSE_IN-*%
X97917000Y-133413500D03*
%TO.N,DC_OUT*%
X212854588Y-95369782D03*
D31*
X223936200Y-56741800D03*
D32*
X210965200Y-81209282D03*
X191012500Y-72076700D03*
X220411088Y-72192282D03*
X210965200Y-83685782D03*
X214061088Y-86606782D03*
X210965200Y-82860282D03*
X212854588Y-88765782D03*
X213934088Y-103053282D03*
X210965200Y-80383782D03*
X212854588Y-94544282D03*
X210965200Y-84511282D03*
D31*
X223936200Y-57961000D03*
X223936200Y-56132200D03*
D32*
X210965200Y-86162282D03*
X209252400Y-82860282D03*
D31*
X223936200Y-58570600D03*
D32*
X209252400Y-83685782D03*
D31*
X225958400Y-123444000D03*
D32*
X212854588Y-96195282D03*
X210965200Y-85336782D03*
X209252400Y-85336782D03*
D31*
X223936200Y-57351400D03*
X224545800Y-56132200D03*
D32*
X209252400Y-84511282D03*
X212854588Y-90416782D03*
X208068600Y-139247000D03*
X213045088Y-100894282D03*
X209252400Y-82034782D03*
X212854588Y-93718782D03*
X213934088Y-100894282D03*
X213045088Y-103053282D03*
D31*
X224545800Y-57351400D03*
X224545800Y-56741800D03*
D32*
X212854588Y-92893282D03*
X209252400Y-81209282D03*
X214061088Y-87368782D03*
X210965200Y-82034782D03*
X209252400Y-86162282D03*
X212854588Y-97020782D03*
X209252400Y-80383782D03*
X212854588Y-89591282D03*
D31*
X224545800Y-57961000D03*
X224545800Y-58570600D03*
D32*
X212854588Y-91242282D03*
X212854588Y-92067782D03*
X191012500Y-62081800D03*
%TO.N,+VNR*%
X199570500Y-108757800D03*
X201752200Y-114935000D03*
X201218800Y-104749600D03*
D31*
X201231500Y-95758000D03*
X195757800Y-90830400D03*
%TO.N,AUX_ISET_SW*%
X156654500Y-114185700D03*
D32*
X95852400Y-105257600D03*
%TO.N,I_SERVO*%
X116882600Y-75010400D03*
X112229500Y-74627400D03*
%TO.N,LOOP_CTRL*%
X151058300Y-88726400D03*
X164863200Y-76191500D03*
X156632546Y-89315956D03*
%TO.N,SENSE_PROT*%
X162183500Y-83027600D03*
X178332998Y-61165400D03*
X174096100Y-75632700D03*
X90376766Y-83352136D03*
D31*
%TO.N,CURR_LO*%
X157314900Y-109766100D03*
X108610574Y-102370800D03*
D32*
X108229000Y-61482902D03*
%TO.N,CV_LED_OUT*%
X80329726Y-98849067D03*
D31*
X157522063Y-112328025D03*
D32*
X78740000Y-85534500D03*
%TO.N,CC_LED_OUT*%
X81434022Y-98491651D03*
D31*
X157988000Y-108191300D03*
D32*
X78740000Y-82423000D03*
D31*
X158191200Y-112712500D03*
D32*
%TO.N,I_SET_OUT*%
X126136003Y-76889994D03*
D31*
X140191400Y-107721400D03*
D32*
X133604000Y-107569000D03*
D31*
%TO.N,POST_OUT-*%
X95072200Y-100304600D03*
X131025500Y-99709900D03*
X170649500Y-98947900D03*
X171792500Y-94502900D03*
X126111000Y-100482400D03*
D32*
X90805000Y-115722400D03*
%TO.N,-9V*%
X204190600Y-118033800D03*
D31*
X202971400Y-111302800D03*
D32*
X149851800Y-76216900D03*
X208408250Y-111397200D03*
%TO.N,V+*%
X110850100Y-84383000D03*
X84391500Y-86169500D03*
X162221600Y-96206700D03*
D31*
X144907000Y-119710200D03*
D32*
X77809000Y-71734500D03*
X194564000Y-101650800D03*
X166458900Y-104013000D03*
X112253450Y-71238500D03*
X166603100Y-96206700D03*
X119809950Y-84383000D03*
X145440000Y-96117800D03*
D31*
X195783200Y-86563200D03*
D32*
%TO.N,V-*%
X85341550Y-85643371D03*
X125023300Y-61580150D03*
X193065000Y-99455894D03*
X148855000Y-88015200D03*
X167847700Y-86910300D03*
X123486600Y-85907000D03*
X113402800Y-85907000D03*
X113409150Y-76178800D03*
%TO.N,PREG_OUT-*%
X218188588Y-94544282D03*
X143876450Y-50855000D03*
X229384588Y-66797379D03*
X222760588Y-73525782D03*
X229384588Y-65971879D03*
X213299088Y-73081282D03*
X145400450Y-50855000D03*
X220835588Y-87366186D03*
D31*
X172300500Y-82691900D03*
D32*
X228602588Y-64191282D03*
D31*
X212519488Y-78883182D03*
D32*
X213299088Y-71430282D03*
X218188588Y-90416782D03*
X216789000Y-123926600D03*
X224665588Y-85146282D03*
X218188588Y-95369782D03*
X220073588Y-88064686D03*
X221236588Y-73525782D03*
X228622588Y-66797379D03*
X224475088Y-94163282D03*
D31*
X172858352Y-95324094D03*
D32*
X225300588Y-96449282D03*
X221998588Y-73525782D03*
X224665588Y-83495282D03*
X216789000Y-123090400D03*
X224665588Y-88448282D03*
X221597588Y-88064686D03*
X218188588Y-88765782D03*
X218188588Y-97020782D03*
X219311588Y-88064686D03*
X229384588Y-64193879D03*
X216156588Y-71112782D03*
X224665588Y-84320782D03*
X224475088Y-96449282D03*
X144638450Y-50855000D03*
X218125088Y-86606782D03*
X224665588Y-80256782D03*
X224665588Y-89273782D03*
X143114450Y-50855000D03*
X220073588Y-87366186D03*
X208709488Y-74882682D03*
X227860588Y-66797379D03*
X219311588Y-87366186D03*
X218188588Y-89591282D03*
X218188588Y-91242282D03*
X218188588Y-92067782D03*
X218950588Y-71430282D03*
X224665588Y-82669782D03*
X146162450Y-50855000D03*
X218125088Y-87368782D03*
X220835588Y-88064686D03*
X222359588Y-87366186D03*
X224665588Y-81844282D03*
X218188588Y-92893282D03*
X227860588Y-65971879D03*
X216156588Y-71938282D03*
X221597588Y-87366186D03*
X216982088Y-71112782D03*
X208727088Y-72636782D03*
X224665588Y-85971782D03*
X224665588Y-87622782D03*
X223522588Y-73525782D03*
X227860588Y-64193879D03*
X224665588Y-86797282D03*
X225300588Y-94163282D03*
X218188588Y-96195282D03*
X224665588Y-81018782D03*
X215331088Y-71938282D03*
X216789000Y-122275600D03*
D31*
X231546400Y-123444000D03*
D32*
X222359588Y-88064686D03*
X216982088Y-71938282D03*
X124001100Y-53712500D03*
X218188588Y-93718782D03*
X215331088Y-71112782D03*
X228622588Y-65971879D03*
D31*
%TO.N,ISO_DA_SCLK*%
X152704800Y-103441500D03*
X183331300Y-102311200D03*
X167610700Y-103441500D03*
X164909500Y-119545100D03*
%TO.N,ISO_DA_MISO*%
X167589200Y-119608600D03*
X169976800Y-105537000D03*
%TO.N,ISO_DA_MOSI*%
X166217600Y-116776500D03*
X179781200Y-102870000D03*
X168376600Y-102831900D03*
X152274382Y-102722977D03*
%TO.N,DIB_3V3*%
X136240000Y-135300000D03*
X146320000Y-134050000D03*
X136173300Y-137525679D03*
X180238400Y-125755400D03*
X161747200Y-131860200D03*
X175514000Y-127406400D03*
X185902600Y-125095000D03*
X170777650Y-137036800D03*
X184226200Y-138455400D03*
X136313300Y-133822879D03*
X181190900Y-139979400D03*
X120200000Y-146200000D03*
X120200000Y-145500000D03*
X157160000Y-134690000D03*
X170193450Y-137036800D03*
X150305376Y-131547600D03*
%TO.N,~{ISO_DAC_CS}*%
X163626800Y-105625900D03*
X163614100Y-116810700D03*
D32*
%TO.N,Net-(IC11-PH)*%
X206354100Y-130611000D03*
X206354100Y-135119500D03*
D31*
%TO.N,Net-(C47-Pad1)*%
X213639400Y-126161800D03*
X201168000Y-120548400D03*
D32*
%TO.N,Net-(IC16A--IN)*%
X118413100Y-64634500D03*
X118413100Y-66603000D03*
%TO.N,Net-(IC17B-+IN)*%
X133272100Y-88002500D03*
X133272100Y-92892000D03*
%TO.N,Net-(LED2B-A)*%
X75311000Y-78168500D03*
D31*
%TO.N,/DIB isolators\u002C EEPROM\u002C ADC\u002C MCU/DA_CLK*%
X180213000Y-130530600D03*
X164896800Y-131419600D03*
%TO.N,/DIB isolators\u002C EEPROM\u002C ADC\u002C MCU/DA_MOSI*%
X178238967Y-130404600D03*
X166116000Y-131445000D03*
%TO.N,/DIB isolators\u002C EEPROM\u002C ADC\u002C MCU/DA_MISO*%
X167436800Y-131394200D03*
X179374800Y-130606800D03*
D32*
%TO.N,Net-(LED1-AR)*%
X77152500Y-99631500D03*
X110045500Y-125785000D03*
%TO.N,Net-(LED1-AG)*%
X76581000Y-101028500D03*
X108839000Y-122165500D03*
%TO.N,Net-(C70-Pad1)*%
X230063088Y-87622782D03*
X230063088Y-84320782D03*
X230063088Y-83495282D03*
D31*
X201121700Y-60045600D03*
D32*
X230634588Y-77843782D03*
X230063088Y-85971782D03*
X230063088Y-85146282D03*
X230063088Y-81844282D03*
X230063088Y-82669782D03*
X230063088Y-86797282D03*
X230634588Y-76256282D03*
X230634588Y-75430782D03*
X230063088Y-81018782D03*
X230063088Y-88448282D03*
X230063088Y-89273782D03*
X230634588Y-77081782D03*
%TO.N,Net-(IC22A-OUT)*%
X83255419Y-87890919D03*
X83270000Y-83418500D03*
%TO.N,Net-(IC21B--IN)*%
X81746000Y-77907700D03*
X84522400Y-82870400D03*
X83016000Y-72750500D03*
%TO.N,Net-(IC20A-O)*%
X91073000Y-73847900D03*
D31*
X130073000Y-101614900D03*
D32*
X92727200Y-99826200D03*
X77406500Y-76517500D03*
%TO.N,Net-(IC20B-O)*%
X92219200Y-98835600D03*
X132656000Y-105109400D03*
X89683500Y-74769800D03*
X77406500Y-78613000D03*
%TO.N,Net-(IC20B-I0)*%
X86254500Y-72052000D03*
X92840900Y-73154900D03*
D31*
%TO.N,/DIB isolators\u002C EEPROM\u002C ADC\u002C MCU/AC_FREQ*%
X138709304Y-139639304D03*
X133596796Y-139665993D03*
%TO.N,/DIB isolators\u002C EEPROM\u002C ADC\u002C MCU/NRST*%
X181229000Y-132588000D03*
X184404000Y-126873000D03*
X182270400Y-128727200D03*
%TO.N,/DIB isolators\u002C EEPROM\u002C ADC\u002C MCU/~{ISO_ADC_CS}*%
X162369500Y-117462300D03*
X171704000Y-116814600D03*
%TO.N,/DIB isolators\u002C EEPROM\u002C ADC\u002C MCU/DIB_OE_SYNC*%
X152031700Y-133388100D03*
X130788400Y-140080000D03*
%TO.N,/DIB isolators\u002C EEPROM\u002C ADC\u002C MCU/SWCLK*%
X190740683Y-125412051D03*
X176057924Y-136432663D03*
%TO.N,/DIB isolators\u002C EEPROM\u002C ADC\u002C MCU/SWO*%
X176859001Y-136482241D03*
X192125600Y-126669800D03*
%TO.N,/DIB isolators\u002C EEPROM\u002C ADC\u002C MCU/DIB_BOOT0*%
X166852600Y-139293600D03*
X166840000Y-141680000D03*
X178841400Y-136474200D03*
%TO.N,/DIB isolators\u002C EEPROM\u002C ADC\u002C MCU/DIB_UART_TX*%
X147960000Y-138240000D03*
X171636932Y-132001600D03*
%TO.N,/DIB isolators\u002C EEPROM\u002C ADC\u002C MCU/IOEXP_MISO*%
X168910000Y-132860000D03*
X156032200Y-131292600D03*
%TO.N,/DIB isolators\u002C EEPROM\u002C ADC\u002C MCU/~{IOEXP_IRQ}*%
X179628800Y-128101000D03*
X157327600Y-131292600D03*
%TO.N,/DIB isolators\u002C EEPROM\u002C ADC\u002C MCU/IOEXP_CLK*%
X164021553Y-137067238D03*
X158572200Y-133870700D03*
%TO.N,/DIB isolators\u002C EEPROM\u002C ADC\u002C MCU/IOEXP_MOSI*%
X155067000Y-131292600D03*
X181533800Y-129362200D03*
%TO.N,/DIB isolators\u002C EEPROM\u002C ADC\u002C MCU/SWDIO*%
X176122602Y-135381002D03*
X186950493Y-126549293D03*
%TO.N,/DAC\u002C OE\u002C Vref\u002C IOEXP\u002C Temp/~{SET_DP}*%
X155498800Y-87045800D03*
X158842800Y-111277400D03*
%TO.N,/DIB isolators\u002C EEPROM\u002C ADC\u002C MCU/~{DIB_ALERT}*%
X167608225Y-132436990D03*
%TO.N,/DAC\u002C OE\u002C Vref\u002C IOEXP\u002C Temp/OE_LED_GREEN*%
X113258600Y-121225700D03*
X147015200Y-107340400D03*
X146820800Y-116255800D03*
X154180692Y-107400957D03*
%TO.N,/DIB isolators\u002C EEPROM\u002C ADC\u002C MCU/ADC_IRQ*%
X168732200Y-131292600D03*
X177825400Y-131038600D03*
%TO.N,ISO_IOEXP_SCLK*%
X184746900Y-112649000D03*
X154292288Y-116307932D03*
X154406600Y-117602000D03*
%TO.N,ISO_IOEXP_MOSI*%
X154917850Y-115732452D03*
X155346400Y-117576600D03*
%TO.N,ISO_IOEXP_MISO*%
X150647400Y-114655600D03*
X156337000Y-116268500D03*
X183972200Y-112433100D03*
%TO.N,/DIB isolators\u002C EEPROM\u002C ADC\u002C MCU/~{DIB_RESET}*%
X123260000Y-141060000D03*
X172008800Y-128803400D03*
X150970000Y-132470000D03*
%TO.N,~{ISO_RESET}*%
X178358800Y-114693700D03*
X150939500Y-119507172D03*
X153691700Y-115722500D03*
%TO.N,/DIB isolators\u002C EEPROM\u002C ADC\u002C MCU/DIB_MOSI*%
X169530000Y-141090000D03*
X179630000Y-133460000D03*
X139197300Y-143670000D03*
%TO.N,/DIB isolators\u002C EEPROM\u002C ADC\u002C MCU/DIB_CSA*%
X179994765Y-131984357D03*
X142930000Y-137920000D03*
%TO.N,/DIB isolators\u002C EEPROM\u002C ADC\u002C MCU/DIB_SCL*%
X125200000Y-143940000D03*
X145371899Y-137059644D03*
X132913317Y-138510868D03*
%TO.N,/DIB isolators\u002C EEPROM\u002C ADC\u002C MCU/DIB_SDA*%
X132101600Y-139130751D03*
X146870000Y-137770000D03*
%TO.N,/DAC\u002C OE\u002C Vref\u002C IOEXP\u002C Temp/OE_LED_RED*%
X113322100Y-124819800D03*
X147472400Y-116967000D03*
X147675600Y-107823000D03*
X154943900Y-107827800D03*
%TO.N,/DIB isolators\u002C EEPROM\u002C ADC\u002C MCU/DIB_USB_D-*%
X172386098Y-134779641D03*
%TO.N,/DIB isolators\u002C EEPROM\u002C ADC\u002C MCU/DIB_USB_D+*%
X173139402Y-134846867D03*
%TO.N,/DIB isolators\u002C EEPROM\u002C ADC\u002C MCU/DIB_MISO*%
X143600000Y-137440000D03*
X181028722Y-130569785D03*
%TO.N,/DIB isolators\u002C EEPROM\u002C ADC\u002C MCU/DIB_IRQ*%
X178605264Y-132101740D03*
X142050000Y-137920000D03*
%TO.N,/DIB isolators\u002C EEPROM\u002C ADC\u002C MCU/DIB_SCLK*%
X168870000Y-140438400D03*
X138230000Y-143610000D03*
X177444400Y-133248400D03*
%TO.N,/DIB isolators\u002C EEPROM\u002C ADC\u002C MCU/~{DIB_FAULT}*%
X124330751Y-141190751D03*
X154956376Y-132162459D03*
%TO.N,/DAC\u002C OE\u002C Vref\u002C IOEXP\u002C Temp/TEMP_CS*%
X185623200Y-106680000D03*
X182940000Y-106670000D03*
%TO.N,DIB_GND*%
X132510000Y-133760000D03*
X175451586Y-135973636D03*
X143280000Y-146290000D03*
X175715700Y-130551992D03*
X170536350Y-138348800D03*
X182753000Y-138709400D03*
X185521600Y-135534400D03*
X160346112Y-133709556D03*
X116550000Y-144060000D03*
X118110000Y-133480000D03*
X147840000Y-134030000D03*
X122220000Y-146290000D03*
X177901600Y-125272800D03*
X169890376Y-131283800D03*
X185510000Y-131420000D03*
X137578400Y-146349998D03*
X193586100Y-126746000D03*
X149710000Y-134140000D03*
X118220000Y-146300000D03*
X175361600Y-125984000D03*
X163753800Y-139700000D03*
X176000000Y-140320000D03*
X129190000Y-146290000D03*
X140020000Y-138070000D03*
X193941700Y-138417300D03*
X181940200Y-124891800D03*
X171770000Y-137030000D03*
X180740587Y-136543494D03*
X126210000Y-146330000D03*
X148200000Y-146290000D03*
X134470000Y-139730000D03*
X159156400Y-130848950D03*
X186131200Y-138468100D03*
%TO.N,Net-(IC4-PB6)*%
X155121449Y-134402863D03*
X163320123Y-138370400D03*
%TO.N,Net-(IC4-PB10)*%
X162318700Y-133832600D03*
X177021400Y-130550198D03*
D32*
%TO.N,Net-(D18-PadC)*%
X134357800Y-76343900D03*
X149504000Y-62412000D03*
X143362100Y-62412000D03*
X134357800Y-75493000D03*
X134357800Y-74642100D03*
X134357800Y-78045700D03*
X143362100Y-72127500D03*
X134357800Y-77194800D03*
%TO.N,Net-(C84-Pad1)*%
X186397500Y-61863900D03*
X156722500Y-72787900D03*
%TO.N,Net-(C105-Pad2)*%
X82250700Y-94443381D03*
D31*
X112483500Y-96026900D03*
D32*
%TO.N,Net-(Q13-PadB)*%
X171094000Y-61612400D03*
X172427500Y-75325900D03*
D31*
%TO.N,DUTY_100*%
X185013600Y-73329800D03*
X183311800Y-105943400D03*
X213817200Y-57607200D03*
X200177400Y-72999600D03*
%TO.N,+VLED*%
X172847000Y-118719600D03*
D32*
X111125000Y-126746000D03*
X94183200Y-124155200D03*
X111125000Y-123063000D03*
D31*
%TO.N,Net-(IC14-IN)*%
X189760000Y-88970000D03*
X196418200Y-88595200D03*
%TD*%
D33*
%TO.N,PE*%
X69075300Y-98285300D02*
X71818500Y-101028500D01*
X207365600Y-142540000D02*
X123600000Y-142540000D01*
X71818500Y-101028500D02*
X71818500Y-142368500D01*
X225115400Y-124790200D02*
X207365600Y-142540000D01*
X71867500Y-122872500D02*
X72629500Y-122872500D01*
X109460000Y-142940000D02*
X114510000Y-142940000D01*
X228850200Y-123473200D02*
X227533200Y-124790200D01*
X75652400Y-146202400D02*
X106197600Y-146202400D01*
X123600000Y-142540000D02*
X123190000Y-142950000D01*
X227533200Y-124790200D02*
X225115400Y-124790200D01*
X71818500Y-142368500D02*
X75652400Y-146202400D01*
X106197600Y-146202400D02*
X109460000Y-142940000D01*
X69075300Y-98275300D02*
X69075300Y-98285300D01*
X64800000Y-94000000D02*
X69075300Y-98275300D01*
D34*
%TO.N,PWRGOOD*%
X197104000Y-118999000D02*
X197104000Y-108839000D01*
X188163200Y-108839000D02*
X197104000Y-108839000D01*
X181203600Y-106375200D02*
X181203600Y-106146600D01*
X208970000Y-130865000D02*
X197104000Y-118999000D01*
X185928000Y-108839000D02*
X183667400Y-108839000D01*
X197104000Y-85674200D02*
X193751200Y-82321400D01*
X183667400Y-108839000D02*
X181203600Y-106375200D01*
X197104000Y-108839000D02*
X197104000Y-85674200D01*
X212132600Y-130865000D02*
X208970000Y-130865000D01*
D35*
%TO.N,POST_OUT+*%
X188586800Y-58792500D02*
X194073200Y-58792500D01*
D36*
X88074500Y-123634500D02*
X88074500Y-114173000D01*
D35*
X191820800Y-63931800D02*
X191820800Y-70637400D01*
X191820800Y-70637400D02*
X194360800Y-73177400D01*
X155316900Y-58094000D02*
X153198000Y-60212900D01*
X169316000Y-58094000D02*
X187888300Y-58094000D01*
D36*
X92583000Y-128143000D02*
X88074500Y-123634500D01*
D35*
X187888300Y-58094000D02*
X188586800Y-58792500D01*
X194073200Y-58792500D02*
X195152700Y-59872000D01*
X169316000Y-58094000D02*
X169316000Y-58945400D01*
X195152700Y-60599900D02*
X191820800Y-63931800D01*
X194360800Y-73177400D02*
X194360800Y-75412600D01*
X169316000Y-58094000D02*
X155316900Y-58094000D01*
X195152700Y-59872000D02*
X195152700Y-60599900D01*
%TO.N,I_MON*%
X108808100Y-82693900D02*
X108516000Y-82401800D01*
X128071300Y-82693900D02*
X128401500Y-82363700D01*
X117822400Y-72870300D02*
X117822400Y-82693900D01*
X117822400Y-82693900D02*
X108808100Y-82693900D01*
X116127100Y-71175000D02*
X117822400Y-72870300D01*
X117822400Y-82693900D02*
X128071300Y-82693900D01*
%TO.N,SENSE-*%
X119989200Y-91355300D02*
X105875700Y-91355300D01*
X105875700Y-91355300D02*
X105346500Y-91884500D01*
X123659500Y-95025600D02*
X119989200Y-91355300D01*
%TO.N,SENSE+*%
X124027800Y-90847300D02*
X105219500Y-90847300D01*
X103695500Y-92456000D02*
X103695500Y-92371300D01*
X124040500Y-90860000D02*
X124027800Y-90847300D01*
X103695500Y-92371300D02*
X105219500Y-90847300D01*
%TO.N,U_MON*%
X170860400Y-93911000D02*
X171792500Y-92978900D01*
X141757000Y-93115600D02*
X142552400Y-93911000D01*
X142552400Y-93911000D02*
X170860400Y-93911000D01*
%TO.N,I_SET*%
X142367000Y-104546400D02*
X147150900Y-104546400D01*
X169354500Y-101358700D02*
X169519600Y-101523800D01*
X117035000Y-96117800D02*
X115218600Y-96117800D01*
X113745400Y-94644600D02*
X91698500Y-94644600D01*
D34*
X132461000Y-107162600D02*
X133985000Y-105638600D01*
D35*
X84286000Y-72750500D02*
X85835400Y-74299900D01*
X85835400Y-74299900D02*
X85835400Y-76966900D01*
D34*
X133985000Y-105638600D02*
X141274800Y-105638600D01*
D35*
X115218600Y-96117800D02*
X113745400Y-94644600D01*
X150338600Y-101358700D02*
X169354500Y-101358700D01*
D34*
X141274800Y-105638600D02*
X142367000Y-104546400D01*
D35*
X147150900Y-104546400D02*
X150338600Y-101358700D01*
%TO.N,POST_OE*%
X177243400Y-73103400D02*
X177800000Y-73660000D01*
X159300600Y-73118100D02*
X159315300Y-73103400D01*
X159315300Y-73103400D02*
X177243400Y-73103400D01*
D33*
%TO.N,GCOM*%
X114710900Y-79531600D02*
X114710900Y-78676500D01*
X114710900Y-78676500D02*
X114710900Y-69426900D01*
X114710900Y-78676500D02*
X85141800Y-78676500D01*
X85141800Y-78676500D02*
X83689100Y-80129200D01*
X114710900Y-69426900D02*
X109791500Y-64507500D01*
X116260300Y-89704300D02*
X135132500Y-89704300D01*
X116260300Y-81081000D02*
X114710900Y-79531600D01*
X135132500Y-89704300D02*
X138320200Y-92892000D01*
D37*
%TO.N,+VREF*%
X118063700Y-92218900D02*
X122125700Y-96280900D01*
X139837500Y-96280900D02*
X140081000Y-96037400D01*
X122125700Y-96280900D02*
X139837500Y-96280900D01*
D35*
%TO.N,CURR_HI*%
X106997500Y-53815800D02*
X106997500Y-63754000D01*
D34*
X157637201Y-110450855D02*
X157604046Y-110417700D01*
X124247792Y-103022400D02*
X108127800Y-103022400D01*
X103996480Y-79823320D02*
X103809800Y-80010000D01*
X130674992Y-109449600D02*
X124247792Y-103022400D01*
X157604046Y-110417700D02*
X157044998Y-110417700D01*
X156076898Y-109449600D02*
X130674992Y-109449600D01*
X108127800Y-103022400D02*
X107619800Y-102514400D01*
D35*
X106652900Y-53471200D02*
X106997500Y-53815800D01*
D34*
X107004700Y-79823320D02*
X103996480Y-79823320D01*
X157044998Y-110417700D02*
X156076898Y-109449600D01*
%TO.N,CV_ACTIVE*%
X170649500Y-87200400D02*
X169826200Y-88023700D01*
X169826200Y-88023700D02*
X153242716Y-88023700D01*
X153242716Y-88023700D02*
X153039516Y-88226900D01*
X153039516Y-88226900D02*
X152882600Y-88226900D01*
%TO.N,CC_ACTIVE*%
X169000700Y-87642700D02*
X152273000Y-87642700D01*
X152273000Y-87642700D02*
X152260300Y-87655400D01*
X169633500Y-87009900D02*
X169000700Y-87642700D01*
%TO.N,AUX_USET_SW*%
X148076894Y-111963200D02*
X131668494Y-111963200D01*
X131668494Y-111963200D02*
X124302494Y-104597200D01*
X157543500Y-113599203D02*
X149712897Y-113599203D01*
X124302494Y-104597200D02*
X95072200Y-104597200D01*
X149712897Y-113599203D02*
X148076894Y-111963200D01*
%TO.N,RSENSE*%
X130875804Y-110656200D02*
X148360300Y-110656200D01*
X124029404Y-103809800D02*
X130875804Y-110656200D01*
X148360300Y-110656200D02*
X149209300Y-109807200D01*
X155931604Y-109807200D02*
X156897704Y-110773300D01*
X88798400Y-103809800D02*
X124029404Y-103809800D01*
X149209300Y-109807200D02*
X155931604Y-109807200D01*
X156897704Y-110773300D02*
X157108006Y-110773300D01*
X157108006Y-110773300D02*
X157535906Y-111201200D01*
X87147400Y-105460800D02*
X88798400Y-103809800D01*
X157535906Y-111201200D02*
X157581600Y-111201200D01*
%TO.N,RSENSE_ERR*%
X82753200Y-103454200D02*
X74701400Y-95402400D01*
X124176698Y-103454200D02*
X82753200Y-103454200D01*
X74701400Y-95402400D02*
X73661000Y-95402400D01*
X148124000Y-110101200D02*
X130823698Y-110101200D01*
X130823698Y-110101200D02*
X124176698Y-103454200D01*
D35*
%TO.N,U_SET*%
X92308100Y-94136600D02*
X113856464Y-94136600D01*
X115050264Y-95330400D02*
X117742965Y-95330400D01*
X91203200Y-93654000D02*
X91825500Y-93654000D01*
X142836500Y-103583400D02*
X147390000Y-103583400D01*
X117742965Y-95330400D02*
X117750165Y-95337600D01*
X150110000Y-100863400D02*
X169291000Y-100863400D01*
X113856464Y-94136600D02*
X115050264Y-95330400D01*
X169291000Y-100863400D02*
X169545000Y-100609400D01*
X147390000Y-103583400D02*
X150110000Y-100863400D01*
X91825500Y-93654000D02*
X92308100Y-94136600D01*
%TO.N,/Power pre-regulator/VCC*%
X212600588Y-76192782D02*
X214569088Y-74224282D01*
D37*
X206273000Y-89204800D02*
X206273000Y-89591200D01*
X207830018Y-76192782D02*
X206273000Y-77749800D01*
X206273000Y-89591200D02*
X205333600Y-90530600D01*
D35*
X215521588Y-74224282D02*
X214569088Y-74224282D01*
X212600588Y-76192782D02*
X211203588Y-76192782D01*
D37*
X211203588Y-76192782D02*
X211711588Y-76192782D01*
X211203588Y-76192782D02*
X210108800Y-76192782D01*
X206273000Y-77749800D02*
X206273000Y-89204800D01*
D34*
X210108800Y-70764400D02*
X210108800Y-76192782D01*
D37*
X210108800Y-76192782D02*
X207830018Y-76192782D01*
D35*
%TO.N,/Power pre-regulator/FB*%
X203796500Y-64629900D02*
X203796500Y-61165400D01*
X206657382Y-67490782D02*
X203796500Y-64629900D01*
X212900488Y-67490782D02*
X206657382Y-67490782D01*
D34*
%TO.N,/Power pre-regulator/AGND*%
X211912200Y-64897000D02*
X211912200Y-61442600D01*
X211912200Y-61442600D02*
X213995000Y-59359800D01*
D35*
%TO.N,+3V3*%
X183648600Y-75184000D02*
X183648600Y-80130400D01*
D37*
X183286400Y-80492600D02*
X183692800Y-80086200D01*
D38*
X172186600Y-117754400D02*
X182067200Y-117754400D01*
D34*
X169633500Y-89295900D02*
X175674100Y-89295900D01*
D37*
X202184000Y-82372200D02*
X199898000Y-80086200D01*
X74891589Y-94525789D02*
X71687175Y-94525789D01*
D38*
X149558928Y-118550772D02*
X149085300Y-119024400D01*
X152146000Y-118550772D02*
X149558928Y-118550772D01*
X152146000Y-116916200D02*
X152146000Y-118550772D01*
D39*
X160337500Y-119011700D02*
X160337500Y-118550772D01*
D38*
X182067200Y-117754400D02*
X186902000Y-112919600D01*
D35*
X183648600Y-80130400D02*
X183286400Y-80492600D01*
D37*
X183692800Y-80086200D02*
X199898000Y-80086200D01*
D40*
X144932000Y-97487400D02*
X139555481Y-97487400D01*
D37*
X134611800Y-103102800D02*
X134599100Y-103090100D01*
D40*
X144932000Y-97487400D02*
X182714500Y-97487400D01*
D38*
X160337500Y-118550772D02*
X171390228Y-118550772D01*
D37*
X95102100Y-97487400D02*
X77853200Y-97487400D01*
D38*
X160337500Y-118550772D02*
X152704800Y-118550772D01*
D37*
X202209000Y-82372200D02*
X202184000Y-82372200D01*
D34*
X175674100Y-89295900D02*
X176260000Y-88710000D01*
D40*
X139555481Y-97487400D02*
X95102100Y-97487400D01*
D38*
X186902000Y-112919600D02*
X186902000Y-101674900D01*
X152704800Y-118550772D02*
X152146000Y-118550772D01*
D37*
X144932000Y-97487400D02*
X144932000Y-99595900D01*
D38*
X186902000Y-101674900D02*
X182714500Y-97487400D01*
D37*
X77853200Y-97487400D02*
X74891589Y-94525789D01*
D38*
X171390228Y-118550772D02*
X172186600Y-117754400D01*
D37*
X144932000Y-99595900D02*
X144106500Y-100421400D01*
D33*
X202206800Y-82370000D02*
X202209000Y-82372200D01*
D34*
%TO.N,~{OVP_FAULT}*%
X153678421Y-88509497D02*
X153678421Y-88675300D01*
X153694318Y-88493600D02*
X170307000Y-88493600D01*
X134327900Y-111311600D02*
X148096398Y-111311600D01*
X148096398Y-111311600D02*
X149306798Y-112522000D01*
X171050600Y-87750000D02*
X181215900Y-87750000D01*
X149306798Y-112522000D02*
X150152100Y-112522000D01*
X170307000Y-88493600D02*
X171050600Y-87750000D01*
%TO.N,ISO_OE_SYNC*%
X183095900Y-112737900D02*
X183095900Y-112483900D01*
X180352700Y-115481100D02*
X183095900Y-112737900D01*
X153111200Y-117500400D02*
X153670000Y-116941600D01*
X156210000Y-115481100D02*
X180352700Y-115481100D01*
X153670000Y-116941600D02*
X154660600Y-116941600D01*
X154660600Y-116941600D02*
X156121100Y-115481100D01*
X156121100Y-115481100D02*
X156210000Y-115481100D01*
D35*
%TO.N,/Power pre-regulator/EN_ULVO*%
X205010618Y-70096782D02*
X201853800Y-73253600D01*
X219077588Y-70096782D02*
X205010618Y-70096782D01*
%TO.N,Net-(K1A-C2)*%
X76479400Y-102108000D02*
X77266800Y-102108000D01*
X70040500Y-83439000D02*
X70040500Y-95669100D01*
X70040500Y-95669100D02*
X76479400Y-102108000D01*
D33*
%TO.N,/Power pre-regulator/HO*%
X217481588Y-80438782D02*
X217490088Y-80447282D01*
X217481588Y-74740782D02*
X217481588Y-80438782D01*
X217481588Y-74740782D02*
X217871088Y-74351282D01*
%TO.N,/Power pre-regulator/LO*%
X214886588Y-75135788D02*
X216474088Y-76723288D01*
X216918588Y-85654282D02*
X223205088Y-85654282D01*
X216474088Y-76723288D02*
X216474088Y-85209782D01*
X216474088Y-85209782D02*
X216918588Y-85654282D01*
X214886588Y-75113282D02*
X214886588Y-75135788D01*
D35*
%TO.N,/Rsense protection\u002C power output\u002C Rprog/AUX_OUT*%
X92536700Y-93628600D02*
X113923200Y-93628600D01*
X114852000Y-94557400D02*
X118522600Y-94557400D01*
X118522600Y-94557400D02*
X118686000Y-94720800D01*
X113923200Y-93628600D02*
X114852000Y-94557400D01*
X90822200Y-92828500D02*
X91736600Y-92828500D01*
X91736600Y-92828500D02*
X92536700Y-93628600D01*
X90669800Y-92676100D02*
X90822200Y-92828500D01*
D36*
%TO.N,/Rsense protection\u002C power output\u002C Rprog/SENSE_IN+*%
X86614000Y-115064000D02*
X86614000Y-126682500D01*
X98425000Y-132588000D02*
X99060000Y-133223000D01*
X98425000Y-132588000D02*
X92519500Y-132588000D01*
X83500000Y-111950000D02*
X86614000Y-115064000D01*
X86614000Y-126682500D02*
X92519500Y-132588000D01*
X99060000Y-133223000D02*
X99060000Y-140000000D01*
%TO.N,/Rsense protection\u002C power output\u002C Rprog/SENSE_IN-*%
X83500000Y-131000000D02*
X85913500Y-133413500D01*
X85913500Y-133413500D02*
X97917000Y-133413500D01*
D40*
%TO.N,DC_OUT*%
X221744800Y-125570800D02*
X221744800Y-107207400D01*
X221744800Y-107207400D02*
X223803200Y-105149000D01*
X208068600Y-139247000D02*
X221744800Y-125570800D01*
D33*
%TO.N,+VNR*%
X199570500Y-108757800D02*
X199570500Y-106397900D01*
D38*
X199570500Y-108757800D02*
X199570500Y-112753300D01*
X199570500Y-112753300D02*
X201752200Y-114935000D01*
D33*
X199570500Y-106397900D02*
X201218800Y-104749600D01*
D34*
%TO.N,AUX_ISET_SW*%
X124180600Y-104978200D02*
X96131800Y-104978200D01*
X156425900Y-113957100D02*
X149567900Y-113957100D01*
X131521200Y-112318800D02*
X124180600Y-104978200D01*
X156654500Y-114185700D02*
X156425900Y-113957100D01*
X149567900Y-113957100D02*
X147929600Y-112318800D01*
X96131800Y-104978200D02*
X95852400Y-105257600D01*
X147929600Y-112318800D02*
X131521200Y-112318800D01*
D35*
%TO.N,LOOP_CTRL*%
X151058300Y-88726400D02*
X151647856Y-89315956D01*
X151647856Y-89315956D02*
X156632546Y-89315956D01*
%TO.N,SENSE_PROT*%
X162021900Y-83189200D02*
X90539702Y-83189200D01*
X90539702Y-83189200D02*
X90376766Y-83352136D01*
X162183500Y-83027600D02*
X162021900Y-83189200D01*
D34*
%TO.N,CURR_LO*%
X124388332Y-102660046D02*
X108899820Y-102660046D01*
X108899820Y-102660046D02*
X108610574Y-102370800D01*
X156642800Y-109094000D02*
X130822286Y-109094000D01*
X157314900Y-109766100D02*
X156642800Y-109094000D01*
X130822286Y-109094000D02*
X124388332Y-102660046D01*
%TO.N,CV_LED_OUT*%
X157214300Y-108738400D02*
X158191200Y-109715300D01*
X123704180Y-101473000D02*
X130969580Y-108738400D01*
X158191200Y-111658888D02*
X157522063Y-112328025D01*
X90043000Y-99314000D02*
X92202000Y-101473000D01*
D35*
X80329726Y-98849067D02*
X80329726Y-98871726D01*
D34*
X92202000Y-101473000D02*
X123704180Y-101473000D01*
X158191200Y-109715300D02*
X158191200Y-111658888D01*
X80329726Y-98871726D02*
X80772000Y-99314000D01*
X80772000Y-99314000D02*
X90043000Y-99314000D01*
X130969580Y-108738400D02*
X157214300Y-108738400D01*
%TO.N,CC_LED_OUT*%
X90297000Y-98869500D02*
X92544900Y-101117400D01*
X81494371Y-98552000D02*
X81811871Y-98869500D01*
X81811871Y-98869500D02*
X90297000Y-98869500D01*
X123851474Y-101117400D02*
X124431774Y-101697700D01*
X92544900Y-101117400D02*
X123851474Y-101117400D01*
X157797500Y-108381800D02*
X157988000Y-108191300D01*
D35*
X81494371Y-98552000D02*
X81434022Y-98491651D01*
D34*
X124433188Y-101697700D02*
X131117288Y-108381800D01*
X124431774Y-101697700D02*
X124433188Y-101697700D01*
X131117288Y-108381800D02*
X157149639Y-108381800D01*
X157149639Y-108381800D02*
X157797500Y-108381800D01*
%TO.N,I_SET_OUT*%
X140039000Y-107569000D02*
X140191400Y-107721400D01*
X133604000Y-107569000D02*
X140039000Y-107569000D01*
D35*
%TO.N,POST_OUT-*%
X145019100Y-101106900D02*
X147178100Y-98947900D01*
X131025500Y-99709900D02*
X132422500Y-101106900D01*
D34*
X126111000Y-100482400D02*
X125933200Y-100304600D01*
D35*
X132422500Y-101106900D02*
X145019100Y-101106900D01*
X147178100Y-98947900D02*
X170649500Y-98947900D01*
D34*
X125933200Y-100304600D02*
X95072200Y-100304600D01*
D33*
%TO.N,-9V*%
X208408250Y-111397200D02*
X208382850Y-111422600D01*
D41*
X195048800Y-81358400D02*
X202590000Y-88899600D01*
D33*
X208382850Y-111422600D02*
X208382850Y-114781350D01*
D41*
X202590000Y-88899600D02*
X202590000Y-99060000D01*
D34*
X199390000Y-99060000D02*
X202590000Y-99060000D01*
D41*
X154993300Y-81358400D02*
X195048800Y-81358400D01*
X202590000Y-99060000D02*
X202590000Y-110921400D01*
D33*
X208382850Y-114781350D02*
X205130400Y-118033800D01*
D41*
X202590000Y-110921400D02*
X202971400Y-111302800D01*
D33*
X205130400Y-118033800D02*
X204190600Y-118033800D01*
D41*
X149851800Y-76216900D02*
X154993300Y-81358400D01*
D38*
%TO.N,V+*%
X84391500Y-84383000D02*
X82376400Y-84383000D01*
X110850100Y-84383000D02*
X84391500Y-84383000D01*
X195783200Y-86563200D02*
X195063223Y-86563200D01*
X185878800Y-96206700D02*
X166603100Y-96206700D01*
X190385300Y-100713200D02*
X188175500Y-98503400D01*
D40*
X194564000Y-87062423D02*
X194564000Y-101650800D01*
D38*
X82376400Y-84383000D02*
X78973100Y-80979700D01*
X78973100Y-72898600D02*
X77809000Y-71734500D01*
D40*
X194564000Y-85904000D02*
X194564000Y-87062423D01*
D38*
X195063223Y-86563200D02*
X194564000Y-87062423D01*
D40*
X193043000Y-84383000D02*
X194564000Y-85904000D01*
X119809950Y-84383000D02*
X193043000Y-84383000D01*
D37*
X84391500Y-86169500D02*
X84391500Y-84383000D01*
D38*
X78973100Y-79756000D02*
X78973100Y-72898600D01*
D40*
X119809950Y-84383000D02*
X110850100Y-84383000D01*
D38*
X166603100Y-96206700D02*
X162221600Y-96206700D01*
X188175500Y-98503400D02*
X185878800Y-96206700D01*
X162221600Y-96206700D02*
X145528900Y-96206700D01*
X78973100Y-80979700D02*
X78973100Y-79756000D01*
X145528900Y-96206700D02*
X145440000Y-96117800D01*
X194045817Y-100713200D02*
X190385300Y-100713200D01*
D40*
%TO.N,V-*%
X167517500Y-85907000D02*
X192277000Y-85907000D01*
D33*
X85341550Y-85634650D02*
X85544600Y-85431600D01*
X85544600Y-85431600D02*
X87560600Y-85431600D01*
X113402800Y-85907000D02*
X110608500Y-85907000D01*
D40*
X192277000Y-85907000D02*
X193065000Y-86695000D01*
X148670700Y-85907000D02*
X167517500Y-85907000D01*
D37*
X148867700Y-86104000D02*
X148670700Y-85907000D01*
D40*
X193065000Y-86695000D02*
X193065000Y-99455894D01*
D37*
X148855000Y-88015200D02*
X148867700Y-86104000D01*
D40*
X123486600Y-85907000D02*
X113402800Y-85907000D01*
D33*
X110133100Y-85431600D02*
X87560600Y-85431600D01*
X85341550Y-85643371D02*
X85341550Y-85634650D01*
X110608500Y-85907000D02*
X110133100Y-85431600D01*
D37*
X167847700Y-86910300D02*
X167847700Y-86237200D01*
X167847700Y-86237200D02*
X167517500Y-85907000D01*
D40*
X123486600Y-85907000D02*
X148670700Y-85907000D01*
D35*
%TO.N,PREG_OUT-*%
X124001100Y-53712500D02*
X124398100Y-53712500D01*
X144638600Y-51229500D02*
X144632100Y-51312200D01*
X172237000Y-82628400D02*
X172300500Y-82691900D01*
X172237000Y-82564900D02*
X172237000Y-82628400D01*
X127342500Y-74256500D02*
X135333400Y-82247400D01*
X124398100Y-53712500D02*
X127342500Y-56656900D01*
X145400450Y-50855000D02*
X144638450Y-50855000D01*
X146162450Y-50855000D02*
X145400450Y-50855000D01*
X143876450Y-50855000D02*
X143114450Y-50855000D01*
X171919500Y-82247400D02*
X172237000Y-82564900D01*
D42*
X144632100Y-60240300D02*
X144632100Y-51312200D01*
D35*
X135333400Y-82247400D02*
X171919500Y-82247400D01*
X127342500Y-56656900D02*
X127342500Y-74256500D01*
X144638450Y-50855000D02*
X143876450Y-50855000D01*
X144638450Y-50855000D02*
X144638600Y-51229500D01*
D34*
%TO.N,ISO_DA_SCLK*%
X168211500Y-103543100D02*
X180022500Y-103543100D01*
X167845650Y-103206550D02*
X167610700Y-103441500D01*
X167291600Y-102623200D02*
X167982900Y-103314500D01*
X180022500Y-103543100D02*
X181254400Y-102311200D01*
X167982900Y-103314500D02*
X168211500Y-103543100D01*
X181254400Y-102311200D02*
X183331300Y-102311200D01*
X167874950Y-103206550D02*
X167845650Y-103206550D01*
X153523100Y-102623200D02*
X167291600Y-102623200D01*
X167982900Y-103314500D02*
X167874950Y-103206550D01*
X152704800Y-103441500D02*
X153523100Y-102623200D01*
%TO.N,ISO_DA_MOSI*%
X179463700Y-103187500D02*
X168389300Y-103187500D01*
X168211500Y-102997000D02*
X168198800Y-102997000D01*
X168389300Y-103187500D02*
X168198800Y-102997000D01*
X168198800Y-102997000D02*
X167469400Y-102267600D01*
X168376600Y-102831900D02*
X168211500Y-102997000D01*
X152951206Y-102692200D02*
X152305159Y-102692200D01*
X152305159Y-102692200D02*
X152274382Y-102722977D01*
X153375806Y-102267600D02*
X152951206Y-102692200D01*
D35*
X179768500Y-102882700D02*
X179781200Y-102870000D01*
D34*
X167469400Y-102267600D02*
X153375806Y-102267600D01*
X179768500Y-102882700D02*
X179463700Y-103187500D01*
D38*
%TO.N,Net-(IC11-PH)*%
X206354100Y-135119500D02*
X206354100Y-130611000D01*
D34*
%TO.N,Net-(C47-Pad1)*%
X201218800Y-120548400D02*
X201168000Y-120548400D01*
X206832200Y-126161800D02*
X201218800Y-120548400D01*
X213639400Y-126161800D02*
X206832200Y-126161800D01*
D35*
%TO.N,Net-(IC16A--IN)*%
X118413100Y-66603000D02*
X118413100Y-64634500D01*
D34*
%TO.N,/DIB isolators\u002C EEPROM\u002C ADC\u002C MCU/DA_MOSI*%
X177474393Y-129898598D02*
X175231602Y-129898598D01*
X174498000Y-130632200D02*
X166928800Y-130632200D01*
X166116000Y-131445000D02*
X166928800Y-130632200D01*
X177980395Y-130404600D02*
X177474393Y-129898598D01*
X175231602Y-129898598D02*
X174498000Y-130632200D01*
X178238967Y-130404600D02*
X177980395Y-130404600D01*
%TO.N,/DIB isolators\u002C EEPROM\u002C ADC\u002C MCU/DA_MISO*%
X167436800Y-131394200D02*
X167436800Y-131343400D01*
D35*
%TO.N,Net-(LED1-AR)*%
X79225836Y-100622100D02*
X99888736Y-121285000D01*
X78143100Y-100622100D02*
X79225836Y-100622100D01*
X109347000Y-121285000D02*
X110045500Y-121983500D01*
X110045500Y-121983500D02*
X110045500Y-125785000D01*
X99888736Y-121285000D02*
X109347000Y-121285000D01*
X77152500Y-99631500D02*
X78143100Y-100622100D01*
%TO.N,Net-(LED1-AG)*%
X76581000Y-101028500D02*
X78832288Y-101028500D01*
X99596788Y-121793000D02*
X108466500Y-121793000D01*
X78832288Y-101028500D02*
X99596788Y-121793000D01*
X108466500Y-121793000D02*
X108839000Y-122165500D01*
%TO.N,Net-(C70-Pad1)*%
X223682206Y-68275200D02*
X225973688Y-70566682D01*
X225973688Y-70566682D02*
X225973688Y-73913132D01*
X201121700Y-60045600D02*
X201121700Y-62793300D01*
X201121700Y-62793300D02*
X206603600Y-68275200D01*
X206603600Y-68275200D02*
X223682206Y-68275200D01*
%TO.N,Net-(IC21B--IN)*%
X81746000Y-74006800D02*
X81746000Y-77907700D01*
X83016000Y-72750500D02*
X83002300Y-72750500D01*
X81746000Y-80094000D02*
X81746000Y-77907700D01*
X83002300Y-72750500D02*
X81746000Y-74006800D01*
X84522400Y-82870400D02*
X81746000Y-80094000D01*
%TO.N,Net-(IC20A-O)*%
X127772100Y-99314000D02*
X130073000Y-101614900D01*
X92727200Y-99826200D02*
X93239400Y-99314000D01*
X93239400Y-99314000D02*
X127772100Y-99314000D01*
%TO.N,Net-(IC20B-O)*%
X132656000Y-105109400D02*
X132656000Y-102864400D01*
X128627200Y-98835600D02*
X92219200Y-98835600D01*
X132656000Y-102864400D02*
X128627200Y-98835600D01*
D34*
%TO.N,/DIB isolators\u002C EEPROM\u002C ADC\u002C MCU/~{ISO_ADC_CS}*%
X171056300Y-117462300D02*
X171704000Y-116814600D01*
X162369500Y-117462300D02*
X171056300Y-117462300D01*
%TO.N,/DIB isolators\u002C EEPROM\u002C ADC\u002C MCU/SWCLK*%
X176057924Y-136367182D02*
X176057924Y-136432663D01*
%TO.N,/DIB isolators\u002C EEPROM\u002C ADC\u002C MCU/SWO*%
X176859001Y-136312787D02*
X176859001Y-136482241D01*
%TO.N,/DIB isolators\u002C EEPROM\u002C ADC\u002C MCU/DIB_BOOT0*%
X167230000Y-138910000D02*
X166852600Y-139287400D01*
X178841400Y-136474200D02*
X176405600Y-138910000D01*
X176405600Y-138910000D02*
X167230000Y-138910000D01*
X166852600Y-139287400D02*
X166852600Y-139293600D01*
%TO.N,/DIB isolators\u002C EEPROM\u002C ADC\u002C MCU/IOEXP_MISO*%
X161897902Y-132511800D02*
X162863102Y-133477000D01*
X157251400Y-132511800D02*
X161897902Y-132511800D01*
X156032200Y-131292600D02*
X157251400Y-132511800D01*
X162863102Y-133477000D02*
X168293000Y-133477000D01*
X168293000Y-133477000D02*
X168910000Y-132860000D01*
%TO.N,/DIB isolators\u002C EEPROM\u002C ADC\u002C MCU/SWDIO*%
X186950493Y-126739507D02*
X186950493Y-126549293D01*
%TO.N,/DAC\u002C OE\u002C Vref\u002C IOEXP\u002C Temp/OE_LED_GREEN*%
X140106400Y-122072400D02*
X145923000Y-116255800D01*
X154180692Y-107400957D02*
X154047735Y-107268000D01*
X148060400Y-107268000D02*
X148410200Y-107617800D01*
X113258600Y-121225700D02*
X114105300Y-122072400D01*
X147265400Y-107268000D02*
X148060400Y-107268000D01*
X145923000Y-116255800D02*
X146820800Y-116255800D01*
X153963849Y-107617800D02*
X154180692Y-107400957D01*
X147193000Y-107340400D02*
X147265400Y-107268000D01*
X114105300Y-122072400D02*
X140106400Y-122072400D01*
X147015200Y-107340400D02*
X147193000Y-107340400D01*
X148410200Y-107617800D02*
X153963849Y-107617800D01*
%TO.N,ISO_IOEXP_SCLK*%
X184746900Y-112649000D02*
X181203600Y-116192300D01*
X154503094Y-117602000D02*
X154406600Y-117602000D01*
X157505400Y-116192300D02*
X156686250Y-117011450D01*
X155093644Y-117011450D02*
X154503094Y-117602000D01*
X156686250Y-117011450D02*
X155093644Y-117011450D01*
X181203600Y-116192300D02*
X157505400Y-116192300D01*
%TO.N,ISO_IOEXP_MISO*%
X156337000Y-116268500D02*
X156768800Y-115836700D01*
X156768800Y-115836700D02*
X180771800Y-115836700D01*
X180771800Y-115836700D02*
X183972200Y-112636300D01*
X183972200Y-112636300D02*
X183972200Y-112433100D01*
%TO.N,~{ISO_RESET}*%
X154292215Y-115121985D02*
X177930515Y-115121985D01*
X177930515Y-115121985D02*
X178358800Y-114693700D01*
X153691700Y-115722500D02*
X154292215Y-115121985D01*
%TO.N,/DIB isolators\u002C EEPROM\u002C ADC\u002C MCU/DIB_CSA*%
X142948400Y-137901600D02*
X142930000Y-137920000D01*
X142948400Y-137170098D02*
X142948400Y-137901600D01*
X173449694Y-135923200D02*
X144195298Y-135923200D01*
X178803470Y-132753340D02*
X178335362Y-132753340D01*
X179994765Y-131984357D02*
X179572453Y-131984357D01*
X178335362Y-132753340D02*
X177862379Y-132280357D01*
X144195298Y-135923200D02*
X142948400Y-137170098D01*
X177092537Y-132280357D02*
X173449694Y-135923200D01*
X177862379Y-132280357D02*
X177092537Y-132280357D01*
X179572453Y-131984357D02*
X178803470Y-132753340D01*
%TO.N,/DAC\u002C OE\u002C Vref\u002C IOEXP\u002C Temp/OE_LED_RED*%
X147878800Y-108026200D02*
X147675600Y-107823000D01*
X154745500Y-108026200D02*
X147878800Y-108026200D01*
X154943900Y-107827800D02*
X154745500Y-108026200D01*
X113322100Y-123329700D02*
X114173000Y-122478800D01*
X113322100Y-124819800D02*
X113322100Y-123329700D01*
X140385800Y-122478800D02*
X145897600Y-116967000D01*
X154746500Y-108025200D02*
X154943900Y-107827800D01*
X114173000Y-122478800D02*
X140385800Y-122478800D01*
X145897600Y-116967000D02*
X147472400Y-116967000D01*
%TO.N,/DIB isolators\u002C EEPROM\u002C ADC\u002C MCU/DIB_MISO*%
X178188068Y-133108940D02*
X177715085Y-132635957D01*
X143600000Y-137230000D02*
X143600000Y-137440000D01*
X179022460Y-133108940D02*
X178188068Y-133108940D01*
X177239831Y-132635957D02*
X173596988Y-136278800D01*
X177715085Y-132635957D02*
X177239831Y-132635957D01*
X181028722Y-131871902D02*
X180264667Y-132635957D01*
X181028722Y-130569785D02*
X181028722Y-131871902D01*
X180264667Y-132635957D02*
X179495443Y-132635957D01*
X179495443Y-132635957D02*
X179022460Y-133108940D01*
X173596988Y-136278800D02*
X144551200Y-136278800D01*
X144551200Y-136278800D02*
X143600000Y-137230000D01*
%TO.N,/DIB isolators\u002C EEPROM\u002C ADC\u002C MCU/DIB_IRQ*%
X173302400Y-135567600D02*
X144048004Y-135567600D01*
X142050000Y-137565604D02*
X142050000Y-137920000D01*
X178605264Y-132101740D02*
X178278724Y-131775200D01*
X144048004Y-135567600D02*
X142050000Y-137565604D01*
X177094800Y-131775200D02*
X173302400Y-135567600D01*
X178278724Y-131775200D02*
X177094800Y-131775200D01*
%TO.N,/DAC\u002C OE\u002C Vref\u002C IOEXP\u002C Temp/TEMP_CS*%
X183000000Y-106730000D02*
X182940000Y-106670000D01*
X185623200Y-106680000D02*
X185573200Y-106730000D01*
X185573200Y-106730000D02*
X183000000Y-106730000D01*
%TO.N,Net-(IC4-PB10)*%
X173357400Y-133832600D02*
X162318700Y-133832600D01*
X177207647Y-130564153D02*
X176625847Y-130564153D01*
X176625847Y-130564153D02*
X173357400Y-133832600D01*
D37*
%TO.N,Net-(D18-PadC)*%
X143362100Y-72127500D02*
X143362100Y-62412000D01*
X143362100Y-62412000D02*
X149504000Y-62412000D01*
D39*
%TO.N,Net-(C84-Pad1)*%
X183703100Y-64558300D02*
X186397500Y-61863900D01*
X164952100Y-64558300D02*
X183703100Y-64558300D01*
X156722500Y-72787900D02*
X164952100Y-64558300D01*
D35*
%TO.N,Net-(C105-Pad2)*%
X112483500Y-96026900D02*
X83834900Y-96026900D01*
X83834900Y-96026900D02*
X82251381Y-94443381D01*
X82251381Y-94443381D02*
X82250700Y-94443381D01*
D34*
%TO.N,DUTY_100*%
X202080600Y-57609000D02*
X213815400Y-57609000D01*
X202080600Y-57609000D02*
X200177400Y-59512200D01*
X200177400Y-59512200D02*
X200177400Y-72999600D01*
X213815400Y-57609000D02*
X213817200Y-57607200D01*
D37*
%TO.N,+VLED*%
X111125000Y-126746000D02*
X96774000Y-126746000D01*
D38*
X65471100Y-79733600D02*
X65493500Y-79756000D01*
D36*
X66802000Y-74064500D02*
X66802000Y-78402700D01*
D37*
X76377800Y-102920800D02*
X79654400Y-102920800D01*
X111125000Y-126746000D02*
X111125000Y-123063000D01*
X145999200Y-120624600D02*
X139877800Y-126746000D01*
D36*
X65471100Y-72733600D02*
X66802000Y-74064500D01*
D37*
X94183200Y-117449600D02*
X94183200Y-124155200D01*
X67157600Y-81420100D02*
X67157600Y-93700600D01*
X65471100Y-79733600D02*
X67157600Y-81420100D01*
D36*
X66802000Y-78402700D02*
X65471100Y-79733600D01*
D37*
X96774000Y-126746000D02*
X94183200Y-124155200D01*
X172847000Y-118719600D02*
X170942000Y-120624600D01*
X139877800Y-126746000D02*
X111125000Y-126746000D01*
D36*
X62931100Y-72733600D02*
X65471100Y-72733600D01*
D37*
X67157600Y-93700600D02*
X76377800Y-102920800D01*
X170942000Y-120624600D02*
X145999200Y-120624600D01*
X79654400Y-102920800D02*
X94183200Y-117449600D01*
%TD*%
%TA.AperFunction,Conductor*%
%TO.N,/Power pre-regulator/SW*%
G36*
X222864960Y-74542860D02*
G01*
X222883476Y-74545297D01*
X222971810Y-74556927D01*
X223003572Y-74565437D01*
X223095452Y-74603495D01*
X223123928Y-74619935D01*
X223209441Y-74685552D01*
X223221823Y-74696412D01*
X223431457Y-74906046D01*
X223442318Y-74918429D01*
X223507932Y-75003939D01*
X223524376Y-75032420D01*
X223562430Y-75124291D01*
X223570943Y-75156062D01*
X223585010Y-75262908D01*
X223586088Y-75279355D01*
X223586088Y-84790069D01*
X223583667Y-84814651D01*
X223571298Y-84876832D01*
X223538390Y-84939742D01*
X223476695Y-84974873D01*
X223418053Y-84973044D01*
X223417820Y-84974217D01*
X223411752Y-84973010D01*
X223411750Y-84973009D01*
X223330947Y-84956936D01*
X223274871Y-84945782D01*
X223274869Y-84945782D01*
X223135307Y-84945782D01*
X223135304Y-84945782D01*
X223054062Y-84961942D01*
X222998426Y-84973009D01*
X222998424Y-84973009D01*
X222998418Y-84973011D01*
X222869492Y-85026415D01*
X222864090Y-85029303D01*
X222804692Y-85044182D01*
X217297996Y-85044182D01*
X217275708Y-85037637D01*
X217252561Y-85035705D01*
X217234410Y-85025511D01*
X217229875Y-85024180D01*
X217221303Y-85018152D01*
X217207534Y-85007587D01*
X217184282Y-84984335D01*
X217123741Y-84905437D01*
X217107298Y-84876955D01*
X217093778Y-84844312D01*
X217084188Y-84796097D01*
X217084188Y-82034780D01*
X217085840Y-82026470D01*
X217084910Y-82021312D01*
X217093779Y-81986563D01*
X217107299Y-81953922D01*
X217123744Y-81925438D01*
X217189358Y-81839928D01*
X217200203Y-81827561D01*
X218039798Y-80987967D01*
X218188588Y-80839177D01*
X218188588Y-80579747D01*
X218191009Y-80555165D01*
X218198588Y-80517063D01*
X218198588Y-80377501D01*
X218191009Y-80339398D01*
X218188588Y-80314816D01*
X218188588Y-75279355D01*
X218189666Y-75262909D01*
X218189819Y-75261746D01*
X218203733Y-75156055D01*
X218212242Y-75124299D01*
X218250302Y-75032413D01*
X218266739Y-75003944D01*
X218332364Y-74918420D01*
X218343210Y-74906054D01*
X218552860Y-74696404D01*
X218565226Y-74685558D01*
X218650750Y-74619933D01*
X218679219Y-74603496D01*
X218771105Y-74565436D01*
X218802863Y-74556927D01*
X218893786Y-74544957D01*
X218909716Y-74542860D01*
X218926162Y-74541782D01*
X222848514Y-74541782D01*
X222864960Y-74542860D01*
G37*
%TD.AperFunction*%
%TD*%
%TA.AperFunction,Conductor*%
%TO.N,DIB_3V3*%
G36*
X187436672Y-123424420D02*
G01*
X187439385Y-123423749D01*
X187470525Y-123434361D01*
X187502110Y-123443635D01*
X187503941Y-123445748D01*
X187506587Y-123446650D01*
X187527050Y-123472417D01*
X187548603Y-123497291D01*
X187549000Y-123500058D01*
X187550739Y-123502247D01*
X187554021Y-123534980D01*
X187558707Y-123567565D01*
X187557630Y-123570960D01*
X187557824Y-123572889D01*
X187546256Y-123606836D01*
X187510516Y-123676979D01*
X187510513Y-123676985D01*
X187440265Y-123893187D01*
X187440264Y-123893190D01*
X187440264Y-123893192D01*
X187404700Y-124117731D01*
X187404700Y-124345069D01*
X187440264Y-124569608D01*
X187440265Y-124569612D01*
X187500854Y-124756088D01*
X187510515Y-124785819D01*
X187613724Y-124988378D01*
X187613726Y-124988381D01*
X187747351Y-125172300D01*
X187908099Y-125333048D01*
X187908102Y-125333050D01*
X188092022Y-125466676D01*
X188294581Y-125569885D01*
X188510792Y-125640136D01*
X188735331Y-125675700D01*
X188735334Y-125675700D01*
X188962666Y-125675700D01*
X188962669Y-125675700D01*
X189187208Y-125640136D01*
X189403419Y-125569885D01*
X189605978Y-125466676D01*
X189789898Y-125333050D01*
X189950650Y-125172298D01*
X189994993Y-125111263D01*
X190051212Y-125067913D01*
X190121948Y-125061836D01*
X190184740Y-125094967D01*
X190219652Y-125156787D01*
X190218634Y-125217937D01*
X190186183Y-125339049D01*
X190186183Y-125339050D01*
X190186183Y-125485052D01*
X190200951Y-125540167D01*
X190223972Y-125626084D01*
X190296969Y-125752518D01*
X190296977Y-125752528D01*
X190400205Y-125855756D01*
X190400210Y-125855760D01*
X190400212Y-125855762D01*
X190400213Y-125855763D01*
X190400215Y-125855764D01*
X190526649Y-125928761D01*
X190526651Y-125928761D01*
X190526654Y-125928763D01*
X190667682Y-125966551D01*
X190667684Y-125966551D01*
X190813682Y-125966551D01*
X190813684Y-125966551D01*
X190954712Y-125928763D01*
X190954715Y-125928761D01*
X190954716Y-125928761D01*
X191017933Y-125892262D01*
X191081154Y-125855762D01*
X191184394Y-125752522D01*
X191257395Y-125626080D01*
X191257396Y-125626075D01*
X191260553Y-125618456D01*
X191263309Y-125619597D01*
X191292775Y-125571214D01*
X191356623Y-125540167D01*
X191427121Y-125548568D01*
X191434764Y-125552145D01*
X191469581Y-125569885D01*
X191685792Y-125640136D01*
X191910331Y-125675700D01*
X191910334Y-125675700D01*
X192137666Y-125675700D01*
X192137669Y-125675700D01*
X192362208Y-125640136D01*
X192578419Y-125569885D01*
X192780978Y-125466676D01*
X192964898Y-125333050D01*
X193125650Y-125172298D01*
X193259276Y-124988378D01*
X193362485Y-124785819D01*
X193432736Y-124569608D01*
X193468300Y-124345069D01*
X193468300Y-124117731D01*
X193432736Y-123893192D01*
X193362485Y-123676981D01*
X193326743Y-123606834D01*
X193313640Y-123537059D01*
X193340340Y-123471274D01*
X193398368Y-123430368D01*
X193439011Y-123423633D01*
X194030341Y-123423633D01*
X194046787Y-123424711D01*
X194065303Y-123427148D01*
X194153637Y-123438778D01*
X194185399Y-123447288D01*
X194277279Y-123485346D01*
X194305758Y-123501789D01*
X194384653Y-123562327D01*
X194407905Y-123585579D01*
X194468441Y-123664470D01*
X194484888Y-123692956D01*
X194522942Y-123784827D01*
X194531455Y-123816598D01*
X194545522Y-123923444D01*
X194546600Y-123939891D01*
X194546600Y-125035371D01*
X194526598Y-125103492D01*
X194472942Y-125149985D01*
X194402668Y-125160089D01*
X194350598Y-125140136D01*
X194307392Y-125111267D01*
X194282269Y-125094480D01*
X194146542Y-125038260D01*
X194100697Y-125029141D01*
X194002460Y-125009600D01*
X194002455Y-125009600D01*
X193855545Y-125009600D01*
X193855539Y-125009600D01*
X193732041Y-125034165D01*
X193711458Y-125038260D01*
X193711455Y-125038260D01*
X193711452Y-125038262D01*
X193575731Y-125094480D01*
X193453580Y-125176098D01*
X193453579Y-125176099D01*
X193381962Y-125247715D01*
X193381955Y-125247723D01*
X193349699Y-125279980D01*
X193304496Y-125347629D01*
X193304488Y-125347641D01*
X193268079Y-125402132D01*
X193232995Y-125486833D01*
X193211860Y-125537858D01*
X193209730Y-125548568D01*
X193183200Y-125681939D01*
X193183200Y-125828860D01*
X193188552Y-125855764D01*
X193211860Y-125972942D01*
X193211861Y-125972946D01*
X193211862Y-125972947D01*
X193268079Y-126108668D01*
X193280448Y-126127179D01*
X193301662Y-126194933D01*
X193282878Y-126263399D01*
X193250425Y-126294974D01*
X193252181Y-126297262D01*
X193245622Y-126302294D01*
X193142394Y-126405522D01*
X193142386Y-126405532D01*
X193069389Y-126531966D01*
X193052017Y-126596800D01*
X193031600Y-126672999D01*
X193031600Y-126819001D01*
X193063005Y-126936208D01*
X193069389Y-126960033D01*
X193142386Y-127086467D01*
X193142394Y-127086477D01*
X193245622Y-127189705D01*
X193245627Y-127189709D01*
X193245629Y-127189711D01*
X193245630Y-127189712D01*
X193245632Y-127189713D01*
X193263175Y-127199841D01*
X193312169Y-127251223D01*
X193325607Y-127320936D01*
X193304942Y-127378963D01*
X193268080Y-127434130D01*
X193211862Y-127569852D01*
X193211860Y-127569859D01*
X193183200Y-127713939D01*
X193183200Y-127860860D01*
X193203671Y-127963774D01*
X193211860Y-128004942D01*
X193268080Y-128140669D01*
X193349699Y-128262820D01*
X193381962Y-128295083D01*
X193381966Y-128295088D01*
X193453574Y-128366696D01*
X193453580Y-128366701D01*
X193575731Y-128448320D01*
X193711458Y-128504540D01*
X193825818Y-128527287D01*
X193855539Y-128533199D01*
X193855542Y-128533199D01*
X193855545Y-128533200D01*
X193855546Y-128533200D01*
X194002454Y-128533200D01*
X194002455Y-128533200D01*
X194146542Y-128504540D01*
X194282269Y-128448320D01*
X194350601Y-128402661D01*
X194418350Y-128381448D01*
X194486817Y-128400230D01*
X194534261Y-128453047D01*
X194546600Y-128507428D01*
X194546600Y-137933827D01*
X194526598Y-138001948D01*
X194472942Y-138048441D01*
X194402668Y-138058545D01*
X194338088Y-138029051D01*
X194331505Y-138022922D01*
X194282177Y-137973594D01*
X194282167Y-137973586D01*
X194155733Y-137900589D01*
X194139072Y-137896124D01*
X194014701Y-137862800D01*
X193868699Y-137862800D01*
X193790650Y-137883713D01*
X193727666Y-137900589D01*
X193601232Y-137973586D01*
X193601222Y-137973594D01*
X193497994Y-138076822D01*
X193497986Y-138076832D01*
X193424989Y-138203266D01*
X193409661Y-138260471D01*
X193387200Y-138344299D01*
X193387200Y-138490301D01*
X193413033Y-138586712D01*
X193424989Y-138631333D01*
X193497986Y-138757767D01*
X193497994Y-138757777D01*
X193601222Y-138861005D01*
X193601227Y-138861009D01*
X193601229Y-138861011D01*
X193601230Y-138861012D01*
X193601232Y-138861013D01*
X193727666Y-138934010D01*
X193727668Y-138934010D01*
X193727671Y-138934012D01*
X193868699Y-138971800D01*
X193868701Y-138971800D01*
X194014699Y-138971800D01*
X194014701Y-138971800D01*
X194155729Y-138934012D01*
X194155732Y-138934010D01*
X194155733Y-138934010D01*
X194228870Y-138891784D01*
X194282171Y-138861011D01*
X194293296Y-138849886D01*
X194331505Y-138811678D01*
X194393817Y-138777652D01*
X194464632Y-138782717D01*
X194521468Y-138825264D01*
X194546279Y-138891784D01*
X194546600Y-138900773D01*
X194546600Y-140101940D01*
X194545521Y-140118393D01*
X194531443Y-140225280D01*
X194522923Y-140257064D01*
X194484839Y-140348964D01*
X194468380Y-140377457D01*
X194407800Y-140456363D01*
X194384524Y-140479624D01*
X194305577Y-140540155D01*
X194277075Y-140556594D01*
X194185147Y-140594620D01*
X194153361Y-140603118D01*
X194046460Y-140617126D01*
X194030007Y-140618194D01*
X176661305Y-140606916D01*
X176593197Y-140586870D01*
X176546739Y-140533184D01*
X176536681Y-140462903D01*
X176539677Y-140448319D01*
X176554500Y-140393001D01*
X176554500Y-140246999D01*
X176516712Y-140105971D01*
X176516710Y-140105968D01*
X176516710Y-140105966D01*
X176443713Y-139979532D01*
X176443705Y-139979522D01*
X176340477Y-139876294D01*
X176340467Y-139876286D01*
X176214033Y-139803289D01*
X176197372Y-139798824D01*
X176073001Y-139765500D01*
X175926999Y-139765500D01*
X175840686Y-139788627D01*
X175785966Y-139803289D01*
X175659532Y-139876286D01*
X175659522Y-139876294D01*
X175556294Y-139979522D01*
X175556286Y-139979532D01*
X175483289Y-140105966D01*
X175465139Y-140173705D01*
X175445578Y-140246710D01*
X175445500Y-140247000D01*
X175445500Y-140393001D01*
X175460088Y-140447446D01*
X175458398Y-140518422D01*
X175418603Y-140577218D01*
X175353338Y-140605165D01*
X175338299Y-140606056D01*
X169828269Y-140602478D01*
X169765354Y-140585599D01*
X169744031Y-140573289D01*
X169744030Y-140573288D01*
X169744029Y-140573288D01*
X169603001Y-140535500D01*
X169550500Y-140535500D01*
X169482379Y-140515498D01*
X169435886Y-140461842D01*
X169424500Y-140409500D01*
X169424500Y-140365400D01*
X169420096Y-140348964D01*
X169386712Y-140224371D01*
X169386710Y-140224368D01*
X169386710Y-140224366D01*
X169313713Y-140097932D01*
X169313705Y-140097922D01*
X169210477Y-139994694D01*
X169210467Y-139994686D01*
X169084033Y-139921689D01*
X169055445Y-139914029D01*
X168943001Y-139883900D01*
X168796999Y-139883900D01*
X168710686Y-139907027D01*
X168655966Y-139921689D01*
X168529532Y-139994686D01*
X168529522Y-139994694D01*
X168426294Y-140097922D01*
X168426286Y-140097932D01*
X168353289Y-140224366D01*
X168315500Y-140365400D01*
X168315500Y-140475414D01*
X168295498Y-140543535D01*
X168241842Y-140590028D01*
X168189418Y-140601414D01*
X162104409Y-140597464D01*
X150896703Y-140590187D01*
X150896702Y-140590187D01*
X150896700Y-140590186D01*
X150388456Y-140589856D01*
X150388456Y-140589857D01*
X150388373Y-141098101D01*
X150388373Y-141098104D01*
X150388345Y-141274033D01*
X150388296Y-141574020D01*
X150368283Y-141642138D01*
X150314620Y-141688622D01*
X150262296Y-141700000D01*
X124895256Y-141700000D01*
X124827135Y-141679998D01*
X124780642Y-141626342D01*
X124770538Y-141556068D01*
X124786137Y-141511000D01*
X124847461Y-141404784D01*
X124847461Y-141404783D01*
X124847463Y-141404780D01*
X124885251Y-141263752D01*
X124885251Y-141117750D01*
X124847463Y-140976722D01*
X124847461Y-140976719D01*
X124847461Y-140976717D01*
X124774464Y-140850283D01*
X124774456Y-140850273D01*
X124671228Y-140747045D01*
X124671218Y-140747037D01*
X124544784Y-140674040D01*
X124494143Y-140660471D01*
X124403752Y-140636251D01*
X124257750Y-140636251D01*
X124171437Y-140659378D01*
X124116717Y-140674040D01*
X123990283Y-140747037D01*
X123990277Y-140747042D01*
X123934783Y-140802536D01*
X123872470Y-140836561D01*
X123801655Y-140831495D01*
X123744819Y-140788948D01*
X123736569Y-140776440D01*
X123703713Y-140719532D01*
X123703705Y-140719522D01*
X123600477Y-140616294D01*
X123600467Y-140616286D01*
X123474033Y-140543289D01*
X123457372Y-140538824D01*
X123333001Y-140505500D01*
X123186999Y-140505500D01*
X123119034Y-140523711D01*
X123045966Y-140543289D01*
X122919532Y-140616286D01*
X122919522Y-140616294D01*
X122816294Y-140719522D01*
X122816286Y-140719532D01*
X122743289Y-140845966D01*
X122733604Y-140882111D01*
X122705500Y-140986999D01*
X122705500Y-141133001D01*
X122733176Y-141236289D01*
X122743289Y-141274033D01*
X122816286Y-141400467D01*
X122816294Y-141400477D01*
X122900722Y-141484905D01*
X122934748Y-141547217D01*
X122929683Y-141618032D01*
X122887136Y-141674868D01*
X122820616Y-141699679D01*
X122811627Y-141700000D01*
X122400162Y-141700000D01*
X122400162Y-143440000D01*
X122886344Y-143440000D01*
X122949344Y-143456881D01*
X122974116Y-143471183D01*
X122974119Y-143471184D01*
X123116367Y-143509300D01*
X123263633Y-143509300D01*
X123405881Y-143471184D01*
X123405883Y-143471183D01*
X123430656Y-143456881D01*
X123493656Y-143440000D01*
X124630155Y-143440000D01*
X124698276Y-143460002D01*
X124744769Y-143513658D01*
X124754873Y-143583932D01*
X124739274Y-143629000D01*
X124683289Y-143725966D01*
X124683288Y-143725971D01*
X124645500Y-143866999D01*
X124645500Y-144013001D01*
X124677653Y-144132999D01*
X124683289Y-144154033D01*
X124756286Y-144280467D01*
X124756294Y-144280477D01*
X124859522Y-144383705D01*
X124859527Y-144383709D01*
X124859529Y-144383711D01*
X124859530Y-144383712D01*
X124859532Y-144383713D01*
X124985966Y-144456710D01*
X124985968Y-144456710D01*
X124985971Y-144456712D01*
X125126999Y-144494500D01*
X125127001Y-144494500D01*
X125272999Y-144494500D01*
X125273001Y-144494500D01*
X125414029Y-144456712D01*
X125414032Y-144456710D01*
X125414033Y-144456710D01*
X125511431Y-144400477D01*
X125540471Y-144383711D01*
X125643711Y-144280471D01*
X125716712Y-144154029D01*
X125754500Y-144013001D01*
X125754500Y-143866999D01*
X125716712Y-143725971D01*
X125716710Y-143725968D01*
X125716710Y-143725966D01*
X125660726Y-143629000D01*
X125643988Y-143560005D01*
X125667208Y-143492913D01*
X125723015Y-143449026D01*
X125769845Y-143440000D01*
X137549500Y-143440000D01*
X137617621Y-143460002D01*
X137664114Y-143513658D01*
X137675500Y-143566000D01*
X137675500Y-143683001D01*
X137691577Y-143743001D01*
X137713289Y-143824033D01*
X137786286Y-143950467D01*
X137786294Y-143950477D01*
X137889522Y-144053705D01*
X137889527Y-144053709D01*
X137889529Y-144053711D01*
X137889530Y-144053712D01*
X137889532Y-144053713D01*
X138015966Y-144126710D01*
X138015968Y-144126710D01*
X138015971Y-144126712D01*
X138156999Y-144164500D01*
X138157001Y-144164500D01*
X138302999Y-144164500D01*
X138303001Y-144164500D01*
X138444029Y-144126712D01*
X138444032Y-144126710D01*
X138444033Y-144126710D01*
X138507250Y-144090211D01*
X138570471Y-144053711D01*
X138594553Y-144029628D01*
X138656862Y-143995602D01*
X138727678Y-144000665D01*
X138772744Y-144029627D01*
X138856822Y-144113705D01*
X138856827Y-144113709D01*
X138856829Y-144113711D01*
X138856830Y-144113712D01*
X138856832Y-144113713D01*
X138983266Y-144186710D01*
X138983268Y-144186710D01*
X138983271Y-144186712D01*
X139124299Y-144224500D01*
X139124301Y-144224500D01*
X139270299Y-144224500D01*
X139270301Y-144224500D01*
X139411329Y-144186712D01*
X139411332Y-144186710D01*
X139411333Y-144186710D01*
X139501145Y-144134857D01*
X139537771Y-144113711D01*
X139641011Y-144010471D01*
X139714012Y-143884029D01*
X139751800Y-143743001D01*
X139751800Y-143596999D01*
X139751799Y-143596998D01*
X139750722Y-143588812D01*
X139752469Y-143588581D01*
X139753925Y-143527626D01*
X139793723Y-143468833D01*
X139858990Y-143440890D01*
X139873939Y-143440000D01*
X150261971Y-143440000D01*
X150330092Y-143460002D01*
X150376585Y-143513658D01*
X150387971Y-143566021D01*
X150387915Y-143906279D01*
X150367902Y-143974396D01*
X150314238Y-144020880D01*
X150304664Y-144024784D01*
X150253598Y-144043201D01*
X150253584Y-144043208D01*
X150093763Y-144134857D01*
X149952261Y-144252886D01*
X149833421Y-144393672D01*
X149833417Y-144393679D01*
X149740826Y-144552971D01*
X149740818Y-144552986D01*
X149677302Y-144725916D01*
X149677297Y-144725936D01*
X149644772Y-144907282D01*
X149644771Y-144907293D01*
X149644658Y-144945956D01*
X149644658Y-144945987D01*
X149644502Y-144999412D01*
X149644501Y-144999412D01*
X149644384Y-145039294D01*
X149646463Y-145044356D01*
X149646779Y-145061539D01*
X149646628Y-145062087D01*
X149646800Y-145063851D01*
X149646800Y-146576433D01*
X149626798Y-146644554D01*
X149573142Y-146691047D01*
X149569028Y-146692838D01*
X149484245Y-146727965D01*
X149452467Y-146736482D01*
X149345595Y-146750555D01*
X149329145Y-146751633D01*
X148791997Y-146751633D01*
X148723876Y-146731631D01*
X148677383Y-146677975D01*
X148667279Y-146607701D01*
X148682878Y-146562633D01*
X148716710Y-146504033D01*
X148716710Y-146504032D01*
X148716712Y-146504029D01*
X148754500Y-146363001D01*
X148754500Y-146216999D01*
X148716712Y-146075971D01*
X148716710Y-146075968D01*
X148716710Y-146075966D01*
X148643713Y-145949532D01*
X148643705Y-145949522D01*
X148540477Y-145846294D01*
X148540467Y-145846286D01*
X148414033Y-145773289D01*
X148377283Y-145763442D01*
X148273001Y-145735500D01*
X148126999Y-145735500D01*
X148040686Y-145758627D01*
X147985966Y-145773289D01*
X147859532Y-145846286D01*
X147859522Y-145846294D01*
X147756294Y-145949522D01*
X147756286Y-145949532D01*
X147683289Y-146075966D01*
X147672571Y-146115966D01*
X147645500Y-146216999D01*
X147645500Y-146363001D01*
X147678824Y-146487372D01*
X147683289Y-146504033D01*
X147717122Y-146562633D01*
X147733860Y-146631629D01*
X147710639Y-146698720D01*
X147654832Y-146742607D01*
X147608003Y-146751633D01*
X143871997Y-146751633D01*
X143803876Y-146731631D01*
X143757383Y-146677975D01*
X143747279Y-146607701D01*
X143762878Y-146562633D01*
X143796710Y-146504033D01*
X143796710Y-146504032D01*
X143796712Y-146504029D01*
X143834500Y-146363001D01*
X143834500Y-146216999D01*
X143796712Y-146075971D01*
X143796710Y-146075968D01*
X143796710Y-146075966D01*
X143723713Y-145949532D01*
X143723705Y-145949522D01*
X143620477Y-145846294D01*
X143620467Y-145846286D01*
X143494033Y-145773289D01*
X143457283Y-145763442D01*
X143353001Y-145735500D01*
X143206999Y-145735500D01*
X143120686Y-145758627D01*
X143065966Y-145773289D01*
X142939532Y-145846286D01*
X142939522Y-145846294D01*
X142836294Y-145949522D01*
X142836286Y-145949532D01*
X142763289Y-146075966D01*
X142752571Y-146115966D01*
X142725500Y-146216999D01*
X142725500Y-146363001D01*
X142758824Y-146487372D01*
X142763289Y-146504033D01*
X142797122Y-146562633D01*
X142813860Y-146631629D01*
X142790639Y-146698720D01*
X142734832Y-146742607D01*
X142688003Y-146751633D01*
X138205037Y-146751633D01*
X138136916Y-146731631D01*
X138090423Y-146677975D01*
X138080319Y-146607701D01*
X138092686Y-146571967D01*
X138091950Y-146571663D01*
X138095109Y-146564034D01*
X138095109Y-146564030D01*
X138095112Y-146564027D01*
X138132900Y-146422999D01*
X138132900Y-146276997D01*
X138095112Y-146135969D01*
X138095110Y-146135966D01*
X138095110Y-146135964D01*
X138022113Y-146009530D01*
X138022105Y-146009520D01*
X137918877Y-145906292D01*
X137918867Y-145906284D01*
X137792433Y-145833287D01*
X137775772Y-145828822D01*
X137651401Y-145795498D01*
X137505399Y-145795498D01*
X137419086Y-145818625D01*
X137364366Y-145833287D01*
X137237932Y-145906284D01*
X137237922Y-145906292D01*
X137134694Y-146009520D01*
X137134686Y-146009530D01*
X137061689Y-146135964D01*
X137061688Y-146135969D01*
X137023900Y-146276997D01*
X137023900Y-146422999D01*
X137061315Y-146562634D01*
X137061690Y-146564034D01*
X137064850Y-146571663D01*
X137063236Y-146572331D01*
X137077620Y-146631635D01*
X137054396Y-146698725D01*
X136998587Y-146742610D01*
X136951763Y-146751633D01*
X129781997Y-146751633D01*
X129713876Y-146731631D01*
X129667383Y-146677975D01*
X129657279Y-146607701D01*
X129672878Y-146562633D01*
X129706710Y-146504033D01*
X129706710Y-146504032D01*
X129706712Y-146504029D01*
X129744500Y-146363001D01*
X129744500Y-146216999D01*
X129706712Y-146075971D01*
X129706710Y-146075968D01*
X129706710Y-146075966D01*
X129633713Y-145949532D01*
X129633705Y-145949522D01*
X129530477Y-145846294D01*
X129530467Y-145846286D01*
X129404033Y-145773289D01*
X129367283Y-145763442D01*
X129263001Y-145735500D01*
X129116999Y-145735500D01*
X129006409Y-145765131D01*
X128935434Y-145763442D01*
X128876639Y-145723648D01*
X128848691Y-145658383D01*
X128847800Y-145643425D01*
X128847800Y-144949344D01*
X128812843Y-144751092D01*
X128812843Y-144751090D01*
X128743991Y-144561923D01*
X128743990Y-144561920D01*
X128731874Y-144540934D01*
X128643337Y-144387581D01*
X128643335Y-144387578D01*
X128553460Y-144280471D01*
X128513934Y-144233366D01*
X128431863Y-144164500D01*
X128359721Y-144103964D01*
X128359718Y-144103962D01*
X128185384Y-144003312D01*
X128185376Y-144003308D01*
X127996208Y-143934456D01*
X127832912Y-143905663D01*
X127797956Y-143899500D01*
X127596644Y-143899500D01*
X127561688Y-143905663D01*
X127398392Y-143934456D01*
X127398390Y-143934456D01*
X127209223Y-144003308D01*
X127209215Y-144003312D01*
X127034881Y-144103962D01*
X127034878Y-144103964D01*
X126880666Y-144233366D01*
X126751264Y-144387578D01*
X126751262Y-144387581D01*
X126650612Y-144561915D01*
X126650608Y-144561923D01*
X126581756Y-144751090D01*
X126581756Y-144751092D01*
X126546800Y-144949344D01*
X126546800Y-145681978D01*
X126526798Y-145750099D01*
X126473142Y-145796592D01*
X126402868Y-145806696D01*
X126388192Y-145803685D01*
X126283001Y-145775500D01*
X126136999Y-145775500D01*
X126062365Y-145795498D01*
X125995966Y-145813289D01*
X125869532Y-145886286D01*
X125869522Y-145886294D01*
X125766294Y-145989522D01*
X125766286Y-145989532D01*
X125693289Y-146115966D01*
X125672162Y-146194813D01*
X125655500Y-146256999D01*
X125655500Y-146403001D01*
X125682570Y-146504029D01*
X125693289Y-146544032D01*
X125704029Y-146562634D01*
X125720766Y-146631629D01*
X125697545Y-146698721D01*
X125641738Y-146742608D01*
X125594909Y-146751633D01*
X122811997Y-146751633D01*
X122743876Y-146731631D01*
X122697383Y-146677975D01*
X122687279Y-146607701D01*
X122702878Y-146562633D01*
X122736710Y-146504033D01*
X122736710Y-146504032D01*
X122736712Y-146504029D01*
X122774500Y-146363001D01*
X122774500Y-146216999D01*
X122736712Y-146075971D01*
X122736710Y-146075968D01*
X122736710Y-146075966D01*
X122663713Y-145949532D01*
X122663705Y-145949522D01*
X122560477Y-145846294D01*
X122560467Y-145846286D01*
X122434033Y-145773289D01*
X122397283Y-145763442D01*
X122293001Y-145735500D01*
X122146999Y-145735500D01*
X122060686Y-145758627D01*
X122005966Y-145773289D01*
X121879532Y-145846286D01*
X121879522Y-145846294D01*
X121776294Y-145949522D01*
X121776286Y-145949532D01*
X121703289Y-146075966D01*
X121692571Y-146115966D01*
X121665500Y-146216999D01*
X121665500Y-146363001D01*
X121698824Y-146487372D01*
X121703289Y-146504033D01*
X121737122Y-146562633D01*
X121753860Y-146631629D01*
X121730639Y-146698720D01*
X121674832Y-146742607D01*
X121628003Y-146751633D01*
X118817770Y-146751633D01*
X118749649Y-146731631D01*
X118703156Y-146677975D01*
X118693052Y-146607701D01*
X118708651Y-146562633D01*
X118736710Y-146514033D01*
X118736710Y-146514032D01*
X118736712Y-146514029D01*
X118774500Y-146373001D01*
X118774500Y-146226999D01*
X118736712Y-146085971D01*
X118736710Y-146085968D01*
X118736710Y-146085966D01*
X118663713Y-145959532D01*
X118663705Y-145959522D01*
X118560477Y-145856294D01*
X118560467Y-145856286D01*
X118434033Y-145783289D01*
X118417372Y-145778824D01*
X118293001Y-145745500D01*
X118146999Y-145745500D01*
X118080038Y-145763442D01*
X118005966Y-145783289D01*
X117879532Y-145856286D01*
X117879522Y-145856294D01*
X117776294Y-145959522D01*
X117776286Y-145959532D01*
X117703289Y-146085966D01*
X117689891Y-146135969D01*
X117665500Y-146226999D01*
X117665500Y-146373001D01*
X117678897Y-146422999D01*
X117703289Y-146514033D01*
X117731349Y-146562633D01*
X117748087Y-146631628D01*
X117724867Y-146698720D01*
X117669060Y-146742607D01*
X117622230Y-146751633D01*
X116066259Y-146751633D01*
X116049812Y-146750555D01*
X115942965Y-146736488D01*
X115911193Y-146727974D01*
X115828281Y-146693630D01*
X115773000Y-146649082D01*
X115750580Y-146581718D01*
X115750500Y-146577222D01*
X115750500Y-144960118D01*
X115750388Y-144959848D01*
X115740842Y-144914995D01*
X115740440Y-144899947D01*
X115740439Y-144899938D01*
X115702865Y-144715787D01*
X115702861Y-144715774D01*
X115660911Y-144609455D01*
X115633876Y-144540936D01*
X115611034Y-144503711D01*
X115597474Y-144481611D01*
X115535573Y-144380731D01*
X115535571Y-144380729D01*
X115534762Y-144379636D01*
X115534554Y-144379070D01*
X115532696Y-144376042D01*
X115533304Y-144375668D01*
X115510278Y-144312994D01*
X115510000Y-144304624D01*
X115510000Y-143986999D01*
X115995500Y-143986999D01*
X115995500Y-144133001D01*
X116024178Y-144240030D01*
X116033289Y-144274033D01*
X116106286Y-144400467D01*
X116106294Y-144400477D01*
X116209522Y-144503705D01*
X116209527Y-144503709D01*
X116209529Y-144503711D01*
X116209530Y-144503712D01*
X116209532Y-144503713D01*
X116335966Y-144576710D01*
X116335968Y-144576710D01*
X116335971Y-144576712D01*
X116476999Y-144614500D01*
X116477001Y-144614500D01*
X116622999Y-144614500D01*
X116623001Y-144614500D01*
X116764029Y-144576712D01*
X116764032Y-144576710D01*
X116764033Y-144576710D01*
X116827250Y-144540211D01*
X116890471Y-144503711D01*
X116993711Y-144400471D01*
X117049048Y-144304624D01*
X117066710Y-144274033D01*
X117066710Y-144274032D01*
X117066712Y-144274029D01*
X117104500Y-144133001D01*
X117104500Y-143986999D01*
X117066712Y-143845971D01*
X117066710Y-143845968D01*
X117066710Y-143845966D01*
X116993713Y-143719532D01*
X116993705Y-143719522D01*
X116890477Y-143616294D01*
X116890467Y-143616286D01*
X116764033Y-143543289D01*
X116740558Y-143536999D01*
X116623001Y-143505500D01*
X116476999Y-143505500D01*
X116394423Y-143527626D01*
X116335966Y-143543289D01*
X116209532Y-143616286D01*
X116209522Y-143616294D01*
X116106294Y-143719522D01*
X116106286Y-143719532D01*
X116033289Y-143845966D01*
X116027653Y-143867000D01*
X115995500Y-143986999D01*
X115510000Y-143986999D01*
X115510000Y-140006999D01*
X130233900Y-140006999D01*
X130233900Y-140153001D01*
X130259087Y-140247000D01*
X130271689Y-140294033D01*
X130344686Y-140420467D01*
X130344694Y-140420477D01*
X130447922Y-140523705D01*
X130447927Y-140523709D01*
X130447929Y-140523711D01*
X130447930Y-140523712D01*
X130447932Y-140523713D01*
X130574366Y-140596710D01*
X130574368Y-140596710D01*
X130574371Y-140596712D01*
X130715399Y-140634500D01*
X130715401Y-140634500D01*
X130861399Y-140634500D01*
X130861401Y-140634500D01*
X131002429Y-140596712D01*
X131002432Y-140596710D01*
X131002433Y-140596710D01*
X131088975Y-140546745D01*
X131128871Y-140523711D01*
X131232111Y-140420471D01*
X131305112Y-140294029D01*
X131342900Y-140153001D01*
X131342900Y-140006999D01*
X131305112Y-139865971D01*
X131305110Y-139865968D01*
X131305110Y-139865966D01*
X131232113Y-139739532D01*
X131232105Y-139739522D01*
X131128877Y-139636294D01*
X131128867Y-139636286D01*
X131002433Y-139563289D01*
X130985772Y-139558824D01*
X130861401Y-139525500D01*
X130715399Y-139525500D01*
X130629086Y-139548627D01*
X130574366Y-139563289D01*
X130447932Y-139636286D01*
X130447922Y-139636294D01*
X130344694Y-139739522D01*
X130344686Y-139739532D01*
X130271689Y-139865966D01*
X130250773Y-139944029D01*
X130233900Y-140006999D01*
X115510000Y-140006999D01*
X115510000Y-139057750D01*
X131547100Y-139057750D01*
X131547100Y-139203752D01*
X131573326Y-139301629D01*
X131584889Y-139344784D01*
X131657886Y-139471218D01*
X131657894Y-139471228D01*
X131761122Y-139574456D01*
X131761127Y-139574460D01*
X131761129Y-139574462D01*
X131761130Y-139574463D01*
X131761132Y-139574464D01*
X131887566Y-139647461D01*
X131887568Y-139647461D01*
X131887571Y-139647463D01*
X132028599Y-139685251D01*
X132028601Y-139685251D01*
X132174599Y-139685251D01*
X132174601Y-139685251D01*
X132315629Y-139647463D01*
X132315632Y-139647461D01*
X132315633Y-139647461D01*
X132409976Y-139592992D01*
X133042296Y-139592992D01*
X133042296Y-139738994D01*
X133071531Y-139848100D01*
X133080085Y-139880026D01*
X133153082Y-140006460D01*
X133153090Y-140006470D01*
X133256318Y-140109698D01*
X133256323Y-140109702D01*
X133256325Y-140109704D01*
X133256326Y-140109705D01*
X133256328Y-140109706D01*
X133382762Y-140182703D01*
X133382764Y-140182703D01*
X133382767Y-140182705D01*
X133523795Y-140220493D01*
X133523797Y-140220493D01*
X133669795Y-140220493D01*
X133669797Y-140220493D01*
X133810825Y-140182705D01*
X133810828Y-140182703D01*
X133810829Y-140182703D01*
X133888997Y-140137572D01*
X133934847Y-140111100D01*
X134003842Y-140094363D01*
X134070934Y-140117583D01*
X134086942Y-140131125D01*
X134129522Y-140173705D01*
X134129527Y-140173709D01*
X134129529Y-140173711D01*
X134129530Y-140173712D01*
X134129532Y-140173713D01*
X134255966Y-140246710D01*
X134255968Y-140246710D01*
X134255971Y-140246712D01*
X134396999Y-140284500D01*
X134397001Y-140284500D01*
X134542999Y-140284500D01*
X134543001Y-140284500D01*
X134684029Y-140246712D01*
X134684032Y-140246710D01*
X134684033Y-140246710D01*
X134775669Y-140193804D01*
X134810471Y-140173711D01*
X134913711Y-140070471D01*
X134966074Y-139979775D01*
X134986710Y-139944033D01*
X134986710Y-139944032D01*
X134986712Y-139944029D01*
X135024500Y-139803001D01*
X135024500Y-139656999D01*
X135000198Y-139566303D01*
X138154804Y-139566303D01*
X138154804Y-139712305D01*
X138179105Y-139802999D01*
X138192593Y-139853337D01*
X138265590Y-139979771D01*
X138265598Y-139979781D01*
X138368826Y-140083009D01*
X138368831Y-140083013D01*
X138368833Y-140083015D01*
X138368834Y-140083016D01*
X138368836Y-140083017D01*
X138495270Y-140156014D01*
X138495272Y-140156014D01*
X138495275Y-140156016D01*
X138636303Y-140193804D01*
X138636305Y-140193804D01*
X138782303Y-140193804D01*
X138782305Y-140193804D01*
X138923333Y-140156016D01*
X138923336Y-140156014D01*
X138923337Y-140156014D01*
X139001128Y-140111101D01*
X139049775Y-140083015D01*
X139153015Y-139979775D01*
X139212760Y-139876294D01*
X139226014Y-139853337D01*
X139226014Y-139853336D01*
X139226016Y-139853333D01*
X139263804Y-139712305D01*
X139263804Y-139626999D01*
X163199300Y-139626999D01*
X163199300Y-139773001D01*
X163219423Y-139848100D01*
X163237089Y-139914033D01*
X163310086Y-140040467D01*
X163310094Y-140040477D01*
X163413322Y-140143705D01*
X163413327Y-140143709D01*
X163413329Y-140143711D01*
X163413330Y-140143712D01*
X163413332Y-140143713D01*
X163539766Y-140216710D01*
X163539768Y-140216710D01*
X163539771Y-140216712D01*
X163680799Y-140254500D01*
X163680801Y-140254500D01*
X163826799Y-140254500D01*
X163826801Y-140254500D01*
X163967829Y-140216712D01*
X163967832Y-140216710D01*
X163967833Y-140216710D01*
X164078180Y-140153001D01*
X164094271Y-140143711D01*
X164197511Y-140040471D01*
X164270512Y-139914029D01*
X164308300Y-139773001D01*
X164308300Y-139626999D01*
X164270512Y-139485971D01*
X164270510Y-139485968D01*
X164270510Y-139485966D01*
X164197513Y-139359532D01*
X164197505Y-139359522D01*
X164094277Y-139256294D01*
X164094267Y-139256286D01*
X164032456Y-139220599D01*
X166298100Y-139220599D01*
X166298100Y-139366601D01*
X166330083Y-139485966D01*
X166335889Y-139507633D01*
X166408886Y-139634067D01*
X166408894Y-139634077D01*
X166512122Y-139737305D01*
X166512127Y-139737309D01*
X166512129Y-139737311D01*
X166512130Y-139737312D01*
X166512132Y-139737313D01*
X166638566Y-139810310D01*
X166638568Y-139810310D01*
X166638571Y-139810312D01*
X166779599Y-139848100D01*
X166779601Y-139848100D01*
X166925599Y-139848100D01*
X166925601Y-139848100D01*
X167066629Y-139810312D01*
X167066632Y-139810310D01*
X167066633Y-139810310D01*
X167189241Y-139739522D01*
X167193071Y-139737311D01*
X167296311Y-139634071D01*
X167369312Y-139507629D01*
X167407100Y-139366601D01*
X167407100Y-139366598D01*
X167409005Y-139359489D01*
X167445957Y-139298866D01*
X167509817Y-139267845D01*
X167530712Y-139266100D01*
X176452479Y-139266100D01*
X176452481Y-139266100D01*
X176543050Y-139241833D01*
X176624251Y-139194951D01*
X177182802Y-138636399D01*
X182198500Y-138636399D01*
X182198500Y-138782401D01*
X182226557Y-138887112D01*
X182236289Y-138923433D01*
X182309286Y-139049867D01*
X182309294Y-139049877D01*
X182412522Y-139153105D01*
X182412527Y-139153109D01*
X182412529Y-139153111D01*
X182412530Y-139153112D01*
X182412532Y-139153113D01*
X182538966Y-139226110D01*
X182538968Y-139226110D01*
X182538971Y-139226112D01*
X182679999Y-139263900D01*
X182680001Y-139263900D01*
X182825999Y-139263900D01*
X182826001Y-139263900D01*
X182967029Y-139226112D01*
X182967032Y-139226110D01*
X182967033Y-139226110D01*
X183054692Y-139175500D01*
X183093471Y-139153111D01*
X183196711Y-139049871D01*
X183268863Y-138924900D01*
X183269710Y-138923433D01*
X183269710Y-138923432D01*
X183269712Y-138923429D01*
X183307500Y-138782401D01*
X183307500Y-138636399D01*
X183269712Y-138495371D01*
X183269710Y-138495368D01*
X183269710Y-138495366D01*
X183243426Y-138449841D01*
X183211821Y-138395099D01*
X185576700Y-138395099D01*
X185576700Y-138541101D01*
X185602235Y-138636399D01*
X185614489Y-138682133D01*
X185687486Y-138808567D01*
X185687494Y-138808577D01*
X185790722Y-138911805D01*
X185790727Y-138911809D01*
X185790729Y-138911811D01*
X185790730Y-138911812D01*
X185790732Y-138911813D01*
X185917166Y-138984810D01*
X185917168Y-138984810D01*
X185917171Y-138984812D01*
X186058199Y-139022600D01*
X186058201Y-139022600D01*
X186204199Y-139022600D01*
X186204201Y-139022600D01*
X186345229Y-138984812D01*
X186345232Y-138984810D01*
X186345233Y-138984810D01*
X186408450Y-138948311D01*
X186471671Y-138911811D01*
X186574911Y-138808571D01*
X186624479Y-138722717D01*
X186647910Y-138682133D01*
X186647910Y-138682132D01*
X186647912Y-138682129D01*
X186685700Y-138541101D01*
X186685700Y-138395099D01*
X186647912Y-138254071D01*
X186647910Y-138254068D01*
X186647910Y-138254066D01*
X186574913Y-138127632D01*
X186574905Y-138127622D01*
X186471677Y-138024394D01*
X186471667Y-138024386D01*
X186345233Y-137951389D01*
X186328572Y-137946924D01*
X186204201Y-137913600D01*
X186058199Y-137913600D01*
X185982710Y-137933827D01*
X185917166Y-137951389D01*
X185790732Y-138024386D01*
X185790722Y-138024394D01*
X185687494Y-138127622D01*
X185687486Y-138127632D01*
X185614489Y-138254066D01*
X185609545Y-138272519D01*
X185576700Y-138395099D01*
X183211821Y-138395099D01*
X183196713Y-138368932D01*
X183196705Y-138368922D01*
X183093477Y-138265694D01*
X183093467Y-138265686D01*
X182967033Y-138192689D01*
X182950372Y-138188224D01*
X182826001Y-138154900D01*
X182679999Y-138154900D01*
X182622152Y-138170400D01*
X182538966Y-138192689D01*
X182412532Y-138265686D01*
X182412522Y-138265694D01*
X182309294Y-138368922D01*
X182309286Y-138368932D01*
X182236289Y-138495366D01*
X182231375Y-138513705D01*
X182198500Y-138636399D01*
X177182802Y-138636399D01*
X178753596Y-137065604D01*
X178815908Y-137031580D01*
X178842691Y-137028700D01*
X178914399Y-137028700D01*
X178914401Y-137028700D01*
X179055429Y-136990912D01*
X179055432Y-136990910D01*
X179055433Y-136990910D01*
X179118650Y-136954411D01*
X179181871Y-136917911D01*
X179285111Y-136814671D01*
X179346375Y-136708558D01*
X179358110Y-136688233D01*
X179358110Y-136688232D01*
X179358112Y-136688229D01*
X179395900Y-136547201D01*
X179395900Y-136470493D01*
X180186087Y-136470493D01*
X180186087Y-136616495D01*
X180207464Y-136696274D01*
X180223876Y-136757527D01*
X180296873Y-136883961D01*
X180296881Y-136883971D01*
X180400109Y-136987199D01*
X180400114Y-136987203D01*
X180400116Y-136987205D01*
X180400117Y-136987206D01*
X180400119Y-136987207D01*
X180526553Y-137060204D01*
X180526555Y-137060204D01*
X180526558Y-137060206D01*
X180667586Y-137097994D01*
X180667588Y-137097994D01*
X180813586Y-137097994D01*
X180813588Y-137097994D01*
X180954616Y-137060206D01*
X180954619Y-137060204D01*
X180954620Y-137060204D01*
X181017837Y-137023705D01*
X181081058Y-136987205D01*
X181184298Y-136883965D01*
X181227515Y-136809111D01*
X181257297Y-136757527D01*
X181257297Y-136757526D01*
X181257299Y-136757523D01*
X181295087Y-136616495D01*
X181295087Y-136470493D01*
X181257299Y-136329465D01*
X181257297Y-136329462D01*
X181257297Y-136329460D01*
X181184300Y-136203026D01*
X181184292Y-136203016D01*
X181081064Y-136099788D01*
X181081054Y-136099780D01*
X180954620Y-136026783D01*
X180937959Y-136022318D01*
X180813588Y-135988994D01*
X180667586Y-135988994D01*
X180581273Y-136012121D01*
X180526553Y-136026783D01*
X180400119Y-136099780D01*
X180400109Y-136099788D01*
X180296881Y-136203016D01*
X180296873Y-136203026D01*
X180223876Y-136329460D01*
X180223875Y-136329465D01*
X180186087Y-136470493D01*
X179395900Y-136470493D01*
X179395900Y-136401199D01*
X179358112Y-136260171D01*
X179358110Y-136260168D01*
X179358110Y-136260166D01*
X179285113Y-136133732D01*
X179285105Y-136133722D01*
X179181877Y-136030494D01*
X179181867Y-136030486D01*
X179055433Y-135957489D01*
X179038772Y-135953024D01*
X178914401Y-135919700D01*
X178768399Y-135919700D01*
X178682086Y-135942827D01*
X178627366Y-135957489D01*
X178500932Y-136030486D01*
X178500922Y-136030494D01*
X178397694Y-136133722D01*
X178397686Y-136133732D01*
X178324689Y-136260166D01*
X178286900Y-136401200D01*
X178286900Y-136472908D01*
X178266898Y-136541029D01*
X178249995Y-136562003D01*
X176295003Y-138516995D01*
X176232691Y-138551021D01*
X176205908Y-138553900D01*
X171216850Y-138553900D01*
X171148729Y-138533898D01*
X171102236Y-138480242D01*
X171090850Y-138427900D01*
X171090850Y-138275800D01*
X171087737Y-138264182D01*
X171053062Y-138134771D01*
X171053060Y-138134768D01*
X171053060Y-138134766D01*
X170980063Y-138008332D01*
X170980055Y-138008322D01*
X170876827Y-137905094D01*
X170876817Y-137905086D01*
X170750383Y-137832089D01*
X170692229Y-137816507D01*
X170609351Y-137794300D01*
X170463349Y-137794300D01*
X170382736Y-137815900D01*
X170322316Y-137832089D01*
X170195882Y-137905086D01*
X170195872Y-137905094D01*
X170092644Y-138008322D01*
X170092636Y-138008332D01*
X170019639Y-138134766D01*
X170011002Y-138167000D01*
X169985956Y-138260477D01*
X169981850Y-138275800D01*
X169981850Y-138427900D01*
X169961848Y-138496021D01*
X169908192Y-138542514D01*
X169855850Y-138553900D01*
X167183119Y-138553900D01*
X167092553Y-138578166D01*
X167092545Y-138578169D01*
X167011352Y-138625046D01*
X167011347Y-138625050D01*
X166987340Y-138649058D01*
X166945049Y-138691349D01*
X166945047Y-138691351D01*
X166936206Y-138700191D01*
X166934198Y-138702200D01*
X166925683Y-138706848D01*
X166925846Y-138707092D01*
X166925843Y-138707094D01*
X166925680Y-138706850D01*
X166896620Y-138722717D01*
X166871890Y-138736221D01*
X166871886Y-138736221D01*
X166871885Y-138736222D01*
X166871882Y-138736221D01*
X166845107Y-138739100D01*
X166779599Y-138739100D01*
X166709895Y-138757777D01*
X166638566Y-138776889D01*
X166512132Y-138849886D01*
X166512122Y-138849894D01*
X166408894Y-138953122D01*
X166408886Y-138953132D01*
X166335889Y-139079566D01*
X166317209Y-139149281D01*
X166298100Y-139220599D01*
X164032456Y-139220599D01*
X163967833Y-139183289D01*
X163951172Y-139178824D01*
X163826801Y-139145500D01*
X163680799Y-139145500D01*
X163594486Y-139168627D01*
X163539766Y-139183289D01*
X163413332Y-139256286D01*
X163413322Y-139256294D01*
X163310094Y-139359522D01*
X163310086Y-139359532D01*
X163237089Y-139485966D01*
X163226496Y-139525500D01*
X163199300Y-139626999D01*
X139263804Y-139626999D01*
X139263804Y-139566303D01*
X139226016Y-139425275D01*
X139226014Y-139425272D01*
X139226014Y-139425270D01*
X139153017Y-139298836D01*
X139153009Y-139298826D01*
X139049781Y-139195598D01*
X139049771Y-139195590D01*
X138923337Y-139122593D01*
X138884146Y-139112092D01*
X138782305Y-139084804D01*
X138636303Y-139084804D01*
X138549990Y-139107931D01*
X138495270Y-139122593D01*
X138368836Y-139195590D01*
X138368826Y-139195598D01*
X138265598Y-139298826D01*
X138265590Y-139298836D01*
X138192593Y-139425270D01*
X138192592Y-139425275D01*
X138154804Y-139566303D01*
X135000198Y-139566303D01*
X134986712Y-139515971D01*
X134986710Y-139515968D01*
X134986710Y-139515966D01*
X134913713Y-139389532D01*
X134913705Y-139389522D01*
X134810477Y-139286294D01*
X134810467Y-139286286D01*
X134684033Y-139213289D01*
X134618008Y-139195598D01*
X134543001Y-139175500D01*
X134396999Y-139175500D01*
X134321992Y-139195598D01*
X134255967Y-139213289D01*
X134131947Y-139284892D01*
X134062952Y-139301629D01*
X133995860Y-139278408D01*
X133979853Y-139264867D01*
X133937273Y-139222287D01*
X133937263Y-139222279D01*
X133810829Y-139149282D01*
X133781789Y-139141501D01*
X133669797Y-139111493D01*
X133523795Y-139111493D01*
X133482373Y-139122592D01*
X133411802Y-139141501D01*
X133411801Y-139141501D01*
X133382767Y-139149281D01*
X133256325Y-139222282D01*
X133225964Y-139252642D01*
X133225960Y-139252645D01*
X133153087Y-139325519D01*
X133153082Y-139325525D01*
X133080085Y-139451959D01*
X133060380Y-139525500D01*
X133042296Y-139592992D01*
X132409976Y-139592992D01*
X132414022Y-139590656D01*
X132442071Y-139574462D01*
X132545311Y-139471222D01*
X132618312Y-139344780D01*
X132656100Y-139203752D01*
X132656100Y-139180213D01*
X132676102Y-139112092D01*
X132729758Y-139065599D01*
X132800032Y-139055495D01*
X132814697Y-139058503D01*
X132840316Y-139065368D01*
X132840318Y-139065368D01*
X132986315Y-139065368D01*
X132986318Y-139065368D01*
X133127346Y-139027580D01*
X133253788Y-138954579D01*
X133357028Y-138851339D01*
X133430029Y-138724897D01*
X133467817Y-138583869D01*
X133467817Y-138437867D01*
X133430029Y-138296839D01*
X133430027Y-138296836D01*
X133430027Y-138296834D01*
X133357030Y-138170400D01*
X133357022Y-138170390D01*
X133253794Y-138067162D01*
X133253784Y-138067154D01*
X133132272Y-137996999D01*
X139465500Y-137996999D01*
X139465500Y-138143001D01*
X139478814Y-138192689D01*
X139503289Y-138284033D01*
X139576286Y-138410467D01*
X139576294Y-138410477D01*
X139679522Y-138513705D01*
X139679527Y-138513709D01*
X139679529Y-138513711D01*
X139679530Y-138513712D01*
X139679532Y-138513713D01*
X139805966Y-138586710D01*
X139805968Y-138586710D01*
X139805971Y-138586712D01*
X139946999Y-138624500D01*
X139947001Y-138624500D01*
X140092999Y-138624500D01*
X140093001Y-138624500D01*
X140234029Y-138586712D01*
X140234032Y-138586710D01*
X140234033Y-138586710D01*
X140297250Y-138550211D01*
X140360471Y-138513711D01*
X140463711Y-138410471D01*
X140519987Y-138312998D01*
X140536710Y-138284033D01*
X140536710Y-138284032D01*
X140536712Y-138284029D01*
X140574500Y-138143001D01*
X140574500Y-137996999D01*
X140540833Y-137871350D01*
X140540833Y-137871349D01*
X140536711Y-137855969D01*
X140531532Y-137846999D01*
X141495500Y-137846999D01*
X141495500Y-137993001D01*
X141517962Y-138076832D01*
X141533289Y-138134033D01*
X141606286Y-138260467D01*
X141606294Y-138260477D01*
X141709522Y-138363705D01*
X141709527Y-138363709D01*
X141709529Y-138363711D01*
X141709530Y-138363712D01*
X141709532Y-138363713D01*
X141835966Y-138436710D01*
X141835968Y-138436710D01*
X141835971Y-138436712D01*
X141976999Y-138474500D01*
X141977001Y-138474500D01*
X142122999Y-138474500D01*
X142123001Y-138474500D01*
X142264029Y-138436712D01*
X142264032Y-138436710D01*
X142264033Y-138436710D01*
X142336105Y-138395099D01*
X142390471Y-138363711D01*
X142400904Y-138353277D01*
X142463213Y-138319252D01*
X142534029Y-138324315D01*
X142579095Y-138353277D01*
X142589523Y-138363705D01*
X142589528Y-138363710D01*
X142589532Y-138363713D01*
X142715966Y-138436710D01*
X142715968Y-138436710D01*
X142715971Y-138436712D01*
X142856999Y-138474500D01*
X142857001Y-138474500D01*
X143002999Y-138474500D01*
X143003001Y-138474500D01*
X143144029Y-138436712D01*
X143144032Y-138436710D01*
X143144033Y-138436710D01*
X143216105Y-138395099D01*
X143270471Y-138363711D01*
X143373711Y-138260471D01*
X143446712Y-138134029D01*
X143453180Y-138109888D01*
X143459076Y-138087888D01*
X143496027Y-138027266D01*
X143559888Y-137996244D01*
X143580782Y-137994500D01*
X143672999Y-137994500D01*
X143673001Y-137994500D01*
X143814029Y-137956712D01*
X143814032Y-137956710D01*
X143814033Y-137956710D01*
X143877250Y-137920211D01*
X143940471Y-137883711D01*
X144043711Y-137780471D01*
X144086726Y-137705966D01*
X144091903Y-137696999D01*
X146315500Y-137696999D01*
X146315500Y-137843001D01*
X146348824Y-137967372D01*
X146353289Y-137984033D01*
X146426286Y-138110467D01*
X146426294Y-138110477D01*
X146529522Y-138213705D01*
X146529527Y-138213709D01*
X146529529Y-138213711D01*
X146529530Y-138213712D01*
X146529532Y-138213713D01*
X146655966Y-138286710D01*
X146655968Y-138286710D01*
X146655971Y-138286712D01*
X146796999Y-138324500D01*
X146797001Y-138324500D01*
X146942999Y-138324500D01*
X146943001Y-138324500D01*
X147084029Y-138286712D01*
X147084032Y-138286710D01*
X147084033Y-138286710D01*
X147205273Y-138216712D01*
X147210471Y-138213711D01*
X147210471Y-138213710D01*
X147216500Y-138210230D01*
X147285495Y-138193492D01*
X147352587Y-138216712D01*
X147396474Y-138272519D01*
X147402740Y-138305033D01*
X147404422Y-138304812D01*
X147405499Y-138312998D01*
X147443289Y-138454033D01*
X147516286Y-138580467D01*
X147516294Y-138580477D01*
X147619522Y-138683705D01*
X147619527Y-138683709D01*
X147619529Y-138683711D01*
X147619530Y-138683712D01*
X147619532Y-138683713D01*
X147745966Y-138756710D01*
X147745968Y-138756710D01*
X147745971Y-138756712D01*
X147886999Y-138794500D01*
X147887001Y-138794500D01*
X148032999Y-138794500D01*
X148033001Y-138794500D01*
X148174029Y-138756712D01*
X148174032Y-138756710D01*
X148174033Y-138756710D01*
X148268447Y-138702200D01*
X148300471Y-138683711D01*
X148403711Y-138580471D01*
X148452846Y-138495366D01*
X148476710Y-138454033D01*
X148476710Y-138454032D01*
X148476712Y-138454029D01*
X148514500Y-138313001D01*
X148514500Y-138297399D01*
X162765623Y-138297399D01*
X162765623Y-138443401D01*
X162795231Y-138553900D01*
X162803412Y-138584433D01*
X162876409Y-138710867D01*
X162876417Y-138710877D01*
X162979645Y-138814105D01*
X162979650Y-138814109D01*
X162979652Y-138814111D01*
X162979653Y-138814112D01*
X162979655Y-138814113D01*
X163106089Y-138887110D01*
X163106091Y-138887110D01*
X163106094Y-138887112D01*
X163247122Y-138924900D01*
X163247124Y-138924900D01*
X163393122Y-138924900D01*
X163393124Y-138924900D01*
X163534152Y-138887112D01*
X163534155Y-138887110D01*
X163534156Y-138887110D01*
X163641276Y-138825264D01*
X163660594Y-138814111D01*
X163763834Y-138710871D01*
X163836835Y-138584429D01*
X163874623Y-138443401D01*
X163874623Y-138297399D01*
X163836835Y-138156371D01*
X163836833Y-138156368D01*
X163836833Y-138156366D01*
X163763836Y-138029932D01*
X163763828Y-138029922D01*
X163660600Y-137926694D01*
X163660590Y-137926686D01*
X163534156Y-137853689D01*
X163494267Y-137843001D01*
X163393124Y-137815900D01*
X163247122Y-137815900D01*
X163160809Y-137839027D01*
X163106089Y-137853689D01*
X162979655Y-137926686D01*
X162979645Y-137926694D01*
X162876417Y-138029922D01*
X162876409Y-138029932D01*
X162803412Y-138156366D01*
X162788047Y-138213711D01*
X162765623Y-138297399D01*
X148514500Y-138297399D01*
X148514500Y-138166999D01*
X148476712Y-138025971D01*
X148476710Y-138025968D01*
X148476710Y-138025966D01*
X148403713Y-137899532D01*
X148403705Y-137899522D01*
X148300477Y-137796294D01*
X148300467Y-137796286D01*
X148174033Y-137723289D01*
X148109400Y-137705971D01*
X148033001Y-137685500D01*
X147886999Y-137685500D01*
X147813522Y-137705188D01*
X147745966Y-137723289D01*
X147613500Y-137799769D01*
X147544504Y-137816507D01*
X147477413Y-137793286D01*
X147433526Y-137737479D01*
X147427259Y-137704966D01*
X147425578Y-137705188D01*
X147424500Y-137697001D01*
X147424500Y-137697000D01*
X147424500Y-137696999D01*
X147386712Y-137555971D01*
X147386710Y-137555968D01*
X147386710Y-137555966D01*
X147313713Y-137429532D01*
X147313705Y-137429522D01*
X147210477Y-137326294D01*
X147210467Y-137326286D01*
X147084033Y-137253289D01*
X147067372Y-137248824D01*
X146943001Y-137215500D01*
X146796999Y-137215500D01*
X146710686Y-137238627D01*
X146655966Y-137253289D01*
X146529532Y-137326286D01*
X146529522Y-137326294D01*
X146426294Y-137429522D01*
X146426286Y-137429532D01*
X146353289Y-137555966D01*
X146334445Y-137626294D01*
X146315500Y-137696999D01*
X144091903Y-137696999D01*
X144116710Y-137654033D01*
X144116710Y-137654032D01*
X144116712Y-137654029D01*
X144154500Y-137513001D01*
X144154500Y-137366999D01*
X144133620Y-137289073D01*
X144135310Y-137218099D01*
X144166230Y-137167370D01*
X144661798Y-136671804D01*
X144689172Y-136656856D01*
X144715395Y-136640004D01*
X144721693Y-136639098D01*
X144724110Y-136637779D01*
X144750893Y-136634900D01*
X144758604Y-136634900D01*
X144826725Y-136654902D01*
X144873218Y-136708558D01*
X144883322Y-136778832D01*
X144867724Y-136823899D01*
X144855188Y-136845611D01*
X144855187Y-136845615D01*
X144817399Y-136986643D01*
X144817399Y-137132645D01*
X144847244Y-137244029D01*
X144855188Y-137273677D01*
X144928185Y-137400111D01*
X144928193Y-137400121D01*
X145031421Y-137503349D01*
X145031426Y-137503353D01*
X145031428Y-137503355D01*
X145031429Y-137503356D01*
X145031431Y-137503357D01*
X145157865Y-137576354D01*
X145157867Y-137576354D01*
X145157870Y-137576356D01*
X145298898Y-137614144D01*
X145298900Y-137614144D01*
X145444898Y-137614144D01*
X145444900Y-137614144D01*
X145585928Y-137576356D01*
X145712370Y-137503355D01*
X145815610Y-137400115D01*
X145874349Y-137298376D01*
X145888609Y-137273677D01*
X145888609Y-137273676D01*
X145888611Y-137273673D01*
X145926399Y-137132645D01*
X145926399Y-136986643D01*
X145888611Y-136845615D01*
X145888609Y-136845611D01*
X145876074Y-136823899D01*
X145859337Y-136754903D01*
X145882558Y-136687812D01*
X145938366Y-136643925D01*
X145985194Y-136634900D01*
X163412643Y-136634900D01*
X163480764Y-136654902D01*
X163527257Y-136708558D01*
X163537361Y-136778832D01*
X163521762Y-136823901D01*
X163504842Y-136853206D01*
X163504841Y-136853208D01*
X163504841Y-136853209D01*
X163467053Y-136994237D01*
X163467053Y-137140239D01*
X163488482Y-137220213D01*
X163504842Y-137281271D01*
X163577839Y-137407705D01*
X163577847Y-137407715D01*
X163681075Y-137510943D01*
X163681080Y-137510947D01*
X163681082Y-137510949D01*
X163681083Y-137510950D01*
X163681085Y-137510951D01*
X163807519Y-137583948D01*
X163807521Y-137583948D01*
X163807524Y-137583950D01*
X163948552Y-137621738D01*
X163948554Y-137621738D01*
X164094552Y-137621738D01*
X164094554Y-137621738D01*
X164235582Y-137583950D01*
X164235585Y-137583948D01*
X164235586Y-137583948D01*
X164354141Y-137515500D01*
X164362024Y-137510949D01*
X164465264Y-137407709D01*
X164528388Y-137298375D01*
X164538263Y-137281271D01*
X164538263Y-137281270D01*
X164538265Y-137281267D01*
X164576053Y-137140239D01*
X164576053Y-136994237D01*
X164538265Y-136853209D01*
X164521343Y-136823900D01*
X164504606Y-136754905D01*
X164527826Y-136687813D01*
X164583633Y-136643926D01*
X164630463Y-136634900D01*
X171139717Y-136634900D01*
X171207838Y-136654902D01*
X171254331Y-136708558D01*
X171264435Y-136778832D01*
X171256129Y-136809111D01*
X171253289Y-136815966D01*
X171251163Y-136823901D01*
X171215500Y-136956999D01*
X171215500Y-137103001D01*
X171225478Y-137140239D01*
X171253289Y-137244033D01*
X171326286Y-137370467D01*
X171326294Y-137370477D01*
X171429522Y-137473705D01*
X171429527Y-137473709D01*
X171429529Y-137473711D01*
X171429530Y-137473712D01*
X171429532Y-137473713D01*
X171555966Y-137546710D01*
X171555968Y-137546710D01*
X171555971Y-137546712D01*
X171696999Y-137584500D01*
X171697001Y-137584500D01*
X171842999Y-137584500D01*
X171843001Y-137584500D01*
X171984029Y-137546712D01*
X171984032Y-137546710D01*
X171984033Y-137546710D01*
X172059136Y-137503349D01*
X172110471Y-137473711D01*
X172213711Y-137370471D01*
X172255335Y-137298376D01*
X172286710Y-137244033D01*
X172286710Y-137244032D01*
X172286712Y-137244029D01*
X172324500Y-137103001D01*
X172324500Y-136956999D01*
X172286712Y-136815971D01*
X172286710Y-136815968D01*
X172286710Y-136815966D01*
X172283871Y-136809111D01*
X172276286Y-136738521D01*
X172308070Y-136675036D01*
X172369130Y-136638812D01*
X172400283Y-136634900D01*
X173643867Y-136634900D01*
X173643869Y-136634900D01*
X173734438Y-136610633D01*
X173815639Y-136563751D01*
X174717699Y-135661689D01*
X174780009Y-135627667D01*
X174850824Y-135632731D01*
X174907660Y-135675278D01*
X174932471Y-135741798D01*
X174928499Y-135783397D01*
X174897086Y-135900634D01*
X174897086Y-135900635D01*
X174897086Y-136046637D01*
X174930410Y-136171008D01*
X174934875Y-136187669D01*
X175007872Y-136314103D01*
X175007880Y-136314113D01*
X175111108Y-136417341D01*
X175111113Y-136417345D01*
X175111115Y-136417347D01*
X175111116Y-136417348D01*
X175111118Y-136417349D01*
X175237552Y-136490346D01*
X175237554Y-136490346D01*
X175237557Y-136490348D01*
X175378585Y-136528136D01*
X175412762Y-136528136D01*
X175480883Y-136548138D01*
X175527376Y-136601794D01*
X175534466Y-136621515D01*
X175541212Y-136646692D01*
X175541213Y-136646694D01*
X175541214Y-136646697D01*
X175614210Y-136773130D01*
X175614218Y-136773140D01*
X175717446Y-136876368D01*
X175717451Y-136876372D01*
X175717453Y-136876374D01*
X175717454Y-136876375D01*
X175717456Y-136876376D01*
X175843890Y-136949373D01*
X175843892Y-136949373D01*
X175843895Y-136949375D01*
X175984923Y-136987163D01*
X175984925Y-136987163D01*
X176130923Y-136987163D01*
X176130925Y-136987163D01*
X176271953Y-136949375D01*
X176271956Y-136949373D01*
X176271957Y-136949373D01*
X176359396Y-136898890D01*
X176428391Y-136882152D01*
X176495483Y-136905372D01*
X176511491Y-136918914D01*
X176518523Y-136925946D01*
X176518528Y-136925950D01*
X176518530Y-136925952D01*
X176518531Y-136925953D01*
X176518533Y-136925954D01*
X176644967Y-136998951D01*
X176644969Y-136998951D01*
X176644972Y-136998953D01*
X176786000Y-137036741D01*
X176786002Y-137036741D01*
X176932000Y-137036741D01*
X176932002Y-137036741D01*
X177073030Y-136998953D01*
X177073033Y-136998951D01*
X177073034Y-136998951D01*
X177158905Y-136949373D01*
X177199472Y-136925952D01*
X177302712Y-136822712D01*
X177341861Y-136754903D01*
X177375711Y-136696274D01*
X177375711Y-136696273D01*
X177375713Y-136696270D01*
X177413501Y-136555242D01*
X177413501Y-136409240D01*
X177375713Y-136268212D01*
X177375711Y-136268209D01*
X177375711Y-136268207D01*
X177302714Y-136141773D01*
X177302706Y-136141763D01*
X177199478Y-136038535D01*
X177199468Y-136038527D01*
X177073034Y-135965530D01*
X177043020Y-135957488D01*
X176932002Y-135927741D01*
X176786000Y-135927741D01*
X176785999Y-135927741D01*
X176658349Y-135961944D01*
X176587373Y-135960254D01*
X176528577Y-135920459D01*
X176500630Y-135855195D01*
X176512404Y-135785181D01*
X176536642Y-135751143D01*
X176566313Y-135721473D01*
X176602813Y-135658252D01*
X176639312Y-135595035D01*
X176639312Y-135595034D01*
X176639314Y-135595031D01*
X176675120Y-135461399D01*
X184967100Y-135461399D01*
X184967100Y-135607401D01*
X185000424Y-135731772D01*
X185004889Y-135748433D01*
X185077886Y-135874867D01*
X185077894Y-135874877D01*
X185181122Y-135978105D01*
X185181127Y-135978109D01*
X185181129Y-135978111D01*
X185181130Y-135978112D01*
X185181132Y-135978113D01*
X185307566Y-136051110D01*
X185307568Y-136051110D01*
X185307571Y-136051112D01*
X185448599Y-136088900D01*
X185448601Y-136088900D01*
X185594599Y-136088900D01*
X185594601Y-136088900D01*
X185735629Y-136051112D01*
X185735632Y-136051110D01*
X185735633Y-136051110D01*
X185843221Y-135988994D01*
X185862071Y-135978111D01*
X185965311Y-135874871D01*
X186018123Y-135783397D01*
X186038310Y-135748433D01*
X186038310Y-135748432D01*
X186038312Y-135748429D01*
X186076100Y-135607401D01*
X186076100Y-135461399D01*
X186038312Y-135320371D01*
X186038310Y-135320368D01*
X186038310Y-135320366D01*
X185965313Y-135193932D01*
X185965305Y-135193922D01*
X185862077Y-135090694D01*
X185862067Y-135090686D01*
X185735633Y-135017689D01*
X185699383Y-135007976D01*
X185594601Y-134979900D01*
X185448599Y-134979900D01*
X185362286Y-135003027D01*
X185307566Y-135017689D01*
X185181132Y-135090686D01*
X185181122Y-135090694D01*
X185077894Y-135193922D01*
X185077886Y-135193932D01*
X185004889Y-135320366D01*
X184991882Y-135368911D01*
X184967100Y-135461399D01*
X176675120Y-135461399D01*
X176677102Y-135454003D01*
X176677102Y-135308001D01*
X176639314Y-135166973D01*
X176639312Y-135166970D01*
X176639312Y-135166968D01*
X176566315Y-135040534D01*
X176566307Y-135040524D01*
X176463079Y-134937296D01*
X176463069Y-134937288D01*
X176336635Y-134864291D01*
X176319974Y-134859826D01*
X176195603Y-134826502D01*
X176049601Y-134826502D01*
X175925229Y-134859826D01*
X175908569Y-134864291D01*
X175806445Y-134923252D01*
X175737450Y-134939989D01*
X175670358Y-134916768D01*
X175626471Y-134860960D01*
X175619723Y-134790285D01*
X175652256Y-134727181D01*
X175654290Y-134725098D01*
X176807846Y-133571542D01*
X176870156Y-133537518D01*
X176940971Y-133542583D01*
X176996902Y-133583935D01*
X177000694Y-133588877D01*
X177103922Y-133692105D01*
X177103927Y-133692109D01*
X177103929Y-133692111D01*
X177103930Y-133692112D01*
X177103932Y-133692113D01*
X177230366Y-133765110D01*
X177230368Y-133765110D01*
X177230371Y-133765112D01*
X177371399Y-133802900D01*
X177371401Y-133802900D01*
X177517399Y-133802900D01*
X177517401Y-133802900D01*
X177658429Y-133765112D01*
X177658432Y-133765110D01*
X177658433Y-133765110D01*
X177721727Y-133728567D01*
X177784871Y-133692111D01*
X177888111Y-133588871D01*
X177935590Y-133506633D01*
X177986972Y-133457641D01*
X178056685Y-133444204D01*
X178077316Y-133447926D01*
X178141187Y-133465040D01*
X178141189Y-133465040D01*
X178960607Y-133465040D01*
X179028728Y-133485042D01*
X179075221Y-133538698D01*
X179082311Y-133558421D01*
X179103247Y-133636555D01*
X179113289Y-133674033D01*
X179186286Y-133800467D01*
X179186294Y-133800477D01*
X179289522Y-133903705D01*
X179289527Y-133903709D01*
X179289529Y-133903711D01*
X179289530Y-133903712D01*
X179289532Y-133903713D01*
X179415966Y-133976710D01*
X179415968Y-133976710D01*
X179415971Y-133976712D01*
X179556999Y-134014500D01*
X179557001Y-134014500D01*
X179702999Y-134014500D01*
X179703001Y-134014500D01*
X179844029Y-133976712D01*
X179844032Y-133976710D01*
X179844033Y-133976710D01*
X179936048Y-133923585D01*
X179970471Y-133903711D01*
X180073711Y-133800471D01*
X180115225Y-133728567D01*
X180146710Y-133674033D01*
X180146710Y-133674032D01*
X180146712Y-133674029D01*
X180184500Y-133533001D01*
X180184500Y-133386999D01*
X180146712Y-133245971D01*
X180146710Y-133245968D01*
X180146710Y-133245966D01*
X180109235Y-133181057D01*
X180092497Y-133112061D01*
X180115718Y-133044969D01*
X180171525Y-133001082D01*
X180218354Y-132992057D01*
X180311546Y-132992057D01*
X180311548Y-132992057D01*
X180402117Y-132967790D01*
X180483318Y-132920908D01*
X180555880Y-132848345D01*
X180618191Y-132814321D01*
X180689007Y-132819385D01*
X180745843Y-132861931D01*
X180754094Y-132874440D01*
X180771625Y-132904805D01*
X180785289Y-132928471D01*
X180785291Y-132928473D01*
X180785294Y-132928477D01*
X180888522Y-133031705D01*
X180888527Y-133031709D01*
X180888529Y-133031711D01*
X180888530Y-133031712D01*
X180888532Y-133031713D01*
X181014966Y-133104710D01*
X181014968Y-133104710D01*
X181014971Y-133104712D01*
X181155999Y-133142500D01*
X181156001Y-133142500D01*
X181301999Y-133142500D01*
X181302001Y-133142500D01*
X181443029Y-133104712D01*
X181443032Y-133104710D01*
X181443033Y-133104710D01*
X181561533Y-133036294D01*
X181569471Y-133031711D01*
X181672711Y-132928471D01*
X181740838Y-132810471D01*
X181745710Y-132802033D01*
X181745710Y-132802032D01*
X181745712Y-132802029D01*
X181783500Y-132661001D01*
X181783500Y-132514999D01*
X181745712Y-132373971D01*
X181745710Y-132373968D01*
X181745710Y-132373966D01*
X181672713Y-132247532D01*
X181672705Y-132247522D01*
X181569477Y-132144294D01*
X181569467Y-132144286D01*
X181440961Y-132070093D01*
X181391968Y-132018710D01*
X181378532Y-131948997D01*
X181382253Y-131928368D01*
X181384822Y-131918783D01*
X181384822Y-131346999D01*
X184955500Y-131346999D01*
X184955500Y-131493001D01*
X184980158Y-131585028D01*
X184993289Y-131634033D01*
X185066286Y-131760467D01*
X185066294Y-131760477D01*
X185169522Y-131863705D01*
X185169527Y-131863709D01*
X185169529Y-131863711D01*
X185169530Y-131863712D01*
X185169532Y-131863713D01*
X185295966Y-131936710D01*
X185295968Y-131936710D01*
X185295971Y-131936712D01*
X185436999Y-131974500D01*
X185437001Y-131974500D01*
X185582999Y-131974500D01*
X185583001Y-131974500D01*
X185724029Y-131936712D01*
X185724032Y-131936710D01*
X185724033Y-131936710D01*
X185807166Y-131888713D01*
X185850471Y-131863711D01*
X185953711Y-131760471D01*
X186012856Y-131658029D01*
X186026710Y-131634033D01*
X186026710Y-131634032D01*
X186026712Y-131634029D01*
X186064500Y-131493001D01*
X186064500Y-131346999D01*
X186026712Y-131205971D01*
X186026710Y-131205968D01*
X186026710Y-131205966D01*
X185953713Y-131079532D01*
X185953705Y-131079522D01*
X185850477Y-130976294D01*
X185850467Y-130976286D01*
X185724033Y-130903289D01*
X185707372Y-130898824D01*
X185583001Y-130865500D01*
X185436999Y-130865500D01*
X185354445Y-130887620D01*
X185295966Y-130903289D01*
X185169532Y-130976286D01*
X185169522Y-130976294D01*
X185066294Y-131079522D01*
X185066286Y-131079532D01*
X184993289Y-131205966D01*
X184989636Y-131219599D01*
X184955500Y-131346999D01*
X181384822Y-131346999D01*
X181384822Y-131050057D01*
X181404824Y-130981936D01*
X181421722Y-130960966D01*
X181472433Y-130910256D01*
X181524062Y-130820832D01*
X181545432Y-130783818D01*
X181545432Y-130783817D01*
X181545434Y-130783814D01*
X181583222Y-130642786D01*
X181583222Y-130496784D01*
X181545434Y-130355756D01*
X181545432Y-130355753D01*
X181545432Y-130355751D01*
X181472435Y-130229317D01*
X181472427Y-130229307D01*
X181374915Y-130131795D01*
X181340889Y-130069483D01*
X181345954Y-129998668D01*
X181388501Y-129941832D01*
X181455021Y-129917021D01*
X181464010Y-129916700D01*
X181606799Y-129916700D01*
X181606801Y-129916700D01*
X181747829Y-129878912D01*
X181747832Y-129878910D01*
X181747833Y-129878910D01*
X181811050Y-129842411D01*
X181874271Y-129805911D01*
X181977511Y-129702671D01*
X182050512Y-129576229D01*
X182088300Y-129435201D01*
X182088300Y-129407700D01*
X182108302Y-129339579D01*
X182161958Y-129293086D01*
X182214300Y-129281700D01*
X182343399Y-129281700D01*
X182343401Y-129281700D01*
X182484429Y-129243912D01*
X182484432Y-129243910D01*
X182484433Y-129243910D01*
X182564417Y-129197731D01*
X187404700Y-129197731D01*
X187404700Y-129425069D01*
X187434569Y-129613649D01*
X187440265Y-129649612D01*
X187505407Y-129850100D01*
X187510515Y-129865819D01*
X187611559Y-130064129D01*
X187613726Y-130068381D01*
X187747351Y-130252300D01*
X187908099Y-130413048D01*
X187908102Y-130413050D01*
X188092022Y-130546676D01*
X188294581Y-130649885D01*
X188510792Y-130720136D01*
X188735331Y-130755700D01*
X188735334Y-130755700D01*
X188962666Y-130755700D01*
X188962669Y-130755700D01*
X189187208Y-130720136D01*
X189403419Y-130649885D01*
X189605978Y-130546676D01*
X189789898Y-130413050D01*
X189950650Y-130252298D01*
X190084276Y-130068378D01*
X190187485Y-129865819D01*
X190257736Y-129649608D01*
X190293300Y-129425069D01*
X190293300Y-129197731D01*
X190579700Y-129197731D01*
X190579700Y-129425069D01*
X190609569Y-129613649D01*
X190615265Y-129649612D01*
X190680407Y-129850100D01*
X190685515Y-129865819D01*
X190786559Y-130064129D01*
X190788726Y-130068381D01*
X190922351Y-130252300D01*
X191083099Y-130413048D01*
X191083102Y-130413050D01*
X191267022Y-130546676D01*
X191469581Y-130649885D01*
X191685792Y-130720136D01*
X191910331Y-130755700D01*
X191910334Y-130755700D01*
X192137666Y-130755700D01*
X192137669Y-130755700D01*
X192362208Y-130720136D01*
X192578419Y-130649885D01*
X192780978Y-130546676D01*
X192964898Y-130413050D01*
X193125650Y-130252298D01*
X193259276Y-130068378D01*
X193362485Y-129865819D01*
X193432736Y-129649608D01*
X193468300Y-129425069D01*
X193468300Y-129197731D01*
X193432736Y-128973192D01*
X193362485Y-128756981D01*
X193259276Y-128554422D01*
X193125650Y-128370502D01*
X193107476Y-128352328D01*
X193107473Y-128352324D01*
X192964900Y-128209751D01*
X192780981Y-128076126D01*
X192780980Y-128076125D01*
X192780978Y-128076124D01*
X192578419Y-127972915D01*
X192578416Y-127972914D01*
X192578414Y-127972913D01*
X192362212Y-127902665D01*
X192362210Y-127902664D01*
X192362208Y-127902664D01*
X192137669Y-127867100D01*
X191910331Y-127867100D01*
X191685792Y-127902664D01*
X191685790Y-127902664D01*
X191685787Y-127902665D01*
X191469585Y-127972913D01*
X191469579Y-127972916D01*
X191267018Y-128076126D01*
X191083099Y-128209751D01*
X190922351Y-128370499D01*
X190788726Y-128554418D01*
X190685516Y-128756979D01*
X190685513Y-128756985D01*
X190615265Y-128973187D01*
X190615264Y-128973190D01*
X190615264Y-128973192D01*
X190579700Y-129197731D01*
X190293300Y-129197731D01*
X190257736Y-128973192D01*
X190187485Y-128756981D01*
X190084276Y-128554422D01*
X190038425Y-128491314D01*
X189950648Y-128370499D01*
X189789900Y-128209751D01*
X189605981Y-128076126D01*
X189605980Y-128076125D01*
X189605978Y-128076124D01*
X189403419Y-127972915D01*
X189403416Y-127972914D01*
X189403414Y-127972913D01*
X189187212Y-127902665D01*
X189187210Y-127902664D01*
X189187208Y-127902664D01*
X188962669Y-127867100D01*
X188735331Y-127867100D01*
X188510792Y-127902664D01*
X188510790Y-127902664D01*
X188510787Y-127902665D01*
X188294585Y-127972913D01*
X188294579Y-127972916D01*
X188092018Y-128076126D01*
X187908099Y-128209751D01*
X187747351Y-128370499D01*
X187613726Y-128554418D01*
X187510516Y-128756979D01*
X187510513Y-128756985D01*
X187440265Y-128973187D01*
X187440264Y-128973190D01*
X187440264Y-128973192D01*
X187404700Y-129197731D01*
X182564417Y-129197731D01*
X182610871Y-129170911D01*
X182637915Y-129143867D01*
X182678098Y-129103685D01*
X182714105Y-129067677D01*
X182714111Y-129067671D01*
X182787112Y-128941229D01*
X182824900Y-128800201D01*
X182824900Y-128654199D01*
X182787112Y-128513171D01*
X182787110Y-128513168D01*
X182787110Y-128513166D01*
X182714113Y-128386732D01*
X182714105Y-128386722D01*
X182610877Y-128283494D01*
X182610867Y-128283486D01*
X182484433Y-128210489D01*
X182427197Y-128195153D01*
X182343401Y-128172700D01*
X182197399Y-128172700D01*
X182113603Y-128195153D01*
X182056366Y-128210489D01*
X181929932Y-128283486D01*
X181929922Y-128283494D01*
X181826694Y-128386722D01*
X181826686Y-128386732D01*
X181753689Y-128513166D01*
X181735303Y-128581784D01*
X181717720Y-128647409D01*
X181715900Y-128654200D01*
X181715900Y-128681700D01*
X181695898Y-128749821D01*
X181642242Y-128796314D01*
X181589900Y-128807700D01*
X181460799Y-128807700D01*
X181374486Y-128830827D01*
X181319766Y-128845489D01*
X181193332Y-128918486D01*
X181193322Y-128918494D01*
X181090094Y-129021722D01*
X181090086Y-129021732D01*
X181017089Y-129148166D01*
X181003808Y-129197734D01*
X180979300Y-129289199D01*
X180979300Y-129435201D01*
X181008050Y-129542498D01*
X181017089Y-129576233D01*
X181090086Y-129702667D01*
X181090094Y-129702677D01*
X181187607Y-129800190D01*
X181221633Y-129862502D01*
X181216568Y-129933317D01*
X181174021Y-129990153D01*
X181107501Y-130014964D01*
X181098512Y-130015285D01*
X180955721Y-130015285D01*
X180869408Y-130038412D01*
X180814688Y-130053074D01*
X180711376Y-130112722D01*
X180642380Y-130129460D01*
X180575289Y-130106239D01*
X180559281Y-130092698D01*
X180553477Y-130086894D01*
X180553467Y-130086886D01*
X180427033Y-130013889D01*
X180410372Y-130009424D01*
X180286001Y-129976100D01*
X180139999Y-129976100D01*
X180055773Y-129998668D01*
X179998966Y-130013889D01*
X179872532Y-130086886D01*
X179872521Y-130086894D01*
X179835023Y-130124393D01*
X179772711Y-130158418D01*
X179701895Y-130153352D01*
X179682929Y-130144416D01*
X179588833Y-130090089D01*
X179572172Y-130085624D01*
X179447801Y-130052300D01*
X179301799Y-130052300D01*
X179237671Y-130069483D01*
X179160766Y-130090089D01*
X179034332Y-130163086D01*
X179034326Y-130163091D01*
X178962584Y-130234833D01*
X178900271Y-130268858D01*
X178829456Y-130263792D01*
X178772620Y-130221245D01*
X178757076Y-130193945D01*
X178755676Y-130190564D01*
X178682680Y-130064132D01*
X178682672Y-130064122D01*
X178579444Y-129960894D01*
X178579434Y-129960886D01*
X178453000Y-129887889D01*
X178419489Y-129878910D01*
X178311968Y-129850100D01*
X178165966Y-129850100D01*
X178049734Y-129881243D01*
X177978758Y-129879554D01*
X177928030Y-129848633D01*
X177693044Y-129613647D01*
X177693042Y-129613646D01*
X177693040Y-129613644D01*
X177611847Y-129566767D01*
X177611845Y-129566766D01*
X177611843Y-129566765D01*
X177521274Y-129542498D01*
X175184721Y-129542498D01*
X175094155Y-129566764D01*
X175094154Y-129566764D01*
X175094152Y-129566765D01*
X175018282Y-129610569D01*
X175013599Y-129613272D01*
X175012949Y-129613648D01*
X174826408Y-129800190D01*
X174387401Y-130239196D01*
X174325091Y-130273220D01*
X174298308Y-130276100D01*
X166983415Y-130276100D01*
X166983399Y-130276099D01*
X166975681Y-130276099D01*
X166881919Y-130276099D01*
X166870339Y-130279202D01*
X166813432Y-130294450D01*
X166813431Y-130294449D01*
X166791354Y-130300365D01*
X166791345Y-130300369D01*
X166729339Y-130336169D01*
X166729338Y-130336168D01*
X166710155Y-130347244D01*
X166710146Y-130347251D01*
X166579797Y-130477601D01*
X166203801Y-130853596D01*
X166141491Y-130887620D01*
X166114708Y-130890500D01*
X166042999Y-130890500D01*
X165956686Y-130913627D01*
X165901966Y-130928289D01*
X165775532Y-131001286D01*
X165775522Y-131001294D01*
X165672294Y-131104522D01*
X165672288Y-131104530D01*
X165622851Y-131190157D01*
X165571468Y-131239150D01*
X165501754Y-131252585D01*
X165435843Y-131226198D01*
X165404613Y-131190156D01*
X165340513Y-131079132D01*
X165340505Y-131079122D01*
X165237277Y-130975894D01*
X165237267Y-130975886D01*
X165110833Y-130902889D01*
X165071907Y-130892459D01*
X164969801Y-130865100D01*
X164823799Y-130865100D01*
X164737486Y-130888227D01*
X164682766Y-130902889D01*
X164556332Y-130975886D01*
X164556322Y-130975894D01*
X164453094Y-131079122D01*
X164453086Y-131079132D01*
X164380089Y-131205566D01*
X164367491Y-131252585D01*
X164342300Y-131346599D01*
X164342300Y-131492601D01*
X164358106Y-131551591D01*
X164380089Y-131633633D01*
X164453086Y-131760067D01*
X164453094Y-131760077D01*
X164556322Y-131863305D01*
X164556327Y-131863309D01*
X164556329Y-131863311D01*
X164556330Y-131863312D01*
X164556332Y-131863313D01*
X164682766Y-131936310D01*
X164682768Y-131936310D01*
X164682771Y-131936312D01*
X164823799Y-131974100D01*
X164823801Y-131974100D01*
X164969799Y-131974100D01*
X164969801Y-131974100D01*
X165110829Y-131936312D01*
X165110832Y-131936310D01*
X165110833Y-131936310D01*
X165198083Y-131885936D01*
X165237271Y-131863311D01*
X165340511Y-131760071D01*
X165389948Y-131674442D01*
X165441330Y-131625450D01*
X165511043Y-131612013D01*
X165576955Y-131638400D01*
X165608186Y-131674442D01*
X165672288Y-131785470D01*
X165672294Y-131785477D01*
X165775522Y-131888705D01*
X165775527Y-131888709D01*
X165775529Y-131888711D01*
X165775530Y-131888712D01*
X165775532Y-131888713D01*
X165901966Y-131961710D01*
X165901968Y-131961710D01*
X165901971Y-131961712D01*
X166042999Y-131999500D01*
X166043001Y-131999500D01*
X166188999Y-131999500D01*
X166189001Y-131999500D01*
X166330029Y-131961712D01*
X166330032Y-131961710D01*
X166330033Y-131961710D01*
X166401795Y-131920278D01*
X166456471Y-131888711D01*
X166559711Y-131785471D01*
X166632712Y-131659029D01*
X166661500Y-131551589D01*
X166698449Y-131490970D01*
X166762309Y-131459948D01*
X166832804Y-131468376D01*
X166887551Y-131513578D01*
X166904911Y-131551591D01*
X166920088Y-131608230D01*
X166993086Y-131734667D01*
X166993094Y-131734677D01*
X167096322Y-131837905D01*
X167096327Y-131837909D01*
X167096329Y-131837911D01*
X167096330Y-131837912D01*
X167096332Y-131837913D01*
X167161300Y-131875422D01*
X167210293Y-131926804D01*
X167223729Y-131996518D01*
X167197343Y-132062429D01*
X167187397Y-132073635D01*
X167164516Y-132096515D01*
X167164511Y-132096522D01*
X167091514Y-132222956D01*
X167070387Y-132301803D01*
X167053725Y-132363989D01*
X167053725Y-132509991D01*
X167085706Y-132629347D01*
X167091514Y-132651023D01*
X167164511Y-132777457D01*
X167164519Y-132777467D01*
X167267747Y-132880695D01*
X167267751Y-132880698D01*
X167267754Y-132880701D01*
X167267757Y-132880702D01*
X167267760Y-132880705D01*
X167276553Y-132885782D01*
X167325546Y-132937165D01*
X167338981Y-133006879D01*
X167312594Y-133072789D01*
X167254761Y-133113971D01*
X167213552Y-133120900D01*
X163062794Y-133120900D01*
X162994673Y-133100898D01*
X162973703Y-133083999D01*
X162116553Y-132226849D01*
X162116551Y-132226848D01*
X162116549Y-132226846D01*
X162035356Y-132179969D01*
X162035354Y-132179968D01*
X162035352Y-132179967D01*
X161944783Y-132155700D01*
X161944782Y-132155700D01*
X157451092Y-132155700D01*
X157421176Y-132146916D01*
X157390707Y-132140288D01*
X157385611Y-132136473D01*
X157382971Y-132135698D01*
X157361997Y-132118795D01*
X157305397Y-132062195D01*
X157271371Y-131999883D01*
X157276436Y-131929068D01*
X157318983Y-131872232D01*
X157385503Y-131847421D01*
X157394492Y-131847100D01*
X157400599Y-131847100D01*
X157400601Y-131847100D01*
X157541629Y-131809312D01*
X157541632Y-131809310D01*
X157541633Y-131809310D01*
X157631282Y-131757551D01*
X157668071Y-131736311D01*
X157771311Y-131633071D01*
X157820865Y-131547240D01*
X157844310Y-131506633D01*
X157844310Y-131506632D01*
X157844312Y-131506629D01*
X157882100Y-131365601D01*
X157882100Y-131219599D01*
X157844312Y-131078571D01*
X157844310Y-131078568D01*
X157844310Y-131078566D01*
X157771313Y-130952132D01*
X157771305Y-130952122D01*
X157668077Y-130848894D01*
X157668067Y-130848886D01*
X157541737Y-130775949D01*
X158601900Y-130775949D01*
X158601900Y-130921951D01*
X158632400Y-131035780D01*
X158639689Y-131062983D01*
X158712686Y-131189417D01*
X158712694Y-131189427D01*
X158815922Y-131292655D01*
X158815927Y-131292659D01*
X158815929Y-131292661D01*
X158815930Y-131292662D01*
X158815932Y-131292663D01*
X158942366Y-131365660D01*
X158942368Y-131365660D01*
X158942371Y-131365662D01*
X159083399Y-131403450D01*
X159083401Y-131403450D01*
X159229399Y-131403450D01*
X159229401Y-131403450D01*
X159370429Y-131365662D01*
X159370432Y-131365660D01*
X159370433Y-131365660D01*
X159443527Y-131323459D01*
X159496871Y-131292661D01*
X159600111Y-131189421D01*
X159649127Y-131104522D01*
X159673110Y-131062983D01*
X159673110Y-131062982D01*
X159673112Y-131062979D01*
X159710900Y-130921951D01*
X159710900Y-130775949D01*
X159673112Y-130634921D01*
X159673110Y-130634918D01*
X159673110Y-130634916D01*
X159600113Y-130508482D01*
X159600105Y-130508472D01*
X159496877Y-130405244D01*
X159496867Y-130405236D01*
X159370433Y-130332239D01*
X159353772Y-130327774D01*
X159229401Y-130294450D01*
X159083399Y-130294450D01*
X158997086Y-130317577D01*
X158942366Y-130332239D01*
X158815932Y-130405236D01*
X158815922Y-130405244D01*
X158712694Y-130508472D01*
X158712686Y-130508482D01*
X158639689Y-130634916D01*
X158618562Y-130713763D01*
X158601900Y-130775949D01*
X157541737Y-130775949D01*
X157541633Y-130775889D01*
X157504823Y-130766026D01*
X157400601Y-130738100D01*
X157254599Y-130738100D01*
X157168286Y-130761227D01*
X157113566Y-130775889D01*
X156987132Y-130848886D01*
X156987122Y-130848894D01*
X156883894Y-130952122D01*
X156883886Y-130952132D01*
X156810889Y-131078566D01*
X156807387Y-131091636D01*
X156802039Y-131111599D01*
X156801607Y-131113210D01*
X156764655Y-131173833D01*
X156700794Y-131204854D01*
X156630300Y-131196426D01*
X156575553Y-131151223D01*
X156558193Y-131113210D01*
X156557762Y-131111601D01*
X156548912Y-131078571D01*
X156548910Y-131078568D01*
X156548910Y-131078566D01*
X156475913Y-130952132D01*
X156475905Y-130952122D01*
X156372677Y-130848894D01*
X156372667Y-130848886D01*
X156246233Y-130775889D01*
X156209423Y-130766026D01*
X156105201Y-130738100D01*
X155959199Y-130738100D01*
X155872886Y-130761227D01*
X155818166Y-130775889D01*
X155691732Y-130848886D01*
X155691722Y-130848894D01*
X155638695Y-130901922D01*
X155576383Y-130935948D01*
X155505568Y-130930883D01*
X155460505Y-130901922D01*
X155407477Y-130848894D01*
X155407467Y-130848886D01*
X155281033Y-130775889D01*
X155244223Y-130766026D01*
X155140001Y-130738100D01*
X154993999Y-130738100D01*
X154907686Y-130761227D01*
X154852966Y-130775889D01*
X154726532Y-130848886D01*
X154726522Y-130848894D01*
X154623294Y-130952122D01*
X154623286Y-130952132D01*
X154550289Y-131078566D01*
X154531105Y-131150164D01*
X154512500Y-131219599D01*
X154512500Y-131365601D01*
X154537780Y-131459948D01*
X154550289Y-131506633D01*
X154603604Y-131598976D01*
X154620342Y-131667971D01*
X154597122Y-131735063D01*
X154583581Y-131751071D01*
X154512667Y-131821985D01*
X154512662Y-131821991D01*
X154439665Y-131948425D01*
X154426779Y-131996518D01*
X154401876Y-132089458D01*
X154401876Y-132235460D01*
X154435200Y-132359831D01*
X154439665Y-132376492D01*
X154512662Y-132502926D01*
X154512670Y-132502936D01*
X154615898Y-132606164D01*
X154615903Y-132606168D01*
X154615905Y-132606170D01*
X154615906Y-132606171D01*
X154615908Y-132606172D01*
X154742342Y-132679169D01*
X154742344Y-132679169D01*
X154742347Y-132679171D01*
X154883375Y-132716959D01*
X154883377Y-132716959D01*
X155029375Y-132716959D01*
X155029377Y-132716959D01*
X155170405Y-132679171D01*
X155170408Y-132679169D01*
X155170409Y-132679169D01*
X155256703Y-132629347D01*
X155296847Y-132606170D01*
X155400087Y-132502930D01*
X155450111Y-132416286D01*
X155473086Y-132376492D01*
X155473086Y-132376491D01*
X155473088Y-132376488D01*
X155510876Y-132235460D01*
X155510876Y-132089458D01*
X155473088Y-131948430D01*
X155419770Y-131856080D01*
X155413099Y-131828582D01*
X155403211Y-131802068D01*
X155404845Y-131794556D01*
X155403033Y-131787087D01*
X155412288Y-131760344D01*
X155418304Y-131732694D01*
X155424913Y-131723864D01*
X155426253Y-131719995D01*
X155439791Y-131703990D01*
X155460507Y-131683275D01*
X155522820Y-131649252D01*
X155593635Y-131654318D01*
X155638695Y-131683278D01*
X155691722Y-131736305D01*
X155691727Y-131736309D01*
X155691729Y-131736311D01*
X155691730Y-131736312D01*
X155691732Y-131736313D01*
X155818166Y-131809310D01*
X155818168Y-131809310D01*
X155818171Y-131809312D01*
X155959199Y-131847100D01*
X156030907Y-131847100D01*
X156099028Y-131867102D01*
X156120002Y-131884004D01*
X156541499Y-132305500D01*
X156966447Y-132730448D01*
X156966449Y-132730451D01*
X157032749Y-132796751D01*
X157096573Y-132833600D01*
X157104646Y-132838261D01*
X157113946Y-132843631D01*
X157113950Y-132843633D01*
X157204519Y-132867900D01*
X157298281Y-132867900D01*
X161698210Y-132867900D01*
X161766331Y-132887902D01*
X161787305Y-132904805D01*
X162047973Y-133165473D01*
X162081999Y-133227785D01*
X162076934Y-133298600D01*
X162034387Y-133355436D01*
X162021880Y-133363686D01*
X161978232Y-133388886D01*
X161978222Y-133388894D01*
X161874994Y-133492122D01*
X161874986Y-133492132D01*
X161801989Y-133618566D01*
X161791780Y-133656667D01*
X161764200Y-133759599D01*
X161764200Y-133905601D01*
X161788613Y-133996712D01*
X161801989Y-134046633D01*
X161874986Y-134173067D01*
X161874994Y-134173077D01*
X161978222Y-134276305D01*
X161978227Y-134276309D01*
X161978229Y-134276311D01*
X161978230Y-134276312D01*
X161978232Y-134276313D01*
X162104666Y-134349310D01*
X162104668Y-134349310D01*
X162104671Y-134349312D01*
X162245699Y-134387100D01*
X162245701Y-134387100D01*
X162391699Y-134387100D01*
X162391701Y-134387100D01*
X162532729Y-134349312D01*
X162532732Y-134349310D01*
X162532733Y-134349310D01*
X162631361Y-134292367D01*
X162659171Y-134276311D01*
X162709878Y-134225603D01*
X162772188Y-134191580D01*
X162798972Y-134188700D01*
X171888666Y-134188700D01*
X171956787Y-134208702D01*
X172003280Y-134262358D01*
X172013384Y-134332632D01*
X171983890Y-134397212D01*
X171977761Y-134403795D01*
X171942392Y-134439163D01*
X171942384Y-134439173D01*
X171869387Y-134565607D01*
X171851373Y-134632838D01*
X171831598Y-134706640D01*
X171831598Y-134852642D01*
X171859658Y-134957363D01*
X171869387Y-134993674D01*
X171886030Y-135022500D01*
X171902768Y-135091496D01*
X171879547Y-135158588D01*
X171823740Y-135202475D01*
X171776911Y-135211500D01*
X144001123Y-135211500D01*
X143910557Y-135235766D01*
X143910549Y-135235769D01*
X143829356Y-135282646D01*
X143829351Y-135282650D01*
X143808979Y-135303023D01*
X143763053Y-135348949D01*
X143763051Y-135348951D01*
X142297334Y-136814667D01*
X141813626Y-137298375D01*
X141813625Y-137298374D01*
X141813624Y-137298375D01*
X141813625Y-137298376D01*
X141765048Y-137346953D01*
X141718168Y-137428152D01*
X141718166Y-137428156D01*
X141712447Y-137449499D01*
X141679838Y-137505978D01*
X141606287Y-137579531D01*
X141533289Y-137705966D01*
X141513327Y-137780467D01*
X141495500Y-137846999D01*
X140531532Y-137846999D01*
X140463713Y-137729532D01*
X140463705Y-137729522D01*
X140360477Y-137626294D01*
X140360467Y-137626286D01*
X140234033Y-137553289D01*
X140209479Y-137546710D01*
X140093001Y-137515500D01*
X139946999Y-137515500D01*
X139860686Y-137538627D01*
X139805966Y-137553289D01*
X139679532Y-137626286D01*
X139679522Y-137626294D01*
X139576294Y-137729522D01*
X139576286Y-137729532D01*
X139503289Y-137855966D01*
X139491617Y-137899529D01*
X139465500Y-137996999D01*
X133132272Y-137996999D01*
X133127350Y-137994157D01*
X133089551Y-137984029D01*
X132986318Y-137956368D01*
X132840316Y-137956368D01*
X132754003Y-137979495D01*
X132699283Y-137994157D01*
X132572849Y-138067154D01*
X132572839Y-138067162D01*
X132469611Y-138170390D01*
X132469603Y-138170400D01*
X132396606Y-138296834D01*
X132389243Y-138324315D01*
X132359127Y-138436712D01*
X132358817Y-138437868D01*
X132358817Y-138461405D01*
X132338815Y-138529526D01*
X132285159Y-138576019D01*
X132214885Y-138586123D01*
X132200207Y-138583112D01*
X132174601Y-138576251D01*
X132028599Y-138576251D01*
X131942286Y-138599378D01*
X131887566Y-138614040D01*
X131761132Y-138687037D01*
X131761122Y-138687045D01*
X131657894Y-138790273D01*
X131657886Y-138790283D01*
X131584889Y-138916717D01*
X131564567Y-138992560D01*
X131547100Y-139057750D01*
X115510000Y-139057750D01*
X115510000Y-135368911D01*
X115511078Y-135352465D01*
X115515304Y-135320366D01*
X115525145Y-135245613D01*
X115533654Y-135213855D01*
X115571714Y-135121969D01*
X115588151Y-135093500D01*
X115653776Y-135007976D01*
X115664622Y-134995610D01*
X117340405Y-133319828D01*
X117402717Y-133285802D01*
X117473533Y-133290867D01*
X117530368Y-133333414D01*
X117555179Y-133399934D01*
X117555500Y-133408923D01*
X117555500Y-133553001D01*
X117577888Y-133636555D01*
X117593289Y-133694033D01*
X117666286Y-133820467D01*
X117666294Y-133820477D01*
X117769522Y-133923705D01*
X117769527Y-133923709D01*
X117769529Y-133923711D01*
X117769530Y-133923712D01*
X117769532Y-133923713D01*
X117895966Y-133996710D01*
X117895968Y-133996710D01*
X117895971Y-133996712D01*
X118036999Y-134034500D01*
X118037001Y-134034500D01*
X118182999Y-134034500D01*
X118183001Y-134034500D01*
X118324029Y-133996712D01*
X118324032Y-133996710D01*
X118324033Y-133996710D01*
X118389090Y-133959149D01*
X118450471Y-133923711D01*
X118553711Y-133820471D01*
X118606772Y-133728567D01*
X118626710Y-133694033D01*
X118626710Y-133694031D01*
X118626712Y-133694029D01*
X118628596Y-133686999D01*
X131955500Y-133686999D01*
X131955500Y-133833001D01*
X131979806Y-133923713D01*
X131993289Y-133974033D01*
X132066286Y-134100467D01*
X132066294Y-134100477D01*
X132169522Y-134203705D01*
X132169527Y-134203709D01*
X132169529Y-134203711D01*
X132169530Y-134203712D01*
X132169532Y-134203713D01*
X132295966Y-134276710D01*
X132295968Y-134276710D01*
X132295971Y-134276712D01*
X132436999Y-134314500D01*
X132437001Y-134314500D01*
X132582999Y-134314500D01*
X132583001Y-134314500D01*
X132724029Y-134276712D01*
X132724032Y-134276710D01*
X132724033Y-134276710D01*
X132834380Y-134213001D01*
X132850471Y-134203711D01*
X132953711Y-134100471D01*
X133026712Y-133974029D01*
X133031275Y-133956999D01*
X147285500Y-133956999D01*
X147285500Y-134103001D01*
X147313617Y-134207935D01*
X147323289Y-134244033D01*
X147396286Y-134370467D01*
X147396294Y-134370477D01*
X147499522Y-134473705D01*
X147499527Y-134473709D01*
X147499529Y-134473711D01*
X147499530Y-134473712D01*
X147499532Y-134473713D01*
X147625966Y-134546710D01*
X147625968Y-134546710D01*
X147625971Y-134546712D01*
X147766999Y-134584500D01*
X147767001Y-134584500D01*
X147912999Y-134584500D01*
X147913001Y-134584500D01*
X148054029Y-134546712D01*
X148054032Y-134546710D01*
X148054033Y-134546710D01*
X148123871Y-134506389D01*
X148180471Y-134473711D01*
X148283711Y-134370471D01*
X148339497Y-134273846D01*
X148356710Y-134244033D01*
X148356710Y-134244032D01*
X148356712Y-134244029D01*
X148394500Y-134103001D01*
X148394500Y-134066999D01*
X149155500Y-134066999D01*
X149155500Y-134213001D01*
X149182673Y-134314413D01*
X149193289Y-134354033D01*
X149266286Y-134480467D01*
X149266294Y-134480477D01*
X149369522Y-134583705D01*
X149369527Y-134583709D01*
X149369529Y-134583711D01*
X149369530Y-134583712D01*
X149369532Y-134583713D01*
X149495966Y-134656710D01*
X149495968Y-134656710D01*
X149495971Y-134656712D01*
X149636999Y-134694500D01*
X149637001Y-134694500D01*
X149782999Y-134694500D01*
X149783001Y-134694500D01*
X149924029Y-134656712D01*
X149924032Y-134656710D01*
X149924033Y-134656710D01*
X150049104Y-134584500D01*
X150050471Y-134583711D01*
X150153711Y-134480471D01*
X150226712Y-134354029D01*
X150233187Y-134329862D01*
X154566949Y-134329862D01*
X154566949Y-134475864D01*
X154595845Y-134583705D01*
X154604738Y-134616896D01*
X154677735Y-134743330D01*
X154677743Y-134743340D01*
X154780971Y-134846568D01*
X154780976Y-134846572D01*
X154780978Y-134846574D01*
X154780979Y-134846575D01*
X154780981Y-134846576D01*
X154907415Y-134919573D01*
X154907417Y-134919573D01*
X154907420Y-134919575D01*
X155048448Y-134957363D01*
X155048450Y-134957363D01*
X155194448Y-134957363D01*
X155194450Y-134957363D01*
X155335478Y-134919575D01*
X155335481Y-134919573D01*
X155335482Y-134919573D01*
X155431235Y-134864290D01*
X155461920Y-134846574D01*
X155565160Y-134743334D01*
X155638161Y-134616892D01*
X155675949Y-134475864D01*
X155675949Y-134329862D01*
X155638161Y-134188834D01*
X155638159Y-134188831D01*
X155638159Y-134188829D01*
X155565162Y-134062395D01*
X155565154Y-134062385D01*
X155461926Y-133959157D01*
X155461916Y-133959149D01*
X155356972Y-133898560D01*
X155356971Y-133898560D01*
X155335480Y-133886152D01*
X155335479Y-133886151D01*
X155335478Y-133886151D01*
X155194450Y-133848363D01*
X155048448Y-133848363D01*
X154962135Y-133871490D01*
X154907415Y-133886152D01*
X154780981Y-133959149D01*
X154780971Y-133959157D01*
X154677743Y-134062385D01*
X154677735Y-134062395D01*
X154604738Y-134188829D01*
X154583611Y-134267676D01*
X154566949Y-134329862D01*
X150233187Y-134329862D01*
X150264500Y-134213001D01*
X150264500Y-134066999D01*
X150226712Y-133925971D01*
X150226710Y-133925968D01*
X150226710Y-133925966D01*
X150153713Y-133799532D01*
X150153705Y-133799522D01*
X150050477Y-133696294D01*
X150050467Y-133696286D01*
X149924033Y-133623289D01*
X149906406Y-133618566D01*
X149783001Y-133585500D01*
X149636999Y-133585500D01*
X149550686Y-133608627D01*
X149495966Y-133623289D01*
X149369532Y-133696286D01*
X149369522Y-133696294D01*
X149266294Y-133799522D01*
X149266286Y-133799532D01*
X149193289Y-133925966D01*
X149193288Y-133925971D01*
X149155500Y-134066999D01*
X148394500Y-134066999D01*
X148394500Y-133956999D01*
X148356712Y-133815971D01*
X148356710Y-133815968D01*
X148356710Y-133815966D01*
X148283713Y-133689532D01*
X148283705Y-133689522D01*
X148180477Y-133586294D01*
X148180467Y-133586286D01*
X148054033Y-133513289D01*
X147987743Y-133495527D01*
X147913001Y-133475500D01*
X147766999Y-133475500D01*
X147692275Y-133495522D01*
X147625966Y-133513289D01*
X147499532Y-133586286D01*
X147499522Y-133586294D01*
X147396294Y-133689522D01*
X147396286Y-133689532D01*
X147323289Y-133815966D01*
X147304483Y-133886151D01*
X147285500Y-133956999D01*
X133031275Y-133956999D01*
X133064500Y-133833001D01*
X133064500Y-133686999D01*
X133026712Y-133545971D01*
X133026710Y-133545968D01*
X133026710Y-133545966D01*
X132953713Y-133419532D01*
X132953705Y-133419522D01*
X132850477Y-133316294D01*
X132850467Y-133316286D01*
X132848411Y-133315099D01*
X151477200Y-133315099D01*
X151477200Y-133461101D01*
X151497676Y-133537518D01*
X151514989Y-133602133D01*
X151587986Y-133728567D01*
X151587994Y-133728577D01*
X151691222Y-133831805D01*
X151691227Y-133831809D01*
X151691229Y-133831811D01*
X151691230Y-133831812D01*
X151691232Y-133831813D01*
X151817666Y-133904810D01*
X151817668Y-133904810D01*
X151817671Y-133904812D01*
X151958699Y-133942600D01*
X151958701Y-133942600D01*
X152104699Y-133942600D01*
X152104701Y-133942600D01*
X152245729Y-133904812D01*
X152245732Y-133904810D01*
X152245733Y-133904810D01*
X152343502Y-133848363D01*
X152372171Y-133831811D01*
X152406283Y-133797699D01*
X158017700Y-133797699D01*
X158017700Y-133943701D01*
X158042029Y-134034500D01*
X158055489Y-134084733D01*
X158128486Y-134211167D01*
X158128494Y-134211177D01*
X158231722Y-134314405D01*
X158231727Y-134314409D01*
X158231729Y-134314411D01*
X158231730Y-134314412D01*
X158231732Y-134314413D01*
X158358166Y-134387410D01*
X158358168Y-134387410D01*
X158358171Y-134387412D01*
X158499199Y-134425200D01*
X158499201Y-134425200D01*
X158645199Y-134425200D01*
X158645201Y-134425200D01*
X158786229Y-134387412D01*
X158786232Y-134387410D01*
X158786233Y-134387410D01*
X158885909Y-134329862D01*
X158912671Y-134314411D01*
X159015911Y-134211171D01*
X159079820Y-134100477D01*
X159088910Y-134084733D01*
X159088910Y-134084732D01*
X159088912Y-134084729D01*
X159126700Y-133943701D01*
X159126700Y-133797699D01*
X159088912Y-133656671D01*
X159077298Y-133636555D01*
X159791612Y-133636555D01*
X159791612Y-133782557D01*
X159809245Y-133848363D01*
X159829401Y-133923589D01*
X159902398Y-134050023D01*
X159902406Y-134050033D01*
X160005634Y-134153261D01*
X160005639Y-134153265D01*
X160005641Y-134153267D01*
X160005642Y-134153268D01*
X160005644Y-134153269D01*
X160132078Y-134226266D01*
X160132080Y-134226266D01*
X160132083Y-134226268D01*
X160273111Y-134264056D01*
X160273113Y-134264056D01*
X160419111Y-134264056D01*
X160419113Y-134264056D01*
X160560141Y-134226268D01*
X160560144Y-134226266D01*
X160560145Y-134226266D01*
X160663226Y-134166752D01*
X160686583Y-134153267D01*
X160789823Y-134050027D01*
X160842287Y-133959157D01*
X160862822Y-133923589D01*
X160862822Y-133923588D01*
X160862824Y-133923585D01*
X160900612Y-133782557D01*
X160900612Y-133636555D01*
X160862824Y-133495527D01*
X160862822Y-133495524D01*
X160862822Y-133495522D01*
X160789825Y-133369088D01*
X160789817Y-133369078D01*
X160686589Y-133265850D01*
X160686579Y-133265842D01*
X160560145Y-133192845D01*
X160543484Y-133188380D01*
X160419113Y-133155056D01*
X160273111Y-133155056D01*
X160186798Y-133178183D01*
X160132078Y-133192845D01*
X160005644Y-133265842D01*
X160005634Y-133265850D01*
X159902406Y-133369078D01*
X159902398Y-133369088D01*
X159829401Y-133495522D01*
X159814000Y-133553001D01*
X159791612Y-133636555D01*
X159077298Y-133636555D01*
X159069638Y-133623288D01*
X159015913Y-133530232D01*
X159015905Y-133530222D01*
X158912677Y-133426994D01*
X158912667Y-133426986D01*
X158786233Y-133353989D01*
X158769572Y-133349524D01*
X158645201Y-133316200D01*
X158499199Y-133316200D01*
X158434955Y-133333414D01*
X158358166Y-133353989D01*
X158231732Y-133426986D01*
X158231722Y-133426994D01*
X158128494Y-133530222D01*
X158128486Y-133530232D01*
X158055489Y-133656666D01*
X158045992Y-133692111D01*
X158017700Y-133797699D01*
X152406283Y-133797699D01*
X152475411Y-133728571D01*
X152528536Y-133636555D01*
X152548410Y-133602133D01*
X152548410Y-133602132D01*
X152548412Y-133602129D01*
X152586200Y-133461101D01*
X152586200Y-133315099D01*
X152548412Y-133174071D01*
X152548410Y-133174068D01*
X152548410Y-133174066D01*
X152475413Y-133047632D01*
X152475405Y-133047622D01*
X152372177Y-132944394D01*
X152372167Y-132944386D01*
X152245733Y-132871389D01*
X152229072Y-132866924D01*
X152104701Y-132833600D01*
X151958699Y-132833600D01*
X151875365Y-132855929D01*
X151817666Y-132871389D01*
X151691232Y-132944386D01*
X151691222Y-132944394D01*
X151587994Y-133047622D01*
X151587986Y-133047632D01*
X151514989Y-133174066D01*
X151496441Y-133243289D01*
X151477200Y-133315099D01*
X132848411Y-133315099D01*
X132724033Y-133243289D01*
X132666170Y-133227785D01*
X132583001Y-133205500D01*
X132436999Y-133205500D01*
X132353830Y-133227785D01*
X132295966Y-133243289D01*
X132169532Y-133316286D01*
X132169522Y-133316294D01*
X132066294Y-133419522D01*
X132066286Y-133419532D01*
X131993289Y-133545966D01*
X131973836Y-133618566D01*
X131955500Y-133686999D01*
X118628596Y-133686999D01*
X118664500Y-133553001D01*
X118664500Y-133406999D01*
X118626712Y-133265971D01*
X118626710Y-133265968D01*
X118626710Y-133265966D01*
X118553713Y-133139532D01*
X118553705Y-133139522D01*
X118450477Y-133036294D01*
X118450467Y-133036286D01*
X118324033Y-132963289D01*
X118288253Y-132953702D01*
X118183001Y-132925500D01*
X118042519Y-132925500D01*
X118013291Y-132916917D01*
X117983456Y-132910799D01*
X117979587Y-132907021D01*
X117974398Y-132905498D01*
X117954448Y-132882475D01*
X117932659Y-132861199D01*
X117931446Y-132855929D01*
X117927905Y-132851842D01*
X117923569Y-132821688D01*
X117916742Y-132792010D01*
X117918570Y-132786922D01*
X117917801Y-132781568D01*
X117930454Y-132753861D01*
X117940758Y-132725198D01*
X117945994Y-132719834D01*
X117947295Y-132716988D01*
X117965810Y-132699541D01*
X118035865Y-132645786D01*
X118064336Y-132629347D01*
X118156222Y-132591287D01*
X118187980Y-132582778D01*
X118278903Y-132570808D01*
X118294833Y-132568711D01*
X118311279Y-132567633D01*
X144254600Y-132567633D01*
X144254601Y-132567632D01*
X144425235Y-132396999D01*
X150415500Y-132396999D01*
X150415500Y-132543001D01*
X150444443Y-132651019D01*
X150453289Y-132684033D01*
X150526286Y-132810467D01*
X150526294Y-132810477D01*
X150629522Y-132913705D01*
X150629527Y-132913709D01*
X150629529Y-132913711D01*
X150629530Y-132913712D01*
X150629532Y-132913713D01*
X150755966Y-132986710D01*
X150755968Y-132986710D01*
X150755971Y-132986712D01*
X150896999Y-133024500D01*
X150897001Y-133024500D01*
X151042999Y-133024500D01*
X151043001Y-133024500D01*
X151184029Y-132986712D01*
X151184032Y-132986710D01*
X151184033Y-132986710D01*
X151269847Y-132937165D01*
X151310471Y-132913711D01*
X151413711Y-132810471D01*
X151486712Y-132684029D01*
X151524500Y-132543001D01*
X151524500Y-132396999D01*
X151486712Y-132255971D01*
X151486710Y-132255968D01*
X151486710Y-132255966D01*
X151413713Y-132129532D01*
X151413705Y-132129522D01*
X151310477Y-132026294D01*
X151310467Y-132026286D01*
X151184033Y-131953289D01*
X151165880Y-131948425D01*
X151043001Y-131915500D01*
X150896999Y-131915500D01*
X150817834Y-131936712D01*
X150755966Y-131953289D01*
X150629532Y-132026286D01*
X150629522Y-132026294D01*
X150526294Y-132129522D01*
X150526286Y-132129532D01*
X150453289Y-132255966D01*
X150453288Y-132255971D01*
X150415500Y-132396999D01*
X144425235Y-132396999D01*
X144522588Y-132299646D01*
X147246000Y-129576233D01*
X148091833Y-128730399D01*
X171454300Y-128730399D01*
X171454300Y-128876401D01*
X171480235Y-128973192D01*
X171492089Y-129017433D01*
X171565086Y-129143867D01*
X171565094Y-129143877D01*
X171668322Y-129247105D01*
X171668327Y-129247109D01*
X171668329Y-129247111D01*
X171668330Y-129247112D01*
X171668332Y-129247113D01*
X171794766Y-129320110D01*
X171794768Y-129320110D01*
X171794771Y-129320112D01*
X171935799Y-129357900D01*
X171935801Y-129357900D01*
X172081799Y-129357900D01*
X172081801Y-129357900D01*
X172222829Y-129320112D01*
X172222832Y-129320110D01*
X172222833Y-129320110D01*
X172289361Y-129281700D01*
X172349271Y-129247111D01*
X172452511Y-129143871D01*
X172523028Y-129021732D01*
X172525510Y-129017433D01*
X172525510Y-129017432D01*
X172525512Y-129017429D01*
X172563300Y-128876401D01*
X172563300Y-128730399D01*
X172525512Y-128589371D01*
X172525510Y-128589368D01*
X172525510Y-128589366D01*
X172452513Y-128462932D01*
X172452505Y-128462922D01*
X172349277Y-128359694D01*
X172349267Y-128359686D01*
X172222833Y-128286689D01*
X172206172Y-128282224D01*
X172081801Y-128248900D01*
X171935799Y-128248900D01*
X171849486Y-128272027D01*
X171794766Y-128286689D01*
X171668332Y-128359686D01*
X171668322Y-128359694D01*
X171565094Y-128462922D01*
X171565086Y-128462932D01*
X171492089Y-128589366D01*
X171474717Y-128654200D01*
X171454300Y-128730399D01*
X148091833Y-128730399D01*
X148163977Y-128658255D01*
X148176343Y-128647409D01*
X148261867Y-128581784D01*
X148290336Y-128565347D01*
X148382222Y-128527287D01*
X148413980Y-128518778D01*
X148504903Y-128506808D01*
X148520833Y-128504711D01*
X148537279Y-128503633D01*
X170565188Y-128503633D01*
X170565190Y-128503633D01*
X170703480Y-128366029D01*
X170703486Y-128366025D01*
X170713824Y-128355738D01*
X170713825Y-128355738D01*
X171043203Y-128027999D01*
X179074300Y-128027999D01*
X179074300Y-128174001D01*
X179079968Y-128195153D01*
X179112089Y-128315033D01*
X179185086Y-128441467D01*
X179185094Y-128441477D01*
X179288322Y-128544705D01*
X179288327Y-128544709D01*
X179288329Y-128544711D01*
X179288330Y-128544712D01*
X179288332Y-128544713D01*
X179414766Y-128617710D01*
X179414768Y-128617710D01*
X179414771Y-128617712D01*
X179555799Y-128655500D01*
X179555801Y-128655500D01*
X179701799Y-128655500D01*
X179701801Y-128655500D01*
X179842829Y-128617712D01*
X179842832Y-128617710D01*
X179842833Y-128617710D01*
X179952458Y-128554418D01*
X179969271Y-128544711D01*
X180072511Y-128441471D01*
X180145512Y-128315029D01*
X180183300Y-128174001D01*
X180183300Y-128027999D01*
X180145512Y-127886971D01*
X180145510Y-127886968D01*
X180145510Y-127886966D01*
X180072513Y-127760532D01*
X180072505Y-127760522D01*
X179969277Y-127657294D01*
X179969267Y-127657286D01*
X179842833Y-127584289D01*
X179826172Y-127579824D01*
X179701801Y-127546500D01*
X179555799Y-127546500D01*
X179469486Y-127569627D01*
X179414766Y-127584289D01*
X179288332Y-127657286D01*
X179288322Y-127657294D01*
X179185094Y-127760522D01*
X179185086Y-127760532D01*
X179112089Y-127886966D01*
X179112088Y-127886971D01*
X179074300Y-128027999D01*
X171043203Y-128027999D01*
X171098564Y-127972913D01*
X171141266Y-127930424D01*
X172140452Y-126936208D01*
X172277342Y-126799999D01*
X183849500Y-126799999D01*
X183849500Y-126946001D01*
X183881654Y-127066003D01*
X183887289Y-127087033D01*
X183960286Y-127213467D01*
X183960294Y-127213477D01*
X184063522Y-127316705D01*
X184063527Y-127316709D01*
X184063529Y-127316711D01*
X184063530Y-127316712D01*
X184063532Y-127316713D01*
X184189966Y-127389710D01*
X184189968Y-127389710D01*
X184189971Y-127389712D01*
X184330999Y-127427500D01*
X184331001Y-127427500D01*
X184476999Y-127427500D01*
X184477001Y-127427500D01*
X184618029Y-127389712D01*
X184618032Y-127389710D01*
X184618033Y-127389710D01*
X184737153Y-127320936D01*
X184744471Y-127316711D01*
X184847711Y-127213471D01*
X184906150Y-127112251D01*
X184920710Y-127087033D01*
X184920710Y-127087032D01*
X184920712Y-127087029D01*
X184958500Y-126946001D01*
X184958500Y-126799999D01*
X184920712Y-126658971D01*
X184920710Y-126658968D01*
X184920710Y-126658966D01*
X184847713Y-126532532D01*
X184847705Y-126532522D01*
X184791475Y-126476292D01*
X186395993Y-126476292D01*
X186395993Y-126622294D01*
X186416264Y-126697946D01*
X186433782Y-126763326D01*
X186506779Y-126889760D01*
X186506787Y-126889770D01*
X186610015Y-126992998D01*
X186610020Y-126993002D01*
X186610022Y-126993004D01*
X186610023Y-126993005D01*
X186610025Y-126993006D01*
X186736459Y-127066003D01*
X186736461Y-127066003D01*
X186736464Y-127066005D01*
X186877492Y-127103793D01*
X186877494Y-127103793D01*
X187023492Y-127103793D01*
X187023494Y-127103793D01*
X187164522Y-127066005D01*
X187164525Y-127066003D01*
X187164526Y-127066003D01*
X187261046Y-127010277D01*
X187290964Y-126993004D01*
X187394204Y-126889764D01*
X187467205Y-126763322D01*
X187484724Y-126697939D01*
X188103200Y-126697939D01*
X188103200Y-126844860D01*
X188118677Y-126922665D01*
X188131860Y-126988942D01*
X188131861Y-126988946D01*
X188131862Y-126988947D01*
X188133543Y-126993006D01*
X188188080Y-127124669D01*
X188229401Y-127186510D01*
X188269698Y-127246819D01*
X188269703Y-127246825D01*
X188373574Y-127350696D01*
X188373580Y-127350701D01*
X188495731Y-127432320D01*
X188631458Y-127488540D01*
X188755521Y-127513217D01*
X188775539Y-127517199D01*
X188775542Y-127517199D01*
X188775545Y-127517200D01*
X188775546Y-127517200D01*
X188922454Y-127517200D01*
X188922455Y-127517200D01*
X189066542Y-127488540D01*
X189202269Y-127432320D01*
X189324420Y-127350701D01*
X189428301Y-127246820D01*
X189509920Y-127124669D01*
X189566140Y-126988942D01*
X189594800Y-126844855D01*
X189594800Y-126697945D01*
X189589837Y-126672996D01*
X189577928Y-126613122D01*
X189574681Y-126596799D01*
X191571100Y-126596799D01*
X191571100Y-126742801D01*
X191588103Y-126806257D01*
X191608889Y-126883833D01*
X191681886Y-127010267D01*
X191681894Y-127010277D01*
X191785122Y-127113505D01*
X191785127Y-127113509D01*
X191785129Y-127113511D01*
X191785130Y-127113512D01*
X191785132Y-127113513D01*
X191911566Y-127186510D01*
X191911568Y-127186510D01*
X191911571Y-127186512D01*
X192052599Y-127224300D01*
X192052601Y-127224300D01*
X192198599Y-127224300D01*
X192198601Y-127224300D01*
X192339629Y-127186512D01*
X192339632Y-127186510D01*
X192339633Y-127186510D01*
X192402850Y-127150011D01*
X192466071Y-127113511D01*
X192569311Y-127010271D01*
X192638882Y-126889770D01*
X192642310Y-126883833D01*
X192642310Y-126883832D01*
X192642312Y-126883829D01*
X192680100Y-126742801D01*
X192680100Y-126596799D01*
X192642312Y-126455771D01*
X192642310Y-126455768D01*
X192642310Y-126455766D01*
X192569313Y-126329332D01*
X192569305Y-126329322D01*
X192466077Y-126226094D01*
X192466067Y-126226086D01*
X192339633Y-126153089D01*
X192322972Y-126148624D01*
X192198601Y-126115300D01*
X192052599Y-126115300D01*
X191966286Y-126138427D01*
X191911566Y-126153089D01*
X191785132Y-126226086D01*
X191785122Y-126226094D01*
X191681894Y-126329322D01*
X191681886Y-126329332D01*
X191608889Y-126455766D01*
X191600664Y-126486464D01*
X191571100Y-126596799D01*
X189574681Y-126596799D01*
X189566140Y-126553858D01*
X189509920Y-126418131D01*
X189428301Y-126295980D01*
X189428296Y-126295974D01*
X189324425Y-126192103D01*
X189324419Y-126192098D01*
X189283887Y-126165015D01*
X189202269Y-126110480D01*
X189066542Y-126054260D01*
X189025374Y-126046071D01*
X188922460Y-126025600D01*
X188922455Y-126025600D01*
X188775545Y-126025600D01*
X188775539Y-126025600D01*
X188652041Y-126050165D01*
X188631458Y-126054260D01*
X188631455Y-126054260D01*
X188631452Y-126054262D01*
X188495731Y-126110480D01*
X188373580Y-126192098D01*
X188373574Y-126192103D01*
X188269703Y-126295974D01*
X188269698Y-126295980D01*
X188188080Y-126418131D01*
X188131862Y-126553852D01*
X188131860Y-126553859D01*
X188103200Y-126697939D01*
X187484724Y-126697939D01*
X187504993Y-126622294D01*
X187504993Y-126476292D01*
X187467205Y-126335264D01*
X187467203Y-126335261D01*
X187467203Y-126335259D01*
X187394206Y-126208825D01*
X187394198Y-126208815D01*
X187290970Y-126105587D01*
X187290960Y-126105579D01*
X187164526Y-126032582D01*
X187138468Y-126025600D01*
X187023494Y-125994793D01*
X186877492Y-125994793D01*
X186791179Y-126017920D01*
X186736459Y-126032582D01*
X186610025Y-126105579D01*
X186610015Y-126105587D01*
X186506787Y-126208815D01*
X186506779Y-126208825D01*
X186433782Y-126335259D01*
X186414956Y-126405522D01*
X186395993Y-126476292D01*
X184791475Y-126476292D01*
X184744477Y-126429294D01*
X184744467Y-126429286D01*
X184618033Y-126356289D01*
X184594181Y-126349898D01*
X184477001Y-126318500D01*
X184330999Y-126318500D01*
X184244686Y-126341627D01*
X184189966Y-126356289D01*
X184063532Y-126429286D01*
X184063522Y-126429294D01*
X183960294Y-126532522D01*
X183960286Y-126532532D01*
X183887289Y-126658966D01*
X183876845Y-126697945D01*
X183849500Y-126799999D01*
X172277342Y-126799999D01*
X173170787Y-125910999D01*
X174807100Y-125910999D01*
X174807100Y-126057001D01*
X174840424Y-126181372D01*
X174844889Y-126198033D01*
X174917886Y-126324467D01*
X174917894Y-126324477D01*
X175021122Y-126427705D01*
X175021127Y-126427709D01*
X175021129Y-126427711D01*
X175021130Y-126427712D01*
X175021132Y-126427713D01*
X175147566Y-126500710D01*
X175147568Y-126500710D01*
X175147571Y-126500712D01*
X175288599Y-126538500D01*
X175288601Y-126538500D01*
X175434599Y-126538500D01*
X175434601Y-126538500D01*
X175575629Y-126500712D01*
X175575632Y-126500710D01*
X175575633Y-126500710D01*
X175653478Y-126455766D01*
X175702071Y-126427711D01*
X175805311Y-126324471D01*
X175841811Y-126261250D01*
X175878310Y-126198033D01*
X175878310Y-126198032D01*
X175878312Y-126198029D01*
X175916100Y-126057001D01*
X175916100Y-125910999D01*
X175878312Y-125769971D01*
X175878310Y-125769968D01*
X175878310Y-125769966D01*
X175805313Y-125643532D01*
X175805305Y-125643522D01*
X175702077Y-125540294D01*
X175702067Y-125540286D01*
X175575633Y-125467289D01*
X175558972Y-125462824D01*
X175434601Y-125429500D01*
X175288599Y-125429500D01*
X175202286Y-125452627D01*
X175147566Y-125467289D01*
X175021132Y-125540286D01*
X175021122Y-125540294D01*
X174917894Y-125643522D01*
X174917886Y-125643532D01*
X174844889Y-125769966D01*
X174839652Y-125789512D01*
X174807100Y-125910999D01*
X173170787Y-125910999D01*
X173751628Y-125333048D01*
X173885543Y-125199799D01*
X177347100Y-125199799D01*
X177347100Y-125345801D01*
X177362194Y-125402132D01*
X177384889Y-125486833D01*
X177457886Y-125613267D01*
X177457894Y-125613277D01*
X177561122Y-125716505D01*
X177561127Y-125716509D01*
X177561129Y-125716511D01*
X177561130Y-125716512D01*
X177561132Y-125716513D01*
X177687566Y-125789510D01*
X177687568Y-125789510D01*
X177687571Y-125789512D01*
X177828599Y-125827300D01*
X177828601Y-125827300D01*
X177974599Y-125827300D01*
X177974601Y-125827300D01*
X178115629Y-125789512D01*
X178115632Y-125789510D01*
X178115633Y-125789510D01*
X178179705Y-125752518D01*
X178242071Y-125716511D01*
X178345311Y-125613271D01*
X178418312Y-125486829D01*
X178456100Y-125345801D01*
X178456100Y-125199799D01*
X178418312Y-125058771D01*
X178418310Y-125058768D01*
X178418310Y-125058766D01*
X178345313Y-124932332D01*
X178345305Y-124932322D01*
X178242077Y-124829094D01*
X178242067Y-124829086D01*
X178224249Y-124818799D01*
X181385700Y-124818799D01*
X181385700Y-124964801D01*
X181397704Y-125009600D01*
X181423489Y-125105833D01*
X181496486Y-125232267D01*
X181496494Y-125232277D01*
X181599722Y-125335505D01*
X181599727Y-125335509D01*
X181599729Y-125335511D01*
X181599730Y-125335512D01*
X181599732Y-125335513D01*
X181726166Y-125408510D01*
X181726168Y-125408510D01*
X181726171Y-125408512D01*
X181867199Y-125446300D01*
X181867201Y-125446300D01*
X182013199Y-125446300D01*
X182013201Y-125446300D01*
X182154229Y-125408512D01*
X182154232Y-125408510D01*
X182154233Y-125408510D01*
X182262848Y-125345801D01*
X182280671Y-125335511D01*
X182383911Y-125232271D01*
X182449532Y-125118612D01*
X182456910Y-125105833D01*
X182456910Y-125105832D01*
X182456912Y-125105829D01*
X182494700Y-124964801D01*
X182494700Y-124818799D01*
X182456912Y-124677771D01*
X182456910Y-124677768D01*
X182456910Y-124677766D01*
X182383913Y-124551332D01*
X182383905Y-124551322D01*
X182280677Y-124448094D01*
X182280667Y-124448086D01*
X182154233Y-124375089D01*
X182137572Y-124370624D01*
X182013201Y-124337300D01*
X181867199Y-124337300D01*
X181780886Y-124360427D01*
X181726166Y-124375089D01*
X181599732Y-124448086D01*
X181599722Y-124448094D01*
X181496494Y-124551322D01*
X181496486Y-124551332D01*
X181423489Y-124677766D01*
X181402503Y-124756088D01*
X181385700Y-124818799D01*
X178224249Y-124818799D01*
X178115633Y-124756089D01*
X178098972Y-124751624D01*
X177974601Y-124718300D01*
X177828599Y-124718300D01*
X177742286Y-124741427D01*
X177687566Y-124756089D01*
X177561132Y-124829086D01*
X177561122Y-124829094D01*
X177457894Y-124932322D01*
X177457886Y-124932332D01*
X177384889Y-125058766D01*
X177383710Y-125063166D01*
X177347100Y-125199799D01*
X173885543Y-125199799D01*
X173983606Y-125102224D01*
X175292187Y-123800153D01*
X175307590Y-123784827D01*
X175516125Y-123577328D01*
X175528487Y-123566536D01*
X175613869Y-123501302D01*
X175642278Y-123484964D01*
X175733917Y-123447140D01*
X175765584Y-123438683D01*
X175854549Y-123427008D01*
X175872109Y-123424704D01*
X175888503Y-123423633D01*
X187433989Y-123423633D01*
X187436672Y-123424420D01*
G37*
%TD.AperFunction*%
%TD*%
%TA.AperFunction,Conductor*%
%TO.N,Net-(C70-Pad1)*%
G36*
X234104460Y-73526860D02*
G01*
X234122976Y-73529297D01*
X234211310Y-73540927D01*
X234243072Y-73549437D01*
X234334952Y-73587495D01*
X234363428Y-73603935D01*
X234448941Y-73669552D01*
X234461323Y-73680412D01*
X236385457Y-75604546D01*
X236396318Y-75616929D01*
X236461932Y-75702439D01*
X236478376Y-75730920D01*
X236516430Y-75822791D01*
X236524943Y-75854562D01*
X236539010Y-75961408D01*
X236540088Y-75977855D01*
X236540088Y-94632208D01*
X236539010Y-94648655D01*
X236524943Y-94755501D01*
X236516430Y-94787272D01*
X236478376Y-94879143D01*
X236461929Y-94907630D01*
X236396324Y-94993127D01*
X236385457Y-95005517D01*
X235667823Y-95723151D01*
X235655432Y-95734018D01*
X235569933Y-95799624D01*
X235541449Y-95816070D01*
X235449578Y-95854124D01*
X235417807Y-95862637D01*
X235310961Y-95876704D01*
X235294514Y-95877782D01*
X229149662Y-95877782D01*
X229133215Y-95876704D01*
X229026368Y-95862637D01*
X228994597Y-95854124D01*
X228902726Y-95816070D01*
X228874245Y-95799626D01*
X228788735Y-95734012D01*
X228776352Y-95723151D01*
X228058718Y-95005517D01*
X228047858Y-94993135D01*
X227982241Y-94907622D01*
X227965801Y-94879146D01*
X227927743Y-94787266D01*
X227919233Y-94755504D01*
X227905166Y-94648654D01*
X227904088Y-94632208D01*
X227904088Y-80309388D01*
X227904087Y-80309386D01*
X227470483Y-79875782D01*
X227470482Y-79875782D01*
X227260062Y-79875782D01*
X225847662Y-79875782D01*
X225831215Y-79874704D01*
X225724368Y-79860637D01*
X225692597Y-79852124D01*
X225600726Y-79814070D01*
X225572245Y-79797626D01*
X225486735Y-79732012D01*
X225474352Y-79721151D01*
X224439218Y-78686017D01*
X224428358Y-78673635D01*
X224362741Y-78588122D01*
X224346301Y-78559646D01*
X224308243Y-78467766D01*
X224299733Y-78436004D01*
X224285666Y-78329154D01*
X224284588Y-78312708D01*
X224284588Y-75088855D01*
X224285666Y-75072409D01*
X224285819Y-75071246D01*
X224299733Y-74965557D01*
X224308242Y-74933799D01*
X224346302Y-74841913D01*
X224362739Y-74813444D01*
X224428364Y-74727920D01*
X224439210Y-74715554D01*
X225474360Y-73680404D01*
X225486726Y-73669558D01*
X225572250Y-73603933D01*
X225600719Y-73587496D01*
X225692605Y-73549436D01*
X225724363Y-73540927D01*
X225815286Y-73528957D01*
X225831216Y-73526860D01*
X225847662Y-73525782D01*
X234088014Y-73525782D01*
X234104460Y-73526860D01*
G37*
%TD.AperFunction*%
%TD*%
%TA.AperFunction,Conductor*%
%TO.N,DC_OUT*%
G36*
X214773719Y-75889802D02*
G01*
X214794693Y-75906705D01*
X215827083Y-76939095D01*
X215861109Y-77001407D01*
X215863988Y-77028190D01*
X215863988Y-85269877D01*
X215873696Y-85318681D01*
X215887433Y-85387742D01*
X215912236Y-85447620D01*
X215933424Y-85498773D01*
X215990706Y-85584501D01*
X216000192Y-85598698D01*
X216444692Y-86043198D01*
X216529672Y-86128178D01*
X216629597Y-86194946D01*
X216662117Y-86208416D01*
X216740628Y-86240937D01*
X216819931Y-86256710D01*
X216858492Y-86264381D01*
X216858495Y-86264381D01*
X216858498Y-86264382D01*
X216978678Y-86264382D01*
X217317284Y-86264382D01*
X217385405Y-86284384D01*
X217431898Y-86338040D01*
X217442002Y-86408314D01*
X217440866Y-86414941D01*
X217431570Y-86461681D01*
X217416588Y-86536998D01*
X217416588Y-86676565D01*
X217443816Y-86813447D01*
X217496056Y-86939563D01*
X217503645Y-87010153D01*
X217496056Y-87036001D01*
X217443816Y-87162116D01*
X217416588Y-87298998D01*
X217416588Y-87299001D01*
X217416588Y-87438563D01*
X217443815Y-87575444D01*
X217443816Y-87575446D01*
X217443817Y-87575451D01*
X217497221Y-87704378D01*
X217497223Y-87704382D01*
X217497224Y-87704383D01*
X217574760Y-87820424D01*
X217673446Y-87919110D01*
X217673449Y-87919112D01*
X217673454Y-87919116D01*
X217770158Y-87983731D01*
X217815686Y-88038207D01*
X217824535Y-88108650D01*
X217793894Y-88172695D01*
X217770160Y-88193260D01*
X217736952Y-88215448D01*
X217736943Y-88215456D01*
X217638262Y-88314137D01*
X217638257Y-88314144D01*
X217560723Y-88430181D01*
X217560721Y-88430185D01*
X217507317Y-88559112D01*
X217480088Y-88695998D01*
X217480088Y-88696001D01*
X217480088Y-88835563D01*
X217507315Y-88972444D01*
X217507316Y-88972446D01*
X217507317Y-88972451D01*
X217560721Y-89101378D01*
X217560727Y-89101389D01*
X217565501Y-89108534D01*
X217586714Y-89176287D01*
X217567929Y-89244753D01*
X217565501Y-89248530D01*
X217560727Y-89255674D01*
X217560721Y-89255685D01*
X217507317Y-89384612D01*
X217480088Y-89521498D01*
X217480088Y-89521501D01*
X217480088Y-89661063D01*
X217507315Y-89797944D01*
X217507316Y-89797946D01*
X217507317Y-89797951D01*
X217560721Y-89926878D01*
X217560727Y-89926889D01*
X217565501Y-89934034D01*
X217586714Y-90001787D01*
X217567929Y-90070253D01*
X217565501Y-90074030D01*
X217560727Y-90081174D01*
X217560721Y-90081185D01*
X217507317Y-90210112D01*
X217480088Y-90346998D01*
X217480088Y-90347001D01*
X217480088Y-90486563D01*
X217507315Y-90623444D01*
X217507316Y-90623446D01*
X217507317Y-90623451D01*
X217560721Y-90752378D01*
X217560727Y-90752389D01*
X217565501Y-90759534D01*
X217586714Y-90827287D01*
X217567929Y-90895753D01*
X217565501Y-90899530D01*
X217560727Y-90906674D01*
X217560721Y-90906685D01*
X217507317Y-91035612D01*
X217480088Y-91172498D01*
X217480088Y-91172501D01*
X217480088Y-91312063D01*
X217507315Y-91448944D01*
X217507316Y-91448946D01*
X217507317Y-91448951D01*
X217560721Y-91577878D01*
X217560727Y-91577889D01*
X217565501Y-91585034D01*
X217586714Y-91652787D01*
X217567929Y-91721253D01*
X217565501Y-91725030D01*
X217560727Y-91732174D01*
X217560721Y-91732185D01*
X217507317Y-91861112D01*
X217480088Y-91997998D01*
X217480088Y-91998001D01*
X217480088Y-92137563D01*
X217507315Y-92274444D01*
X217507316Y-92274446D01*
X217507317Y-92274451D01*
X217560721Y-92403378D01*
X217560727Y-92403389D01*
X217565501Y-92410534D01*
X217586714Y-92478287D01*
X217567929Y-92546753D01*
X217565501Y-92550530D01*
X217560727Y-92557674D01*
X217560721Y-92557685D01*
X217507317Y-92686612D01*
X217480088Y-92823498D01*
X217480088Y-92823501D01*
X217480088Y-92963063D01*
X217507315Y-93099944D01*
X217507316Y-93099946D01*
X217507317Y-93099951D01*
X217560721Y-93228878D01*
X217560727Y-93228889D01*
X217565501Y-93236034D01*
X217586714Y-93303787D01*
X217567929Y-93372253D01*
X217565501Y-93376030D01*
X217560727Y-93383174D01*
X217560721Y-93383185D01*
X217507317Y-93512112D01*
X217480088Y-93648998D01*
X217480088Y-93649001D01*
X217480088Y-93788563D01*
X217507315Y-93925444D01*
X217507316Y-93925446D01*
X217507317Y-93925451D01*
X217560721Y-94054378D01*
X217560727Y-94054389D01*
X217565501Y-94061534D01*
X217586714Y-94129287D01*
X217567929Y-94197753D01*
X217565501Y-94201530D01*
X217560727Y-94208674D01*
X217560721Y-94208685D01*
X217507317Y-94337612D01*
X217507315Y-94337618D01*
X217507315Y-94337620D01*
X217496248Y-94393256D01*
X217480088Y-94474498D01*
X217480088Y-94474501D01*
X217480088Y-94614063D01*
X217507315Y-94750944D01*
X217507316Y-94750946D01*
X217507317Y-94750951D01*
X217560721Y-94879878D01*
X217560727Y-94879889D01*
X217565501Y-94887034D01*
X217586714Y-94954787D01*
X217567929Y-95023253D01*
X217565501Y-95027030D01*
X217560727Y-95034174D01*
X217560721Y-95034185D01*
X217507317Y-95163112D01*
X217480088Y-95299998D01*
X217480088Y-95300001D01*
X217480088Y-95439563D01*
X217507315Y-95576444D01*
X217507316Y-95576446D01*
X217507317Y-95576451D01*
X217560721Y-95705378D01*
X217560727Y-95705389D01*
X217565501Y-95712534D01*
X217586714Y-95780287D01*
X217567929Y-95848753D01*
X217565501Y-95852530D01*
X217560727Y-95859674D01*
X217560721Y-95859685D01*
X217507317Y-95988612D01*
X217480088Y-96125498D01*
X217480088Y-96125501D01*
X217480088Y-96265063D01*
X217507315Y-96401944D01*
X217507316Y-96401946D01*
X217507317Y-96401951D01*
X217560721Y-96530878D01*
X217560727Y-96530889D01*
X217565501Y-96538034D01*
X217586714Y-96605787D01*
X217567929Y-96674253D01*
X217565501Y-96678030D01*
X217560727Y-96685174D01*
X217560721Y-96685185D01*
X217507317Y-96814112D01*
X217480088Y-96950998D01*
X217480088Y-96951001D01*
X217480088Y-97090563D01*
X217507315Y-97227444D01*
X217507316Y-97227446D01*
X217507317Y-97227451D01*
X217560721Y-97356378D01*
X217560723Y-97356382D01*
X217560724Y-97356383D01*
X217638260Y-97472424D01*
X217736946Y-97571110D01*
X217852987Y-97648646D01*
X217852991Y-97648648D01*
X217981918Y-97702052D01*
X217981919Y-97702052D01*
X217981926Y-97702055D01*
X218118807Y-97729282D01*
X218118808Y-97729282D01*
X218162144Y-97729282D01*
X218230265Y-97749284D01*
X218276758Y-97802940D01*
X218288144Y-97855279D01*
X218288250Y-102101097D01*
X218288265Y-102717599D01*
X218288266Y-102717600D01*
X225755807Y-102717600D01*
X225772253Y-102718678D01*
X225790769Y-102721115D01*
X225879103Y-102732745D01*
X225910865Y-102741255D01*
X226002745Y-102779313D01*
X226031224Y-102795756D01*
X226110119Y-102856294D01*
X226133371Y-102879546D01*
X226193907Y-102958437D01*
X226210354Y-102986923D01*
X226248408Y-103078794D01*
X226256921Y-103110565D01*
X226270988Y-103217411D01*
X226272066Y-103233858D01*
X226272066Y-107789341D01*
X226270988Y-107805788D01*
X226256921Y-107912634D01*
X226248408Y-107944405D01*
X226210354Y-108036276D01*
X226193907Y-108064762D01*
X226133374Y-108143650D01*
X226110116Y-108166908D01*
X226031228Y-108227441D01*
X226002742Y-108243888D01*
X225910871Y-108281942D01*
X225879100Y-108290455D01*
X225772254Y-108304522D01*
X225755807Y-108305600D01*
X214091354Y-108305600D01*
X214075056Y-108304541D01*
X213969150Y-108290726D01*
X213937645Y-108282365D01*
X213936613Y-108281942D01*
X213921707Y-108275829D01*
X213846472Y-108244980D01*
X213818168Y-108228818D01*
X213733052Y-108164308D01*
X213720702Y-108153619D01*
X213601671Y-108036276D01*
X211188175Y-105657000D01*
X222098596Y-105657000D01*
X222115941Y-105721730D01*
X222115946Y-105721745D01*
X222205140Y-105937078D01*
X222205145Y-105937088D01*
X222321672Y-106138919D01*
X222321676Y-106138925D01*
X222463556Y-106323826D01*
X222463575Y-106323847D01*
X222628352Y-106488624D01*
X222628373Y-106488643D01*
X222813274Y-106630523D01*
X222813280Y-106630527D01*
X223015111Y-106747054D01*
X223015121Y-106747059D01*
X223230456Y-106836254D01*
X223295200Y-106853601D01*
X224311200Y-106853601D01*
X224375943Y-106836254D01*
X224591278Y-106747059D01*
X224591288Y-106747054D01*
X224793119Y-106630527D01*
X224793125Y-106630523D01*
X224978026Y-106488643D01*
X224978047Y-106488624D01*
X225142824Y-106323847D01*
X225142843Y-106323826D01*
X225284723Y-106138925D01*
X225284727Y-106138919D01*
X225401254Y-105937088D01*
X225401259Y-105937078D01*
X225490453Y-105721745D01*
X225490458Y-105721730D01*
X225507803Y-105657000D01*
X224311200Y-105657000D01*
X224311200Y-106853601D01*
X223295200Y-106853601D01*
X223295200Y-105657000D01*
X222098596Y-105657000D01*
X211188175Y-105657000D01*
X210592742Y-105070009D01*
X223203200Y-105070009D01*
X223203200Y-105227991D01*
X223244089Y-105380591D01*
X223323081Y-105517408D01*
X223434792Y-105629119D01*
X223571609Y-105708111D01*
X223724209Y-105749000D01*
X223882191Y-105749000D01*
X224034791Y-105708111D01*
X224171608Y-105629119D01*
X224283319Y-105517408D01*
X224362311Y-105380591D01*
X224403200Y-105227991D01*
X224403200Y-105070009D01*
X224362311Y-104917409D01*
X224283319Y-104780592D01*
X224171608Y-104668881D01*
X224123317Y-104641000D01*
X224311200Y-104641000D01*
X225507803Y-104641000D01*
X225507803Y-104640999D01*
X225490458Y-104576269D01*
X225490453Y-104576254D01*
X225401259Y-104360921D01*
X225401254Y-104360911D01*
X225284727Y-104159080D01*
X225284723Y-104159074D01*
X225142843Y-103974173D01*
X225142824Y-103974152D01*
X224978047Y-103809375D01*
X224978026Y-103809356D01*
X224793125Y-103667476D01*
X224793119Y-103667472D01*
X224591288Y-103550945D01*
X224591278Y-103550940D01*
X224375945Y-103461746D01*
X224375930Y-103461741D01*
X224311200Y-103444396D01*
X224311200Y-104641000D01*
X224123317Y-104641000D01*
X224034791Y-104589889D01*
X223882191Y-104549000D01*
X223724209Y-104549000D01*
X223571609Y-104589889D01*
X223434792Y-104668881D01*
X223323081Y-104780592D01*
X223244089Y-104917409D01*
X223203200Y-105070009D01*
X210592742Y-105070009D01*
X210157562Y-104640999D01*
X222098596Y-104640999D01*
X222098597Y-104641000D01*
X223295200Y-104641000D01*
X223295200Y-103444396D01*
X223295199Y-103444396D01*
X223230469Y-103461741D01*
X223230454Y-103461746D01*
X223015121Y-103550940D01*
X223015111Y-103550945D01*
X222813280Y-103667472D01*
X222813274Y-103667476D01*
X222628373Y-103809356D01*
X222628352Y-103809375D01*
X222463575Y-103974152D01*
X222463556Y-103974173D01*
X222321676Y-104159074D01*
X222321672Y-104159080D01*
X222205145Y-104360911D01*
X222205140Y-104360921D01*
X222115946Y-104576254D01*
X222115941Y-104576269D01*
X222098596Y-104640999D01*
X210157562Y-104640999D01*
X209481145Y-103974173D01*
X208357430Y-102866390D01*
X207587064Y-102106947D01*
X207576019Y-102094518D01*
X207509305Y-102008639D01*
X207492576Y-101979977D01*
X207453851Y-101887420D01*
X207445185Y-101855383D01*
X207430864Y-101747596D01*
X207429766Y-101731001D01*
X207429766Y-78803493D01*
X211914188Y-78803493D01*
X211914188Y-78962871D01*
X211944384Y-79075565D01*
X211955437Y-79116816D01*
X211955440Y-79116823D01*
X212035125Y-79254841D01*
X212035133Y-79254851D01*
X212147818Y-79367536D01*
X212147823Y-79367540D01*
X212147825Y-79367542D01*
X212285851Y-79447232D01*
X212439799Y-79488482D01*
X212439801Y-79488482D01*
X212599175Y-79488482D01*
X212599177Y-79488482D01*
X212753125Y-79447232D01*
X212891151Y-79367542D01*
X213003848Y-79254845D01*
X213083538Y-79116819D01*
X213124788Y-78962871D01*
X213124788Y-78803493D01*
X213083538Y-78649545D01*
X213003848Y-78511519D01*
X213003846Y-78511517D01*
X213003842Y-78511512D01*
X212891157Y-78398827D01*
X212891147Y-78398819D01*
X212753129Y-78319134D01*
X212753126Y-78319133D01*
X212753125Y-78319132D01*
X212753123Y-78319131D01*
X212753122Y-78319131D01*
X212711871Y-78308078D01*
X212599177Y-78277882D01*
X212439799Y-78277882D01*
X212357301Y-78299987D01*
X212285853Y-78319131D01*
X212285846Y-78319134D01*
X212147828Y-78398819D01*
X212147818Y-78398827D01*
X212035133Y-78511512D01*
X212035125Y-78511522D01*
X211955440Y-78649540D01*
X211955438Y-78649545D01*
X211914188Y-78803493D01*
X207429766Y-78803493D01*
X207429766Y-77364352D01*
X207449768Y-77296231D01*
X207466671Y-77275257D01*
X208003741Y-76738187D01*
X208066053Y-76704161D01*
X208092836Y-76701282D01*
X210041855Y-76701282D01*
X211136643Y-76701282D01*
X211165928Y-76701282D01*
X211234049Y-76721284D01*
X211255023Y-76738187D01*
X211259946Y-76743110D01*
X211375987Y-76820646D01*
X211375991Y-76820648D01*
X211504918Y-76874052D01*
X211504919Y-76874052D01*
X211504926Y-76874055D01*
X211641807Y-76901282D01*
X211641808Y-76901282D01*
X211781368Y-76901282D01*
X211781369Y-76901282D01*
X211918250Y-76874055D01*
X212047189Y-76820646D01*
X212163230Y-76743110D01*
X212244354Y-76661986D01*
X212306666Y-76627961D01*
X212333449Y-76625082D01*
X212657502Y-76625082D01*
X212767450Y-76595621D01*
X212866027Y-76538708D01*
X213498030Y-75906704D01*
X213560342Y-75872680D01*
X213587125Y-75869800D01*
X214705598Y-75869800D01*
X214773719Y-75889802D01*
G37*
%TD.AperFunction*%
%TD*%
M02*
