%TF.GenerationSoftware,KiCad,Pcbnew,9.0.6-9.0.6~ubuntu24.04.1*%
%TF.CreationDate,2025-11-23T10:50:39+01:00*%
%TF.ProjectId,EEZ DIB DCP405plus front mask,45455a20-4449-4422-9044-435034303570,r4B2*%
%TF.SameCoordinates,Original*%
%TF.FileFunction,Profile,NP*%
%FSLAX46Y46*%
G04 Gerber Fmt 4.6, Leading zero omitted, Abs format (unit mm)*
G04 Created by KiCad (PCBNEW 9.0.6-9.0.6~ubuntu24.04.1) date 2025-11-23 10:50:39*
%MOMM*%
%LPD*%
G01*
G04 APERTURE LIST*
%TA.AperFunction,Profile*%
%ADD10C,0.050000*%
%TD*%
G04 APERTURE END LIST*
D10*
X149590000Y-64000000D02*
G75*
G02*
X146490000Y-64000000I-1550000J0D01*
G01*
X146490000Y-64000000D02*
G75*
G02*
X149590000Y-64000000I1550000J0D01*
G01*
X150850000Y-91000000D02*
G75*
G02*
X147750000Y-91000000I-1550000J0D01*
G01*
X147750000Y-91000000D02*
G75*
G02*
X150850000Y-91000000I1550000J0D01*
G01*
X175500000Y-38500000D02*
X140500000Y-38500000D01*
X159000000Y-146750000D02*
G75*
G02*
X157000000Y-146750000I-1000000J0D01*
G01*
X157000000Y-146750000D02*
G75*
G02*
X159000000Y-146750000I1000000J0D01*
G01*
X175500000Y-150000000D02*
X140500000Y-150000000D01*
X149600000Y-137000000D02*
G75*
G02*
X146400000Y-137000000I-1600000J0D01*
G01*
X146400000Y-137000000D02*
G75*
G02*
X149600000Y-137000000I1600000J0D01*
G01*
X149590000Y-71000000D02*
G75*
G02*
X146490000Y-71000000I-1550000J0D01*
G01*
X146490000Y-71000000D02*
G75*
G02*
X149590000Y-71000000I1550000J0D01*
G01*
X145300000Y-74500000D02*
X152800000Y-74500000D01*
X152800000Y-86800000D01*
X145300000Y-86800000D01*
X145300000Y-74500000D01*
X154670000Y-64000000D02*
G75*
G02*
X151570000Y-64000000I-1550000J0D01*
G01*
X151570000Y-64000000D02*
G75*
G02*
X154670000Y-64000000I1550000J0D01*
G01*
X140500000Y-150000000D02*
X140500000Y-38500000D01*
X175500000Y-38500000D02*
X175500000Y-150000000D01*
X158100000Y-121000000D02*
G75*
G02*
X148100000Y-121000000I-5000000J0D01*
G01*
X148100000Y-121000000D02*
G75*
G02*
X158100000Y-121000000I5000000J0D01*
G01*
X173100000Y-121000000D02*
G75*
G02*
X163100000Y-121000000I-5000000J0D01*
G01*
X163100000Y-121000000D02*
G75*
G02*
X173100000Y-121000000I5000000J0D01*
G01*
X173100000Y-101950000D02*
G75*
G02*
X163100000Y-101950000I-5000000J0D01*
G01*
X163100000Y-101950000D02*
G75*
G02*
X173100000Y-101950000I5000000J0D01*
G01*
X159750000Y-71000000D02*
G75*
G02*
X156650000Y-71000000I-1550000J0D01*
G01*
X156650000Y-71000000D02*
G75*
G02*
X159750000Y-71000000I1550000J0D01*
G01*
X159000000Y-41750000D02*
G75*
G02*
X157000000Y-41750000I-1000000J0D01*
G01*
X157000000Y-41750000D02*
G75*
G02*
X159000000Y-41750000I1000000J0D01*
G01*
X154670000Y-71000000D02*
G75*
G02*
X151570000Y-71000000I-1550000J0D01*
G01*
X151570000Y-71000000D02*
G75*
G02*
X154670000Y-71000000I1550000J0D01*
G01*
X158100000Y-101950000D02*
G75*
G02*
X148100000Y-101950000I-5000000J0D01*
G01*
X148100000Y-101950000D02*
G75*
G02*
X158100000Y-101950000I5000000J0D01*
G01*
X149600000Y-53000000D02*
G75*
G02*
X146400000Y-53000000I-1600000J0D01*
G01*
X146400000Y-53000000D02*
G75*
G02*
X149600000Y-53000000I1600000J0D01*
G01*
M02*
