%TF.GenerationSoftware,KiCad,Pcbnew,9.0.6-9.0.6~ubuntu24.04.1*%
%TF.CreationDate,2025-12-27T11:28:59+01:00*%
%TF.ProjectId,EEZ DIB DCP405plus,45455a20-4449-4422-9044-435034303570,r4B4*%
%TF.SameCoordinates,Original*%
%TF.FileFunction,OtherDrawing,Comment*%
%FSLAX46Y46*%
G04 Gerber Fmt 4.6, Leading zero omitted, Abs format (unit mm)*
G04 Created by KiCad (PCBNEW 9.0.6-9.0.6~ubuntu24.04.1) date 2025-12-27 11:28:59*
%MOMM*%
%LPD*%
G01*
G04 APERTURE LIST*
%ADD10C,0.150000*%
%ADD11C,0.100000*%
G04 APERTURE END LIST*
D10*
X151800112Y-152185259D02*
X151942969Y-152232878D01*
X151942969Y-152232878D02*
X151990588Y-152280497D01*
X151990588Y-152280497D02*
X152038207Y-152375735D01*
X152038207Y-152375735D02*
X152038207Y-152518592D01*
X152038207Y-152518592D02*
X151990588Y-152613830D01*
X151990588Y-152613830D02*
X151942969Y-152661450D01*
X151942969Y-152661450D02*
X151847731Y-152709069D01*
X151847731Y-152709069D02*
X151466779Y-152709069D01*
X151466779Y-152709069D02*
X151466779Y-151709069D01*
X151466779Y-151709069D02*
X151800112Y-151709069D01*
X151800112Y-151709069D02*
X151895350Y-151756688D01*
X151895350Y-151756688D02*
X151942969Y-151804307D01*
X151942969Y-151804307D02*
X151990588Y-151899545D01*
X151990588Y-151899545D02*
X151990588Y-151994783D01*
X151990588Y-151994783D02*
X151942969Y-152090021D01*
X151942969Y-152090021D02*
X151895350Y-152137640D01*
X151895350Y-152137640D02*
X151800112Y-152185259D01*
X151800112Y-152185259D02*
X151466779Y-152185259D01*
X152847731Y-152661450D02*
X152752493Y-152709069D01*
X152752493Y-152709069D02*
X152562017Y-152709069D01*
X152562017Y-152709069D02*
X152466779Y-152661450D01*
X152466779Y-152661450D02*
X152419160Y-152566211D01*
X152419160Y-152566211D02*
X152419160Y-152185259D01*
X152419160Y-152185259D02*
X152466779Y-152090021D01*
X152466779Y-152090021D02*
X152562017Y-152042402D01*
X152562017Y-152042402D02*
X152752493Y-152042402D01*
X152752493Y-152042402D02*
X152847731Y-152090021D01*
X152847731Y-152090021D02*
X152895350Y-152185259D01*
X152895350Y-152185259D02*
X152895350Y-152280497D01*
X152895350Y-152280497D02*
X152419160Y-152375735D01*
X153228684Y-152042402D02*
X153466779Y-152709069D01*
X153466779Y-152709069D02*
X153704874Y-152042402D01*
X154466779Y-152661450D02*
X154371541Y-152709069D01*
X154371541Y-152709069D02*
X154181065Y-152709069D01*
X154181065Y-152709069D02*
X154085827Y-152661450D01*
X154085827Y-152661450D02*
X154038208Y-152566211D01*
X154038208Y-152566211D02*
X154038208Y-152185259D01*
X154038208Y-152185259D02*
X154085827Y-152090021D01*
X154085827Y-152090021D02*
X154181065Y-152042402D01*
X154181065Y-152042402D02*
X154371541Y-152042402D01*
X154371541Y-152042402D02*
X154466779Y-152090021D01*
X154466779Y-152090021D02*
X154514398Y-152185259D01*
X154514398Y-152185259D02*
X154514398Y-152280497D01*
X154514398Y-152280497D02*
X154038208Y-152375735D01*
X155085827Y-152709069D02*
X154990589Y-152661450D01*
X154990589Y-152661450D02*
X154942970Y-152566211D01*
X154942970Y-152566211D02*
X154942970Y-151709069D01*
X155466780Y-152709069D02*
X155466780Y-152042402D01*
X155466780Y-151709069D02*
X155419161Y-151756688D01*
X155419161Y-151756688D02*
X155466780Y-151804307D01*
X155466780Y-151804307D02*
X155514399Y-151756688D01*
X155514399Y-151756688D02*
X155466780Y-151709069D01*
X155466780Y-151709069D02*
X155466780Y-151804307D01*
X155942970Y-152042402D02*
X155942970Y-152709069D01*
X155942970Y-152137640D02*
X155990589Y-152090021D01*
X155990589Y-152090021D02*
X156085827Y-152042402D01*
X156085827Y-152042402D02*
X156228684Y-152042402D01*
X156228684Y-152042402D02*
X156323922Y-152090021D01*
X156323922Y-152090021D02*
X156371541Y-152185259D01*
X156371541Y-152185259D02*
X156371541Y-152709069D01*
X157276303Y-152042402D02*
X157276303Y-152851926D01*
X157276303Y-152851926D02*
X157228684Y-152947164D01*
X157228684Y-152947164D02*
X157181065Y-152994783D01*
X157181065Y-152994783D02*
X157085827Y-153042402D01*
X157085827Y-153042402D02*
X156942970Y-153042402D01*
X156942970Y-153042402D02*
X156847732Y-152994783D01*
X157276303Y-152661450D02*
X157181065Y-152709069D01*
X157181065Y-152709069D02*
X156990589Y-152709069D01*
X156990589Y-152709069D02*
X156895351Y-152661450D01*
X156895351Y-152661450D02*
X156847732Y-152613830D01*
X156847732Y-152613830D02*
X156800113Y-152518592D01*
X156800113Y-152518592D02*
X156800113Y-152232878D01*
X156800113Y-152232878D02*
X156847732Y-152137640D01*
X156847732Y-152137640D02*
X156895351Y-152090021D01*
X156895351Y-152090021D02*
X156990589Y-152042402D01*
X156990589Y-152042402D02*
X157181065Y-152042402D01*
X157181065Y-152042402D02*
X157276303Y-152090021D01*
X158942970Y-152709069D02*
X158942970Y-152185259D01*
X158942970Y-152185259D02*
X158895351Y-152090021D01*
X158895351Y-152090021D02*
X158800113Y-152042402D01*
X158800113Y-152042402D02*
X158609637Y-152042402D01*
X158609637Y-152042402D02*
X158514399Y-152090021D01*
X158942970Y-152661450D02*
X158847732Y-152709069D01*
X158847732Y-152709069D02*
X158609637Y-152709069D01*
X158609637Y-152709069D02*
X158514399Y-152661450D01*
X158514399Y-152661450D02*
X158466780Y-152566211D01*
X158466780Y-152566211D02*
X158466780Y-152470973D01*
X158466780Y-152470973D02*
X158514399Y-152375735D01*
X158514399Y-152375735D02*
X158609637Y-152328116D01*
X158609637Y-152328116D02*
X158847732Y-152328116D01*
X158847732Y-152328116D02*
X158942970Y-152280497D01*
X159419161Y-152709069D02*
X159419161Y-152042402D01*
X159419161Y-152232878D02*
X159466780Y-152137640D01*
X159466780Y-152137640D02*
X159514399Y-152090021D01*
X159514399Y-152090021D02*
X159609637Y-152042402D01*
X159609637Y-152042402D02*
X159704875Y-152042402D01*
X160419161Y-152661450D02*
X160323923Y-152709069D01*
X160323923Y-152709069D02*
X160133447Y-152709069D01*
X160133447Y-152709069D02*
X160038209Y-152661450D01*
X160038209Y-152661450D02*
X159990590Y-152566211D01*
X159990590Y-152566211D02*
X159990590Y-152185259D01*
X159990590Y-152185259D02*
X160038209Y-152090021D01*
X160038209Y-152090021D02*
X160133447Y-152042402D01*
X160133447Y-152042402D02*
X160323923Y-152042402D01*
X160323923Y-152042402D02*
X160419161Y-152090021D01*
X160419161Y-152090021D02*
X160466780Y-152185259D01*
X160466780Y-152185259D02*
X160466780Y-152280497D01*
X160466780Y-152280497D02*
X159990590Y-152375735D01*
X161323923Y-152709069D02*
X161323923Y-152185259D01*
X161323923Y-152185259D02*
X161276304Y-152090021D01*
X161276304Y-152090021D02*
X161181066Y-152042402D01*
X161181066Y-152042402D02*
X160990590Y-152042402D01*
X160990590Y-152042402D02*
X160895352Y-152090021D01*
X161323923Y-152661450D02*
X161228685Y-152709069D01*
X161228685Y-152709069D02*
X160990590Y-152709069D01*
X160990590Y-152709069D02*
X160895352Y-152661450D01*
X160895352Y-152661450D02*
X160847733Y-152566211D01*
X160847733Y-152566211D02*
X160847733Y-152470973D01*
X160847733Y-152470973D02*
X160895352Y-152375735D01*
X160895352Y-152375735D02*
X160990590Y-152328116D01*
X160990590Y-152328116D02*
X161228685Y-152328116D01*
X161228685Y-152328116D02*
X161323923Y-152280497D01*
D11*
X114650000Y-151280000D02*
X151150000Y-151280000D01*
X151150000Y-153195000D01*
X114650000Y-153195000D01*
X114650000Y-151280000D01*
M02*
