%TF.GenerationSoftware,KiCad,Pcbnew,9.0.6-9.0.6~ubuntu24.04.1*%
%TF.CreationDate,2025-12-07T17:48:34+01:00*%
%TF.ProjectId,EEZ DIB DCP405plus,45455a20-4449-4422-9044-435034303570,r4B4*%
%TF.SameCoordinates,Original*%
%TF.FileFunction,Soldermask,Bot*%
%TF.FilePolarity,Negative*%
%FSLAX46Y46*%
G04 Gerber Fmt 4.6, Leading zero omitted, Abs format (unit mm)*
G04 Created by KiCad (PCBNEW 9.0.6-9.0.6~ubuntu24.04.1) date 2025-12-07 17:48:34*
%MOMM*%
%LPD*%
G01*
G04 APERTURE LIST*
G04 Aperture macros list*
%AMRoundRect*
0 Rectangle with rounded corners*
0 $1 Rounding radius*
0 $2 $3 $4 $5 $6 $7 $8 $9 X,Y pos of 4 corners*
0 Add a 4 corners polygon primitive as box body*
4,1,4,$2,$3,$4,$5,$6,$7,$8,$9,$2,$3,0*
0 Add four circle primitives for the rounded corners*
1,1,$1+$1,$2,$3*
1,1,$1+$1,$4,$5*
1,1,$1+$1,$6,$7*
1,1,$1+$1,$8,$9*
0 Add four rect primitives between the rounded corners*
20,1,$1+$1,$2,$3,$4,$5,0*
20,1,$1+$1,$4,$5,$6,$7,0*
20,1,$1+$1,$6,$7,$8,$9,0*
20,1,$1+$1,$8,$9,$2,$3,0*%
%AMFreePoly0*
4,1,25,0.359640,0.808373,0.364542,0.803882,0.803882,0.364542,0.825910,0.317301,0.826200,0.310660,0.826200,-0.310660,0.808373,-0.359640,0.803882,-0.364542,0.364542,-0.803882,0.317301,-0.825910,0.310660,-0.826200,-0.310660,-0.826200,-0.359640,-0.808373,-0.364542,-0.803882,-0.803882,-0.364542,-0.825910,-0.317301,-0.826200,-0.310660,-0.826200,0.310660,-0.808373,0.359640,-0.803882,0.364542,
-0.364542,0.803882,-0.317301,0.825910,-0.310660,0.826200,0.310660,0.826200,0.359640,0.808373,0.359640,0.808373,$1*%
%AMFreePoly1*
4,1,25,0.328574,0.733373,0.333476,0.728882,0.728882,0.333476,0.750910,0.286235,0.751200,0.279594,0.751200,-0.279594,0.733373,-0.328574,0.728882,-0.333476,0.333476,-0.728882,0.286235,-0.750910,0.279594,-0.751200,-0.279594,-0.751200,-0.328574,-0.733373,-0.333476,-0.728882,-0.728882,-0.333476,-0.750910,-0.286235,-0.751200,-0.279594,-0.751200,0.279594,-0.733373,0.328574,-0.728882,0.333476,
-0.333476,0.728882,-0.286235,0.750910,-0.279594,0.751200,0.279594,0.751200,0.328574,0.733373,0.328574,0.733373,$1*%
%AMFreePoly2*
4,1,25,0.575031,1.328373,0.579933,1.323882,1.323882,0.579933,1.345910,0.532692,1.346200,0.526051,1.346200,-0.526051,1.328373,-0.575031,1.323882,-0.579933,0.579933,-1.323882,0.532692,-1.345910,0.526051,-1.346200,-0.526051,-1.346200,-0.575031,-1.328373,-0.579933,-1.323882,-1.323882,-0.579933,-1.345910,-0.532692,-1.346200,-0.526051,-1.346200,0.526051,-1.328373,0.575031,-1.323882,0.579933,
-0.579933,1.323882,-0.532692,1.345910,-0.526051,1.346200,0.526051,1.346200,0.575031,1.328373,0.575031,1.328373,$1*%
G04 Aperture macros list end*
%ADD10C,0.200000*%
%ADD11O,1.676400X3.200400*%
%ADD12C,1.270000*%
%ADD13FreePoly0,0.000000*%
%ADD14O,3.704000X2.844000*%
%ADD15O,4.704000X2.844000*%
%ADD16C,2.387600*%
%ADD17C,0.990600*%
%ADD18RoundRect,0.076200X0.750000X0.750000X-0.750000X0.750000X-0.750000X-0.750000X0.750000X-0.750000X0*%
%ADD19FreePoly0,180.000000*%
%ADD20RoundRect,0.102000X-1.050000X1.050000X-1.050000X-1.050000X1.050000X-1.050000X1.050000X1.050000X0*%
%ADD21C,2.304000*%
%ADD22C,1.700000*%
%ADD23FreePoly1,180.000000*%
%ADD24C,5.652400*%
%ADD25RoundRect,0.102000X1.320000X1.320000X-1.320000X1.320000X-1.320000X-1.320000X1.320000X-1.320000X0*%
%ADD26C,2.844000*%
%ADD27RoundRect,0.102000X0.679000X0.679000X-0.679000X0.679000X-0.679000X-0.679000X0.679000X-0.679000X0*%
%ADD28C,1.562000*%
%ADD29FreePoly2,0.000000*%
%ADD30C,2.692400*%
%ADD31C,4.000000*%
%ADD32O,2.400000X4.000000*%
%ADD33C,6.500000*%
G04 APERTURE END LIST*
D10*
%TO.C,X1*%
X149950000Y-152450000D02*
X115450000Y-152450000D01*
X115450000Y-146950000D01*
X149950000Y-146950000D01*
X149950000Y-152450000D01*
G36*
X149950000Y-152450000D02*
G01*
X115450000Y-152450000D01*
X115450000Y-146950000D01*
X149950000Y-146950000D01*
X149950000Y-152450000D01*
G37*
%TD*%
D11*
%TO.C,R78*%
X134726100Y-60697500D03*
X129646100Y-60697500D03*
%TD*%
D12*
%TO.C,TP2*%
X147900000Y-100160000D03*
%TD*%
%TO.C,TP12*%
X193040000Y-60452000D03*
%TD*%
D13*
%TO.C,LED2*%
X65470000Y-79730000D03*
X65470000Y-82270000D03*
X62930000Y-79730000D03*
X62930000Y-82270000D03*
X68010000Y-79730000D03*
X68010000Y-82270000D03*
%TD*%
D12*
%TO.C,TP3*%
X199390000Y-99060000D03*
%TD*%
%TO.C,TP5*%
X192278000Y-104140000D03*
%TD*%
D14*
%TO.C,Q14*%
X164098000Y-60212900D03*
D15*
X158648000Y-60212900D03*
D14*
X153198000Y-60212900D03*
%TD*%
D16*
%TO.C,X2*%
X188240000Y-128690000D03*
D17*
X190780000Y-128690000D03*
D16*
X193320000Y-128690000D03*
X188240000Y-125515000D03*
X193320000Y-125515000D03*
D17*
X189764000Y-123610000D03*
X191796000Y-123610000D03*
%TD*%
D12*
%TO.C,TP9*%
X213868000Y-115824000D03*
%TD*%
D18*
%TO.C,X5*%
X76140000Y-142540000D03*
D19*
X76140000Y-140000000D03*
X78680000Y-142540000D03*
X78680000Y-140000000D03*
X81220000Y-142540000D03*
X81220000Y-140000000D03*
X83760000Y-142540000D03*
X83760000Y-140000000D03*
X86300000Y-142540000D03*
X86300000Y-140000000D03*
X88840000Y-142540000D03*
X88840000Y-140000000D03*
X91380000Y-142540000D03*
X91380000Y-140000000D03*
X93920000Y-142540000D03*
X93920000Y-140000000D03*
X96460000Y-142540000D03*
X96460000Y-140000000D03*
X99000000Y-142540000D03*
X99000000Y-140000000D03*
%TD*%
D20*
%TO.C,X4*%
X64800000Y-87000000D03*
D21*
X64800000Y-90500000D03*
X64800000Y-94000000D03*
%TD*%
D12*
%TO.C,TP13*%
X68580000Y-85090000D03*
%TD*%
%TO.C,TP8*%
X103730000Y-81990000D03*
%TD*%
%TO.C,TP4*%
X192278000Y-115824000D03*
%TD*%
%TO.C,TP6*%
X199390000Y-104140000D03*
%TD*%
D11*
%TO.C,Q17*%
X147172100Y-60240300D03*
X144632100Y-60240300D03*
X142092100Y-60240300D03*
%TD*%
D22*
%TO.C,LED1*%
X62000000Y-101000000D03*
D23*
X66445000Y-101000000D03*
X68350000Y-101000000D03*
X64540000Y-101000000D03*
%TD*%
D24*
%TO.C,KK1*%
X69500000Y-63000000D03*
%TD*%
D25*
%TO.C,X3*%
X235781000Y-138176000D03*
D26*
X231821000Y-138176000D03*
X227861000Y-138176000D03*
X223901000Y-138176000D03*
%TD*%
D12*
%TO.C,TP7*%
X186940000Y-115870000D03*
%TD*%
%TO.C,TP1*%
X176330000Y-74690000D03*
%TD*%
D13*
%TO.C,LED3*%
X62930000Y-72730000D03*
X62930000Y-75270000D03*
X65470000Y-72730000D03*
X65470000Y-75270000D03*
%TD*%
D27*
%TO.C,JP4*%
X191430000Y-78640000D03*
D28*
X189430000Y-78640000D03*
%TD*%
D27*
%TO.C,JP8*%
X191420000Y-76130000D03*
D28*
X189420000Y-76130000D03*
%TD*%
D24*
%TO.C,KK2*%
X69500000Y-147000000D03*
%TD*%
D29*
%TO.C,F1*%
X106362500Y-111360000D03*
X106362500Y-133860000D03*
%TD*%
D12*
%TO.C,TP14*%
X68580000Y-92710000D03*
%TD*%
D30*
%TO.C,L1*%
X223803200Y-120149000D03*
X223803200Y-105149000D03*
X233803200Y-120149000D03*
X233803200Y-105149000D03*
%TD*%
D12*
%TO.C,TP11*%
X211610000Y-57620000D03*
%TD*%
D31*
%TO.C,J1*%
X75900000Y-111950000D03*
D32*
X60600000Y-111950000D03*
D31*
X83500000Y-111950000D03*
%TD*%
D27*
%TO.C,JP7*%
X204758800Y-75184000D03*
D28*
X202758800Y-75184000D03*
%TD*%
D12*
%TO.C,TP10*%
X213868000Y-109220000D03*
%TD*%
D27*
%TO.C,JP5*%
X191420000Y-81160000D03*
D28*
X189420000Y-81160000D03*
%TD*%
D33*
%TO.C,KK7*%
X195604800Y-67047000D03*
X131604800Y-67047000D03*
%TD*%
D31*
%TO.C,J2*%
X75900000Y-131000000D03*
D32*
X60600000Y-131000000D03*
D31*
X83500000Y-131000000D03*
%TD*%
M02*
