%TF.GenerationSoftware,KiCad,Pcbnew,9.0.6-9.0.6~ubuntu24.04.1*%
%TF.CreationDate,2025-12-08T17:35:35+01:00*%
%TF.ProjectId,EEZ DIB DCP405plus,45455a20-4449-4422-9044-435034303570,r4B4*%
%TF.SameCoordinates,Original*%
%TF.FileFunction,Soldermask,Top*%
%TF.FilePolarity,Negative*%
%FSLAX46Y46*%
G04 Gerber Fmt 4.6, Leading zero omitted, Abs format (unit mm)*
G04 Created by KiCad (PCBNEW 9.0.6-9.0.6~ubuntu24.04.1) date 2025-12-08 17:35:35*
%MOMM*%
%LPD*%
G01*
G04 APERTURE LIST*
G04 Aperture macros list*
%AMRoundRect*
0 Rectangle with rounded corners*
0 $1 Rounding radius*
0 $2 $3 $4 $5 $6 $7 $8 $9 X,Y pos of 4 corners*
0 Add a 4 corners polygon primitive as box body*
4,1,4,$2,$3,$4,$5,$6,$7,$8,$9,$2,$3,0*
0 Add four circle primitives for the rounded corners*
1,1,$1+$1,$2,$3*
1,1,$1+$1,$4,$5*
1,1,$1+$1,$6,$7*
1,1,$1+$1,$8,$9*
0 Add four rect primitives between the rounded corners*
20,1,$1+$1,$2,$3,$4,$5,0*
20,1,$1+$1,$4,$5,$6,$7,0*
20,1,$1+$1,$6,$7,$8,$9,0*
20,1,$1+$1,$8,$9,$2,$3,0*%
%AMFreePoly0*
4,1,25,0.359640,0.808373,0.364542,0.803882,0.803882,0.364542,0.825910,0.317301,0.826200,0.310660,0.826200,-0.310660,0.808373,-0.359640,0.803882,-0.364542,0.364542,-0.803882,0.317301,-0.825910,0.310660,-0.826200,-0.310660,-0.826200,-0.359640,-0.808373,-0.364542,-0.803882,-0.803882,-0.364542,-0.825910,-0.317301,-0.826200,-0.310660,-0.826200,0.310660,-0.808373,0.359640,-0.803882,0.364542,
-0.364542,0.803882,-0.317301,0.825910,-0.310660,0.826200,0.310660,0.826200,0.359640,0.808373,0.359640,0.808373,$1*%
%AMFreePoly1*
4,1,25,0.328574,0.733373,0.333476,0.728882,0.728882,0.333476,0.750910,0.286235,0.751200,0.279594,0.751200,-0.279594,0.733373,-0.328574,0.728882,-0.333476,0.333476,-0.728882,0.286235,-0.750910,0.279594,-0.751200,-0.279594,-0.751200,-0.328574,-0.733373,-0.333476,-0.728882,-0.728882,-0.333476,-0.750910,-0.286235,-0.751200,-0.279594,-0.751200,0.279594,-0.733373,0.328574,-0.728882,0.333476,
-0.333476,0.728882,-0.286235,0.750910,-0.279594,0.751200,0.279594,0.751200,0.328574,0.733373,0.328574,0.733373,$1*%
%AMFreePoly2*
4,1,25,0.575031,1.328373,0.579933,1.323882,1.323882,0.579933,1.345910,0.532692,1.346200,0.526051,1.346200,-0.526051,1.328373,-0.575031,1.323882,-0.579933,0.579933,-1.323882,0.532692,-1.345910,0.526051,-1.346200,-0.526051,-1.346200,-0.575031,-1.328373,-0.579933,-1.323882,-1.323882,-0.579933,-1.345910,-0.532692,-1.346200,-0.526051,-1.346200,0.526051,-1.328373,0.575031,-1.323882,0.579933,
-0.579933,1.323882,-0.532692,1.345910,-0.526051,1.346200,0.526051,1.346200,0.575031,1.328373,0.575031,1.328373,$1*%
G04 Aperture macros list end*
%ADD10C,0.100000*%
%ADD11C,0.000000*%
%ADD12C,0.200000*%
%ADD13RoundRect,0.061553X-0.301947X0.776947X-0.301947X-0.776947X0.301947X-0.776947X0.301947X0.776947X0*%
%ADD14RoundRect,0.250000X-0.262500X-0.450000X0.262500X-0.450000X0.262500X0.450000X-0.262500X0.450000X0*%
%ADD15RoundRect,0.057285X2.101715X0.615815X-2.101715X0.615815X-2.101715X-0.615815X2.101715X-0.615815X0*%
%ADD16RoundRect,0.076200X0.571500X0.114300X-0.571500X0.114300X-0.571500X-0.114300X0.571500X-0.114300X0*%
%ADD17RoundRect,0.225000X0.250000X-0.225000X0.250000X0.225000X-0.250000X0.225000X-0.250000X-0.225000X0*%
%ADD18RoundRect,0.250000X0.262500X0.450000X-0.262500X0.450000X-0.262500X-0.450000X0.262500X-0.450000X0*%
%ADD19R,1.092200X0.762000*%
%ADD20RoundRect,0.250000X0.325000X1.100000X-0.325000X1.100000X-0.325000X-1.100000X0.325000X-1.100000X0*%
%ADD21RoundRect,0.225000X-0.225000X-0.250000X0.225000X-0.250000X0.225000X0.250000X-0.225000X0.250000X0*%
%ADD22RoundRect,0.057888X2.050312X0.564412X-2.050312X0.564412X-2.050312X-0.564412X2.050312X-0.564412X0*%
%ADD23RoundRect,0.250000X-0.450000X0.262500X-0.450000X-0.262500X0.450000X-0.262500X0.450000X0.262500X0*%
%ADD24O,1.676400X3.200400*%
%ADD25RoundRect,0.061553X0.776947X0.301947X-0.776947X0.301947X-0.776947X-0.301947X0.776947X-0.301947X0*%
%ADD26RoundRect,0.250000X-0.250000X-0.475000X0.250000X-0.475000X0.250000X0.475000X-0.250000X0.475000X0*%
%ADD27RoundRect,0.250000X-0.325000X-0.650000X0.325000X-0.650000X0.325000X0.650000X-0.325000X0.650000X0*%
%ADD28C,1.270000*%
%ADD29RoundRect,0.057888X-2.050312X-0.564412X2.050312X-0.564412X2.050312X0.564412X-2.050312X0.564412X0*%
%ADD30RoundRect,0.250000X-0.475000X0.250000X-0.475000X-0.250000X0.475000X-0.250000X0.475000X0.250000X0*%
%ADD31RoundRect,0.200000X-0.200000X-0.275000X0.200000X-0.275000X0.200000X0.275000X-0.200000X0.275000X0*%
%ADD32RoundRect,0.250000X0.325000X0.650000X-0.325000X0.650000X-0.325000X-0.650000X0.325000X-0.650000X0*%
%ADD33RoundRect,0.102000X0.800000X0.650000X-0.800000X0.650000X-0.800000X-0.650000X0.800000X-0.650000X0*%
%ADD34RoundRect,0.102000X0.800000X1.000000X-0.800000X1.000000X-0.800000X-1.000000X0.800000X-1.000000X0*%
%ADD35RoundRect,0.225000X0.225000X0.250000X-0.225000X0.250000X-0.225000X-0.250000X0.225000X-0.250000X0*%
%ADD36RoundRect,0.250000X-0.325000X-1.100000X0.325000X-1.100000X0.325000X1.100000X-0.325000X1.100000X0*%
%ADD37RoundRect,0.225000X-0.250000X0.225000X-0.250000X-0.225000X0.250000X-0.225000X0.250000X0.225000X0*%
%ADD38RoundRect,0.057573X0.971127X0.590127X-0.971127X0.590127X-0.971127X-0.590127X0.971127X-0.590127X0*%
%ADD39RoundRect,0.053238X1.610462X2.562962X-1.610462X2.562962X-1.610462X-2.562962X1.610462X-2.562962X0*%
%ADD40RoundRect,0.250000X0.450000X-0.262500X0.450000X0.262500X-0.450000X0.262500X-0.450000X-0.262500X0*%
%ADD41FreePoly0,0.000000*%
%ADD42RoundRect,0.055408X-0.708092X-0.708092X0.708092X-0.708092X0.708092X0.708092X-0.708092X0.708092X0*%
%ADD43RoundRect,0.250000X0.250000X0.475000X-0.250000X0.475000X-0.250000X-0.475000X0.250000X-0.475000X0*%
%ADD44RoundRect,0.200000X0.200000X0.275000X-0.200000X0.275000X-0.200000X-0.275000X0.200000X-0.275000X0*%
%ADD45RoundRect,0.057252X0.556248X-0.506248X0.556248X0.506248X-0.556248X0.506248X-0.556248X-0.506248X0*%
%ADD46RoundRect,0.066040X0.264160X-0.429260X0.264160X0.429260X-0.264160X0.429260X-0.264160X-0.429260X0*%
%ADD47RoundRect,0.063500X-0.317500X0.419100X-0.317500X-0.419100X0.317500X-0.419100X0.317500X0.419100X0*%
%ADD48R,4.445000X3.810000*%
%ADD49RoundRect,0.071582X0.753918X0.322118X-0.753918X0.322118X-0.753918X-0.322118X0.753918X-0.322118X0*%
%ADD50RoundRect,0.061553X0.301947X-0.776947X0.301947X0.776947X-0.301947X0.776947X-0.301947X-0.776947X0*%
%ADD51RoundRect,0.250000X0.362500X1.075000X-0.362500X1.075000X-0.362500X-1.075000X0.362500X-1.075000X0*%
%ADD52RoundRect,0.066842X-0.872958X-0.250658X0.872958X-0.250658X0.872958X0.250658X-0.872958X0.250658X0*%
%ADD53RoundRect,0.071582X-0.753918X-0.322118X0.753918X-0.322118X0.753918X0.322118X-0.753918X0.322118X0*%
%ADD54RoundRect,0.057252X0.506248X0.706248X-0.506248X0.706248X-0.506248X-0.706248X0.506248X-0.706248X0*%
%ADD55RoundRect,0.071582X-0.322118X0.753918X-0.322118X-0.753918X0.322118X-0.753918X0.322118X0.753918X0*%
%ADD56O,3.704000X2.844000*%
%ADD57O,4.704000X2.844000*%
%ADD58RoundRect,0.078509X0.734291X-0.137391X0.734291X0.137391X-0.734291X0.137391X-0.734291X-0.137391X0*%
%ADD59RoundRect,0.078509X-0.137391X-0.734291X0.137391X-0.734291X0.137391X0.734291X-0.137391X0.734291X0*%
%ADD60RoundRect,0.062345X0.280555X-1.156855X0.280555X1.156855X-0.280555X1.156855X-0.280555X-1.156855X0*%
%ADD61RoundRect,0.072571X0.181429X-0.619579X0.181429X0.619579X-0.181429X0.619579X-0.181429X-0.619579X0*%
%ADD62RoundRect,0.055408X-0.708092X0.708092X-0.708092X-0.708092X0.708092X-0.708092X0.708092X0.708092X0*%
%ADD63RoundRect,0.057252X-0.706248X0.506248X-0.706248X-0.506248X0.706248X-0.506248X0.706248X0.506248X0*%
%ADD64R,0.762000X1.295400*%
%ADD65RoundRect,0.072571X-0.587829X-0.181429X0.587829X-0.181429X0.587829X0.181429X-0.587829X0.181429X0*%
%ADD66RoundRect,0.061860X0.364340X0.714340X-0.364340X0.714340X-0.364340X-0.714340X0.364340X-0.714340X0*%
%ADD67RoundRect,0.052600X2.523600X2.173600X-2.523600X2.173600X-2.523600X-2.173600X2.523600X-2.173600X0*%
%ADD68RoundRect,0.054384X-1.109116X0.909116X-1.109116X-0.909116X1.109116X-0.909116X1.109116X0.909116X0*%
%ADD69RoundRect,0.102000X0.700000X-0.600000X0.700000X0.600000X-0.700000X0.600000X-0.700000X-0.600000X0*%
%ADD70RoundRect,0.250000X0.475000X-0.250000X0.475000X0.250000X-0.475000X0.250000X-0.475000X-0.250000X0*%
%ADD71RoundRect,0.062345X0.280555X-0.661555X0.280555X0.661555X-0.280555X0.661555X-0.280555X-0.661555X0*%
%ADD72C,2.387600*%
%ADD73C,0.990600*%
%ADD74RoundRect,0.457200X0.000010X-0.000010X0.000010X0.000010X-0.000010X0.000010X-0.000010X-0.000010X0*%
%ADD75RoundRect,0.083058X-0.293142X0.113142X-0.293142X-0.113142X0.293142X-0.113142X0.293142X0.113142X0*%
%ADD76RoundRect,0.083058X-0.113142X-0.293142X0.113142X-0.293142X0.113142X0.293142X-0.113142X0.293142X0*%
%ADD77RoundRect,0.083058X0.113142X0.293142X-0.113142X0.293142X-0.113142X-0.293142X0.113142X-0.293142X0*%
%ADD78RoundRect,0.083058X0.293142X-0.113142X0.293142X0.113142X-0.293142X0.113142X-0.293142X-0.113142X0*%
%ADD79RoundRect,0.055354X-1.370846X0.870846X-1.370846X-0.870846X1.370846X-0.870846X1.370846X0.870846X0*%
%ADD80RoundRect,0.250000X-0.650000X0.325000X-0.650000X-0.325000X0.650000X-0.325000X0.650000X0.325000X0*%
%ADD81RoundRect,0.076200X0.750000X0.750000X-0.750000X0.750000X-0.750000X-0.750000X0.750000X-0.750000X0*%
%ADD82FreePoly0,180.000000*%
%ADD83RoundRect,0.055408X0.708092X-0.708092X0.708092X0.708092X-0.708092X0.708092X-0.708092X-0.708092X0*%
%ADD84C,1.500000*%
%ADD85RoundRect,0.057252X-0.506248X-0.706248X0.506248X-0.706248X0.506248X0.706248X-0.506248X0.706248X0*%
%ADD86RoundRect,0.102000X-1.050000X1.050000X-1.050000X-1.050000X1.050000X-1.050000X1.050000X1.050000X0*%
%ADD87C,2.304000*%
%ADD88RoundRect,0.057252X-0.506248X-0.556248X0.506248X-0.556248X0.506248X0.556248X-0.506248X0.556248X0*%
%ADD89RoundRect,0.061553X-0.776947X-0.301947X0.776947X-0.301947X0.776947X0.301947X-0.776947X0.301947X0*%
%ADD90RoundRect,0.071582X0.322118X-0.753918X0.322118X0.753918X-0.322118X0.753918X-0.322118X-0.753918X0*%
%ADD91RoundRect,0.250000X0.650000X-0.325000X0.650000X0.325000X-0.650000X0.325000X-0.650000X-0.325000X0*%
%ADD92RoundRect,0.250000X-0.362500X-1.425000X0.362500X-1.425000X0.362500X1.425000X-0.362500X1.425000X0*%
%ADD93RoundRect,0.058542X-1.597658X-0.517658X1.597658X-0.517658X1.597658X0.517658X-1.597658X0.517658X0*%
%ADD94RoundRect,0.061860X0.714340X-0.364340X0.714340X0.364340X-0.714340X0.364340X-0.714340X-0.364340X0*%
%ADD95RoundRect,0.052600X2.173600X-2.523600X2.173600X2.523600X-2.173600X2.523600X-2.173600X-2.523600X0*%
%ADD96RoundRect,0.250000X0.362500X1.425000X-0.362500X1.425000X-0.362500X-1.425000X0.362500X-1.425000X0*%
%ADD97R,0.762000X1.092200*%
%ADD98RoundRect,0.057252X0.706248X-0.506248X0.706248X0.506248X-0.706248X0.506248X-0.706248X-0.506248X0*%
%ADD99RoundRect,0.102000X-0.600000X-0.700000X0.600000X-0.700000X0.600000X0.700000X-0.600000X0.700000X0*%
%ADD100C,1.700000*%
%ADD101FreePoly1,180.000000*%
%ADD102C,5.652400*%
%ADD103RoundRect,0.057888X-0.564412X2.050312X-0.564412X-2.050312X0.564412X-2.050312X0.564412X2.050312X0*%
%ADD104RoundRect,0.066040X0.429260X0.264160X-0.429260X0.264160X-0.429260X-0.264160X0.429260X-0.264160X0*%
%ADD105RoundRect,0.063500X-0.419100X-0.317500X0.419100X-0.317500X0.419100X0.317500X-0.419100X0.317500X0*%
%ADD106R,3.810000X4.445000*%
%ADD107RoundRect,0.102000X1.320000X1.320000X-1.320000X1.320000X-1.320000X-1.320000X1.320000X-1.320000X0*%
%ADD108C,2.844000*%
%ADD109RoundRect,0.102000X-0.350000X-0.210000X0.350000X-0.210000X0.350000X0.210000X-0.350000X0.210000X0*%
%ADD110RoundRect,0.102000X-0.850000X-1.185000X0.850000X-1.185000X0.850000X1.185000X-0.850000X1.185000X0*%
%ADD111RoundRect,0.102000X-0.225000X-0.210000X0.225000X-0.210000X0.225000X0.210000X-0.225000X0.210000X0*%
%ADD112RoundRect,0.076200X0.419100X0.254000X-0.419100X0.254000X-0.419100X-0.254000X0.419100X-0.254000X0*%
%ADD113RoundRect,0.076200X0.889000X0.673100X-0.889000X0.673100X-0.889000X-0.673100X0.889000X-0.673100X0*%
%ADD114RoundRect,0.081280X0.629920X0.121920X-0.629920X0.121920X-0.629920X-0.121920X0.629920X-0.121920X0*%
%ADD115RoundRect,0.076200X-0.889000X-0.673100X0.889000X-0.673100X0.889000X0.673100X-0.889000X0.673100X0*%
%ADD116RoundRect,0.076200X-0.419100X-0.254000X0.419100X-0.254000X0.419100X0.254000X-0.419100X0.254000X0*%
%ADD117RoundRect,0.081280X-0.629920X-0.121920X0.629920X-0.121920X0.629920X0.121920X-0.629920X0.121920X0*%
%ADD118RoundRect,0.102000X0.679000X0.679000X-0.679000X0.679000X-0.679000X-0.679000X0.679000X-0.679000X0*%
%ADD119C,1.562000*%
%ADD120RoundRect,0.250000X-1.100000X0.325000X-1.100000X-0.325000X1.100000X-0.325000X1.100000X0.325000X0*%
%ADD121RoundRect,0.054384X0.909116X1.109116X-0.909116X1.109116X-0.909116X-1.109116X0.909116X-1.109116X0*%
%ADD122R,1.300000X3.100000*%
%ADD123R,10.600000X2.250000*%
%ADD124R,7.500000X6.200000*%
%ADD125RoundRect,0.056330X-1.169870X-0.719870X1.169870X-0.719870X1.169870X0.719870X-1.169870X0.719870X0*%
%ADD126RoundRect,0.054166X1.172034X-1.772034X1.172034X1.772034X-1.172034X1.772034X-1.172034X-1.772034X0*%
%ADD127RoundRect,0.055408X0.708092X0.708092X-0.708092X0.708092X-0.708092X-0.708092X0.708092X-0.708092X0*%
%ADD128RoundRect,0.062345X-0.280555X0.661555X-0.280555X-0.661555X0.280555X-0.661555X0.280555X0.661555X0*%
%ADD129FreePoly2,0.000000*%
%ADD130RoundRect,0.057573X-0.971127X-0.590127X0.971127X-0.590127X0.971127X0.590127X-0.971127X0.590127X0*%
%ADD131RoundRect,0.053238X-1.610462X-2.562962X1.610462X-2.562962X1.610462X2.562962X-1.610462X2.562962X0*%
%ADD132C,2.692400*%
%ADD133RoundRect,0.078509X0.137391X-0.772391X0.137391X0.772391X-0.137391X0.772391X-0.137391X-0.772391X0*%
%ADD134RoundRect,0.055716X0.960284X-0.807884X0.960284X0.807884X-0.960284X0.807884X-0.960284X-0.807884X0*%
%ADD135RoundRect,0.250000X0.312500X0.625000X-0.312500X0.625000X-0.312500X-0.625000X0.312500X-0.625000X0*%
%ADD136R,0.914400X0.254000*%
%ADD137R,0.254000X0.914400*%
%ADD138R,3.251200X3.251200*%
%ADD139RoundRect,0.058000X-0.764000X-0.174000X0.764000X-0.174000X0.764000X0.174000X-0.764000X0.174000X0*%
%ADD140RoundRect,0.058000X-0.174000X-0.764000X0.174000X-0.764000X0.174000X0.764000X-0.174000X0.764000X0*%
%ADD141C,4.000000*%
%ADD142O,2.400000X4.000000*%
%ADD143RoundRect,0.054384X-0.909116X-1.109116X0.909116X-1.109116X0.909116X1.109116X-0.909116X1.109116X0*%
%ADD144C,6.500000*%
%ADD145R,1.168400X0.304800*%
G04 APERTURE END LIST*
D10*
X66998850Y-53955950D02*
X69094350Y-53955950D01*
X69094350Y-59226450D01*
X66998850Y-59226450D01*
X66998850Y-53955950D01*
G36*
X66998850Y-53955950D02*
G01*
X69094350Y-53955950D01*
X69094350Y-59226450D01*
X66998850Y-59226450D01*
X66998850Y-53955950D01*
G37*
D11*
%TO.C,Q5*%
G36*
X219712588Y-80976482D02*
G01*
X220347588Y-80976482D01*
X220347588Y-80163682D01*
X220982588Y-80163682D01*
X220982588Y-80976482D01*
X221617588Y-80976482D01*
X221617588Y-80163682D01*
X222252588Y-80163682D01*
X222252588Y-80976482D01*
X222887588Y-80976482D01*
X222887588Y-80163682D01*
X223522588Y-80163682D01*
X223522588Y-84761091D01*
X219077588Y-84761091D01*
X219077588Y-80163682D01*
X219712588Y-80163682D01*
X219712588Y-80976482D01*
G37*
D12*
%TO.C,X1*%
X149950000Y-152450000D02*
X115450000Y-152450000D01*
X115450000Y-146950000D01*
X149950000Y-146950000D01*
X149950000Y-152450000D01*
G36*
X149950000Y-152450000D02*
G01*
X115450000Y-152450000D01*
X115450000Y-146950000D01*
X149950000Y-146950000D01*
X149950000Y-152450000D01*
G37*
D11*
%TO.C,Q4*%
G36*
X215834897Y-85209782D02*
G01*
X211237488Y-85209782D01*
X211237488Y-84574782D01*
X212050288Y-84574782D01*
X212050288Y-83939782D01*
X211237488Y-83939782D01*
X211237488Y-83304782D01*
X212050288Y-83304782D01*
X212050288Y-82669782D01*
X211237488Y-82669782D01*
X211237488Y-82034782D01*
X212050288Y-82034782D01*
X212050288Y-81399782D01*
X211237488Y-81399782D01*
X211237488Y-80764782D01*
X215834897Y-80764782D01*
X215834897Y-85209782D01*
G37*
%TO.C,R93*%
D10*
X119746600Y-58030500D02*
X117905100Y-58030500D01*
X117905100Y-54855500D01*
X119746600Y-54855500D01*
X119746600Y-58030500D01*
%TD*%
D13*
%TO.C,IC27*%
X140906400Y-119717300D03*
X139636400Y-119717300D03*
X138366400Y-119717300D03*
X137096400Y-119717300D03*
X137096400Y-125117300D03*
X138366400Y-125117300D03*
X139636400Y-125117300D03*
X140906400Y-125117300D03*
%TD*%
D14*
%TO.C,R72*%
X142195600Y-52633000D03*
X144020600Y-52633000D03*
%TD*%
D15*
%TO.C,C81*%
X234317588Y-95306282D03*
X226189588Y-95306282D03*
%TD*%
D16*
%TO.C,IC8*%
X181246200Y-76204900D03*
X181246200Y-75704900D03*
X181246200Y-75204900D03*
X181246200Y-74704900D03*
X178503000Y-74704900D03*
X178503000Y-75204900D03*
X178503000Y-75704900D03*
X178503000Y-76204900D03*
%TD*%
D17*
%TO.C,C21*%
X176030000Y-127380000D03*
X176030000Y-125830000D03*
%TD*%
D18*
%TO.C,R74*%
X125397500Y-76849900D03*
X123572500Y-76849900D03*
%TD*%
D19*
%TO.C,D3*%
X178498100Y-83453900D03*
X181215900Y-83453900D03*
%TD*%
D14*
%TO.C,R73*%
X142195600Y-54595150D03*
X144020600Y-54595150D03*
%TD*%
D20*
%TO.C,C91*%
X186435500Y-60466900D03*
X183485500Y-60466900D03*
%TD*%
D21*
%TO.C,JP3*%
X151790554Y-136568815D03*
X153340554Y-136568815D03*
%TD*%
D22*
%TO.C,C83*%
X234838288Y-65080282D03*
X228589888Y-65080282D03*
%TD*%
D23*
%TO.C,R60*%
X172110000Y-59302900D03*
X172110000Y-61127900D03*
%TD*%
D24*
%TO.C,R77*%
X134726100Y-60697500D03*
X129646100Y-60697500D03*
%TD*%
D23*
%TO.C,R30*%
X213529600Y-130206500D03*
X213529600Y-132031500D03*
%TD*%
D14*
%TO.C,R22*%
X70893300Y-104521000D03*
X72718300Y-104521000D03*
%TD*%
%TO.C,R53*%
X175769500Y-61165400D03*
X177594500Y-61165400D03*
%TD*%
D25*
%TO.C,IC17*%
X120096950Y-68249000D03*
X120096950Y-66979000D03*
X120096950Y-65709000D03*
X120096950Y-64439000D03*
X114696950Y-64439000D03*
X114696950Y-65709000D03*
X114696950Y-66979000D03*
X114696950Y-68249000D03*
%TD*%
D26*
%TO.C,C102*%
X135369950Y-90733000D03*
X137269950Y-90733000D03*
%TD*%
D27*
%TO.C,C26*%
X176670000Y-140080000D03*
X179620000Y-140080000D03*
%TD*%
D28*
%TO.C,TP2*%
X147900000Y-100160000D03*
%TD*%
D21*
%TO.C,JP1*%
X188030000Y-96390000D03*
X189580000Y-96390000D03*
X186480000Y-96390000D03*
%TD*%
D29*
%TO.C,C76*%
X212824688Y-102045782D03*
X219073088Y-102045782D03*
%TD*%
D18*
%TO.C,R126*%
X69937000Y-73025000D03*
X68112000Y-73025000D03*
%TD*%
D14*
%TO.C,R95*%
X124993600Y-99686500D03*
X126818600Y-99686500D03*
%TD*%
D30*
%TO.C,C99*%
X150964500Y-93616400D03*
X150964500Y-95516400D03*
%TD*%
D31*
%TO.C,R69*%
X108699800Y-78765400D03*
X110349800Y-78765400D03*
%TD*%
D23*
%TO.C,R24*%
X203923500Y-130864900D03*
X203923500Y-132689900D03*
%TD*%
D32*
%TO.C,C37*%
X206876600Y-140453500D03*
X203926600Y-140453500D03*
%TD*%
D33*
%TO.C,RV1*%
X196649000Y-77831000D03*
D34*
X193749000Y-76581000D03*
D33*
X196649000Y-75331000D03*
%TD*%
D35*
%TO.C,JP12*%
X144791900Y-123966700D03*
X143241900Y-123966700D03*
%TD*%
%TO.C,C89*%
X112295000Y-68440000D03*
X110745000Y-68440000D03*
%TD*%
D36*
%TO.C,C71*%
X214110088Y-96068282D03*
X217060088Y-96068282D03*
%TD*%
D26*
%TO.C,C69*%
X215841588Y-65524782D03*
X217741588Y-65524782D03*
%TD*%
D37*
%TO.C,C18*%
X149733000Y-117462000D03*
X149733000Y-119012000D03*
%TD*%
D19*
%TO.C,D15*%
X159689400Y-56402900D03*
X156971600Y-56402900D03*
%TD*%
D18*
%TO.C,R97*%
X126818450Y-90733000D03*
X124993450Y-90733000D03*
%TD*%
D19*
%TO.C,D21*%
X97561400Y-121467000D03*
X94843600Y-121467000D03*
%TD*%
D37*
%TO.C,C17*%
X161086800Y-117462000D03*
X161086800Y-119012000D03*
%TD*%
D28*
%TO.C,TP12*%
X193040000Y-60452000D03*
%TD*%
D38*
%TO.C,Q15*%
X142378000Y-78629900D03*
X142378000Y-76318500D03*
D39*
X136612200Y-76318500D03*
D38*
X142378000Y-74007100D03*
%TD*%
D40*
%TO.C,R47*%
X197121200Y-58943000D03*
X197121200Y-57118000D03*
%TD*%
D14*
%TO.C,R62*%
X112269500Y-73130800D03*
X114094500Y-73130800D03*
%TD*%
D41*
%TO.C,LED2*%
X65470000Y-79730000D03*
X65470000Y-82270000D03*
X62930000Y-79730000D03*
X62930000Y-82270000D03*
X68010000Y-79730000D03*
X68010000Y-82270000D03*
%TD*%
D42*
%TO.C,ZD7*%
X132125800Y-118474000D03*
X128325800Y-118474000D03*
%TD*%
D18*
%TO.C,R36*%
X221560388Y-69254382D03*
X219735388Y-69254382D03*
%TD*%
D14*
%TO.C,R81*%
X110388450Y-64507500D03*
X112213450Y-64507500D03*
%TD*%
D43*
%TO.C,C5*%
X178280000Y-92560000D03*
X176380000Y-92560000D03*
%TD*%
%TO.C,C108*%
X132253450Y-97527500D03*
X130353450Y-97527500D03*
%TD*%
D44*
%TO.C,R54*%
X180936000Y-61165400D03*
X179286000Y-61165400D03*
%TD*%
D45*
%TO.C,FB2*%
X194310000Y-104380400D03*
X194310000Y-102680400D03*
%TD*%
D21*
%TO.C,C57*%
X151167800Y-116128800D03*
X152717800Y-116128800D03*
%TD*%
D26*
%TO.C,C86*%
X110350950Y-70159000D03*
X112250950Y-70159000D03*
%TD*%
D46*
%TO.C,Q5*%
X219395088Y-86407782D03*
X220665088Y-86407782D03*
X221935088Y-86407782D03*
X223205088Y-86407782D03*
D47*
X223205088Y-80582782D03*
X221935088Y-80582782D03*
X220665088Y-80582782D03*
D48*
X221300088Y-82860282D03*
D47*
X219395088Y-80582782D03*
%TD*%
D49*
%TO.C,Q26*%
X77766400Y-85725700D03*
X77766400Y-83795300D03*
X75607400Y-84760500D03*
%TD*%
D50*
%TO.C,IC4*%
X176040000Y-124200000D03*
X177310000Y-124200000D03*
X178580000Y-124200000D03*
X179850000Y-124200000D03*
X179850000Y-118800000D03*
X178580000Y-118800000D03*
X177310000Y-118800000D03*
X176040000Y-118800000D03*
%TD*%
D23*
%TO.C,R131*%
X140022400Y-113630800D03*
X140022400Y-115455800D03*
%TD*%
D28*
%TO.C,TP3*%
X199390000Y-99060000D03*
%TD*%
D43*
%TO.C,C100*%
X139024000Y-101667700D03*
X137124000Y-101667700D03*
%TD*%
D26*
%TO.C,C127*%
X183245000Y-81421900D03*
X185145000Y-81421900D03*
%TD*%
D37*
%TO.C,C29*%
X181190000Y-139620000D03*
X181190000Y-141170000D03*
%TD*%
D23*
%TO.C,R111*%
X104423900Y-95916500D03*
X104423900Y-97741500D03*
%TD*%
D32*
%TO.C,C121*%
X76517500Y-119951500D03*
X73567500Y-119951500D03*
%TD*%
D14*
%TO.C,R71*%
X137161500Y-103646900D03*
X138986500Y-103646900D03*
%TD*%
%TO.C,R27*%
X161047500Y-98506600D03*
X162872500Y-98506600D03*
%TD*%
D20*
%TO.C,C80*%
X228807588Y-85146282D03*
X225857588Y-85146282D03*
%TD*%
D51*
%TO.C,R45*%
X234344088Y-71112782D03*
X229719088Y-71112782D03*
%TD*%
D52*
%TO.C,IC7*%
X141490300Y-102237200D03*
X141490300Y-102872200D03*
X141490300Y-103532600D03*
X141490300Y-104167600D03*
X145960700Y-104167600D03*
X145960700Y-103532600D03*
X145960700Y-102872200D03*
X145960700Y-102237200D03*
%TD*%
D53*
%TO.C,Q1*%
X112310600Y-121200300D03*
X112310600Y-123130700D03*
X114469600Y-122165500D03*
%TD*%
D54*
%TO.C,Q13*%
X172760100Y-76317050D03*
X171810100Y-78517050D03*
X170860100Y-76317050D03*
%TD*%
D28*
%TO.C,TP5*%
X192278000Y-104140000D03*
%TD*%
D21*
%TO.C,C104*%
X110505000Y-82590000D03*
X112055000Y-82590000D03*
%TD*%
D17*
%TO.C,C4*%
X174351027Y-98214195D03*
X174351027Y-96664195D03*
%TD*%
D37*
%TO.C,C1*%
X174351027Y-99976595D03*
X174351027Y-101526595D03*
%TD*%
D55*
%TO.C,Q3*%
X153502921Y-76521700D03*
X151572521Y-76521700D03*
X152537721Y-78680700D03*
%TD*%
D56*
%TO.C,Q14*%
X164098000Y-60212900D03*
D57*
X158648000Y-60212900D03*
D56*
X153198000Y-60212900D03*
%TD*%
D23*
%TO.C,R140*%
X121175200Y-121240300D03*
X121175200Y-123065300D03*
%TD*%
D18*
%TO.C,R87*%
X137272000Y-95074400D03*
X135447000Y-95074400D03*
%TD*%
D30*
%TO.C,C88*%
X123310000Y-59660000D03*
X123310000Y-61560000D03*
%TD*%
D43*
%TO.C,C125*%
X139956400Y-117527800D03*
X138056400Y-117527800D03*
%TD*%
D17*
%TO.C,C15*%
X181820000Y-104734195D03*
X181820000Y-103184195D03*
%TD*%
D37*
%TO.C,JP6*%
X191071500Y-112077500D03*
X191071500Y-113627500D03*
X191071500Y-110527500D03*
%TD*%
D44*
%TO.C,R3*%
X172890027Y-95211295D03*
X171240027Y-95211295D03*
%TD*%
D58*
%TO.C,IC5*%
X182651400Y-136245600D03*
X182651400Y-135763000D03*
X182651400Y-135255000D03*
X182651400Y-134747000D03*
X182651400Y-134264400D03*
X182651400Y-133756400D03*
X182651400Y-133248400D03*
X182651400Y-132740400D03*
X182651400Y-132257800D03*
X182651400Y-131749800D03*
X182651400Y-131241800D03*
X182651400Y-130759200D03*
D59*
X181178200Y-129286000D03*
X180695600Y-129286000D03*
X180187600Y-129286000D03*
X179679600Y-129286000D03*
X179197000Y-129286000D03*
X178689000Y-129286000D03*
X178181000Y-129286000D03*
X177673000Y-129286000D03*
X177190400Y-129286000D03*
X176682400Y-129286000D03*
X176174400Y-129286000D03*
X175691800Y-129286000D03*
D58*
X174218600Y-130759200D03*
X174218600Y-131241800D03*
X174218600Y-131749800D03*
X174218600Y-132257800D03*
X174218600Y-132740400D03*
X174218600Y-133248400D03*
X174218600Y-133756400D03*
X174218600Y-134264400D03*
X174218600Y-134747000D03*
X174218600Y-135255000D03*
X174218600Y-135763000D03*
X174218600Y-136245600D03*
D59*
X175691800Y-137718800D03*
X176174400Y-137718800D03*
X176682400Y-137718800D03*
X177190400Y-137718800D03*
X177673000Y-137718800D03*
X178181000Y-137718800D03*
X178689000Y-137718800D03*
X179197000Y-137718800D03*
X179679600Y-137718800D03*
X180187600Y-137718800D03*
X180695600Y-137718800D03*
X181178200Y-137718800D03*
%TD*%
D40*
%TO.C,R56*%
X168300000Y-61127900D03*
X168300000Y-59302900D03*
%TD*%
%TO.C,R10*%
X184810000Y-141512500D03*
X184810000Y-139687500D03*
%TD*%
D60*
%TO.C,IC2*%
X161086800Y-130022600D03*
X162356800Y-130022600D03*
X163626800Y-130022600D03*
X164896800Y-130022600D03*
X166166800Y-130022600D03*
X167436800Y-130022600D03*
X168706800Y-130022600D03*
X169976800Y-130022600D03*
X169976800Y-120980200D03*
X168706800Y-120980200D03*
X167436800Y-120980200D03*
X166166800Y-120980200D03*
X164896800Y-120980200D03*
X163626800Y-120980200D03*
X162356800Y-120980200D03*
X161086800Y-120980200D03*
%TD*%
D18*
%TO.C,R65*%
X138986500Y-99699200D03*
X137161500Y-99699200D03*
%TD*%
D17*
%TO.C,C11*%
X161086800Y-133540800D03*
X161086800Y-131990800D03*
%TD*%
D14*
%TO.C,R118*%
X91340300Y-107467400D03*
X93165300Y-107467400D03*
%TD*%
D40*
%TO.C,R124*%
X173570500Y-88112900D03*
X173570500Y-86287900D03*
%TD*%
D61*
%TO.C,IC21*%
X90423000Y-76655750D03*
X91073000Y-76655750D03*
X91723000Y-76655750D03*
X92373000Y-76655750D03*
X92373000Y-72528250D03*
X91723000Y-72528250D03*
X91073000Y-72528250D03*
X90423000Y-72528250D03*
%TD*%
D62*
%TO.C,D9*%
X205333600Y-98200000D03*
X205333600Y-94400000D03*
%TD*%
D40*
%TO.C,R133*%
X141990900Y-115455800D03*
X141990900Y-113630800D03*
%TD*%
D36*
%TO.C,C72*%
X214110088Y-92829782D03*
X217060088Y-92829782D03*
%TD*%
D63*
%TO.C,Q9*%
X160804100Y-72676100D03*
X163004100Y-73626100D03*
X160804100Y-74576100D03*
%TD*%
D37*
%TO.C,C40*%
X143154000Y-98871400D03*
X143154000Y-100421400D03*
%TD*%
D21*
%TO.C,C93*%
X147228950Y-88891500D03*
X148778950Y-88891500D03*
%TD*%
D64*
%TO.C,D1*%
X193715500Y-135750000D03*
X192064500Y-135750000D03*
%TD*%
D18*
%TO.C,R117*%
X88119500Y-73512500D03*
X86294500Y-73512500D03*
%TD*%
%TO.C,R75*%
X116163150Y-70171700D03*
X114338150Y-70171700D03*
%TD*%
D40*
%TO.C,R17*%
X211561100Y-139905500D03*
X211561100Y-138080500D03*
%TD*%
D43*
%TO.C,C115*%
X82696000Y-79989500D03*
X80796000Y-79989500D03*
%TD*%
D44*
%TO.C,R2*%
X172889527Y-99984195D03*
X171239527Y-99984195D03*
%TD*%
D65*
%TO.C,IC24*%
X131690800Y-102429700D03*
X131690800Y-103090100D03*
X131690800Y-103750500D03*
X133570400Y-103750500D03*
X133570400Y-103090100D03*
X133570400Y-102429700D03*
%TD*%
D18*
%TO.C,R66*%
X121960700Y-78833100D03*
X120135700Y-78833100D03*
%TD*%
D19*
%TO.C,D14*%
X151147200Y-89653500D03*
X153865000Y-89653500D03*
%TD*%
D26*
%TO.C,C97*%
X108776150Y-73130800D03*
X110676150Y-73130800D03*
%TD*%
D66*
%TO.C,Q31*%
X126720600Y-113766600D03*
X125450600Y-113766600D03*
X124180600Y-113766600D03*
X122910600Y-113766600D03*
D67*
X124815600Y-117416600D03*
%TD*%
D32*
%TO.C,C61*%
X230252800Y-126161800D03*
X227302800Y-126161800D03*
%TD*%
D40*
%TO.C,R114*%
X85416300Y-82819700D03*
X85416300Y-80994700D03*
%TD*%
D68*
%TO.C,ZD6*%
X88011000Y-117929500D03*
X88011000Y-112829500D03*
%TD*%
D14*
%TO.C,R135*%
X143110400Y-122010900D03*
X144935400Y-122010900D03*
%TD*%
D69*
%TO.C,Y1*%
X182849479Y-91566721D03*
X185049479Y-91566721D03*
X185049479Y-89966721D03*
X182849479Y-89966721D03*
%TD*%
D70*
%TO.C,C10*%
X180041942Y-93150000D03*
X180041942Y-91250000D03*
%TD*%
D18*
%TO.C,R96*%
X109012500Y-60932300D03*
X107187500Y-60932300D03*
%TD*%
D71*
%TO.C,IC10*%
X204434000Y-84328000D03*
X205384000Y-84328000D03*
X206334000Y-84328000D03*
X206334000Y-81940400D03*
X204434000Y-81940400D03*
%TD*%
D72*
%TO.C,X2*%
X188240000Y-128690000D03*
D73*
X190780000Y-128690000D03*
D72*
X193320000Y-128690000D03*
X188240000Y-125515000D03*
X193320000Y-125515000D03*
D73*
X189764000Y-123610000D03*
X191796000Y-123610000D03*
D74*
X191415000Y-127420000D03*
X190145000Y-127420000D03*
X191415000Y-126150000D03*
X190145000Y-126150000D03*
X191415000Y-124880000D03*
X190145000Y-124880000D03*
%TD*%
D32*
%TO.C,C63*%
X227453200Y-123451000D03*
X224503200Y-123451000D03*
%TD*%
D75*
%TO.C,IC16*%
X218306588Y-70743782D03*
D76*
X217906588Y-69843782D03*
X217406588Y-69843782D03*
X216906588Y-69843782D03*
X216406588Y-69843782D03*
X215906585Y-69843782D03*
X215406588Y-69843782D03*
X214906588Y-69843782D03*
D77*
X214406588Y-69843782D03*
D75*
X214006588Y-70743782D03*
D78*
X214006588Y-72243782D03*
D77*
X214406588Y-73143782D03*
X214906588Y-73143782D03*
X215406588Y-73143782D03*
X215906588Y-73143782D03*
X216406591Y-73143782D03*
X216906588Y-73143782D03*
X217406588Y-73143782D03*
X217906591Y-73143782D03*
D78*
X218306588Y-72243782D03*
D79*
X216156588Y-71493782D03*
%TD*%
D35*
%TO.C,C45*%
X180649600Y-77753600D03*
X179099600Y-77753600D03*
%TD*%
D14*
%TO.C,R61*%
X108807300Y-77074150D03*
X110632300Y-77074150D03*
%TD*%
D80*
%TO.C,C34*%
X170536350Y-135813050D03*
X170536350Y-138763050D03*
%TD*%
D44*
%TO.C,R1*%
X172889527Y-101444795D03*
X171239527Y-101444795D03*
%TD*%
D28*
%TO.C,TP9*%
X213868000Y-115824000D03*
%TD*%
D18*
%TO.C,R108*%
X110475000Y-91391400D03*
X108650000Y-91391400D03*
%TD*%
D23*
%TO.C,R58*%
X174015000Y-59302900D03*
X174015000Y-61127900D03*
%TD*%
D19*
%TO.C,D8*%
X188870000Y-73840000D03*
X191587800Y-73840000D03*
%TD*%
D26*
%TO.C,C66*%
X219717888Y-65317382D03*
X221617888Y-65317382D03*
%TD*%
D30*
%TO.C,C38*%
X213529600Y-138043000D03*
X213529600Y-139943000D03*
%TD*%
D14*
%TO.C,R13*%
X190047500Y-133840000D03*
X191872500Y-133840000D03*
%TD*%
D43*
%TO.C,C62*%
X222302654Y-71199682D03*
X220402654Y-71199682D03*
%TD*%
D23*
%TO.C,R142*%
X134172200Y-113630800D03*
X134172200Y-115455800D03*
%TD*%
D43*
%TO.C,C119*%
X97647800Y-107467400D03*
X95747800Y-107467400D03*
%TD*%
D81*
%TO.C,X5*%
X76140000Y-142540000D03*
D82*
X76140000Y-140000000D03*
X78680000Y-142540000D03*
X78680000Y-140000000D03*
X81220000Y-142540000D03*
X81220000Y-140000000D03*
X83760000Y-142540000D03*
X83760000Y-140000000D03*
X86300000Y-142540000D03*
X86300000Y-140000000D03*
X88840000Y-142540000D03*
X88840000Y-140000000D03*
X91380000Y-142540000D03*
X91380000Y-140000000D03*
X93920000Y-142540000D03*
X93920000Y-140000000D03*
X96460000Y-142540000D03*
X96460000Y-140000000D03*
X99000000Y-142540000D03*
X99000000Y-140000000D03*
%TD*%
D83*
%TO.C,D5*%
X210883500Y-117480000D03*
X210883500Y-121280000D03*
%TD*%
D18*
%TO.C,R121*%
X72842500Y-82140000D03*
X71017500Y-82140000D03*
%TD*%
D20*
%TO.C,C78*%
X228807588Y-81907782D03*
X225857588Y-81907782D03*
%TD*%
D40*
%TO.C,R99*%
X71695400Y-95720900D03*
X71695400Y-93895900D03*
%TD*%
D43*
%TO.C,C31*%
X186090600Y-137617200D03*
X184190600Y-137617200D03*
%TD*%
%TO.C,C112*%
X83830200Y-93281500D03*
X81930200Y-93281500D03*
%TD*%
D17*
%TO.C,C95*%
X112880000Y-78235000D03*
X112880000Y-76685000D03*
%TD*%
D30*
%TO.C,C79*%
X222564600Y-57519000D03*
X222564600Y-59419000D03*
%TD*%
D23*
%TO.C,R123*%
X169633500Y-86287900D03*
X169633500Y-88112900D03*
%TD*%
D19*
%TO.C,D16*%
X118021100Y-74930000D03*
X115303300Y-74930000D03*
%TD*%
D18*
%TO.C,R80*%
X119555500Y-70171700D03*
X117730500Y-70171700D03*
%TD*%
D14*
%TO.C,R32*%
X146939050Y-78198100D03*
X148764050Y-78198100D03*
%TD*%
D17*
%TO.C,C90*%
X121570400Y-61597850D03*
X121570400Y-60047850D03*
%TD*%
D84*
%TO.C,FM2*%
X236000000Y-52000000D03*
%TD*%
D71*
%TO.C,IC15*%
X190208600Y-88448400D03*
X191158600Y-88448400D03*
X192108600Y-88448400D03*
X192108600Y-86060800D03*
X190208600Y-86060800D03*
%TD*%
D63*
%TO.C,Q11*%
X160810300Y-79927800D03*
X163010300Y-80877800D03*
X160810300Y-81827800D03*
%TD*%
D44*
%TO.C,R6*%
X172889027Y-104460295D03*
X171239027Y-104460295D03*
%TD*%
D26*
%TO.C,C109*%
X124955950Y-95051000D03*
X126855950Y-95051000D03*
%TD*%
D14*
%TO.C,R130*%
X158624500Y-90847300D03*
X160449500Y-90847300D03*
%TD*%
D19*
%TO.C,D11*%
X168768600Y-56148900D03*
X166050800Y-56148900D03*
%TD*%
D85*
%TO.C,Q28*%
X130499500Y-115772500D03*
X131449500Y-113572500D03*
X132399500Y-115772500D03*
%TD*%
D23*
%TO.C,R141*%
X126826700Y-121240300D03*
X126826700Y-123065300D03*
%TD*%
D14*
%TO.C,R49*%
X188048500Y-60483950D03*
X189873500Y-60483950D03*
%TD*%
D53*
%TO.C,Q2*%
X112310600Y-124819800D03*
X112310600Y-126750200D03*
X114469600Y-125785000D03*
%TD*%
D86*
%TO.C,X4*%
X64800000Y-87000000D03*
D87*
X64800000Y-90500000D03*
X64800000Y-94000000D03*
%TD*%
D14*
%TO.C,R25*%
X154267500Y-98720000D03*
X156092500Y-98720000D03*
%TD*%
D44*
%TO.C,R7*%
X172890027Y-96664195D03*
X171240027Y-96664195D03*
%TD*%
D88*
%TO.C,FB1*%
X183542200Y-125095000D03*
X185242200Y-125095000D03*
%TD*%
D89*
%TO.C,IC12*%
X202996800Y-109397800D03*
X202996800Y-110667800D03*
X202996800Y-111937800D03*
X202996800Y-113207800D03*
X208396800Y-113207800D03*
X208396800Y-111937800D03*
X208396800Y-110667800D03*
X208396800Y-109397800D03*
%TD*%
D90*
%TO.C,Q27*%
X132892800Y-123507500D03*
X134823200Y-123507500D03*
X133858000Y-121348500D03*
%TD*%
D44*
%TO.C,R4*%
X172890027Y-93744195D03*
X171240027Y-93744195D03*
%TD*%
D40*
%TO.C,R59*%
X170205000Y-61127900D03*
X170205000Y-59302900D03*
%TD*%
D23*
%TO.C,R132*%
X138053900Y-113630800D03*
X138053900Y-115455800D03*
%TD*%
D32*
%TO.C,C24*%
X180645000Y-127100000D03*
X177695000Y-127100000D03*
%TD*%
D25*
%TO.C,IC26*%
X167639400Y-93255300D03*
X167639400Y-91985300D03*
X167639400Y-90715300D03*
X167639400Y-89445300D03*
X162239400Y-89445300D03*
X162239400Y-90715300D03*
X162239400Y-91985300D03*
X162239400Y-93255300D03*
%TD*%
D18*
%TO.C,R86*%
X132215950Y-92892000D03*
X130390950Y-92892000D03*
%TD*%
D26*
%TO.C,C103*%
X130353450Y-99686500D03*
X132253450Y-99686500D03*
%TD*%
D21*
%TO.C,JP11*%
X68912000Y-89895500D03*
X70462000Y-89895500D03*
%TD*%
D23*
%TO.C,R94*%
X116393650Y-84600800D03*
X116393650Y-86425800D03*
%TD*%
D85*
%TO.C,Q29*%
X123082700Y-123252800D03*
X124032700Y-121052800D03*
X124982700Y-123252800D03*
%TD*%
D91*
%TO.C,C52*%
X204195100Y-118751000D03*
X204195100Y-115801000D03*
%TD*%
D19*
%TO.C,D12*%
X168768600Y-51894400D03*
X166050800Y-51894400D03*
%TD*%
D37*
%TO.C,C33*%
X172415950Y-135687550D03*
X172415950Y-137237550D03*
%TD*%
D92*
%TO.C,R78*%
X129015500Y-54497900D03*
X134940500Y-54497900D03*
%TD*%
D18*
%TO.C,R129*%
X160455700Y-88878800D03*
X158630700Y-88878800D03*
%TD*%
D93*
%TO.C,K1*%
X92582500Y-123761500D03*
X92582500Y-128841500D03*
X92582500Y-131381500D03*
X92582500Y-133921500D03*
X99822500Y-133921500D03*
X99822500Y-131381500D03*
X99822500Y-128841500D03*
X99822500Y-123761500D03*
%TD*%
D18*
%TO.C,R119*%
X72842500Y-80220000D03*
X71017500Y-80220000D03*
%TD*%
D14*
%TO.C,R55*%
X166262100Y-76191500D03*
X168087100Y-76191500D03*
%TD*%
D28*
%TO.C,TP13*%
X68580000Y-85090000D03*
%TD*%
D23*
%TO.C,R138*%
X128795200Y-121240300D03*
X128795200Y-123065300D03*
%TD*%
D94*
%TO.C,Q18*%
X105499100Y-65015500D03*
X105499100Y-63745500D03*
X105499100Y-62475500D03*
X105499100Y-61205500D03*
D95*
X101849100Y-63110500D03*
%TD*%
D85*
%TO.C,ZD5*%
X76668500Y-89852500D03*
X78568500Y-89852500D03*
X77618500Y-87652500D03*
%TD*%
D18*
%TO.C,R98*%
X109400400Y-53452000D03*
X107575400Y-53452000D03*
%TD*%
D96*
%TO.C,R34*%
X228600000Y-130873500D03*
X222675000Y-130873500D03*
%TD*%
D14*
%TO.C,R57*%
X179198500Y-59196900D03*
X181023500Y-59196900D03*
%TD*%
D21*
%TO.C,C13*%
X177353527Y-101910000D03*
X178903527Y-101910000D03*
%TD*%
D23*
%TO.C,R50*%
X158195700Y-73132700D03*
X158195700Y-74957700D03*
%TD*%
D30*
%TO.C,C16*%
X183530000Y-103400000D03*
X183530000Y-105300000D03*
%TD*%
D35*
%TO.C,C123*%
X163847500Y-94742000D03*
X162297500Y-94742000D03*
%TD*%
D55*
%TO.C,Q24*%
X85178900Y-121920000D03*
X83248500Y-121920000D03*
X84213700Y-124079000D03*
%TD*%
D27*
%TO.C,C122*%
X73567500Y-122936000D03*
X76517500Y-122936000D03*
%TD*%
D28*
%TO.C,TP8*%
X103730000Y-81990000D03*
%TD*%
D26*
%TO.C,C107*%
X130353450Y-90733000D03*
X132253450Y-90733000D03*
%TD*%
D44*
%TO.C,R8*%
X172890027Y-98132795D03*
X171240027Y-98132795D03*
%TD*%
D28*
%TO.C,TP4*%
X192278000Y-115824000D03*
%TD*%
D40*
%TO.C,R136*%
X130763700Y-123065300D03*
X130763700Y-121240300D03*
%TD*%
D43*
%TO.C,C46*%
X205780100Y-129087000D03*
X203880100Y-129087000D03*
%TD*%
D14*
%TO.C,R120*%
X83313900Y-120078500D03*
X85138900Y-120078500D03*
%TD*%
D23*
%TO.C,R139*%
X119206700Y-121240300D03*
X119206700Y-123065300D03*
%TD*%
D62*
%TO.C,D4*%
X207814600Y-132862400D03*
X207814600Y-129062400D03*
%TD*%
D14*
%TO.C,R64*%
X146945400Y-74280150D03*
X148770400Y-74280150D03*
%TD*%
D63*
%TO.C,Q16*%
X146199100Y-52629150D03*
X148399100Y-53579150D03*
X146199100Y-54529150D03*
%TD*%
D23*
%TO.C,R100*%
X85943350Y-93618500D03*
X85943350Y-95443500D03*
%TD*%
D49*
%TO.C,Q25*%
X77766400Y-82423700D03*
X77766400Y-80493300D03*
X75607400Y-81458500D03*
%TD*%
D18*
%TO.C,R46*%
X201018200Y-61205500D03*
X199193200Y-61205500D03*
%TD*%
D23*
%TO.C,R39*%
X213870588Y-65628282D03*
X213870588Y-67453282D03*
%TD*%
D26*
%TO.C,C44*%
X209844600Y-128750700D03*
X211744600Y-128750700D03*
%TD*%
D40*
%TO.C,R90*%
X118368500Y-86419450D03*
X118368500Y-84594450D03*
%TD*%
D18*
%TO.C,R113*%
X110475000Y-93359900D03*
X108650000Y-93359900D03*
%TD*%
%TO.C,R92*%
X126818450Y-97527500D03*
X124993450Y-97527500D03*
%TD*%
D40*
%TO.C,R31*%
X199559600Y-118188500D03*
X199559600Y-116363500D03*
%TD*%
D97*
%TO.C,D10*%
X199089700Y-59452900D03*
X199089700Y-56735100D03*
%TD*%
D84*
%TO.C,FM1*%
X68000000Y-52000000D03*
%TD*%
D14*
%TO.C,R15*%
X183262500Y-76860000D03*
X185087500Y-76860000D03*
%TD*%
D43*
%TO.C,C116*%
X82696000Y-90213000D03*
X80796000Y-90213000D03*
%TD*%
D37*
%TO.C,C67*%
X216664588Y-74782782D03*
X216664588Y-76332782D03*
%TD*%
D21*
%TO.C,JP10*%
X68912000Y-87927000D03*
X70462000Y-87927000D03*
%TD*%
D25*
%TO.C,IC18*%
X148849750Y-94385600D03*
X148849750Y-93115600D03*
X148849750Y-91845600D03*
X148849750Y-90575600D03*
X143449750Y-90575600D03*
X143449750Y-91845600D03*
X143449750Y-93115600D03*
X143449750Y-94385600D03*
%TD*%
D80*
%TO.C,C53*%
X201845600Y-115801000D03*
X201845600Y-118751000D03*
%TD*%
D23*
%TO.C,R20*%
X213529600Y-134143500D03*
X213529600Y-135968500D03*
%TD*%
D43*
%TO.C,C101*%
X121998200Y-76864600D03*
X120098200Y-76864600D03*
%TD*%
D98*
%TO.C,Q21*%
X75861000Y-95544500D03*
X73661000Y-94594500D03*
X75861000Y-93644500D03*
%TD*%
D18*
%TO.C,R106*%
X82658500Y-81958000D03*
X80833500Y-81958000D03*
%TD*%
D28*
%TO.C,TP6*%
X199390000Y-104140000D03*
%TD*%
D35*
%TO.C,C9*%
X186785000Y-103200000D03*
X185235000Y-103200000D03*
%TD*%
D40*
%TO.C,R143*%
X136140700Y-115455800D03*
X136140700Y-113630800D03*
%TD*%
D24*
%TO.C,Q17*%
X147172100Y-60240300D03*
X144632100Y-60240300D03*
X142092100Y-60240300D03*
%TD*%
D18*
%TO.C,R109*%
X106606400Y-91399750D03*
X104781400Y-91399750D03*
%TD*%
D19*
%TO.C,D2*%
X178498100Y-81421900D03*
X181215900Y-81421900D03*
%TD*%
D20*
%TO.C,C77*%
X228807588Y-88384782D03*
X225857588Y-88384782D03*
%TD*%
D23*
%TO.C,R110*%
X104741400Y-87559900D03*
X104741400Y-89384900D03*
%TD*%
D14*
%TO.C,R112*%
X104781400Y-93368250D03*
X106606400Y-93368250D03*
%TD*%
D99*
%TO.C,Y2*%
X186540000Y-132440000D03*
X186540000Y-134640000D03*
X188140000Y-134640000D03*
X188140000Y-132440000D03*
%TD*%
D37*
%TO.C,C35*%
X186490000Y-140030000D03*
X186490000Y-141580000D03*
%TD*%
D70*
%TO.C,C39*%
X144868900Y-100365600D03*
X144868900Y-98465600D03*
%TD*%
D26*
%TO.C,C7*%
X185270000Y-104940000D03*
X187170000Y-104940000D03*
%TD*%
D100*
%TO.C,LED1*%
X62000000Y-101000000D03*
D101*
X66445000Y-101000000D03*
X68350000Y-101000000D03*
X64540000Y-101000000D03*
%TD*%
D102*
%TO.C,KK1*%
X69500000Y-63000000D03*
%TD*%
D32*
%TO.C,C65*%
X233006700Y-123451000D03*
X230056700Y-123451000D03*
%TD*%
D21*
%TO.C,C6*%
X176795000Y-94280000D03*
X178345000Y-94280000D03*
%TD*%
D37*
%TO.C,C126*%
X142392400Y-118020800D03*
X142392400Y-119570800D03*
%TD*%
D35*
%TO.C,C94*%
X121150000Y-82320000D03*
X119600000Y-82320000D03*
%TD*%
D103*
%TO.C,C120*%
X94488000Y-110820200D03*
X94488000Y-117068600D03*
%TD*%
D104*
%TO.C,Q4*%
X217481588Y-84892282D03*
X217481588Y-83622282D03*
X217481588Y-82352282D03*
X217481588Y-81082282D03*
D105*
X211656588Y-81082282D03*
X211656588Y-82352282D03*
X211656588Y-83622282D03*
D106*
X213934088Y-82987282D03*
D105*
X211656588Y-84892282D03*
%TD*%
D14*
%TO.C,R68*%
X133796000Y-99686500D03*
X135621000Y-99686500D03*
%TD*%
D23*
%TO.C,R52*%
X158195700Y-81006700D03*
X158195700Y-82831700D03*
%TD*%
D17*
%TO.C,C12*%
X149733000Y-133540800D03*
X149733000Y-131990800D03*
%TD*%
D107*
%TO.C,X3*%
X235781000Y-138176000D03*
D108*
X231821000Y-138176000D03*
X227861000Y-138176000D03*
X223901000Y-138176000D03*
%TD*%
D97*
%TO.C,D20*%
X89281000Y-80365600D03*
X89281000Y-83083400D03*
%TD*%
D14*
%TO.C,R29*%
X151638050Y-74235700D03*
X153463050Y-74235700D03*
%TD*%
D40*
%TO.C,R76*%
X140383950Y-91033900D03*
X140383950Y-89208900D03*
%TD*%
D21*
%TO.C,C20*%
X181751942Y-93160000D03*
X183301942Y-93160000D03*
%TD*%
D35*
%TO.C,C58*%
X204549200Y-107868800D03*
X202999200Y-107868800D03*
%TD*%
D17*
%TO.C,C2*%
X174351027Y-95240095D03*
X174351027Y-93690095D03*
%TD*%
D28*
%TO.C,TP7*%
X186940000Y-115870000D03*
%TD*%
D40*
%TO.C,R42*%
X220634200Y-59361500D03*
X220634200Y-57536500D03*
%TD*%
D23*
%TO.C,R44*%
X214766800Y-57536500D03*
X214766800Y-59361500D03*
%TD*%
D18*
%TO.C,R37*%
X221560388Y-67285882D03*
X219735388Y-67285882D03*
%TD*%
D35*
%TO.C,C19*%
X186259479Y-93156721D03*
X184709479Y-93156721D03*
%TD*%
D26*
%TO.C,C70*%
X215841588Y-67493282D03*
X217741588Y-67493282D03*
%TD*%
D18*
%TO.C,R9*%
X178820000Y-105565805D03*
X176995000Y-105565805D03*
%TD*%
%TO.C,R116*%
X88119500Y-75481000D03*
X86294500Y-75481000D03*
%TD*%
D109*
%TO.C,Q8*%
X225130000Y-57484200D03*
X225130000Y-58134200D03*
X225130000Y-58784200D03*
X225130000Y-59434200D03*
D110*
X226980000Y-58459200D03*
D111*
X228055000Y-57484200D03*
X228055000Y-58134200D03*
X228055000Y-58784200D03*
X228055000Y-59434200D03*
%TD*%
D14*
%TO.C,R83*%
X112528400Y-62539000D03*
X114353400Y-62539000D03*
%TD*%
D18*
%TO.C,R104*%
X80037400Y-95252900D03*
X78212400Y-95252900D03*
%TD*%
D14*
%TO.C,R134*%
X183262500Y-83390400D03*
X185087500Y-83390400D03*
%TD*%
D112*
%TO.C,R93*%
X119270100Y-56443000D03*
D113*
X118800100Y-57368400D03*
X118800100Y-55517600D03*
D114*
X118100100Y-56443000D03*
D115*
X113200100Y-57368400D03*
X113200100Y-55517600D03*
D116*
X112730100Y-56443000D03*
D117*
X113900100Y-56443000D03*
%TD*%
D35*
%TO.C,C74*%
X216677588Y-78923282D03*
X215127588Y-78923282D03*
%TD*%
D26*
%TO.C,C82*%
X203105400Y-61205500D03*
X205005400Y-61205500D03*
%TD*%
D14*
%TO.C,R105*%
X81967700Y-95250000D03*
X83792700Y-95250000D03*
%TD*%
D80*
%TO.C,C48*%
X208767100Y-115801000D03*
X208767100Y-118751000D03*
%TD*%
D40*
%TO.C,R41*%
X211902088Y-67453282D03*
X211902088Y-65628282D03*
%TD*%
D21*
%TO.C,C25*%
X183806800Y-129641600D03*
X185356800Y-129641600D03*
%TD*%
D23*
%TO.C,R26*%
X206481100Y-116363500D03*
X206481100Y-118188500D03*
%TD*%
D14*
%TO.C,R21*%
X70906000Y-102616000D03*
X72731000Y-102616000D03*
%TD*%
D63*
%TO.C,Q23*%
X110685000Y-95902400D03*
X112885000Y-96852400D03*
X110685000Y-97802400D03*
%TD*%
D37*
%TO.C,C111*%
X78634500Y-71785000D03*
X78634500Y-73335000D03*
%TD*%
D35*
%TO.C,C32*%
X191535000Y-132150000D03*
X189985000Y-132150000D03*
%TD*%
D14*
%TO.C,R14*%
X164416100Y-139268200D03*
X166241100Y-139268200D03*
%TD*%
D40*
%TO.C,R43*%
X201121700Y-59006500D03*
X201121700Y-57181500D03*
%TD*%
D36*
%TO.C,C73*%
X214110088Y-89591282D03*
X217060088Y-89591282D03*
%TD*%
D32*
%TO.C,C36*%
X206876600Y-138104000D03*
X203926600Y-138104000D03*
%TD*%
D91*
%TO.C,C55*%
X164990200Y-103881500D03*
X164990200Y-100931500D03*
%TD*%
D28*
%TO.C,TP1*%
X176330000Y-74690000D03*
%TD*%
D19*
%TO.C,D18*%
X147146700Y-56906700D03*
X144428900Y-56906700D03*
%TD*%
D25*
%TO.C,IC11*%
X162356200Y-104370000D03*
X162356200Y-103100000D03*
X162356200Y-101830000D03*
X162356200Y-100560000D03*
X156956200Y-100560000D03*
X156956200Y-101830000D03*
X156956200Y-103100000D03*
X156956200Y-104370000D03*
%TD*%
D41*
%TO.C,LED3*%
X62930000Y-72730000D03*
X62930000Y-75270000D03*
X65470000Y-72730000D03*
X65470000Y-75270000D03*
%TD*%
D118*
%TO.C,JP4*%
X191430000Y-78640000D03*
D119*
X189430000Y-78640000D03*
%TD*%
D23*
%TO.C,R122*%
X175532650Y-86287900D03*
X175532650Y-88112900D03*
%TD*%
D40*
%TO.C,R33*%
X200558400Y-76528300D03*
X200558400Y-74703300D03*
%TD*%
D120*
%TO.C,C49*%
X200829600Y-129136000D03*
X200829600Y-132086000D03*
%TD*%
D23*
%TO.C,R48*%
X195152700Y-57118000D03*
X195152700Y-58943000D03*
%TD*%
D35*
%TO.C,JP2*%
X188030000Y-95000000D03*
X186480000Y-95000000D03*
X189580000Y-95000000D03*
%TD*%
D118*
%TO.C,JP8*%
X191420000Y-76130000D03*
D119*
X189420000Y-76130000D03*
%TD*%
D14*
%TO.C,R40*%
X211797488Y-78883182D03*
X213622488Y-78883182D03*
%TD*%
D21*
%TO.C,C124*%
X166240700Y-87723100D03*
X167790700Y-87723100D03*
%TD*%
D23*
%TO.C,R51*%
X158195700Y-77069700D03*
X158195700Y-78894700D03*
%TD*%
D37*
%TO.C,C22*%
X176020000Y-115605000D03*
X176020000Y-117155000D03*
%TD*%
D19*
%TO.C,D22*%
X126140900Y-125175400D03*
X123423100Y-125175400D03*
%TD*%
D121*
%TO.C,D19*%
X112211700Y-52353600D03*
X117311700Y-52353600D03*
%TD*%
D18*
%TO.C,R11*%
X193722500Y-137690000D03*
X191897500Y-137690000D03*
%TD*%
D19*
%TO.C,ZD3*%
X168768600Y-54004600D03*
X166050800Y-54004600D03*
%TD*%
D94*
%TO.C,Q19*%
X105499100Y-59237000D03*
X105499100Y-57967000D03*
X105499100Y-56697000D03*
X105499100Y-55427000D03*
D95*
X101849100Y-57332000D03*
%TD*%
D102*
%TO.C,KK2*%
X69500000Y-147000000D03*
%TD*%
D63*
%TO.C,Q10*%
X160829500Y-76314800D03*
X163029500Y-77264800D03*
X160829500Y-78214800D03*
%TD*%
D21*
%TO.C,C114*%
X84328000Y-84582000D03*
X85878000Y-84582000D03*
%TD*%
D122*
%TO.C,Q30*%
X114172600Y-118045500D03*
D123*
X116712600Y-104620500D03*
D124*
X116712600Y-108845500D03*
D122*
X119252600Y-118045500D03*
%TD*%
D26*
%TO.C,C85*%
X110350000Y-66720000D03*
X112250000Y-66720000D03*
%TD*%
D65*
%TO.C,IC20*%
X106760700Y-80674600D03*
X106760700Y-81335000D03*
X106760700Y-81995400D03*
X108640300Y-81995400D03*
X108640300Y-81335000D03*
X108640300Y-80674600D03*
%TD*%
D37*
%TO.C,C28*%
X184937400Y-131343100D03*
X184937400Y-132893100D03*
%TD*%
D53*
%TO.C,Q6*%
X216623900Y-57454800D03*
X216623900Y-59385200D03*
X218782900Y-58420000D03*
%TD*%
D37*
%TO.C,C105*%
X114552150Y-84370000D03*
X114552150Y-85920000D03*
%TD*%
D40*
%TO.C,R125*%
X171595650Y-88112900D03*
X171595650Y-86287900D03*
%TD*%
D70*
%TO.C,C84*%
X207721200Y-59344600D03*
X207721200Y-57444600D03*
%TD*%
D84*
%TO.C,FM3*%
X62000000Y-141000000D03*
%TD*%
D40*
%TO.C,R35*%
X198653400Y-76528300D03*
X198653400Y-74703300D03*
%TD*%
D89*
%TO.C,IC13*%
X194203500Y-109397800D03*
X194203500Y-110667800D03*
X194203500Y-111937800D03*
X194203500Y-113207800D03*
X199603500Y-113207800D03*
X199603500Y-111937800D03*
X199603500Y-110667800D03*
X199603500Y-109397800D03*
%TD*%
D125*
%TO.C,TR1*%
X206614100Y-124943500D03*
X206614100Y-122943500D03*
X201014100Y-122943500D03*
X201014100Y-124943500D03*
%TD*%
D14*
%TO.C,R88*%
X130390950Y-95051000D03*
X132215950Y-95051000D03*
%TD*%
%TO.C,R63*%
X146945400Y-76248650D03*
X148770400Y-76248650D03*
%TD*%
D126*
%TO.C,L3*%
X229031588Y-76383282D03*
X235031588Y-76383282D03*
%TD*%
D127*
%TO.C,D7*%
X203128800Y-106172000D03*
X206928800Y-106172000D03*
%TD*%
D17*
%TO.C,C54*%
X202907500Y-82095000D03*
X202907500Y-80545000D03*
%TD*%
D26*
%TO.C,C50*%
X157630000Y-98756600D03*
X159530000Y-98756600D03*
%TD*%
D23*
%TO.C,R79*%
X140383950Y-92574400D03*
X140383950Y-94399400D03*
%TD*%
D128*
%TO.C,IC23*%
X82759500Y-83939200D03*
X81809500Y-83939200D03*
X80859500Y-83939200D03*
X80859500Y-86326800D03*
X82759500Y-86326800D03*
%TD*%
D18*
%TO.C,R107*%
X82658500Y-88244500D03*
X80833500Y-88244500D03*
%TD*%
D21*
%TO.C,C113*%
X84315000Y-86868000D03*
X85865000Y-86868000D03*
%TD*%
%TO.C,C59*%
X194185400Y-107868800D03*
X195735400Y-107868800D03*
%TD*%
D129*
%TO.C,F1*%
X106362500Y-111360000D03*
X106362500Y-133860000D03*
%TD*%
D130*
%TO.C,Q12*%
X172997700Y-51782100D03*
X172997700Y-54093500D03*
D131*
X178763500Y-54093500D03*
D130*
X172997700Y-56404900D03*
%TD*%
D37*
%TO.C,C56*%
X193673200Y-86505000D03*
X193673200Y-88055000D03*
%TD*%
D13*
%TO.C,IC19*%
X118153950Y-76895100D03*
X116883950Y-76895100D03*
X115613950Y-76895100D03*
X114343950Y-76895100D03*
X114343950Y-82295100D03*
X115613950Y-82295100D03*
X116883950Y-82295100D03*
X118153950Y-82295100D03*
%TD*%
D18*
%TO.C,R101*%
X74530500Y-87927000D03*
X72705500Y-87927000D03*
%TD*%
D17*
%TO.C,C27*%
X184937400Y-135864900D03*
X184937400Y-134314900D03*
%TD*%
D43*
%TO.C,C30*%
X185303200Y-127939800D03*
X183403200Y-127939800D03*
%TD*%
D44*
%TO.C,R5*%
X172890027Y-102994195D03*
X171240027Y-102994195D03*
%TD*%
D120*
%TO.C,C47*%
X151720000Y-99635000D03*
X151720000Y-102585000D03*
%TD*%
D127*
%TO.C,ZD4*%
X151579500Y-56402900D03*
X155379500Y-56402900D03*
%TD*%
D65*
%TO.C,IC25*%
X131703500Y-105820600D03*
X131703500Y-106481000D03*
X131703500Y-107141400D03*
X133583100Y-107141400D03*
X133583100Y-106481000D03*
X133583100Y-105820600D03*
%TD*%
D14*
%TO.C,R85*%
X130391100Y-88002500D03*
X132216100Y-88002500D03*
%TD*%
D40*
%TO.C,R12*%
X182880000Y-141512500D03*
X182880000Y-139687500D03*
%TD*%
D14*
%TO.C,R127*%
X68112000Y-74930000D03*
X69937000Y-74930000D03*
%TD*%
D45*
%TO.C,FB3*%
X196951600Y-104380400D03*
X196951600Y-102680400D03*
%TD*%
D70*
%TO.C,C117*%
X106709900Y-89422400D03*
X106709900Y-87522400D03*
%TD*%
D28*
%TO.C,TP14*%
X68580000Y-92710000D03*
%TD*%
D132*
%TO.C,L1*%
X223803200Y-120149000D03*
X223803200Y-105149000D03*
X233803200Y-120149000D03*
X233803200Y-105149000D03*
%TD*%
D30*
%TO.C,C87*%
X119857500Y-60583600D03*
X119857500Y-62483600D03*
%TD*%
D17*
%TO.C,C3*%
X174350527Y-104511095D03*
X174350527Y-102961095D03*
%TD*%
D35*
%TO.C,C23*%
X174447043Y-128840630D03*
X172897043Y-128840630D03*
%TD*%
D14*
%TO.C,R103*%
X78212400Y-93284400D03*
X80037400Y-93284400D03*
%TD*%
D28*
%TO.C,TP11*%
X211610000Y-57620000D03*
%TD*%
D84*
%TO.C,FM4*%
X222000000Y-142500000D03*
%TD*%
D18*
%TO.C,R82*%
X137232450Y-92892000D03*
X135407450Y-92892000D03*
%TD*%
D30*
%TO.C,C51*%
X154703200Y-100694500D03*
X154703200Y-102594500D03*
%TD*%
D26*
%TO.C,C98*%
X108776150Y-75099300D03*
X110676150Y-75099300D03*
%TD*%
D43*
%TO.C,C96*%
X177632000Y-59196900D03*
X175732000Y-59196900D03*
%TD*%
D19*
%TO.C,D13*%
X151147200Y-87581400D03*
X153865000Y-87581400D03*
%TD*%
D133*
%TO.C,IC9*%
X209554500Y-135449700D03*
X210037100Y-135449700D03*
X210545100Y-135449700D03*
X211053100Y-135449700D03*
X211535700Y-135449700D03*
X211535700Y-131233300D03*
X211053100Y-131233300D03*
X210545100Y-131233300D03*
X210037100Y-131233300D03*
X209554500Y-131233300D03*
D134*
X210545100Y-133341500D03*
%TD*%
D19*
%TO.C,D17*%
X153865000Y-91772400D03*
X151147200Y-91772400D03*
%TD*%
D23*
%TO.C,R115*%
X87312500Y-80994700D03*
X87312500Y-82819700D03*
%TD*%
D135*
%TO.C,R89*%
X114408100Y-60450000D03*
X111483100Y-60450000D03*
%TD*%
D23*
%TO.C,R137*%
X128465000Y-113760000D03*
X128465000Y-115585000D03*
%TD*%
D42*
%TO.C,D6*%
X198115000Y-106172000D03*
X194315000Y-106172000D03*
%TD*%
D98*
%TO.C,ZD1*%
X174230000Y-92270000D03*
X174230000Y-90370000D03*
X172030000Y-91320000D03*
%TD*%
D136*
%TO.C,IC14*%
X156546550Y-113763999D03*
X156546550Y-113264000D03*
X156546550Y-112764001D03*
X156546550Y-112264000D03*
X156546550Y-111764000D03*
X156546550Y-111263999D03*
X156546550Y-110764000D03*
X156546550Y-110264001D03*
D137*
X155794649Y-109512100D03*
X155294650Y-109512100D03*
X154794651Y-109512100D03*
X154294650Y-109512100D03*
X153794650Y-109512100D03*
X153294649Y-109512100D03*
X152794650Y-109512100D03*
X152294651Y-109512100D03*
D136*
X151542750Y-110264001D03*
X151542750Y-110764000D03*
X151542750Y-111263999D03*
X151542750Y-111764000D03*
X151542750Y-112264000D03*
X151542750Y-112764001D03*
X151542750Y-113264000D03*
X151542750Y-113763999D03*
D137*
X152294651Y-114515900D03*
X152794650Y-114515900D03*
X153294649Y-114515900D03*
X153794650Y-114515900D03*
X154294650Y-114515900D03*
X154794651Y-114515900D03*
X155294650Y-114515900D03*
X155794649Y-114515900D03*
D138*
X154044650Y-112014000D03*
%TD*%
D139*
%TO.C,IC1*%
X178687253Y-96693214D03*
X178687253Y-97193214D03*
X178687253Y-97693214D03*
X178687253Y-98193214D03*
X178687253Y-98693214D03*
X178687253Y-99193214D03*
X178687253Y-99693214D03*
X178687253Y-100193214D03*
D140*
X180032253Y-101538214D03*
X180532253Y-101538214D03*
X181032253Y-101538214D03*
X181532253Y-101538214D03*
X182032253Y-101538214D03*
X182532253Y-101538214D03*
X183032253Y-101538214D03*
X183532253Y-101538214D03*
D139*
X184877253Y-100193214D03*
X184877253Y-99693214D03*
X184877253Y-99193214D03*
X184877253Y-98693214D03*
X184877253Y-98193214D03*
X184877253Y-97693214D03*
X184877253Y-97193214D03*
X184877253Y-96693214D03*
D140*
X183532253Y-95348214D03*
X183032253Y-95348214D03*
X182532253Y-95348214D03*
X182032253Y-95348214D03*
X181532253Y-95348214D03*
X181032253Y-95348214D03*
X180532253Y-95348214D03*
X180032253Y-95348214D03*
%TD*%
D35*
%TO.C,C68*%
X212214988Y-72533182D03*
X210664988Y-72533182D03*
%TD*%
D14*
%TO.C,R128*%
X158618000Y-92796600D03*
X160443000Y-92796600D03*
%TD*%
D21*
%TO.C,C92*%
X143101450Y-96117800D03*
X144651450Y-96117800D03*
%TD*%
D37*
%TO.C,C41*%
X141630000Y-98871400D03*
X141630000Y-100421400D03*
%TD*%
D85*
%TO.C,Q20*%
X87781000Y-95561150D03*
X88731000Y-93361150D03*
X89681000Y-95561150D03*
%TD*%
D26*
%TO.C,C106*%
X124956100Y-88002500D03*
X126856100Y-88002500D03*
%TD*%
D43*
%TO.C,C8*%
X178858527Y-103620000D03*
X176958527Y-103620000D03*
%TD*%
D40*
%TO.C,R18*%
X209592600Y-139905500D03*
X209592600Y-138080500D03*
%TD*%
D17*
%TO.C,C14*%
X180360000Y-104739195D03*
X180360000Y-103189195D03*
%TD*%
D98*
%TO.C,Q7*%
X205468000Y-59361500D03*
X203268000Y-58411500D03*
X205468000Y-57461500D03*
%TD*%
D21*
%TO.C,C110*%
X88273500Y-70591500D03*
X89823500Y-70591500D03*
%TD*%
D70*
%TO.C,C118*%
X106392400Y-97779000D03*
X106392400Y-95879000D03*
%TD*%
%TO.C,C42*%
X209804000Y-126995600D03*
X209804000Y-125095600D03*
%TD*%
D18*
%TO.C,R19*%
X180787100Y-79453400D03*
X178962100Y-79453400D03*
%TD*%
D141*
%TO.C,J1*%
X75900000Y-111950000D03*
D142*
X60600000Y-111950000D03*
D141*
X83500000Y-111950000D03*
%TD*%
D60*
%TO.C,IC3*%
X149733000Y-130022600D03*
X151003000Y-130022600D03*
X152273000Y-130022600D03*
X153543000Y-130022600D03*
X154813000Y-130022600D03*
X156083000Y-130022600D03*
X157353000Y-130022600D03*
X158623000Y-130022600D03*
X158623000Y-120980200D03*
X157353000Y-120980200D03*
X156083000Y-120980200D03*
X154813000Y-120980200D03*
X153543000Y-120980200D03*
X152273000Y-120980200D03*
X151003000Y-120980200D03*
X149733000Y-120980200D03*
%TD*%
D14*
%TO.C,R16*%
X183262500Y-79453400D03*
X185087500Y-79453400D03*
%TD*%
D33*
%TO.C,RV3*%
X145465800Y-109098400D03*
D34*
X142565800Y-107848400D03*
D33*
X145465800Y-106598400D03*
%TD*%
D21*
%TO.C,C43*%
X206404600Y-135818000D03*
X207954600Y-135818000D03*
%TD*%
D18*
%TO.C,R102*%
X74530500Y-89895500D03*
X72705500Y-89895500D03*
%TD*%
D50*
%TO.C,IC22*%
X80481000Y-77101500D03*
X81751000Y-77101500D03*
X83021000Y-77101500D03*
X84291000Y-77101500D03*
X84291000Y-71701500D03*
X83021000Y-71701500D03*
X81751000Y-71701500D03*
X80481000Y-71701500D03*
%TD*%
D118*
%TO.C,JP7*%
X204758800Y-75184000D03*
D119*
X202758800Y-75184000D03*
%TD*%
D98*
%TO.C,Q22*%
X110857900Y-89422400D03*
X108657900Y-88472400D03*
X110857900Y-87522400D03*
%TD*%
D27*
%TO.C,C64*%
X209982588Y-76510282D03*
X212932588Y-76510282D03*
%TD*%
D19*
%TO.C,D23*%
X121906900Y-125173400D03*
X119189100Y-125173400D03*
%TD*%
D28*
%TO.C,TP10*%
X213868000Y-109220000D03*
%TD*%
D14*
%TO.C,R38*%
X210336988Y-74247682D03*
X212161988Y-74247682D03*
%TD*%
D33*
%TO.C,RV2*%
X138860000Y-109098400D03*
D34*
X135960000Y-107848400D03*
D33*
X138860000Y-106598400D03*
%TD*%
D23*
%TO.C,R23*%
X211747100Y-125145800D03*
X211747100Y-126970800D03*
%TD*%
D18*
%TO.C,R70*%
X111942500Y-80450000D03*
X110117500Y-80450000D03*
%TD*%
D143*
%TO.C,ZD2*%
X235693200Y-130860800D03*
X230593200Y-130860800D03*
%TD*%
D23*
%TO.C,R28*%
X213652100Y-126824100D03*
X213652100Y-128649100D03*
%TD*%
D118*
%TO.C,JP5*%
X191420000Y-81160000D03*
D119*
X189420000Y-81160000D03*
%TD*%
D126*
%TO.C,L2*%
X219851088Y-76065782D03*
X226051088Y-76065782D03*
%TD*%
D14*
%TO.C,R67*%
X135407450Y-88383500D03*
X137232450Y-88383500D03*
%TD*%
D21*
%TO.C,JP9*%
X210099488Y-69993182D03*
X211649488Y-69993182D03*
%TD*%
D23*
%TO.C,R84*%
X117930000Y-60647500D03*
X117930000Y-62472500D03*
%TD*%
D18*
%TO.C,R91*%
X126818450Y-92892000D03*
X124993450Y-92892000D03*
%TD*%
D70*
%TO.C,C60*%
X188390000Y-88230000D03*
X188390000Y-86330000D03*
%TD*%
D144*
%TO.C,KK7*%
X195604800Y-67047000D03*
X131604800Y-67047000D03*
%TD*%
D43*
%TO.C,C75*%
X217043088Y-86987782D03*
X215143088Y-86987782D03*
%TD*%
D145*
%TO.C,IC6*%
X193780200Y-141579958D03*
X193780200Y-140929972D03*
X193780200Y-140279986D03*
X193780200Y-139630000D03*
X188039800Y-139630000D03*
X188039800Y-140279986D03*
X188039800Y-140929972D03*
X188039800Y-141579958D03*
%TD*%
D141*
%TO.C,J2*%
X75900000Y-131000000D03*
D142*
X60600000Y-131000000D03*
D141*
X83500000Y-131000000D03*
%TD*%
M02*
