%TF.GenerationSoftware,KiCad,Pcbnew,9.0.6-9.0.6~ubuntu24.04.1*%
%TF.CreationDate,2025-12-27T11:28:58+01:00*%
%TF.ProjectId,EEZ DIB DCP405plus,45455a20-4449-4422-9044-435034303570,r4B4*%
%TF.SameCoordinates,Original*%
%TF.FileFunction,Copper,L3,Inr*%
%TF.FilePolarity,Positive*%
%FSLAX46Y46*%
G04 Gerber Fmt 4.6, Leading zero omitted, Abs format (unit mm)*
G04 Created by KiCad (PCBNEW 9.0.6-9.0.6~ubuntu24.04.1) date 2025-12-27 11:28:58*
%MOMM*%
%LPD*%
G01*
G04 APERTURE LIST*
G04 Aperture macros list*
%AMOutline5P*
0 Free polygon, 5 corners , with rotation*
0 The origin of the aperture is its center*
0 number of corners: always 5*
0 $1 to $10 corner X, Y*
0 $11 Rotation angle, in degrees counterclockwise*
0 create outline with 5 corners*
4,1,5,$1,$2,$3,$4,$5,$6,$7,$8,$9,$10,$1,$2,$11*%
%AMOutline6P*
0 Free polygon, 6 corners , with rotation*
0 The origin of the aperture is its center*
0 number of corners: always 6*
0 $1 to $12 corner X, Y*
0 $13 Rotation angle, in degrees counterclockwise*
0 create outline with 6 corners*
4,1,6,$1,$2,$3,$4,$5,$6,$7,$8,$9,$10,$11,$12,$1,$2,$13*%
%AMOutline7P*
0 Free polygon, 7 corners , with rotation*
0 The origin of the aperture is its center*
0 number of corners: always 7*
0 $1 to $14 corner X, Y*
0 $15 Rotation angle, in degrees counterclockwise*
0 create outline with 7 corners*
4,1,7,$1,$2,$3,$4,$5,$6,$7,$8,$9,$10,$11,$12,$13,$14,$1,$2,$15*%
%AMOutline8P*
0 Free polygon, 8 corners , with rotation*
0 The origin of the aperture is its center*
0 number of corners: always 8*
0 $1 to $16 corner X, Y*
0 $17 Rotation angle, in degrees counterclockwise*
0 create outline with 8 corners*
4,1,8,$1,$2,$3,$4,$5,$6,$7,$8,$9,$10,$11,$12,$13,$14,$15,$16,$1,$2,$17*%
G04 Aperture macros list end*
%ADD10C,0.101600*%
%TA.AperFunction,NonConductor*%
%ADD11C,0.101600*%
%TD*%
%TA.AperFunction,ComponentPad*%
%ADD12O,1.524000X3.048000*%
%TD*%
%TA.AperFunction,ComponentPad*%
%ADD13C,1.270000*%
%TD*%
%TA.AperFunction,ComponentPad*%
%ADD14Outline8P,-0.750000X0.310660X-0.310660X0.750000X0.310660X0.750000X0.750000X0.310660X0.750000X-0.310660X0.310660X-0.750000X-0.310660X-0.750000X-0.750000X-0.310660X0.000000*%
%TD*%
%TA.AperFunction,ComponentPad*%
%ADD15O,3.500000X2.640000*%
%TD*%
%TA.AperFunction,ComponentPad*%
%ADD16O,4.500000X2.640000*%
%TD*%
%TA.AperFunction,ComponentPad*%
%ADD17R,1.500000X1.500000*%
%TD*%
%TA.AperFunction,ComponentPad*%
%ADD18Outline8P,-0.750000X0.310660X-0.310660X0.750000X0.310660X0.750000X0.750000X0.310660X0.750000X-0.310660X0.310660X-0.750000X-0.310660X-0.750000X-0.750000X-0.310660X180.000000*%
%TD*%
%TA.AperFunction,ComponentPad*%
%ADD19R,2.100000X2.100000*%
%TD*%
%TA.AperFunction,ComponentPad*%
%ADD20C,2.100000*%
%TD*%
%TA.AperFunction,ComponentPad*%
%ADD21Outline8P,-0.675000X0.279594X-0.279594X0.675000X0.279594X0.675000X0.675000X0.279594X0.675000X-0.279594X0.279594X-0.675000X-0.279594X-0.675000X-0.675000X-0.279594X180.000000*%
%TD*%
%TA.AperFunction,ComponentPad*%
%ADD22C,5.500000*%
%TD*%
%TA.AperFunction,ComponentPad*%
%ADD23R,2.640000X2.640000*%
%TD*%
%TA.AperFunction,ComponentPad*%
%ADD24C,2.640000*%
%TD*%
%TA.AperFunction,ComponentPad*%
%ADD25R,1.358000X1.358000*%
%TD*%
%TA.AperFunction,ComponentPad*%
%ADD26C,1.358000*%
%TD*%
%TA.AperFunction,ComponentPad*%
%ADD27Outline8P,-1.270000X0.526051X-0.526051X1.270000X0.526051X1.270000X1.270000X0.526051X1.270000X-0.526051X0.526051X-1.270000X-0.526051X-1.270000X-1.270000X-0.526051X0.000000*%
%TD*%
%TA.AperFunction,ComponentPad*%
%ADD28C,2.540000*%
%TD*%
%TA.AperFunction,ComponentPad*%
%ADD29C,4.000000*%
%TD*%
%TA.AperFunction,ComponentPad*%
%ADD30O,2.400000X4.000000*%
%TD*%
%TA.AperFunction,ViaPad*%
%ADD31C,0.600000*%
%TD*%
%TA.AperFunction,ViaPad*%
%ADD32C,0.806400*%
%TD*%
%TA.AperFunction,Conductor*%
%ADD33C,0.609600*%
%TD*%
%TA.AperFunction,Conductor*%
%ADD34C,0.203200*%
%TD*%
%TA.AperFunction,Conductor*%
%ADD35C,0.254000*%
%TD*%
%TA.AperFunction,Conductor*%
%ADD36C,0.200000*%
%TD*%
%TA.AperFunction,Conductor*%
%ADD37C,0.406400*%
%TD*%
%TA.AperFunction,Conductor*%
%ADD38C,1.016000*%
%TD*%
%TA.AperFunction,Conductor*%
%ADD39C,0.812800*%
%TD*%
%TA.AperFunction,Conductor*%
%ADD40C,0.304800*%
%TD*%
%TA.AperFunction,Conductor*%
%ADD41C,1.270000*%
%TD*%
%TA.AperFunction,Conductor*%
%ADD42C,1.676400*%
%TD*%
%TA.AperFunction,Conductor*%
%ADD43C,0.508000*%
%TD*%
G04 APERTURE END LIST*
D10*
D11*
X67773550Y-56734360D02*
X68339607Y-56734360D01*
X68339607Y-56734360D02*
X68034807Y-57082703D01*
X68034807Y-57082703D02*
X68165436Y-57082703D01*
X68165436Y-57082703D02*
X68252522Y-57126246D01*
X68252522Y-57126246D02*
X68296064Y-57169789D01*
X68296064Y-57169789D02*
X68339607Y-57256875D01*
X68339607Y-57256875D02*
X68339607Y-57474589D01*
X68339607Y-57474589D02*
X68296064Y-57561675D01*
X68296064Y-57561675D02*
X68252522Y-57605218D01*
X68252522Y-57605218D02*
X68165436Y-57648760D01*
X68165436Y-57648760D02*
X67904179Y-57648760D01*
X67904179Y-57648760D02*
X67817093Y-57605218D01*
X67817093Y-57605218D02*
X67773550Y-57561675D01*
D12*
%TO.N,Net-(Q17-S)*%
%TO.C,R77*%
X134726100Y-60697500D03*
%TO.N,POST_OUT+*%
X129646100Y-60697500D03*
%TD*%
D13*
%TO.N,+VREF*%
%TO.C,TP2*%
X147900000Y-100160000D03*
%TD*%
%TO.N,PREG_OUT+*%
%TO.C,TP12*%
X193040000Y-60452000D03*
%TD*%
D14*
%TO.N,Net-(IC21A-O)*%
%TO.C,LED2*%
X65470000Y-79730000D03*
%TO.N,Net-(LED2-PadGC)*%
X65470000Y-82270000D03*
%TO.N,Net-(IC21B-O)*%
X62930000Y-79730000D03*
%TO.N,Net-(LED2-PadGC)*%
X62930000Y-82270000D03*
%TO.N,+VLED*%
X68010000Y-79730000D03*
%TO.N,Net-(LED2-PadYC)*%
X68010000Y-82270000D03*
%TD*%
D13*
%TO.N,-12V*%
%TO.C,TP3*%
X199390000Y-99060000D03*
%TD*%
%TO.N,Net-(IC13-Vout)*%
%TO.C,TP5*%
X192278000Y-104140000D03*
%TD*%
D15*
%TO.N,Net-(Q14-G)*%
%TO.C,Q14*%
X164098000Y-60212900D03*
D16*
%TO.N,PREG_OUT+*%
X158648000Y-60212900D03*
D15*
%TO.N,POST_OUT+*%
X153198000Y-60212900D03*
%TD*%
D13*
%TO.N,GND*%
%TO.C,TP9*%
X213868000Y-115824000D03*
%TD*%
D17*
%TO.N,/Rsense protection\u002C power output\u002C Rprog/OUTC+*%
%TO.C,X5*%
X76140000Y-142540000D03*
D18*
X76140000Y-140000000D03*
X78680000Y-142540000D03*
X78680000Y-140000000D03*
X81220000Y-142540000D03*
%TO.N,Net-(F1-Pad2)*%
X81220000Y-140000000D03*
X83760000Y-142540000D03*
X83760000Y-140000000D03*
X86300000Y-142540000D03*
X86300000Y-140000000D03*
%TO.N,POST_OUT-*%
X88840000Y-142540000D03*
X88840000Y-140000000D03*
X91380000Y-142540000D03*
X91380000Y-140000000D03*
%TO.N,/Rsense protection\u002C power output\u002C Rprog/OUTC-*%
X93920000Y-142540000D03*
X93920000Y-140000000D03*
X96460000Y-142540000D03*
X96460000Y-140000000D03*
%TO.N,/Rsense protection\u002C power output\u002C Rprog/SENSE_IN-*%
X99000000Y-142540000D03*
%TO.N,/Rsense protection\u002C power output\u002C Rprog/SENSE_IN+*%
X99000000Y-140000000D03*
%TD*%
D19*
%TO.N,Net-(TP13-P$1)*%
%TO.C,X4*%
X64800000Y-87000000D03*
D20*
%TO.N,Net-(TP14-P$1)*%
X64800000Y-90500000D03*
%TO.N,PE*%
X64800000Y-94000000D03*
%TD*%
D13*
%TO.N,Net-(TP13-P$1)*%
%TO.C,TP13*%
X68580000Y-85090000D03*
%TD*%
%TO.N,GND*%
%TO.C,TP8*%
X103730000Y-81990000D03*
%TD*%
%TO.N,+VNR*%
%TO.C,TP4*%
X192278000Y-115824000D03*
%TD*%
%TO.N,Net-(IC12-Vout)*%
%TO.C,TP6*%
X199390000Y-104140000D03*
%TD*%
D12*
%TO.N,Net-(Q17-G)*%
%TO.C,Q17*%
X147172100Y-60240300D03*
%TO.N,PREG_OUT-*%
X144632100Y-60240300D03*
%TO.N,Net-(Q17-S)*%
X142092100Y-60240300D03*
%TD*%
D21*
%TO.N,Net-(LED1-C)*%
%TO.C,LED1*%
X66445000Y-101000000D03*
%TO.N,Net-(LED1-AG)*%
X68350000Y-101000000D03*
%TO.N,Net-(LED1-AR)*%
X64540000Y-101000000D03*
%TD*%
D22*
%TO.N,*%
%TO.C,KK1*%
X69500000Y-63000000D03*
%TD*%
D23*
%TO.N,/Power pre-regulator/DC-*%
%TO.C,X3*%
X235781000Y-138176000D03*
D24*
%TO.N,unconnected-(X3-Pin_2-Pad2)*%
X231821000Y-138176000D03*
%TO.N,unconnected-(X3-Pin_3-Pad3)*%
X227861000Y-138176000D03*
%TO.N,/Power pre-regulator/DC+*%
X223901000Y-138176000D03*
%TD*%
D13*
%TO.N,+3V3*%
%TO.C,TP7*%
X186940000Y-115870000D03*
%TD*%
%TO.N,POST_OE*%
%TO.C,TP1*%
X176330000Y-74690000D03*
%TD*%
D14*
%TO.N,+VLED*%
%TO.C,LED3*%
X62930000Y-72730000D03*
%TO.N,Net-(LED3B-C)*%
X62930000Y-75270000D03*
%TO.N,+VLED*%
X65470000Y-72730000D03*
%TO.N,Net-(LED3A-C)*%
X65470000Y-75270000D03*
%TD*%
D25*
%TO.N,+3V3*%
%TO.C,JP4*%
X191430000Y-78640000D03*
D26*
%TO.N,OE_TRIG*%
X189430000Y-78640000D03*
%TD*%
D25*
%TO.N,+3V3*%
%TO.C,JP8*%
X191420000Y-76130000D03*
D26*
%TO.N,PREG_OE*%
X189420000Y-76130000D03*
%TD*%
D22*
%TO.N,*%
%TO.C,KK2*%
X69500000Y-147000000D03*
%TD*%
D27*
%TO.N,POST_OUT+*%
%TO.C,F1*%
X106362500Y-111360000D03*
%TO.N,Net-(F1-Pad2)*%
X106362500Y-133860000D03*
%TD*%
D13*
%TO.N,Net-(TP14-P$1)*%
%TO.C,TP14*%
X68580000Y-92710000D03*
%TD*%
D28*
%TO.N,/Power pre-regulator/DC+*%
%TO.C,L1*%
X223803200Y-120149000D03*
%TO.N,DC_OUT*%
X223803200Y-105149000D03*
%TO.N,/Power pre-regulator/DC-*%
X233803200Y-120149000D03*
%TO.N,PREG_OUT-*%
X233803200Y-105149000D03*
%TD*%
D13*
%TO.N,DUTY_100*%
%TO.C,TP11*%
X211610000Y-57620000D03*
%TD*%
D29*
%TO.N,/Rsense protection\u002C power output\u002C Rprog/OUTC+*%
%TO.C,J1*%
X75900000Y-111950000D03*
D30*
X60600000Y-111950000D03*
D29*
%TO.N,/Rsense protection\u002C power output\u002C Rprog/SENSE_IN+*%
X83500000Y-111950000D03*
%TD*%
D25*
%TO.N,DC_OUT*%
%TO.C,JP7*%
X204758800Y-75184000D03*
D26*
%TO.N,Net-(JP7-Pad2)*%
X202758800Y-75184000D03*
%TD*%
D13*
%TO.N,DC_OUT*%
%TO.C,TP10*%
X213868000Y-109220000D03*
%TD*%
D25*
%TO.N,+3V3*%
%TO.C,JP5*%
X191420000Y-81160000D03*
D26*
%TO.N,ISO_OE_SYNC*%
X189420000Y-81160000D03*
%TD*%
D29*
%TO.N,/Rsense protection\u002C power output\u002C Rprog/OUTC-*%
%TO.C,J2*%
X75900000Y-131000000D03*
D30*
X60600000Y-131000000D03*
D29*
%TO.N,/Rsense protection\u002C power output\u002C Rprog/SENSE_IN-*%
X83500000Y-131000000D03*
%TD*%
D31*
%TO.N,PE*%
X123191753Y-142934353D03*
X228850200Y-123451000D03*
D32*
X72629500Y-122872500D03*
D31*
X114530000Y-142900000D03*
%TO.N,PWRGOOD*%
X212132600Y-130865000D03*
X150655143Y-110733421D03*
X186811600Y-83200000D03*
X183550000Y-110340000D03*
X188480000Y-110300000D03*
%TO.N,GND*%
X137990000Y-107300000D03*
X180530000Y-100520000D03*
D32*
X142539135Y-122038433D03*
X195697000Y-111932800D03*
X84292500Y-75989000D03*
X210164100Y-132960500D03*
D31*
X186300000Y-92730313D03*
D32*
X73500000Y-80210000D03*
D31*
X196342000Y-74777600D03*
X191900000Y-87254600D03*
X182497200Y-104728581D03*
D32*
X142862300Y-113593300D03*
X112400000Y-81940000D03*
X110340000Y-71180000D03*
D31*
X182570000Y-76860000D03*
X176380000Y-93550000D03*
X176020000Y-116180000D03*
D32*
X205028800Y-107238800D03*
X85982900Y-92903400D03*
X86445300Y-86423500D03*
X209362200Y-113331800D03*
X195697000Y-109583300D03*
X164579300Y-94691200D03*
X201845600Y-126039000D03*
D31*
X180360000Y-118940000D03*
X151320000Y-115450000D03*
X186137400Y-103191083D03*
D32*
X181254000Y-74246400D03*
X92928500Y-76624000D03*
X132402000Y-116793400D03*
X201083600Y-126039000D03*
D31*
X180910000Y-89450000D03*
X153225500Y-112877600D03*
D32*
X143108100Y-95419300D03*
D31*
X190210000Y-87260000D03*
D32*
X162330000Y-99650000D03*
X130478100Y-106277800D03*
X201803000Y-117983000D03*
D31*
X181254000Y-77738900D03*
D32*
X122318000Y-59671350D03*
D31*
X151961008Y-114861782D03*
D32*
X198110000Y-113139300D03*
X112340000Y-79170000D03*
D31*
X161074100Y-116840000D03*
D32*
X198110000Y-109583300D03*
X204177500Y-116600900D03*
D31*
X169976800Y-119634000D03*
X154863800Y-111150400D03*
X154863800Y-112826800D03*
D32*
X127812800Y-121202800D03*
D31*
X186450000Y-104940000D03*
D32*
X195697000Y-113075800D03*
D31*
X166268000Y-87073400D03*
D32*
X141690000Y-117990000D03*
X147153200Y-88154900D03*
D31*
X142000107Y-98672400D03*
D32*
X105791000Y-81335000D03*
D31*
X119214500Y-124601900D03*
D32*
X198120000Y-107061000D03*
X136140700Y-116448300D03*
X115301600Y-87202400D03*
X119278000Y-76913400D03*
X90083700Y-94581800D03*
X121190000Y-81660000D03*
D31*
X180350000Y-104110000D03*
X172068527Y-102184195D03*
X153225500Y-111163100D03*
D32*
X154703200Y-103770000D03*
X207284300Y-113331800D03*
X173056152Y-59323900D03*
X73304400Y-103555800D03*
D31*
X149017900Y-117462300D03*
X143916000Y-98693900D03*
D32*
X210926100Y-133722500D03*
X137552000Y-102010600D03*
X108330000Y-60350000D03*
D31*
X202930000Y-79950000D03*
X179270000Y-95340000D03*
D32*
X120820000Y-60240000D03*
X210164100Y-133722500D03*
X87467500Y-70591500D03*
X77747500Y-84214400D03*
X110285100Y-69143000D03*
X89471500Y-79629000D03*
X198110000Y-110726300D03*
D31*
X191171300Y-89350100D03*
D32*
X75847000Y-92880000D03*
D31*
X205384000Y-85166200D03*
D32*
X200321600Y-126039000D03*
D31*
X180070000Y-90570000D03*
D32*
X215493600Y-123901200D03*
X110271400Y-53459500D03*
X77851000Y-81026000D03*
X215493600Y-123088400D03*
X83248500Y-120904000D03*
X130541600Y-103090100D03*
X196265800Y-107289600D03*
X135466400Y-123503300D03*
X198110000Y-111932800D03*
X110351054Y-67750000D03*
X195697000Y-110726300D03*
X208749500Y-117934400D03*
X137101400Y-120829800D03*
X215493600Y-122288300D03*
D31*
X145973800Y-101828600D03*
D32*
X184198500Y-60547450D03*
D31*
X177420000Y-101235805D03*
X191055000Y-87250000D03*
X177150000Y-102635805D03*
X181520000Y-92750313D03*
D32*
X124290000Y-59650000D03*
D31*
X176350000Y-91730000D03*
D32*
X206933800Y-105232200D03*
X77815500Y-73093100D03*
D31*
X144179200Y-106578400D03*
D32*
X79886900Y-96205400D03*
D31*
X158623000Y-119659400D03*
D32*
X210926100Y-132960500D03*
%TO.N,POST_OUT+*%
X92798900Y-110439200D03*
X104423900Y-102489000D03*
X146219600Y-55236500D03*
D31*
X194360800Y-75412600D03*
X129755500Y-56593400D03*
D32*
X195152700Y-59872000D03*
X88074500Y-113919000D03*
X93624400Y-110439200D03*
X91973400Y-110439200D03*
D31*
X129057000Y-56593400D03*
D32*
X169316000Y-59265400D03*
X102988800Y-73143500D03*
X92583000Y-128143000D03*
D31*
X128358500Y-56593400D03*
D32*
%TO.N,I_MON*%
X108516000Y-82401800D03*
X147383500Y-95097600D03*
X128401500Y-82363700D03*
X116940000Y-70171700D03*
%TO.N,SENSE-*%
X99885500Y-130429000D03*
X123659500Y-95025600D03*
X105346500Y-91884500D03*
%TO.N,SENSE+*%
X124040500Y-88256500D03*
X103695500Y-92456000D03*
X94805500Y-131381500D03*
X124040500Y-90860000D03*
D31*
%TO.N,U_MON*%
X140022400Y-112979200D03*
X141757000Y-93115600D03*
X170280000Y-93180000D03*
D32*
%TO.N,I_SET*%
X91698500Y-94644600D03*
D31*
X132461000Y-107162600D03*
D32*
X85835400Y-76966900D03*
D31*
X170698527Y-103004195D03*
D32*
X84286000Y-72750500D03*
D31*
X142367000Y-104546400D03*
D32*
X117035000Y-96117800D03*
%TO.N,POST_OE*%
X159300600Y-73118100D03*
D31*
%TO.N,U_SET_OUT*%
X136550000Y-103966400D03*
X136280000Y-106850000D03*
D32*
%TO.N,GCOM*%
X116260300Y-89704300D03*
X109791500Y-64507500D03*
X83689100Y-80129200D03*
X138320200Y-92892000D03*
X116260300Y-81081000D03*
D31*
%TO.N,+VREF*%
X137395745Y-106274739D03*
X182532253Y-100080000D03*
D32*
X140088200Y-100326700D03*
D31*
X175750000Y-99250000D03*
D32*
X140081000Y-96037400D03*
X118063700Y-92218900D03*
%TO.N,CURR_HI*%
X106990000Y-66010000D03*
D31*
X107619800Y-102514400D03*
X107167000Y-79840000D03*
X157637201Y-110450855D03*
D32*
X106652900Y-53471200D03*
D31*
%TO.N,OE_TRIG*%
X188632800Y-105559221D03*
%TO.N,CV_ACTIVE*%
X170649500Y-87200400D03*
X149593300Y-111887000D03*
X152882600Y-88226900D03*
%TO.N,CC_ACTIVE*%
X169633500Y-87009900D03*
X149072600Y-110807500D03*
X152260300Y-87655400D03*
D32*
%TO.N,/Power pre-regulator/SW*%
X220347588Y-79939282D03*
X221173088Y-79939282D03*
X221173088Y-79113782D03*
X218696588Y-79113782D03*
X219522088Y-79939282D03*
X221998588Y-79113782D03*
X218696588Y-79939282D03*
X221998588Y-79939282D03*
X220347588Y-79113782D03*
X219522088Y-79113782D03*
%TO.N,AUX_USET_SW*%
X95072200Y-104597200D03*
D31*
X157717344Y-114101600D03*
%TO.N,RSENSE*%
X157581600Y-111201200D03*
D32*
X87147400Y-105460800D03*
D31*
%TO.N,RSENSE_ERR*%
X147480000Y-110101200D03*
D32*
X73661000Y-95402400D03*
%TO.N,U_SET*%
X117750165Y-95337600D03*
D31*
X138053901Y-113085701D03*
D32*
X128909500Y-103052000D03*
X91203200Y-93654000D03*
D31*
X142836500Y-103583400D03*
X170698527Y-101464195D03*
X139928598Y-104817300D03*
D32*
X131690800Y-104309300D03*
D31*
%TO.N,/Power pre-regulator/VCC*%
X210108800Y-70764400D03*
D32*
X205340000Y-93510000D03*
D31*
X215521588Y-74224282D03*
D32*
X211711588Y-76192782D03*
D31*
%TO.N,/Power pre-regulator/FB*%
X212900488Y-67490782D03*
X203796500Y-61165400D03*
%TO.N,/Power pre-regulator/AGND*%
X213995000Y-59359800D03*
X211912200Y-64897000D03*
%TO.N,+3V3*%
X175510000Y-88690000D03*
D32*
X110090000Y-81790000D03*
D31*
X182632000Y-80492600D03*
X202333233Y-82069052D03*
X176660000Y-117150000D03*
X178962100Y-78437400D03*
X182330000Y-105750000D03*
X182680000Y-98230000D03*
D32*
X95102100Y-97487400D03*
X109245000Y-97487400D03*
X134599100Y-103090100D03*
D31*
X160337500Y-119011700D03*
X182680000Y-97540000D03*
X182650000Y-87630000D03*
X149085300Y-119024400D03*
X152146000Y-116916200D03*
X185830000Y-95140000D03*
X185258232Y-105885614D03*
D32*
X134611800Y-106481000D03*
D31*
X182650000Y-87070000D03*
X169633500Y-89295900D03*
D32*
X71687175Y-94525789D03*
D31*
X178260000Y-91630000D03*
X144106500Y-100421400D03*
D32*
X134581500Y-97487400D03*
D31*
%TO.N,~{OVP_FAULT}*%
X153678421Y-88675300D03*
X133883400Y-117576600D03*
X150152100Y-112522000D03*
X177190000Y-87460000D03*
X134327900Y-111311600D03*
%TO.N,ISO_OE_SYNC*%
X183340000Y-113930000D03*
X153111200Y-117500400D03*
D32*
%TO.N,/Power pre-regulator/EN_ULVO*%
X219077588Y-70096782D03*
X201853800Y-73253600D03*
%TO.N,Net-(K1A-C2)*%
X91440000Y-125158500D03*
X77266800Y-102108000D03*
X70040500Y-83840000D03*
X85471000Y-124079000D03*
%TO.N,/Power pre-regulator/HO*%
X217871088Y-74351282D03*
X217490088Y-80447282D03*
%TO.N,/Power pre-regulator/LO*%
X223205088Y-85654282D03*
X214886588Y-75113282D03*
%TO.N,/Rsense protection\u002C power output\u002C Rprog/AUX_OUT*%
X118686000Y-94720800D03*
X90669800Y-92676100D03*
%TO.N,/Rsense protection\u002C power output\u002C Rprog/SENSE_IN+*%
X92519500Y-132588000D03*
%TO.N,/Rsense protection\u002C power output\u002C Rprog/SENSE_IN-*%
X97917000Y-133413500D03*
%TO.N,DC_OUT*%
X212854588Y-95369782D03*
D31*
X223936200Y-56741800D03*
D32*
X210965200Y-81209282D03*
X191012500Y-72076700D03*
X220411088Y-72192282D03*
X210965200Y-83685782D03*
X214061088Y-86606782D03*
X210965200Y-82860282D03*
X212854588Y-88765782D03*
X213934088Y-103053282D03*
X210965200Y-80383782D03*
X212854588Y-94544282D03*
X210965200Y-84511282D03*
D31*
X223936200Y-57961000D03*
X223936200Y-56132200D03*
D32*
X210965200Y-86162282D03*
X209252400Y-82860282D03*
D31*
X223936200Y-58570600D03*
D32*
X209252400Y-83685782D03*
D31*
X225958400Y-123444000D03*
D32*
X212854588Y-96195282D03*
X210965200Y-85336782D03*
X209252400Y-85336782D03*
D31*
X223936200Y-57351400D03*
X224545800Y-56132200D03*
D32*
X209252400Y-84511282D03*
X212854588Y-90416782D03*
X208068600Y-139247000D03*
X213045088Y-100894282D03*
X209252400Y-82034782D03*
X212854588Y-93718782D03*
X213934088Y-100894282D03*
X213045088Y-103053282D03*
D31*
X224545800Y-57351400D03*
X224545800Y-56741800D03*
D32*
X212854588Y-92893282D03*
X209252400Y-81209282D03*
X214061088Y-87368782D03*
X210965200Y-82034782D03*
X209252400Y-86162282D03*
X212854588Y-97020782D03*
X209252400Y-80383782D03*
X212854588Y-89591282D03*
D31*
X224545800Y-57961000D03*
X224545800Y-58570600D03*
D32*
X212854588Y-91242282D03*
X212854588Y-92067782D03*
X191012500Y-62081800D03*
%TO.N,+VNR*%
X199570500Y-108757800D03*
X201752200Y-114935000D03*
X201218800Y-104749600D03*
D31*
%TO.N,AUX_ISET_SW*%
X156654500Y-114407790D03*
D32*
X95852400Y-105257600D03*
%TO.N,I_SERVO*%
X116882600Y-75010400D03*
X112229500Y-74627400D03*
%TO.N,LOOP_CTRL*%
X151058300Y-88726400D03*
X164863200Y-76191500D03*
X156632546Y-89315956D03*
%TO.N,SENSE_PROT*%
X162183500Y-83027600D03*
X178332998Y-61165400D03*
X174096100Y-75632700D03*
X90376766Y-83352136D03*
D31*
%TO.N,CURR_LO*%
X157314900Y-109766100D03*
X108610574Y-102370800D03*
D32*
X107760000Y-61480000D03*
%TO.N,CV_LED_OUT*%
X80329726Y-98849067D03*
D31*
X157522063Y-112328025D03*
D32*
X78740000Y-85534500D03*
%TO.N,CC_LED_OUT*%
X81434022Y-98491651D03*
X78740000Y-82423000D03*
D31*
X158315334Y-112428400D03*
D32*
%TO.N,I_SET_OUT*%
X126136003Y-76889994D03*
D31*
X140191400Y-107721400D03*
D32*
X133604000Y-107569000D03*
D31*
%TO.N,POST_OUT-*%
X95072200Y-100304600D03*
X131025500Y-99709900D03*
X170150000Y-98690000D03*
X171790000Y-93710000D03*
X126111000Y-100482400D03*
D32*
X90805000Y-115722400D03*
%TO.N,V+*%
X110850100Y-84383000D03*
X84391500Y-86169500D03*
X162221600Y-96206700D03*
D31*
X144907000Y-113130000D03*
D32*
X77809000Y-71734500D03*
D31*
X190268800Y-89260000D03*
D32*
X194564000Y-101650800D03*
X166080000Y-103470000D03*
X112253450Y-71238500D03*
X166603100Y-96206700D03*
X119809950Y-84383000D03*
X145440000Y-96117800D03*
D31*
X194564000Y-88011000D03*
D32*
%TO.N,V-*%
X85341550Y-85643371D03*
X124292700Y-61570000D03*
X193065000Y-99455894D03*
X148855000Y-88015200D03*
X167847700Y-86910300D03*
X123486600Y-85907000D03*
X113402800Y-85907000D03*
X113409150Y-76178800D03*
%TO.N,PREG_OUT-*%
X218188588Y-94544282D03*
X143876450Y-50855000D03*
X229384588Y-66797379D03*
X222760588Y-73525782D03*
X229384588Y-65971879D03*
X213299088Y-73081282D03*
X145400450Y-50855000D03*
X220835588Y-87366186D03*
D31*
X172300500Y-82691900D03*
D32*
X228602588Y-64191282D03*
D31*
X212519488Y-78883182D03*
D32*
X213299088Y-71430282D03*
X218188588Y-90416782D03*
X216789000Y-123926600D03*
X224665588Y-85146282D03*
X218188588Y-95369782D03*
X220073588Y-88064686D03*
X221236588Y-73525782D03*
X228622588Y-66797379D03*
X224475088Y-94163282D03*
D31*
X172016938Y-98602595D03*
D32*
X225300588Y-96449282D03*
X221998588Y-73525782D03*
X224665588Y-83495282D03*
X216789000Y-123090400D03*
X224665588Y-88448282D03*
X221597588Y-88064686D03*
X218188588Y-88765782D03*
X218188588Y-97020782D03*
X219311588Y-88064686D03*
X229384588Y-64193879D03*
X216156588Y-71112782D03*
X224665588Y-84320782D03*
X224475088Y-96449282D03*
X144638450Y-50855000D03*
X218125088Y-86606782D03*
X224665588Y-80256782D03*
X224665588Y-89273782D03*
X143114450Y-50855000D03*
X220073588Y-87366186D03*
X208709488Y-74882682D03*
X227860588Y-66797379D03*
X219311588Y-87366186D03*
X218188588Y-89591282D03*
X218188588Y-91242282D03*
X218188588Y-92067782D03*
X218950588Y-71430282D03*
X224665588Y-82669782D03*
X146162450Y-50855000D03*
X218125088Y-87368782D03*
X220835588Y-88064686D03*
X222359588Y-87366186D03*
X224665588Y-81844282D03*
X218188588Y-92893282D03*
X227860588Y-65971879D03*
X216156588Y-71938282D03*
X221597588Y-87366186D03*
X216982088Y-71112782D03*
X208727088Y-72636782D03*
X224665588Y-85971782D03*
X224665588Y-87622782D03*
X223522588Y-73525782D03*
X227860588Y-64193879D03*
X224665588Y-86797282D03*
X225300588Y-94163282D03*
X218188588Y-96195282D03*
X224665588Y-81018782D03*
X215331088Y-71938282D03*
X216789000Y-122275600D03*
D31*
X231546400Y-123444000D03*
D32*
X222359588Y-88064686D03*
X216982088Y-71938282D03*
X124001100Y-53712500D03*
X218188588Y-93718782D03*
X215331088Y-71112782D03*
X228622588Y-65971879D03*
D31*
%TO.N,DIB_3V3*%
X185790000Y-141560000D03*
X192500000Y-133840000D03*
X161747200Y-131860200D03*
X175342614Y-125829232D03*
X174400000Y-128190000D03*
X185902600Y-125095000D03*
X170535906Y-137236140D03*
X184226200Y-138455400D03*
X181190900Y-139979400D03*
X120200000Y-146200000D03*
X120200000Y-145500000D03*
X150305376Y-131547600D03*
%TO.N,~{ISO_DAC_CS}*%
X163626800Y-105781600D03*
X163614100Y-108911600D03*
D32*
%TO.N,Net-(IC17A--IN)*%
X118413100Y-64634500D03*
X118413100Y-66603000D03*
D31*
%TO.N,/DIB isolators\u002C EEPROM\u002C ADC\u002C MCU/ISO_ADC_SCLK*%
X186440000Y-97680000D03*
X183170000Y-108320000D03*
%TO.N,/DIB isolators\u002C EEPROM\u002C ADC\u002C MCU/~{ADC_CS}*%
X164320000Y-132040000D03*
X163000000Y-132020000D03*
%TO.N,/DIB isolators\u002C EEPROM\u002C ADC\u002C MCU/ISO_ADC_MOSI*%
X186123200Y-98928458D03*
X180470000Y-108730000D03*
%TO.N,/DIB isolators\u002C EEPROM\u002C ADC\u002C MCU/ISO_ADC_MISO*%
X182513790Y-108860272D03*
X186709249Y-98430751D03*
D32*
%TO.N,Net-(LED1-AR)*%
X77152500Y-99631500D03*
X110045500Y-125785000D03*
%TO.N,Net-(LED1-AG)*%
X76581000Y-101028500D03*
X108839000Y-122165500D03*
%TO.N,Net-(IC18B-+IN)*%
X133272100Y-88002500D03*
X133272100Y-92892000D03*
D31*
%TO.N,/DIB isolators\u002C EEPROM\u002C ADC\u002C MCU/AC_FREQ*%
X138709304Y-139639304D03*
X136790000Y-139670000D03*
%TO.N,/DIB isolators\u002C EEPROM\u002C ADC\u002C MCU/NRST*%
X190050000Y-132910000D03*
X174970000Y-140660000D03*
X183974967Y-133060449D03*
%TO.N,/DIB isolators\u002C EEPROM\u002C ADC\u002C MCU/~{ISO_ADC_CS}*%
X162369500Y-117462300D03*
X188825751Y-108955751D03*
X190190000Y-96420000D03*
X171704000Y-116814600D03*
%TO.N,/DIB isolators\u002C EEPROM\u002C ADC\u002C MCU/SWCLK*%
X184200000Y-126510000D03*
X176615751Y-134695751D03*
%TO.N,/DIB isolators\u002C EEPROM\u002C ADC\u002C MCU/SWO*%
X176859001Y-136482241D03*
X188691614Y-123812772D03*
%TO.N,/DIB isolators\u002C EEPROM\u002C ADC\u002C MCU/DIB_BOOT0*%
X166852600Y-139293600D03*
X166840000Y-141680000D03*
X177780000Y-136516019D03*
%TO.N,/DIB isolators\u002C EEPROM\u002C ADC\u002C MCU/DIB_UART_TX*%
X150460000Y-137067200D03*
X171636932Y-132001600D03*
%TO.N,/DIB isolators\u002C EEPROM\u002C ADC\u002C MCU/MISO1*%
X168910000Y-132860000D03*
X156032200Y-131292600D03*
%TO.N,/DIB isolators\u002C EEPROM\u002C ADC\u002C MCU/~{IOEXP_IRQ}*%
X179628800Y-128101000D03*
X157327600Y-131292600D03*
%TO.N,/DIB isolators\u002C EEPROM\u002C ADC\u002C MCU/MOSI1*%
X155067000Y-131292600D03*
X181460000Y-128890000D03*
%TO.N,/DIB isolators\u002C EEPROM\u002C ADC\u002C MCU/SWDIO*%
X175888400Y-135381002D03*
X186132831Y-130442819D03*
%TO.N,/DIB isolators\u002C EEPROM\u002C ADC\u002C MCU/~{ISO_ADC_IRQ}*%
X183470000Y-109060000D03*
X186877450Y-100404068D03*
%TO.N,/DAC\u002C OE\u002C Vref\u002C IOEXP\u002C Temp/~{SET_DP}*%
X155498800Y-87045800D03*
X159170000Y-111230000D03*
%TO.N,/DIB isolators\u002C EEPROM\u002C ADC\u002C MCU/~{DIB_ALERT}*%
X167608225Y-132436990D03*
%TO.N,/DAC\u002C OE\u002C Vref\u002C IOEXP\u002C Temp/~{OE_LED_GREEN}*%
X113258600Y-121225700D03*
X146435704Y-107771500D03*
X146718400Y-116255800D03*
X154180692Y-107400957D03*
%TO.N,PREG_OE*%
X187050049Y-106238449D03*
%TO.N,/DIB isolators\u002C EEPROM\u002C ADC\u002C MCU/ADC_IRQ*%
X168732200Y-131292600D03*
X177825400Y-131038600D03*
%TO.N,ISO_SCLK1*%
X203140000Y-86140000D03*
X154292288Y-116307932D03*
X185660000Y-109100000D03*
X147680000Y-104970000D03*
X205060000Y-86150000D03*
X154406600Y-117602000D03*
%TO.N,ISO_MOSI1*%
X148450000Y-105140000D03*
X154917850Y-115732452D03*
X155346400Y-117576600D03*
%TO.N,ISO_MISO1*%
X150370000Y-115040000D03*
X186050000Y-108030000D03*
X156083000Y-119480000D03*
%TO.N,/DIB isolators\u002C EEPROM\u002C ADC\u002C MCU/~{DIB_RESET}*%
X152840000Y-132490000D03*
X150970000Y-132470000D03*
%TO.N,~{ISO_RESET}*%
X183391311Y-111197186D03*
X151141600Y-117538899D03*
X153691700Y-115722500D03*
X186955249Y-101707268D03*
%TO.N,/DIB isolators\u002C EEPROM\u002C ADC\u002C MCU/DIB_MOSI*%
X168980944Y-141492447D03*
X139197300Y-144230000D03*
X181028722Y-130569785D03*
%TO.N,/DIB isolators\u002C EEPROM\u002C ADC\u002C MCU/DIB_CSA*%
X180630751Y-131900751D03*
X142197300Y-140161600D03*
%TO.N,/DAC\u002C OE\u002C Vref\u002C IOEXP\u002C Temp/~{OE_LED_RED}*%
X113322100Y-124819800D03*
X147472400Y-116967000D03*
X147280000Y-107780000D03*
X154943900Y-107827800D03*
%TO.N,/DIB isolators\u002C EEPROM\u002C ADC\u002C MCU/DIB_USB_D-*%
X172386098Y-134779641D03*
%TO.N,/DIB isolators\u002C EEPROM\u002C ADC\u002C MCU/DIB_USB_D+*%
X173139402Y-134846867D03*
%TO.N,/DIB isolators\u002C EEPROM\u002C ADC\u002C MCU/DIB_MISO*%
X143280000Y-139650000D03*
X180390000Y-132760000D03*
%TO.N,/DIB isolators\u002C EEPROM\u002C ADC\u002C MCU/DIB_IRQ*%
X178792967Y-131780000D03*
X141269401Y-140161600D03*
%TO.N,/DIB isolators\u002C EEPROM\u002C ADC\u002C MCU/DIB_SCLK*%
X168398449Y-140909951D03*
X138197300Y-144210000D03*
X177880000Y-133380000D03*
%TO.N,/DIB isolators\u002C EEPROM\u002C ADC\u002C MCU/~{DIB_FAULT}*%
X159600000Y-134264556D03*
X151640000Y-133850000D03*
%TO.N,~{ISO_TEMP_CS}*%
X186963200Y-109094891D03*
X178610000Y-116190000D03*
%TO.N,DIB_GND*%
X175496518Y-136054359D03*
X143280000Y-146290000D03*
X176050000Y-130470000D03*
X170550000Y-138010000D03*
X192160000Y-132140000D03*
X180550000Y-141420000D03*
X188880000Y-140940000D03*
X185521600Y-135534400D03*
X160346112Y-133709556D03*
X116550000Y-144060000D03*
X122220000Y-146290000D03*
X181360000Y-127210000D03*
X169890376Y-131283800D03*
X185510000Y-131420000D03*
X137578400Y-146349998D03*
X192821158Y-123814215D03*
X149710000Y-134140000D03*
X118220000Y-146300000D03*
X163753800Y-139700000D03*
X176000000Y-140008400D03*
X129190000Y-146290000D03*
X175540000Y-127740000D03*
X172890000Y-128240000D03*
X191520000Y-135770000D03*
X180400000Y-124220000D03*
X171650196Y-137215408D03*
X186530000Y-139531600D03*
X180839200Y-136543494D03*
X126210000Y-146330000D03*
X148200000Y-146290000D03*
X159156400Y-130848950D03*
X185440000Y-137640000D03*
X192754080Y-139633399D03*
%TO.N,/DIB isolators\u002C EEPROM\u002C ADC\u002C MCU/SCL*%
X182050000Y-139090000D03*
X178040000Y-138860000D03*
D32*
%TO.N,Net-(D18-PadC)*%
X134357800Y-76343900D03*
X149504000Y-62412000D03*
X143362100Y-62412000D03*
X134357800Y-75493000D03*
X134357800Y-74642100D03*
X134357800Y-78045700D03*
X143362100Y-72127500D03*
X134357800Y-77194800D03*
%TO.N,Net-(Q13-PadB)*%
X171094000Y-61612400D03*
X172427500Y-75325900D03*
D31*
%TO.N,DUTY_100*%
X187786189Y-73343377D03*
X188020000Y-103980000D03*
X213817200Y-57607200D03*
X200177400Y-72999600D03*
%TO.N,+VLED*%
X181360000Y-118200000D03*
D32*
X111125000Y-126746000D03*
X94183200Y-124155200D03*
X111125000Y-123063000D03*
%TO.N,-12V*%
X204190600Y-118033800D03*
D31*
X202971400Y-111302800D03*
D32*
X149851800Y-76216900D03*
X208408250Y-111397200D03*
D31*
%TO.N,Net-(IC1-~{DONE})*%
X187088604Y-95816700D03*
X187703114Y-100606017D03*
%TO.N,/DIB isolators\u002C EEPROM\u002C ADC\u002C MCU/ADC_SCLK*%
X180213000Y-130530600D03*
X164896800Y-131419600D03*
%TO.N,/DIB isolators\u002C EEPROM\u002C ADC\u002C MCU/ADC_MOSI*%
X178238967Y-130404600D03*
X166116000Y-131445000D03*
%TO.N,/DIB isolators\u002C EEPROM\u002C ADC\u002C MCU/ADC_MISO*%
X167436800Y-131394200D03*
X179374800Y-130606800D03*
%TO.N,~{ISO_IOEXP_CS}*%
X176970000Y-113990000D03*
X150686743Y-113104590D03*
%TO.N,/DIB isolators\u002C EEPROM\u002C ADC\u002C MCU/~{TEMP_CS}*%
X181810000Y-130060000D03*
X179570000Y-136120000D03*
D32*
%TO.N,Net-(IC9-PH)*%
X206354100Y-130611000D03*
X206354100Y-135119500D03*
D31*
%TO.N,Net-(C49-Pad1)*%
X213639400Y-126161800D03*
X201168000Y-120548400D03*
D32*
%TO.N,Net-(C77-Pad1)*%
X230063088Y-87622782D03*
X230063088Y-84320782D03*
X230063088Y-83495282D03*
D31*
X201610000Y-61180000D03*
D32*
X230634588Y-77843782D03*
X230063088Y-85971782D03*
X230063088Y-85146282D03*
X230063088Y-81844282D03*
X230063088Y-82669782D03*
X230063088Y-86797282D03*
X230634588Y-76256282D03*
X230634588Y-75430782D03*
X230063088Y-81018782D03*
X230063088Y-88448282D03*
X230063088Y-89273782D03*
X230634588Y-77081782D03*
%TO.N,Net-(C91-Pad1)*%
X186397500Y-61863900D03*
X156730000Y-73240000D03*
%TO.N,Net-(C112-Pad2)*%
X82250700Y-94443381D03*
D31*
X112483500Y-96026900D03*
D32*
%TO.N,Net-(IC23A-OUT)*%
X83255419Y-87890919D03*
X83270000Y-83418500D03*
%TO.N,Net-(IC22B--IN)*%
X81746000Y-77907700D03*
X84522400Y-82870400D03*
X83016000Y-72750500D03*
%TO.N,Net-(IC21B-I0)*%
X86254500Y-72052000D03*
X92840900Y-73154900D03*
%TO.N,Net-(IC21B-O)*%
X92830000Y-98835600D03*
D31*
X91723000Y-74510000D03*
D32*
X132656000Y-105109400D03*
D31*
%TO.N,Net-(IC21A-O)*%
X130073000Y-101614900D03*
D32*
X92727200Y-99826200D03*
D31*
X91073000Y-75040000D03*
%TD*%
D33*
%TO.N,PE*%
X71818500Y-142368500D02*
X75652400Y-146202400D01*
X228850200Y-123473200D02*
X209423400Y-142900000D01*
X106197600Y-146202400D02*
X109500000Y-142900000D01*
X71867500Y-122872500D02*
X72629500Y-122872500D01*
X209423400Y-142900000D02*
X123226106Y-142900000D01*
X64800000Y-94000000D02*
X71818500Y-101018500D01*
X123226106Y-142900000D02*
X123191753Y-142934353D01*
X71818500Y-101018500D02*
X71818500Y-142368500D01*
X109500000Y-142900000D02*
X114530000Y-142900000D01*
X75652400Y-146202400D02*
X106197600Y-146202400D01*
D34*
%TO.N,PWRGOOD*%
X151732148Y-111810426D02*
X155970426Y-111810426D01*
X180271568Y-113080000D02*
X183011568Y-110340000D01*
X210425000Y-130865000D02*
X197104000Y-117544000D01*
X155970426Y-111810426D02*
X157240000Y-113080000D01*
X197104000Y-108839000D02*
X197104000Y-85674200D01*
X197104000Y-117544000D02*
X197104000Y-108839000D01*
X190590000Y-110300000D02*
X188480000Y-110300000D01*
X197104000Y-108839000D02*
X192051000Y-108839000D01*
X212132600Y-130865000D02*
X210425000Y-130865000D01*
X192051000Y-108839000D02*
X190590000Y-110300000D01*
X194629800Y-83200000D02*
X186811600Y-83200000D01*
X197104000Y-85674200D02*
X194629800Y-83200000D01*
X157240000Y-113080000D02*
X180271568Y-113080000D01*
X150655143Y-110733421D02*
X151732148Y-111810426D01*
X183011568Y-110340000D02*
X183550000Y-110340000D01*
D35*
%TO.N,POST_OUT+*%
X188586800Y-58792500D02*
X194073200Y-58792500D01*
D36*
X88074500Y-123634500D02*
X88074500Y-114173000D01*
D35*
X191820800Y-63931800D02*
X191820800Y-70637400D01*
X191820800Y-70637400D02*
X194360800Y-73177400D01*
X155316900Y-58094000D02*
X153198000Y-60212900D01*
X169316000Y-58094000D02*
X187888300Y-58094000D01*
D36*
X92583000Y-128143000D02*
X88074500Y-123634500D01*
D35*
X187888300Y-58094000D02*
X188586800Y-58792500D01*
X194073200Y-58792500D02*
X195152700Y-59872000D01*
X169316000Y-58094000D02*
X169316000Y-58945400D01*
X195152700Y-60599900D02*
X191820800Y-63931800D01*
X194360800Y-73177400D02*
X194360800Y-75412600D01*
X169316000Y-58094000D02*
X155316900Y-58094000D01*
X195152700Y-59872000D02*
X195152700Y-60599900D01*
%TO.N,I_MON*%
X108808100Y-82693900D02*
X108516000Y-82401800D01*
X117822400Y-82693900D02*
X117822400Y-71054100D01*
X128071300Y-82693900D02*
X128401500Y-82363700D01*
X117822400Y-82693900D02*
X108808100Y-82693900D01*
X117822400Y-71054100D02*
X116940000Y-70171700D01*
X117822400Y-82693900D02*
X128071300Y-82693900D01*
%TO.N,SENSE-*%
X119989200Y-91355300D02*
X105875700Y-91355300D01*
X105875700Y-91355300D02*
X105346500Y-91884500D01*
X123659500Y-95025600D02*
X119989200Y-91355300D01*
%TO.N,SENSE+*%
X124027800Y-90847300D02*
X105219500Y-90847300D01*
X103695500Y-92456000D02*
X103695500Y-92371300D01*
X124040500Y-90860000D02*
X124027800Y-90847300D01*
X103695500Y-92371300D02*
X105219500Y-90847300D01*
%TO.N,U_MON*%
X141757000Y-93115600D02*
X141821400Y-93180000D01*
X141821400Y-93180000D02*
X170280000Y-93180000D01*
%TO.N,I_SET*%
X169340000Y-102280000D02*
X169974332Y-102280000D01*
X117035000Y-96117800D02*
X115218600Y-96117800D01*
X142367000Y-104546400D02*
X145593600Y-104546400D01*
X113745400Y-94644600D02*
X91698500Y-94644600D01*
X147860000Y-102280000D02*
X169340000Y-102280000D01*
D34*
X132461000Y-107162600D02*
X133985000Y-105638600D01*
D35*
X84286000Y-72750500D02*
X85835400Y-74299900D01*
X85835400Y-74299900D02*
X85835400Y-76966900D01*
D34*
X133985000Y-105638600D02*
X141274800Y-105638600D01*
D35*
X169974332Y-102280000D02*
X170698527Y-103004195D01*
X115218600Y-96117800D02*
X113745400Y-94644600D01*
X145593600Y-104546400D02*
X147860000Y-102280000D01*
D34*
X141274800Y-105638600D02*
X142367000Y-104546400D01*
D35*
%TO.N,POST_OE*%
X173248100Y-73118100D02*
X174495000Y-74365000D01*
X159300600Y-73118100D02*
X159315300Y-73103400D01*
X174495000Y-74365000D02*
X174820000Y-74690000D01*
X159300600Y-73118100D02*
X173248100Y-73118100D01*
X174820000Y-74690000D02*
X176330000Y-74690000D01*
D33*
%TO.N,GCOM*%
X114710900Y-78330000D02*
X114670900Y-78290000D01*
X114710900Y-79531600D02*
X114710900Y-78676500D01*
X114710900Y-78676500D02*
X114710900Y-69426900D01*
X85528300Y-78290000D02*
X83689100Y-80129200D01*
X114710900Y-69426900D02*
X109791500Y-64507500D01*
X116260300Y-89704300D02*
X135132500Y-89704300D01*
X116260300Y-81081000D02*
X114710900Y-79531600D01*
X114670900Y-78290000D02*
X85528300Y-78290000D01*
X135132500Y-89704300D02*
X138320200Y-92892000D01*
D37*
%TO.N,+VREF*%
X118063700Y-92218900D02*
X122125700Y-96280900D01*
X139837500Y-96280900D02*
X140081000Y-96037400D01*
X122125700Y-96280900D02*
X139837500Y-96280900D01*
D34*
%TO.N,CURR_HI*%
X157637201Y-110450855D02*
X157604046Y-110417700D01*
X124247792Y-103022400D02*
X108127800Y-103022400D01*
D35*
X106997500Y-53815800D02*
X106997500Y-66002500D01*
D34*
X130674992Y-109449600D02*
X124247792Y-103022400D01*
X157604046Y-110417700D02*
X157044998Y-110417700D01*
X156076898Y-109449600D02*
X130674992Y-109449600D01*
X108127800Y-103022400D02*
X107619800Y-102514400D01*
D35*
X106997500Y-66002500D02*
X106990000Y-66010000D01*
X106652900Y-53471200D02*
X106997500Y-53815800D01*
D34*
X157044998Y-110417700D02*
X156076898Y-109449600D01*
%TO.N,CV_ACTIVE*%
X170649500Y-87200400D02*
X169826200Y-88023700D01*
X169826200Y-88023700D02*
X153242716Y-88023700D01*
X153242716Y-88023700D02*
X153039516Y-88226900D01*
X153039516Y-88226900D02*
X152882600Y-88226900D01*
%TO.N,CC_ACTIVE*%
X169000700Y-87642700D02*
X152273000Y-87642700D01*
X152273000Y-87642700D02*
X152260300Y-87655400D01*
X169633500Y-87009900D02*
X169000700Y-87642700D01*
%TO.N,AUX_USET_SW*%
X149869884Y-113756190D02*
X150835449Y-113756190D01*
X131668494Y-111963200D02*
X148076894Y-111963200D01*
X150884859Y-113805600D02*
X157421344Y-113805600D01*
X157421344Y-113805600D02*
X157717344Y-114101600D01*
X148076894Y-111963200D02*
X149869884Y-113756190D01*
X150835449Y-113756190D02*
X150884859Y-113805600D01*
X95072200Y-104597200D02*
X124302494Y-104597200D01*
X124302494Y-104597200D02*
X131668494Y-111963200D01*
%TO.N,RSENSE*%
X130875804Y-110656200D02*
X148360300Y-110656200D01*
X124029404Y-103809800D02*
X130875804Y-110656200D01*
X148360300Y-110656200D02*
X149209300Y-109807200D01*
X155931604Y-109807200D02*
X156897704Y-110773300D01*
X88798400Y-103809800D02*
X124029404Y-103809800D01*
X149209300Y-109807200D02*
X155931604Y-109807200D01*
X156897704Y-110773300D02*
X157108006Y-110773300D01*
X157108006Y-110773300D02*
X157535906Y-111201200D01*
X87147400Y-105460800D02*
X88798400Y-103809800D01*
X157535906Y-111201200D02*
X157581600Y-111201200D01*
%TO.N,RSENSE_ERR*%
X82753200Y-103454200D02*
X124176698Y-103454200D01*
X74701400Y-95402400D02*
X82753200Y-103454200D01*
X130823698Y-110101200D02*
X147480000Y-110101200D01*
X124176698Y-103454200D02*
X130823698Y-110101200D01*
X73661000Y-95402400D02*
X74701400Y-95402400D01*
D35*
%TO.N,U_SET*%
X148800000Y-100740000D02*
X169990000Y-100740000D01*
X92308100Y-94136600D02*
X113856464Y-94136600D01*
X115050264Y-95330400D02*
X117742965Y-95330400D01*
X91203200Y-93654000D02*
X91825500Y-93654000D01*
X117742965Y-95330400D02*
X117750165Y-95337600D01*
X169990000Y-100740000D02*
X169990000Y-100755668D01*
X113856464Y-94136600D02*
X115050264Y-95330400D01*
X169990000Y-100755668D02*
X170698527Y-101464195D01*
X145956600Y-103583400D02*
X148800000Y-100740000D01*
X91825500Y-93654000D02*
X92308100Y-94136600D01*
X142836500Y-103583400D02*
X145956600Y-103583400D01*
%TO.N,/Power pre-regulator/VCC*%
X212600588Y-76192782D02*
X214569088Y-74224282D01*
D37*
X205340000Y-93430000D02*
X205340000Y-93510000D01*
X206273000Y-80028582D02*
X206273000Y-92497000D01*
D35*
X215521588Y-74224282D02*
X214569088Y-74224282D01*
D37*
X210108800Y-76192782D02*
X206273000Y-80028582D01*
D35*
X212600588Y-76192782D02*
X211203588Y-76192782D01*
D37*
X211203588Y-76192782D02*
X211711588Y-76192782D01*
X211203588Y-76192782D02*
X210108800Y-76192782D01*
D34*
X210108800Y-70764400D02*
X210108800Y-76192782D01*
D37*
X206273000Y-92497000D02*
X205340000Y-93430000D01*
D35*
%TO.N,/Power pre-regulator/FB*%
X203796500Y-64629900D02*
X203796500Y-61165400D01*
X206657382Y-67490782D02*
X203796500Y-64629900D01*
X212900488Y-67490782D02*
X206657382Y-67490782D01*
D34*
%TO.N,/Power pre-regulator/AGND*%
X211912200Y-64897000D02*
X211912200Y-61442600D01*
X211912200Y-61442600D02*
X213995000Y-59359800D01*
D35*
%TO.N,+3V3*%
X191430000Y-78640000D02*
X191430000Y-80086200D01*
D38*
X184560000Y-105750000D02*
X184560000Y-114730000D01*
D35*
X191420000Y-80096200D02*
X191430000Y-80086200D01*
D39*
X182029999Y-117259999D02*
X172681001Y-117259999D01*
D34*
X186940000Y-115870000D02*
X185799999Y-114729999D01*
D39*
X184559999Y-114729999D02*
X182029999Y-117259999D01*
D37*
X74891589Y-94525789D02*
X71687175Y-94525789D01*
X182657400Y-80492600D02*
X182632000Y-80492600D01*
D39*
X149558928Y-118550772D02*
X149085300Y-119024400D01*
D38*
X184560000Y-100090000D02*
X182610000Y-98140000D01*
D39*
X152146000Y-118550772D02*
X149558928Y-118550772D01*
X152146000Y-116916200D02*
X152146000Y-118550772D01*
D37*
X184560000Y-105750000D02*
X185122618Y-105750000D01*
D40*
X160337500Y-119011700D02*
X160337500Y-118550772D01*
D41*
X144932000Y-97487400D02*
X182627400Y-97487400D01*
D35*
X191430000Y-76140000D02*
X191420000Y-76130000D01*
D41*
X144932000Y-97487400D02*
X139555481Y-97487400D01*
D39*
X171390228Y-118550772D02*
X172186600Y-117754400D01*
D37*
X134611800Y-103102800D02*
X134599100Y-103090100D01*
X185122618Y-105750000D02*
X185258232Y-105885614D01*
D34*
X185799999Y-114729999D02*
X184559999Y-114729999D01*
D37*
X183063800Y-80086200D02*
X182657400Y-80492600D01*
X95102100Y-97487400D02*
X77853200Y-97487400D01*
X191430000Y-80086200D02*
X183063800Y-80086200D01*
D35*
X191430000Y-78640000D02*
X191430000Y-76140000D01*
D34*
X169633500Y-89295900D02*
X174904100Y-89295900D01*
X174904100Y-89295900D02*
X175510000Y-88690000D01*
D39*
X160337500Y-118550772D02*
X152704800Y-118550772D01*
X172681001Y-117259999D02*
X172186600Y-117754400D01*
D41*
X182627400Y-97487400D02*
X182680000Y-97540000D01*
D37*
X200350381Y-80086200D02*
X202333233Y-82069052D01*
D41*
X139555481Y-97487400D02*
X95102100Y-97487400D01*
X182680000Y-98070000D02*
X182610000Y-98140000D01*
D39*
X152704800Y-118550772D02*
X152146000Y-118550772D01*
D37*
X144932000Y-97487400D02*
X144932000Y-99595900D01*
X191430000Y-80086200D02*
X200350381Y-80086200D01*
X182330000Y-105750000D02*
X184560000Y-105750000D01*
X77853200Y-97487400D02*
X74891589Y-94525789D01*
D41*
X182680000Y-97540000D02*
X182680000Y-98070000D01*
D37*
X144932000Y-99595900D02*
X144106500Y-100421400D01*
D38*
X184560000Y-105750000D02*
X184560000Y-100090000D01*
D35*
X191420000Y-81160000D02*
X191420000Y-80096200D01*
D39*
X160337500Y-118550772D02*
X171390228Y-118550772D01*
D34*
%TO.N,~{OVP_FAULT}*%
X153678421Y-88509497D02*
X153678421Y-88675300D01*
X134327900Y-111311600D02*
X148096398Y-111311600D01*
X170307000Y-88493600D02*
X171340600Y-87460000D01*
X171340600Y-87460000D02*
X177190000Y-87460000D01*
X148096398Y-111311600D02*
X149306798Y-112522000D01*
X153694318Y-88493600D02*
X170307000Y-88493600D01*
X149306798Y-112522000D02*
X150152100Y-112522000D01*
%TO.N,ISO_OE_SYNC*%
X153111200Y-117500400D02*
X153670000Y-116941600D01*
X154660600Y-116941600D02*
X156121100Y-115481100D01*
X181788900Y-115481100D02*
X183340000Y-113930000D01*
X156121100Y-115481100D02*
X181788900Y-115481100D01*
X153670000Y-116941600D02*
X154660600Y-116941600D01*
D35*
%TO.N,/Power pre-regulator/EN_ULVO*%
X205010618Y-70096782D02*
X201853800Y-73253600D01*
X219077588Y-70096782D02*
X205010618Y-70096782D01*
%TO.N,Net-(K1A-C2)*%
X76479400Y-102108000D02*
X70040500Y-95669100D01*
X70040500Y-95669100D02*
X70040500Y-83840000D01*
X77266800Y-102108000D02*
X76479400Y-102108000D01*
D33*
%TO.N,/Power pre-regulator/HO*%
X217481588Y-80438782D02*
X217490088Y-80447282D01*
X217481588Y-74740782D02*
X217481588Y-80438782D01*
X217481588Y-74740782D02*
X217871088Y-74351282D01*
%TO.N,/Power pre-regulator/LO*%
X214886588Y-75135788D02*
X216474088Y-76723288D01*
X216918588Y-85654282D02*
X223205088Y-85654282D01*
X216474088Y-76723288D02*
X216474088Y-85209782D01*
X216474088Y-85209782D02*
X216918588Y-85654282D01*
X214886588Y-75113282D02*
X214886588Y-75135788D01*
D35*
%TO.N,/Rsense protection\u002C power output\u002C Rprog/AUX_OUT*%
X92536700Y-93628600D02*
X113923200Y-93628600D01*
X114852000Y-94557400D02*
X118522600Y-94557400D01*
X118522600Y-94557400D02*
X118686000Y-94720800D01*
X113923200Y-93628600D02*
X114852000Y-94557400D01*
X90822200Y-92828500D02*
X91736600Y-92828500D01*
X91736600Y-92828500D02*
X92536700Y-93628600D01*
X90669800Y-92676100D02*
X90822200Y-92828500D01*
D36*
%TO.N,/Rsense protection\u002C power output\u002C Rprog/SENSE_IN+*%
X86614000Y-115064000D02*
X86614000Y-126682500D01*
X83500000Y-111950000D02*
X86614000Y-115064000D01*
X86614000Y-126682500D02*
X92519500Y-132588000D01*
%TO.N,/Rsense protection\u002C power output\u002C Rprog/SENSE_IN-*%
X83500000Y-131000000D02*
X85913500Y-133413500D01*
X85913500Y-133413500D02*
X97917000Y-133413500D01*
D41*
%TO.N,DC_OUT*%
X221744800Y-125570800D02*
X221744800Y-107207400D01*
X221744800Y-107207400D02*
X223803200Y-105149000D01*
X208068600Y-139247000D02*
X221744800Y-125570800D01*
D33*
%TO.N,+VNR*%
X199570500Y-108757800D02*
X199570500Y-106397900D01*
D39*
X199570500Y-108757800D02*
X199570500Y-112753300D01*
X199570500Y-112753300D02*
X201752200Y-114935000D01*
D33*
X199570500Y-106397900D02*
X201218800Y-104749600D01*
D34*
%TO.N,AUX_ISET_SW*%
X149722590Y-114111790D02*
X150688155Y-114111790D01*
X156407910Y-114161200D02*
X156654500Y-114407790D01*
X95852400Y-105257600D02*
X96131800Y-104978200D01*
X131521200Y-112318800D02*
X147929600Y-112318800D01*
X124180600Y-104978200D02*
X131521200Y-112318800D01*
X96131800Y-104978200D02*
X124180600Y-104978200D01*
X150688155Y-114111790D02*
X150737565Y-114161200D01*
X150737565Y-114161200D02*
X156407910Y-114161200D01*
X147929600Y-112318800D02*
X149722590Y-114111790D01*
D35*
%TO.N,LOOP_CTRL*%
X151058300Y-88726400D02*
X151647856Y-89315956D01*
X151647856Y-89315956D02*
X156632546Y-89315956D01*
%TO.N,SENSE_PROT*%
X162021900Y-83189200D02*
X90539702Y-83189200D01*
X90539702Y-83189200D02*
X90376766Y-83352136D01*
X162183500Y-83027600D02*
X162021900Y-83189200D01*
D34*
%TO.N,CURR_LO*%
X124388332Y-102660046D02*
X108899820Y-102660046D01*
X108899820Y-102660046D02*
X108610574Y-102370800D01*
X156642800Y-109094000D02*
X130822286Y-109094000D01*
X157314900Y-109766100D02*
X156642800Y-109094000D01*
X130822286Y-109094000D02*
X124388332Y-102660046D01*
%TO.N,CV_LED_OUT*%
X157214300Y-108738400D02*
X158191200Y-109715300D01*
X123704180Y-101473000D02*
X130969580Y-108738400D01*
X158191200Y-111658888D02*
X157522063Y-112328025D01*
X90043000Y-99314000D02*
X92202000Y-101473000D01*
D35*
X80329726Y-98849067D02*
X80329726Y-98871726D01*
D34*
X92202000Y-101473000D02*
X123704180Y-101473000D01*
X158191200Y-109715300D02*
X158191200Y-111658888D01*
X80329726Y-98871726D02*
X80772000Y-99314000D01*
X80772000Y-99314000D02*
X90043000Y-99314000D01*
X130969580Y-108738400D02*
X157214300Y-108738400D01*
%TO.N,CC_LED_OUT*%
X124431774Y-101697700D02*
X124433188Y-101697700D01*
X81494371Y-98552000D02*
X81811871Y-98869500D01*
X123851474Y-101117400D02*
X124431774Y-101697700D01*
X81811871Y-98869500D02*
X90297000Y-98869500D01*
X157421800Y-108381800D02*
X158570000Y-109530000D01*
X131117288Y-108381800D02*
X157421800Y-108381800D01*
D35*
X81494371Y-98552000D02*
X81434022Y-98491651D01*
D34*
X90297000Y-98869500D02*
X92544900Y-101117400D01*
X158570000Y-112173734D02*
X158315334Y-112428400D01*
X158570000Y-109530000D02*
X158570000Y-112173734D01*
X124433188Y-101697700D02*
X131117288Y-108381800D01*
X92544900Y-101117400D02*
X123851474Y-101117400D01*
%TO.N,I_SET_OUT*%
X133604000Y-107569000D02*
X133925000Y-107890000D01*
X133925000Y-107890000D02*
X140022800Y-107890000D01*
X140022800Y-107890000D02*
X140191400Y-107721400D01*
D35*
%TO.N,POST_OUT-*%
X145019100Y-101106900D02*
X147436000Y-98690000D01*
X132422500Y-101106900D02*
X145019100Y-101106900D01*
D34*
X126111000Y-100482400D02*
X125933200Y-100304600D01*
D35*
X131025500Y-99709900D02*
X132422500Y-101106900D01*
X147436000Y-98690000D02*
X170150000Y-98690000D01*
D34*
X125933200Y-100304600D02*
X95072200Y-100304600D01*
D39*
%TO.N,V+*%
X78108000Y-72033500D02*
X77809000Y-71734500D01*
X190743200Y-100713200D02*
X186236700Y-96206700D01*
X110850100Y-84383000D02*
X84391500Y-84383000D01*
X78973100Y-72898600D02*
X78875100Y-72800600D01*
X186236700Y-96206700D02*
X166603100Y-96206700D01*
D41*
X194564000Y-87062423D02*
X194564000Y-101650800D01*
D39*
X78875100Y-72654199D02*
X78254401Y-72033500D01*
D41*
X194564000Y-85904000D02*
X194564000Y-87062423D01*
D39*
X78875100Y-72800600D02*
X78875100Y-72654199D01*
D41*
X193043000Y-84383000D02*
X194564000Y-85904000D01*
X119809950Y-84383000D02*
X193043000Y-84383000D01*
D39*
X78254401Y-72033500D02*
X78108000Y-72033500D01*
X84391500Y-84383000D02*
X82376400Y-84383000D01*
D37*
X84391500Y-86169500D02*
X84391500Y-84383000D01*
D41*
X119809950Y-84383000D02*
X110850100Y-84383000D01*
D39*
X166603100Y-96206700D02*
X162221600Y-96206700D01*
X82376400Y-84383000D02*
X78973100Y-80979700D01*
X162221600Y-96206700D02*
X145528900Y-96206700D01*
X194045817Y-100713200D02*
X190743200Y-100713200D01*
X145528900Y-96206700D02*
X145440000Y-96117800D01*
X78973100Y-80979700D02*
X78973100Y-72898600D01*
D41*
%TO.N,V-*%
X167517500Y-85907000D02*
X192277000Y-85907000D01*
D33*
X85341550Y-85634650D02*
X85544600Y-85431600D01*
D41*
X192277000Y-85907000D02*
X193065000Y-86695000D01*
X148670700Y-85907000D02*
X167517500Y-85907000D01*
D37*
X148867700Y-86104000D02*
X148670700Y-85907000D01*
D41*
X193065000Y-86695000D02*
X193065000Y-99455894D01*
D37*
X148855000Y-88015200D02*
X148867700Y-86104000D01*
D41*
X113402800Y-85907000D02*
X110608500Y-85907000D01*
D39*
X85544600Y-85431600D02*
X110133100Y-85431600D01*
D41*
X123486600Y-85907000D02*
X113402800Y-85907000D01*
D33*
X85341550Y-85643371D02*
X85341550Y-85634650D01*
D37*
X167847700Y-86910300D02*
X167847700Y-86237200D01*
X167847700Y-86237200D02*
X167517500Y-85907000D01*
D41*
X123486600Y-85907000D02*
X148670700Y-85907000D01*
D39*
X110133100Y-85431600D02*
X110608500Y-85907000D01*
D35*
%TO.N,PREG_OUT-*%
X124001100Y-53712500D02*
X124398100Y-53712500D01*
X144638600Y-51229500D02*
X144632100Y-51312200D01*
X172237000Y-82628400D02*
X172300500Y-82691900D01*
X172237000Y-82564900D02*
X172237000Y-82628400D01*
X127342500Y-74256500D02*
X135333400Y-82247400D01*
X124398100Y-53712500D02*
X127342500Y-56656900D01*
X145400450Y-50855000D02*
X144638450Y-50855000D01*
X146162450Y-50855000D02*
X145400450Y-50855000D01*
X143876450Y-50855000D02*
X143114450Y-50855000D01*
X171919500Y-82247400D02*
X172237000Y-82564900D01*
D42*
X144632100Y-60240300D02*
X144632100Y-51312200D01*
D35*
X135333400Y-82247400D02*
X171919500Y-82247400D01*
X127342500Y-56656900D02*
X127342500Y-74256500D01*
X144638450Y-50855000D02*
X143876450Y-50855000D01*
X144638450Y-50855000D02*
X144638600Y-51229500D01*
%TO.N,Net-(IC17A--IN)*%
X118413100Y-66603000D02*
X118413100Y-64634500D01*
%TO.N,Net-(LED1-AR)*%
X79225836Y-100622100D02*
X99888736Y-121285000D01*
X78143100Y-100622100D02*
X79225836Y-100622100D01*
X109347000Y-121285000D02*
X110045500Y-121983500D01*
X110045500Y-121983500D02*
X110045500Y-125785000D01*
X99888736Y-121285000D02*
X109347000Y-121285000D01*
X77152500Y-99631500D02*
X78143100Y-100622100D01*
%TO.N,Net-(LED1-AG)*%
X76581000Y-101028500D02*
X78832288Y-101028500D01*
X99596788Y-121793000D02*
X108466500Y-121793000D01*
X78832288Y-101028500D02*
X99596788Y-121793000D01*
X108466500Y-121793000D02*
X108839000Y-122165500D01*
D34*
%TO.N,/DIB isolators\u002C EEPROM\u002C ADC\u002C MCU/NRST*%
X184090000Y-132910000D02*
X190050000Y-132910000D01*
X183974967Y-133060449D02*
X183974967Y-133025033D01*
X183974967Y-133025033D02*
X184090000Y-132910000D01*
X183840000Y-133160000D02*
X183939551Y-133060449D01*
X183939551Y-133060449D02*
X183974967Y-133060449D01*
%TO.N,/DIB isolators\u002C EEPROM\u002C ADC\u002C MCU/~{ISO_ADC_CS}*%
X171056300Y-117462300D02*
X171704000Y-116814600D01*
X162369500Y-117462300D02*
X171056300Y-117462300D01*
%TO.N,/DIB isolators\u002C EEPROM\u002C ADC\u002C MCU/SWO*%
X176859001Y-136312787D02*
X176859001Y-136482241D01*
%TO.N,/DIB isolators\u002C EEPROM\u002C ADC\u002C MCU/DIB_BOOT0*%
X177763981Y-136516019D02*
X177780000Y-136516019D01*
X174986400Y-139293600D02*
X177763981Y-136516019D01*
X166852600Y-139293600D02*
X174986400Y-139293600D01*
%TO.N,/DIB isolators\u002C EEPROM\u002C ADC\u002C MCU/MISO1*%
X161897902Y-132511800D02*
X162863102Y-133477000D01*
X157251400Y-132511800D02*
X161897902Y-132511800D01*
X156032200Y-131292600D02*
X157251400Y-132511800D01*
X162863102Y-133477000D02*
X168293000Y-133477000D01*
X168293000Y-133477000D02*
X168910000Y-132860000D01*
%TO.N,/DAC\u002C OE\u002C Vref\u002C IOEXP\u002C Temp/~{OE_LED_GREEN}*%
X154180692Y-107400957D02*
X154047735Y-107268000D01*
X147078804Y-107128400D02*
X146435704Y-107771500D01*
X154180692Y-107400957D02*
X153963849Y-107617800D01*
X145923000Y-116255800D02*
X146718400Y-116255800D01*
X113258600Y-121225700D02*
X114105300Y-122072400D01*
X148410200Y-107617800D02*
X147920800Y-107128400D01*
X147920800Y-107128400D02*
X147078804Y-107128400D01*
X153963849Y-107617800D02*
X148410200Y-107617800D01*
X140106400Y-122072400D02*
X145923000Y-116255800D01*
X114105300Y-122072400D02*
X140106400Y-122072400D01*
%TO.N,ISO_SCLK1*%
X154503094Y-117602000D02*
X154406600Y-117602000D01*
%TO.N,ISO_MOSI1*%
X148450000Y-105100000D02*
X148450000Y-105140000D01*
%TO.N,~{ISO_RESET}*%
X183318497Y-111270000D02*
X183391311Y-111197186D01*
X178735305Y-115121985D02*
X182587290Y-111270000D01*
X154292215Y-115121985D02*
X178735305Y-115121985D01*
X182587290Y-111270000D02*
X183318497Y-111270000D01*
X153691700Y-115722500D02*
X154292215Y-115121985D01*
%TO.N,/DIB isolators\u002C EEPROM\u002C ADC\u002C MCU/DIB_CSA*%
X146216800Y-135923200D02*
X173449694Y-135923200D01*
X173449694Y-135923200D02*
X176974094Y-132398800D01*
X179696728Y-132398800D02*
X180194777Y-131900751D01*
X180194777Y-131900751D02*
X180630751Y-131900751D01*
X176974094Y-132398800D02*
X179696728Y-132398800D01*
X142197300Y-140161600D02*
X142197300Y-139942700D01*
X142197300Y-139942700D02*
X146216800Y-135923200D01*
%TO.N,/DAC\u002C OE\u002C Vref\u002C IOEXP\u002C Temp/~{OE_LED_RED}*%
X113322100Y-123329700D02*
X114173000Y-122478800D01*
X154745500Y-108026200D02*
X147878800Y-108026200D01*
X113322100Y-124819800D02*
X113322100Y-123329700D01*
X140385800Y-122478800D02*
X145897600Y-116967000D01*
X154746500Y-108025200D02*
X154943900Y-107827800D01*
X114173000Y-122478800D02*
X140385800Y-122478800D01*
X154943900Y-107827800D02*
X154745500Y-108026200D01*
X145897600Y-116967000D02*
X147472400Y-116967000D01*
X147632600Y-107780000D02*
X147280000Y-107780000D01*
X147878800Y-108026200D02*
X147632600Y-107780000D01*
%TO.N,/DIB isolators\u002C EEPROM\u002C ADC\u002C MCU/DIB_MISO*%
X177115788Y-132760000D02*
X173596988Y-136278800D01*
X146651200Y-136278800D02*
X143280000Y-139650000D01*
X177115788Y-132760000D02*
X180390000Y-132760000D01*
X173596988Y-136278800D02*
X146651200Y-136278800D01*
%TO.N,/DIB isolators\u002C EEPROM\u002C ADC\u002C MCU/DIB_IRQ*%
X173302400Y-135567600D02*
X145872400Y-135567600D01*
X178792967Y-131780000D02*
X177090000Y-131780000D01*
X141278400Y-140161600D02*
X141269401Y-140161600D01*
X145872400Y-135567600D02*
X141278400Y-140161600D01*
X177090000Y-131780000D02*
X173302400Y-135567600D01*
%TO.N,/DIB isolators\u002C EEPROM\u002C ADC\u002C MCU/~{DIB_FAULT}*%
X151640000Y-133850000D02*
X159185444Y-133850000D01*
X159185444Y-133850000D02*
X159600000Y-134264556D01*
D37*
%TO.N,Net-(D18-PadC)*%
X143362100Y-72127500D02*
X143362100Y-62412000D01*
X143362100Y-62412000D02*
X149504000Y-62412000D01*
D34*
%TO.N,DUTY_100*%
X213815400Y-57609000D02*
X203821000Y-57609000D01*
X203821000Y-57609000D02*
X200177400Y-61252600D01*
X213817200Y-57607200D02*
X213815400Y-57609000D01*
X200177400Y-61252600D02*
X200177400Y-72999600D01*
D37*
%TO.N,+VLED*%
X94183200Y-124155200D02*
X94183200Y-117449600D01*
X111125000Y-126746000D02*
X96774000Y-126746000D01*
X79654400Y-102920800D02*
X76377800Y-102920800D01*
D36*
X65471100Y-72733600D02*
X68010000Y-75272500D01*
D37*
X111125000Y-126746000D02*
X111125000Y-123063000D01*
D36*
X62931100Y-72733600D02*
X65471100Y-72733600D01*
D37*
X145999200Y-120624600D02*
X139877800Y-126746000D01*
X170942000Y-120624600D02*
X145999200Y-120624600D01*
D36*
X68010000Y-75272500D02*
X68010000Y-79730000D01*
D37*
X66740000Y-93283000D02*
X66740000Y-81000000D01*
X66740000Y-81000000D02*
X68010000Y-79730000D01*
X172847000Y-118719600D02*
X170942000Y-120624600D01*
X76377800Y-102920800D02*
X66740000Y-93283000D01*
X172847000Y-118719600D02*
X173366600Y-118200000D01*
X173366600Y-118200000D02*
X181360000Y-118200000D01*
X96774000Y-126746000D02*
X94183200Y-124155200D01*
X139877800Y-126746000D02*
X111125000Y-126746000D01*
X94183200Y-117449600D02*
X79654400Y-102920800D01*
D43*
%TO.N,-12V*%
X202590000Y-88899600D02*
X196180400Y-82490000D01*
D33*
X208408250Y-111397200D02*
X208382850Y-111422600D01*
X208382850Y-111422600D02*
X208382850Y-114781350D01*
D43*
X173981600Y-82490000D02*
X172850000Y-81358400D01*
D34*
X199390000Y-99060000D02*
X202590000Y-99060000D01*
D43*
X202590000Y-99060000D02*
X202590000Y-110921400D01*
X154993300Y-81358400D02*
X149851800Y-76216900D01*
X196180400Y-82490000D02*
X173981600Y-82490000D01*
X172850000Y-81358400D02*
X154993300Y-81358400D01*
D33*
X208382850Y-114781350D02*
X205130400Y-118033800D01*
D43*
X202590000Y-110921400D02*
X202971400Y-111302800D01*
X202590000Y-99060000D02*
X202590000Y-88899600D01*
D33*
X205130400Y-118033800D02*
X204190600Y-118033800D01*
D34*
%TO.N,/DIB isolators\u002C EEPROM\u002C ADC\u002C MCU/ADC_MOSI*%
X178238967Y-130404600D02*
X177980395Y-130404600D01*
X177474393Y-129898598D02*
X167662402Y-129898598D01*
X167662402Y-129898598D02*
X166116000Y-131445000D01*
X177980395Y-130404600D02*
X177474393Y-129898598D01*
%TO.N,/DIB isolators\u002C EEPROM\u002C ADC\u002C MCU/ADC_MISO*%
X167436800Y-131394200D02*
X167436800Y-131343400D01*
%TO.N,~{ISO_IOEXP_CS}*%
X151032153Y-113450000D02*
X153110000Y-113450000D01*
X153110000Y-113450000D02*
X176430000Y-113450000D01*
X176430000Y-113450000D02*
X176970000Y-113990000D01*
X150686743Y-113104590D02*
X151032153Y-113450000D01*
%TO.N,/DIB isolators\u002C EEPROM\u002C ADC\u002C MCU/~{TEMP_CS}*%
X181810000Y-133880000D02*
X181810000Y-130060000D01*
X179570000Y-136120000D02*
X181810000Y-133880000D01*
D39*
%TO.N,Net-(IC9-PH)*%
X206354100Y-135119500D02*
X206354100Y-130611000D01*
D34*
%TO.N,Net-(C49-Pad1)*%
X201218800Y-120548400D02*
X201168000Y-120548400D01*
X206832200Y-126161800D02*
X201218800Y-120548400D01*
X213639400Y-126161800D02*
X206832200Y-126161800D01*
D35*
%TO.N,Net-(C77-Pad1)*%
X201610000Y-63281600D02*
X201610000Y-61180000D01*
X225973688Y-73913132D02*
X220335756Y-68275200D01*
X220335756Y-68275200D02*
X206603600Y-68275200D01*
X206603600Y-68275200D02*
X201610000Y-63281600D01*
D40*
%TO.N,Net-(C91-Pad1)*%
X183703100Y-64558300D02*
X165411700Y-64558300D01*
X165411700Y-64558300D02*
X156730000Y-73240000D01*
X186397500Y-61863900D02*
X183703100Y-64558300D01*
D35*
%TO.N,Net-(C112-Pad2)*%
X112483500Y-96026900D02*
X83834900Y-96026900D01*
X83834900Y-96026900D02*
X82251381Y-94443381D01*
X82251381Y-94443381D02*
X82250700Y-94443381D01*
%TO.N,Net-(IC22B--IN)*%
X81746000Y-74006800D02*
X81746000Y-77907700D01*
X83016000Y-72750500D02*
X83002300Y-72750500D01*
X81746000Y-80094000D02*
X81746000Y-77907700D01*
X83002300Y-72750500D02*
X81746000Y-74006800D01*
X84522400Y-82870400D02*
X81746000Y-80094000D01*
%TO.N,Net-(IC21B-O)*%
X132656000Y-105109400D02*
X132656000Y-102864400D01*
X132656000Y-102864400D02*
X128627200Y-98835600D01*
X128627200Y-98835600D02*
X92830000Y-98835600D01*
D39*
%TO.N,Net-(IC21A-O)*%
X65471100Y-79733600D02*
X65493500Y-79756000D01*
D35*
X127772100Y-99314000D02*
X130073000Y-101614900D01*
X92942770Y-99826200D02*
X93454970Y-99314000D01*
X93454970Y-99314000D02*
X127772100Y-99314000D01*
X92727200Y-99826200D02*
X92942770Y-99826200D01*
%TD*%
%TA.AperFunction,Conductor*%
%TO.N,/Power pre-regulator/SW*%
G36*
X222864960Y-74542860D02*
G01*
X222883476Y-74545297D01*
X222971810Y-74556927D01*
X223003572Y-74565437D01*
X223095452Y-74603495D01*
X223123928Y-74619935D01*
X223209441Y-74685552D01*
X223221823Y-74696412D01*
X223431457Y-74906046D01*
X223442318Y-74918429D01*
X223507932Y-75003939D01*
X223524376Y-75032420D01*
X223562430Y-75124291D01*
X223570943Y-75156062D01*
X223585010Y-75262908D01*
X223586088Y-75279355D01*
X223586088Y-84790069D01*
X223583667Y-84814651D01*
X223571298Y-84876832D01*
X223538390Y-84939742D01*
X223476695Y-84974873D01*
X223418053Y-84973044D01*
X223417820Y-84974217D01*
X223411752Y-84973010D01*
X223411750Y-84973009D01*
X223330947Y-84956936D01*
X223274871Y-84945782D01*
X223274869Y-84945782D01*
X223135307Y-84945782D01*
X223135304Y-84945782D01*
X223054062Y-84961942D01*
X222998426Y-84973009D01*
X222998424Y-84973009D01*
X222998418Y-84973011D01*
X222869492Y-85026415D01*
X222864090Y-85029303D01*
X222804692Y-85044182D01*
X217297996Y-85044182D01*
X217275708Y-85037637D01*
X217252561Y-85035705D01*
X217234410Y-85025511D01*
X217229875Y-85024180D01*
X217221303Y-85018152D01*
X217207534Y-85007587D01*
X217184282Y-84984335D01*
X217123741Y-84905437D01*
X217107298Y-84876955D01*
X217093778Y-84844312D01*
X217084188Y-84796097D01*
X217084188Y-82034780D01*
X217085840Y-82026470D01*
X217084910Y-82021312D01*
X217093779Y-81986563D01*
X217107299Y-81953922D01*
X217123744Y-81925438D01*
X217189358Y-81839928D01*
X217200203Y-81827561D01*
X218039798Y-80987967D01*
X218188588Y-80839177D01*
X218188588Y-80579747D01*
X218191009Y-80555165D01*
X218198588Y-80517063D01*
X218198588Y-80377501D01*
X218191009Y-80339398D01*
X218188588Y-80314816D01*
X218188588Y-75279355D01*
X218189666Y-75262909D01*
X218189819Y-75261746D01*
X218203733Y-75156055D01*
X218212242Y-75124299D01*
X218250302Y-75032413D01*
X218266739Y-75003944D01*
X218332364Y-74918420D01*
X218343210Y-74906054D01*
X218552860Y-74696404D01*
X218565226Y-74685558D01*
X218650750Y-74619933D01*
X218679219Y-74603496D01*
X218771105Y-74565436D01*
X218802863Y-74556927D01*
X218893786Y-74544957D01*
X218909716Y-74542860D01*
X218926162Y-74541782D01*
X222848514Y-74541782D01*
X222864960Y-74542860D01*
G37*
%TD.AperFunction*%
%TD*%
%TA.AperFunction,Conductor*%
%TO.N,DIB_3V3*%
G36*
X180340715Y-123443635D02*
G01*
X180387208Y-123497291D01*
X180397312Y-123567565D01*
X180367818Y-123632145D01*
X180308092Y-123670529D01*
X180305233Y-123671332D01*
X180259971Y-123683460D01*
X180185966Y-123703289D01*
X180059532Y-123776286D01*
X180059522Y-123776294D01*
X179956294Y-123879522D01*
X179956286Y-123879532D01*
X179883289Y-124005966D01*
X179877320Y-124028244D01*
X179845500Y-124146999D01*
X179845500Y-124293001D01*
X179861446Y-124352511D01*
X179883289Y-124434033D01*
X179956286Y-124560467D01*
X179956294Y-124560477D01*
X180059522Y-124663705D01*
X180059527Y-124663709D01*
X180059529Y-124663711D01*
X180059530Y-124663712D01*
X180059532Y-124663713D01*
X180185966Y-124736710D01*
X180185968Y-124736710D01*
X180185971Y-124736712D01*
X180326999Y-124774500D01*
X180327001Y-124774500D01*
X180472999Y-124774500D01*
X180473001Y-124774500D01*
X180614029Y-124736712D01*
X180614032Y-124736710D01*
X180614033Y-124736710D01*
X180721089Y-124674901D01*
X180740471Y-124663711D01*
X180843711Y-124560471D01*
X180916712Y-124434029D01*
X180954500Y-124293001D01*
X180954500Y-124146999D01*
X180916712Y-124005971D01*
X180916710Y-124005968D01*
X180916710Y-124005966D01*
X180843713Y-123879532D01*
X180843705Y-123879522D01*
X180740477Y-123776294D01*
X180740467Y-123776286D01*
X180614033Y-123703289D01*
X180548762Y-123685800D01*
X180494793Y-123671339D01*
X180434172Y-123634388D01*
X180403151Y-123570528D01*
X180411579Y-123500033D01*
X180456782Y-123445286D01*
X180524407Y-123423669D01*
X180527406Y-123423633D01*
X188058862Y-123423633D01*
X188126983Y-123443635D01*
X188173476Y-123497291D01*
X188183580Y-123567565D01*
X188175275Y-123597840D01*
X188174905Y-123598732D01*
X188174902Y-123598742D01*
X188174902Y-123598743D01*
X188151576Y-123685800D01*
X188137114Y-123739772D01*
X188137114Y-123885775D01*
X188147990Y-123926366D01*
X188146300Y-123997342D01*
X188106505Y-124056137D01*
X188045995Y-124083424D01*
X187901786Y-124106265D01*
X187685585Y-124176513D01*
X187685579Y-124176516D01*
X187483018Y-124279726D01*
X187299099Y-124413351D01*
X187138351Y-124574099D01*
X187004726Y-124758018D01*
X186901516Y-124960579D01*
X186901513Y-124960585D01*
X186831265Y-125176787D01*
X186831264Y-125176790D01*
X186831264Y-125176792D01*
X186795700Y-125401331D01*
X186795700Y-125628669D01*
X186831264Y-125853208D01*
X186831265Y-125853212D01*
X186900499Y-126066294D01*
X186901515Y-126069419D01*
X187004724Y-126271978D01*
X187004726Y-126271981D01*
X187138351Y-126455900D01*
X187299099Y-126616648D01*
X187324550Y-126635139D01*
X187483022Y-126750276D01*
X187685581Y-126853485D01*
X187901792Y-126923736D01*
X188126331Y-126959300D01*
X188126334Y-126959300D01*
X188353666Y-126959300D01*
X188353669Y-126959300D01*
X188578208Y-126923736D01*
X188794419Y-126853485D01*
X188996978Y-126750276D01*
X189180898Y-126616650D01*
X189341650Y-126455898D01*
X189475276Y-126271978D01*
X189578485Y-126069419D01*
X189648736Y-125853208D01*
X189684300Y-125628669D01*
X189684300Y-125401331D01*
X189648736Y-125176792D01*
X189578485Y-124960581D01*
X189475276Y-124758022D01*
X189341650Y-124574102D01*
X189341649Y-124574101D01*
X189341648Y-124574099D01*
X189193454Y-124425905D01*
X189159428Y-124363593D01*
X189164493Y-124292778D01*
X189207040Y-124235942D01*
X189273560Y-124211131D01*
X189342934Y-124226222D01*
X189352547Y-124232042D01*
X189410731Y-124270920D01*
X189546458Y-124327140D01*
X189670521Y-124351817D01*
X189690539Y-124355799D01*
X189690542Y-124355799D01*
X189690545Y-124355800D01*
X189690546Y-124355800D01*
X189837454Y-124355800D01*
X189837455Y-124355800D01*
X189981542Y-124327140D01*
X190117269Y-124270920D01*
X190239420Y-124189301D01*
X190343301Y-124085420D01*
X190424920Y-123963269D01*
X190481140Y-123827542D01*
X190509800Y-123683455D01*
X190509800Y-123549633D01*
X190529802Y-123481512D01*
X190583458Y-123435019D01*
X190635800Y-123423633D01*
X190924200Y-123423633D01*
X190992321Y-123443635D01*
X191038814Y-123497291D01*
X191050200Y-123549633D01*
X191050200Y-123683460D01*
X191068665Y-123776286D01*
X191078860Y-123827542D01*
X191135080Y-123963269D01*
X191177531Y-124026801D01*
X191216698Y-124085419D01*
X191216703Y-124085425D01*
X191320574Y-124189296D01*
X191320580Y-124189301D01*
X191442731Y-124270920D01*
X191578458Y-124327140D01*
X191702521Y-124351817D01*
X191722539Y-124355799D01*
X191722542Y-124355799D01*
X191722545Y-124355800D01*
X191722546Y-124355800D01*
X191869454Y-124355800D01*
X191869455Y-124355800D01*
X192013542Y-124327140D01*
X192149269Y-124270920D01*
X192207448Y-124232045D01*
X192275200Y-124210830D01*
X192343667Y-124229612D01*
X192391111Y-124282429D01*
X192402468Y-124352511D01*
X192374133Y-124417609D01*
X192366546Y-124425905D01*
X192218350Y-124574101D01*
X192084726Y-124758018D01*
X191981516Y-124960579D01*
X191981513Y-124960585D01*
X191911265Y-125176787D01*
X191911264Y-125176790D01*
X191911264Y-125176792D01*
X191875700Y-125401331D01*
X191875700Y-125628669D01*
X191911264Y-125853208D01*
X191911265Y-125853212D01*
X191980499Y-126066294D01*
X191981515Y-126069419D01*
X192084724Y-126271978D01*
X192084726Y-126271981D01*
X192218351Y-126455900D01*
X192379099Y-126616648D01*
X192404550Y-126635139D01*
X192563022Y-126750276D01*
X192765581Y-126853485D01*
X192981792Y-126923736D01*
X193206331Y-126959300D01*
X193206334Y-126959300D01*
X193433666Y-126959300D01*
X193433669Y-126959300D01*
X193658208Y-126923736D01*
X193874419Y-126853485D01*
X194076978Y-126750276D01*
X194260898Y-126616650D01*
X194294549Y-126582999D01*
X194331505Y-126546044D01*
X194393817Y-126512018D01*
X194464632Y-126517083D01*
X194521468Y-126559630D01*
X194546279Y-126626150D01*
X194546600Y-126635139D01*
X194546600Y-127569861D01*
X194526598Y-127637982D01*
X194472942Y-127684475D01*
X194402668Y-127694579D01*
X194338088Y-127665085D01*
X194331505Y-127658956D01*
X194260900Y-127588351D01*
X194076981Y-127454726D01*
X194076980Y-127454725D01*
X194076978Y-127454724D01*
X193874419Y-127351515D01*
X193874416Y-127351514D01*
X193874414Y-127351513D01*
X193658212Y-127281265D01*
X193658210Y-127281264D01*
X193658208Y-127281264D01*
X193433669Y-127245700D01*
X193206331Y-127245700D01*
X192981792Y-127281264D01*
X192981790Y-127281264D01*
X192981787Y-127281265D01*
X192765585Y-127351513D01*
X192765579Y-127351516D01*
X192563018Y-127454726D01*
X192379099Y-127588351D01*
X192218351Y-127749099D01*
X192084726Y-127933018D01*
X191981516Y-128135579D01*
X191981513Y-128135585D01*
X191911265Y-128351787D01*
X191911264Y-128351790D01*
X191911264Y-128351792D01*
X191875700Y-128576331D01*
X191875700Y-128803669D01*
X191911264Y-129028208D01*
X191911265Y-129028212D01*
X191976981Y-129230467D01*
X191981515Y-129244419D01*
X192084724Y-129446978D01*
X192084726Y-129446981D01*
X192218351Y-129630900D01*
X192379099Y-129791648D01*
X192453868Y-129845971D01*
X192563022Y-129925276D01*
X192765581Y-130028485D01*
X192981792Y-130098736D01*
X193206331Y-130134300D01*
X193206334Y-130134300D01*
X193433666Y-130134300D01*
X193433669Y-130134300D01*
X193658208Y-130098736D01*
X193874419Y-130028485D01*
X194076978Y-129925276D01*
X194260898Y-129791650D01*
X194260903Y-129791645D01*
X194331505Y-129721044D01*
X194393817Y-129687018D01*
X194464632Y-129692083D01*
X194521468Y-129734630D01*
X194546279Y-129801150D01*
X194546600Y-129810139D01*
X194546600Y-141397780D01*
X194545521Y-141414233D01*
X194531443Y-141521120D01*
X194522923Y-141552904D01*
X194484839Y-141644804D01*
X194468380Y-141673297D01*
X194407800Y-141752203D01*
X194384524Y-141775465D01*
X194305576Y-141835996D01*
X194277071Y-141852436D01*
X194248357Y-141864313D01*
X194185150Y-141890458D01*
X194153362Y-141898957D01*
X194046461Y-141912966D01*
X194030007Y-141914034D01*
X181128045Y-141905654D01*
X181059937Y-141885608D01*
X181013479Y-141831922D01*
X181003421Y-141761641D01*
X181019006Y-141716658D01*
X181066712Y-141634029D01*
X181104500Y-141493001D01*
X181104500Y-141346999D01*
X181066712Y-141205971D01*
X181066710Y-141205968D01*
X181066710Y-141205966D01*
X180993713Y-141079532D01*
X180993705Y-141079522D01*
X180890477Y-140976294D01*
X180890467Y-140976286D01*
X180875872Y-140967860D01*
X180764033Y-140903289D01*
X180747372Y-140898824D01*
X180628596Y-140866999D01*
X188325500Y-140866999D01*
X188325500Y-141013001D01*
X188355238Y-141123984D01*
X188363289Y-141154033D01*
X188436286Y-141280467D01*
X188436294Y-141280477D01*
X188539522Y-141383705D01*
X188539527Y-141383709D01*
X188539529Y-141383711D01*
X188539530Y-141383712D01*
X188539532Y-141383713D01*
X188665966Y-141456710D01*
X188665968Y-141456710D01*
X188665971Y-141456712D01*
X188806999Y-141494500D01*
X188807001Y-141494500D01*
X188952999Y-141494500D01*
X188953001Y-141494500D01*
X189094029Y-141456712D01*
X189094032Y-141456710D01*
X189094033Y-141456710D01*
X189167605Y-141414233D01*
X189220471Y-141383711D01*
X189323711Y-141280471D01*
X189391366Y-141163289D01*
X189396710Y-141154033D01*
X189396710Y-141154032D01*
X189396712Y-141154029D01*
X189434500Y-141013001D01*
X189434500Y-140866999D01*
X189396712Y-140725971D01*
X189396710Y-140725968D01*
X189396710Y-140725966D01*
X189323713Y-140599532D01*
X189323705Y-140599522D01*
X189220477Y-140496294D01*
X189220467Y-140496286D01*
X189094033Y-140423289D01*
X189036883Y-140407976D01*
X188953001Y-140385500D01*
X188806999Y-140385500D01*
X188723117Y-140407976D01*
X188665966Y-140423289D01*
X188539532Y-140496286D01*
X188539522Y-140496294D01*
X188436294Y-140599522D01*
X188436286Y-140599532D01*
X188363289Y-140725966D01*
X188363288Y-140725971D01*
X188325500Y-140866999D01*
X180628596Y-140866999D01*
X180623001Y-140865500D01*
X180476999Y-140865500D01*
X180390686Y-140888627D01*
X180335966Y-140903289D01*
X180209532Y-140976286D01*
X180209522Y-140976294D01*
X180106294Y-141079522D01*
X180106286Y-141079532D01*
X180033289Y-141205966D01*
X180021377Y-141250422D01*
X179995500Y-141346999D01*
X179995500Y-141493001D01*
X180014912Y-141565448D01*
X180033289Y-141634033D01*
X180080557Y-141715902D01*
X180097295Y-141784897D01*
X180074075Y-141851989D01*
X180018268Y-141895876D01*
X179971356Y-141904902D01*
X169605138Y-141898169D01*
X169537030Y-141878123D01*
X169490572Y-141824437D01*
X169480514Y-141754156D01*
X169496106Y-141709161D01*
X169497654Y-141706479D01*
X169497653Y-141706479D01*
X169497656Y-141706476D01*
X169535444Y-141565448D01*
X169535444Y-141419446D01*
X169497656Y-141278418D01*
X169497654Y-141278415D01*
X169497654Y-141278413D01*
X169424657Y-141151979D01*
X169424649Y-141151969D01*
X169321421Y-141048741D01*
X169321411Y-141048733D01*
X169194977Y-140975736D01*
X169165583Y-140967860D01*
X169053945Y-140937947D01*
X169053944Y-140937947D01*
X169045968Y-140935810D01*
X169046792Y-140932731D01*
X168995619Y-140910088D01*
X168958343Y-140856281D01*
X168952949Y-140841180D01*
X168952949Y-140836950D01*
X168915161Y-140695922D01*
X168862843Y-140605305D01*
X168852274Y-140586999D01*
X174415500Y-140586999D01*
X174415500Y-140733001D01*
X174425122Y-140768911D01*
X174453289Y-140874033D01*
X174526286Y-141000467D01*
X174526294Y-141000477D01*
X174629522Y-141103705D01*
X174629527Y-141103709D01*
X174629529Y-141103711D01*
X174629530Y-141103712D01*
X174629532Y-141103713D01*
X174755966Y-141176710D01*
X174755968Y-141176710D01*
X174755971Y-141176712D01*
X174896999Y-141214500D01*
X174897001Y-141214500D01*
X175042999Y-141214500D01*
X175043001Y-141214500D01*
X175184029Y-141176712D01*
X175184032Y-141176710D01*
X175184033Y-141176710D01*
X175275364Y-141123980D01*
X175310471Y-141103711D01*
X175413711Y-141000471D01*
X175452821Y-140932731D01*
X175486710Y-140874033D01*
X175486710Y-140874032D01*
X175486712Y-140874029D01*
X175524500Y-140733001D01*
X175524500Y-140592390D01*
X175544502Y-140524269D01*
X175598158Y-140477776D01*
X175668432Y-140467672D01*
X175713498Y-140483270D01*
X175785971Y-140525112D01*
X175926999Y-140562900D01*
X175927001Y-140562900D01*
X176072999Y-140562900D01*
X176073001Y-140562900D01*
X176214029Y-140525112D01*
X176214032Y-140525110D01*
X176214033Y-140525110D01*
X176313518Y-140467672D01*
X176340471Y-140452111D01*
X176443711Y-140348871D01*
X176509686Y-140234599D01*
X176516710Y-140222433D01*
X176516710Y-140222432D01*
X176516712Y-140222429D01*
X176554500Y-140081401D01*
X176554500Y-139935399D01*
X176516712Y-139794371D01*
X176516710Y-139794368D01*
X176516710Y-139794366D01*
X176443713Y-139667932D01*
X176443705Y-139667922D01*
X176340477Y-139564694D01*
X176340467Y-139564686D01*
X176214033Y-139491689D01*
X176192674Y-139485966D01*
X176073001Y-139453900D01*
X175926999Y-139453900D01*
X175840686Y-139477027D01*
X175785966Y-139491689D01*
X175659532Y-139564686D01*
X175659522Y-139564694D01*
X175556294Y-139667922D01*
X175556286Y-139667932D01*
X175483289Y-139794366D01*
X175445500Y-139935400D01*
X175445500Y-140076009D01*
X175425498Y-140144130D01*
X175371842Y-140190623D01*
X175301568Y-140200727D01*
X175256500Y-140185128D01*
X175184033Y-140143289D01*
X175154751Y-140135443D01*
X175043001Y-140105500D01*
X174896999Y-140105500D01*
X174810686Y-140128627D01*
X174755966Y-140143289D01*
X174629532Y-140216286D01*
X174629522Y-140216294D01*
X174526294Y-140319522D01*
X174526286Y-140319532D01*
X174453289Y-140445966D01*
X174432925Y-140521969D01*
X174415500Y-140586999D01*
X168852274Y-140586999D01*
X168842162Y-140569483D01*
X168842154Y-140569473D01*
X168738926Y-140466245D01*
X168738916Y-140466237D01*
X168612482Y-140393240D01*
X168583595Y-140385500D01*
X168471450Y-140355451D01*
X168325448Y-140355451D01*
X168250142Y-140375629D01*
X168184415Y-140393240D01*
X168057981Y-140466237D01*
X168057971Y-140466245D01*
X167954743Y-140569473D01*
X167954735Y-140569483D01*
X167881738Y-140695917D01*
X167881737Y-140695922D01*
X167843949Y-140836950D01*
X167843949Y-140982952D01*
X167869827Y-141079532D01*
X167881738Y-141123984D01*
X167954735Y-141250418D01*
X167954743Y-141250428D01*
X168057971Y-141353656D01*
X168057976Y-141353660D01*
X168057978Y-141353662D01*
X168057979Y-141353663D01*
X168057981Y-141353664D01*
X168184415Y-141426661D01*
X168184417Y-141426661D01*
X168184420Y-141426663D01*
X168325448Y-141464451D01*
X168325450Y-141464451D01*
X168333425Y-141466588D01*
X168332597Y-141469676D01*
X168383721Y-141492265D01*
X168422840Y-141551511D01*
X168423267Y-141552933D01*
X168426444Y-141563729D01*
X168426444Y-141565448D01*
X168464232Y-141706476D01*
X168472831Y-141721370D01*
X168477074Y-141735789D01*
X168477086Y-141756867D01*
X168482056Y-141777351D01*
X168477107Y-141791651D01*
X168477116Y-141806786D01*
X168465730Y-141824525D01*
X168458837Y-141844443D01*
X168446941Y-141853798D01*
X168438767Y-141866534D01*
X168419601Y-141875300D01*
X168403031Y-141888332D01*
X168382454Y-141892290D01*
X168374203Y-141896065D01*
X168367686Y-141895132D01*
X168356117Y-141897358D01*
X167519159Y-141896814D01*
X167451051Y-141876768D01*
X167404593Y-141823082D01*
X167395353Y-141761259D01*
X167394500Y-141761259D01*
X167394500Y-141755551D01*
X167394321Y-141754354D01*
X167394498Y-141753006D01*
X167394500Y-141753001D01*
X167394500Y-141606999D01*
X167356712Y-141465971D01*
X167356710Y-141465968D01*
X167356710Y-141465966D01*
X167283713Y-141339532D01*
X167283705Y-141339522D01*
X167180477Y-141236294D01*
X167180467Y-141236286D01*
X167054033Y-141163289D01*
X167037372Y-141158824D01*
X166913001Y-141125500D01*
X166766999Y-141125500D01*
X166680686Y-141148627D01*
X166625966Y-141163289D01*
X166499532Y-141236286D01*
X166499522Y-141236294D01*
X166396294Y-141339522D01*
X166396286Y-141339532D01*
X166323289Y-141465966D01*
X166316046Y-141492999D01*
X166296634Y-141565448D01*
X166285500Y-141607000D01*
X166285500Y-141753002D01*
X166285565Y-141753497D01*
X166285500Y-141753913D01*
X166285500Y-141761259D01*
X166284354Y-141761259D01*
X166274619Y-141823645D01*
X166227486Y-141876739D01*
X166160559Y-141895932D01*
X152254225Y-141886900D01*
X122897758Y-141867832D01*
X122897757Y-141867832D01*
X122897755Y-141867831D01*
X122389511Y-141867501D01*
X122389511Y-141867502D01*
X122389428Y-142375751D01*
X122388903Y-145609520D01*
X122368890Y-145677638D01*
X122315227Y-145724122D01*
X122262903Y-145735500D01*
X122146999Y-145735500D01*
X122060686Y-145758627D01*
X122005966Y-145773289D01*
X121879532Y-145846286D01*
X121879522Y-145846294D01*
X121776294Y-145949522D01*
X121776286Y-145949532D01*
X121703289Y-146075966D01*
X121692570Y-146115971D01*
X121665500Y-146216999D01*
X121665500Y-146363001D01*
X121698824Y-146487372D01*
X121703289Y-146504033D01*
X121737122Y-146562633D01*
X121753860Y-146631629D01*
X121730639Y-146698720D01*
X121674832Y-146742607D01*
X121628003Y-146751633D01*
X118817770Y-146751633D01*
X118749649Y-146731631D01*
X118703156Y-146677975D01*
X118693052Y-146607701D01*
X118708651Y-146562633D01*
X118736710Y-146514033D01*
X118736710Y-146514032D01*
X118736712Y-146514029D01*
X118774500Y-146373001D01*
X118774500Y-146226999D01*
X118736712Y-146085971D01*
X118736710Y-146085968D01*
X118736710Y-146085966D01*
X118663713Y-145959532D01*
X118663705Y-145959522D01*
X118560477Y-145856294D01*
X118560467Y-145856286D01*
X118434033Y-145783289D01*
X118417372Y-145778824D01*
X118293001Y-145745500D01*
X118146999Y-145745500D01*
X118060686Y-145768627D01*
X118005966Y-145783289D01*
X117879532Y-145856286D01*
X117879522Y-145856294D01*
X117776294Y-145959522D01*
X117776286Y-145959532D01*
X117703289Y-146085966D01*
X117689891Y-146135969D01*
X117665500Y-146226999D01*
X117665500Y-146373001D01*
X117678897Y-146422999D01*
X117703289Y-146514033D01*
X117731349Y-146562633D01*
X117748087Y-146631628D01*
X117724867Y-146698720D01*
X117669060Y-146742607D01*
X117622230Y-146751633D01*
X116066259Y-146751633D01*
X116049812Y-146750555D01*
X115942965Y-146736488D01*
X115911193Y-146727974D01*
X115828281Y-146693630D01*
X115773000Y-146649082D01*
X115750580Y-146581718D01*
X115750500Y-146577222D01*
X115750500Y-144960118D01*
X115750388Y-144959848D01*
X115740842Y-144914995D01*
X115740440Y-144899947D01*
X115740439Y-144899938D01*
X115702865Y-144715787D01*
X115702861Y-144715774D01*
X115660911Y-144609455D01*
X115633876Y-144540936D01*
X115611034Y-144503711D01*
X115597474Y-144481611D01*
X115535573Y-144380731D01*
X115535571Y-144380729D01*
X115534762Y-144379636D01*
X115534554Y-144379070D01*
X115532696Y-144376042D01*
X115533304Y-144375668D01*
X115510278Y-144312994D01*
X115510000Y-144304624D01*
X115510000Y-143986999D01*
X115995500Y-143986999D01*
X115995500Y-144133001D01*
X116024178Y-144240030D01*
X116033289Y-144274033D01*
X116106286Y-144400467D01*
X116106294Y-144400477D01*
X116209522Y-144503705D01*
X116209527Y-144503709D01*
X116209529Y-144503711D01*
X116209530Y-144503712D01*
X116209532Y-144503713D01*
X116335966Y-144576710D01*
X116335968Y-144576710D01*
X116335971Y-144576712D01*
X116476999Y-144614500D01*
X116477001Y-144614500D01*
X116622999Y-144614500D01*
X116623001Y-144614500D01*
X116764029Y-144576712D01*
X116764032Y-144576710D01*
X116764033Y-144576710D01*
X116827250Y-144540211D01*
X116890471Y-144503711D01*
X116993711Y-144400471D01*
X117049048Y-144304624D01*
X117066710Y-144274033D01*
X117066710Y-144274032D01*
X117066712Y-144274029D01*
X117104500Y-144133001D01*
X117104500Y-143986999D01*
X117066712Y-143845971D01*
X117066710Y-143845968D01*
X117066710Y-143845966D01*
X116993713Y-143719532D01*
X116993705Y-143719522D01*
X116890477Y-143616294D01*
X116890467Y-143616286D01*
X116764033Y-143543289D01*
X116747372Y-143538824D01*
X116623001Y-143505500D01*
X116476999Y-143505500D01*
X116390686Y-143528627D01*
X116335966Y-143543289D01*
X116209532Y-143616286D01*
X116209522Y-143616294D01*
X116106294Y-143719522D01*
X116106286Y-143719532D01*
X116033289Y-143845966D01*
X116021617Y-143889529D01*
X115995500Y-143986999D01*
X115510000Y-143986999D01*
X115510000Y-140768911D01*
X115511078Y-140752465D01*
X115514567Y-140725966D01*
X115525145Y-140645613D01*
X115533654Y-140613855D01*
X115571714Y-140521969D01*
X115588151Y-140493500D01*
X115653776Y-140407976D01*
X115664622Y-140395610D01*
X116463233Y-139596999D01*
X136235500Y-139596999D01*
X136235500Y-139743001D01*
X136253535Y-139810310D01*
X136273289Y-139884033D01*
X136346286Y-140010467D01*
X136346294Y-140010477D01*
X136449522Y-140113705D01*
X136449527Y-140113709D01*
X136449529Y-140113711D01*
X136449530Y-140113712D01*
X136449532Y-140113713D01*
X136575966Y-140186710D01*
X136575968Y-140186710D01*
X136575971Y-140186712D01*
X136716999Y-140224500D01*
X136717001Y-140224500D01*
X136862999Y-140224500D01*
X136863001Y-140224500D01*
X137004029Y-140186712D01*
X137004032Y-140186710D01*
X137004033Y-140186710D01*
X137067428Y-140150109D01*
X137130471Y-140113711D01*
X137233711Y-140010471D01*
X137306712Y-139884029D01*
X137344500Y-139743001D01*
X137344500Y-139596999D01*
X137336275Y-139566303D01*
X138154804Y-139566303D01*
X138154804Y-139712305D01*
X138181064Y-139810310D01*
X138192593Y-139853337D01*
X138265590Y-139979771D01*
X138265598Y-139979781D01*
X138368826Y-140083009D01*
X138368831Y-140083013D01*
X138368833Y-140083015D01*
X138368834Y-140083016D01*
X138368836Y-140083017D01*
X138495270Y-140156014D01*
X138495272Y-140156014D01*
X138495275Y-140156016D01*
X138636303Y-140193804D01*
X138636305Y-140193804D01*
X138782303Y-140193804D01*
X138782305Y-140193804D01*
X138923333Y-140156016D01*
X138923336Y-140156014D01*
X138923337Y-140156014D01*
X138996618Y-140113705D01*
X139040103Y-140088599D01*
X140714901Y-140088599D01*
X140714901Y-140234601D01*
X140720233Y-140254500D01*
X140752690Y-140375633D01*
X140825687Y-140502067D01*
X140825695Y-140502077D01*
X140928923Y-140605305D01*
X140928928Y-140605309D01*
X140928930Y-140605311D01*
X140928931Y-140605312D01*
X140928933Y-140605313D01*
X141055367Y-140678310D01*
X141055369Y-140678310D01*
X141055372Y-140678312D01*
X141196400Y-140716100D01*
X141196402Y-140716100D01*
X141342400Y-140716100D01*
X141342402Y-140716100D01*
X141483430Y-140678312D01*
X141483433Y-140678310D01*
X141483434Y-140678310D01*
X141595073Y-140613855D01*
X141609872Y-140605311D01*
X141644255Y-140570927D01*
X141706565Y-140536903D01*
X141777381Y-140541967D01*
X141822445Y-140570928D01*
X141856822Y-140605305D01*
X141856827Y-140605309D01*
X141856829Y-140605311D01*
X141856830Y-140605312D01*
X141856832Y-140605313D01*
X141983266Y-140678310D01*
X141983268Y-140678310D01*
X141983271Y-140678312D01*
X142124299Y-140716100D01*
X142124301Y-140716100D01*
X142270299Y-140716100D01*
X142270301Y-140716100D01*
X142411329Y-140678312D01*
X142411332Y-140678310D01*
X142411333Y-140678310D01*
X142522972Y-140613855D01*
X142537771Y-140605311D01*
X142641011Y-140502071D01*
X142702476Y-140395610D01*
X142714010Y-140375633D01*
X142714010Y-140375632D01*
X142714012Y-140375629D01*
X142751800Y-140234601D01*
X142751800Y-140203564D01*
X142771802Y-140135443D01*
X142825458Y-140088950D01*
X142895732Y-140078846D01*
X142940800Y-140094445D01*
X143065966Y-140166710D01*
X143065968Y-140166710D01*
X143065971Y-140166712D01*
X143206999Y-140204500D01*
X143207001Y-140204500D01*
X143352999Y-140204500D01*
X143353001Y-140204500D01*
X143494029Y-140166712D01*
X143494032Y-140166710D01*
X143494033Y-140166710D01*
X143585840Y-140113705D01*
X143620471Y-140093711D01*
X143723711Y-139990471D01*
X143785165Y-139884029D01*
X143796710Y-139864033D01*
X143796710Y-139864032D01*
X143796712Y-139864029D01*
X143834500Y-139723001D01*
X143834500Y-139651292D01*
X143841632Y-139626999D01*
X163199300Y-139626999D01*
X163199300Y-139773001D01*
X163225847Y-139872077D01*
X163237089Y-139914033D01*
X163310086Y-140040467D01*
X163310094Y-140040477D01*
X163413322Y-140143705D01*
X163413327Y-140143709D01*
X163413329Y-140143711D01*
X163413330Y-140143712D01*
X163413332Y-140143713D01*
X163539766Y-140216710D01*
X163539768Y-140216710D01*
X163539771Y-140216712D01*
X163680799Y-140254500D01*
X163680801Y-140254500D01*
X163826799Y-140254500D01*
X163826801Y-140254500D01*
X163967829Y-140216712D01*
X163967832Y-140216710D01*
X163967833Y-140216710D01*
X164072961Y-140156014D01*
X164094271Y-140143711D01*
X164197511Y-140040471D01*
X164251147Y-139947571D01*
X164270510Y-139914033D01*
X164270510Y-139914032D01*
X164270512Y-139914029D01*
X164308300Y-139773001D01*
X164308300Y-139626999D01*
X164270512Y-139485971D01*
X164270510Y-139485968D01*
X164270510Y-139485966D01*
X164197513Y-139359532D01*
X164197505Y-139359522D01*
X164094277Y-139256294D01*
X164094267Y-139256286D01*
X164032456Y-139220599D01*
X166298100Y-139220599D01*
X166298100Y-139366601D01*
X166322751Y-139458599D01*
X166335889Y-139507633D01*
X166408886Y-139634067D01*
X166408894Y-139634077D01*
X166512122Y-139737305D01*
X166512127Y-139737309D01*
X166512129Y-139737311D01*
X166512130Y-139737312D01*
X166512132Y-139737313D01*
X166638566Y-139810310D01*
X166638568Y-139810310D01*
X166638571Y-139810312D01*
X166779599Y-139848100D01*
X166779601Y-139848100D01*
X166925599Y-139848100D01*
X166925601Y-139848100D01*
X167066629Y-139810312D01*
X167066632Y-139810310D01*
X167066633Y-139810310D01*
X167131257Y-139772999D01*
X167193071Y-139737311D01*
X167243778Y-139686603D01*
X167306088Y-139652580D01*
X167332872Y-139649700D01*
X175033279Y-139649700D01*
X175033281Y-139649700D01*
X175123850Y-139625433D01*
X175205051Y-139578551D01*
X175638102Y-139145500D01*
X175996604Y-138786999D01*
X177485500Y-138786999D01*
X177485500Y-138933001D01*
X177507442Y-139014889D01*
X177523289Y-139074033D01*
X177596286Y-139200467D01*
X177596294Y-139200477D01*
X177699522Y-139303705D01*
X177699527Y-139303709D01*
X177699529Y-139303711D01*
X177699530Y-139303712D01*
X177699532Y-139303713D01*
X177825966Y-139376710D01*
X177825968Y-139376710D01*
X177825971Y-139376712D01*
X177966999Y-139414500D01*
X177967001Y-139414500D01*
X178112999Y-139414500D01*
X178113001Y-139414500D01*
X178254029Y-139376712D01*
X178254032Y-139376710D01*
X178254033Y-139376710D01*
X178317250Y-139340211D01*
X178380471Y-139303711D01*
X178483711Y-139200471D01*
X178550491Y-139084804D01*
X178556710Y-139074033D01*
X178556710Y-139074032D01*
X178556712Y-139074029D01*
X178571993Y-139016999D01*
X181495500Y-139016999D01*
X181495500Y-139163001D01*
X181520496Y-139256289D01*
X181533289Y-139304033D01*
X181606286Y-139430467D01*
X181606294Y-139430477D01*
X181709522Y-139533705D01*
X181709527Y-139533709D01*
X181709529Y-139533711D01*
X181709530Y-139533712D01*
X181709532Y-139533713D01*
X181835966Y-139606710D01*
X181835968Y-139606710D01*
X181835971Y-139606712D01*
X181976999Y-139644500D01*
X181977001Y-139644500D01*
X182122999Y-139644500D01*
X182123001Y-139644500D01*
X182264029Y-139606712D01*
X182264032Y-139606710D01*
X182264033Y-139606710D01*
X182336820Y-139564686D01*
X182390471Y-139533711D01*
X182465583Y-139458599D01*
X185975500Y-139458599D01*
X185975500Y-139604601D01*
X186007224Y-139722999D01*
X186013289Y-139745633D01*
X186086286Y-139872067D01*
X186086294Y-139872077D01*
X186189522Y-139975305D01*
X186189527Y-139975309D01*
X186189529Y-139975311D01*
X186189530Y-139975312D01*
X186189532Y-139975313D01*
X186315966Y-140048310D01*
X186315968Y-140048310D01*
X186315971Y-140048312D01*
X186456999Y-140086100D01*
X186457001Y-140086100D01*
X186602999Y-140086100D01*
X186603001Y-140086100D01*
X186744029Y-140048312D01*
X186744032Y-140048310D01*
X186744033Y-140048310D01*
X186809579Y-140010467D01*
X186870471Y-139975311D01*
X186973711Y-139872071D01*
X187046712Y-139745629D01*
X187084500Y-139604601D01*
X187084500Y-139560398D01*
X192199580Y-139560398D01*
X192199580Y-139706400D01*
X192217425Y-139772999D01*
X192237369Y-139847432D01*
X192310366Y-139973866D01*
X192310374Y-139973876D01*
X192413602Y-140077104D01*
X192413607Y-140077108D01*
X192413609Y-140077110D01*
X192413610Y-140077111D01*
X192413612Y-140077112D01*
X192540046Y-140150109D01*
X192540048Y-140150109D01*
X192540051Y-140150111D01*
X192681079Y-140187899D01*
X192681081Y-140187899D01*
X192827079Y-140187899D01*
X192827081Y-140187899D01*
X192968109Y-140150111D01*
X192968112Y-140150109D01*
X192968113Y-140150109D01*
X193045378Y-140105500D01*
X193094551Y-140077110D01*
X193197791Y-139973870D01*
X193249658Y-139884033D01*
X193270790Y-139847432D01*
X193270790Y-139847431D01*
X193270792Y-139847428D01*
X193308580Y-139706400D01*
X193308580Y-139560398D01*
X193270792Y-139419370D01*
X193270790Y-139419367D01*
X193270790Y-139419365D01*
X193197793Y-139292931D01*
X193197785Y-139292921D01*
X193094557Y-139189693D01*
X193094547Y-139189685D01*
X192968113Y-139116688D01*
X192951452Y-139112223D01*
X192827081Y-139078899D01*
X192681079Y-139078899D01*
X192594766Y-139102026D01*
X192540046Y-139116688D01*
X192413612Y-139189685D01*
X192413602Y-139189693D01*
X192310374Y-139292921D01*
X192310366Y-139292931D01*
X192237369Y-139419365D01*
X192234392Y-139430477D01*
X192199580Y-139560398D01*
X187084500Y-139560398D01*
X187084500Y-139458599D01*
X187046712Y-139317571D01*
X187046710Y-139317568D01*
X187046710Y-139317566D01*
X186973713Y-139191132D01*
X186973705Y-139191122D01*
X186870477Y-139087894D01*
X186870467Y-139087886D01*
X186744033Y-139014889D01*
X186727372Y-139010424D01*
X186603001Y-138977100D01*
X186456999Y-138977100D01*
X186370686Y-139000227D01*
X186315966Y-139014889D01*
X186189532Y-139087886D01*
X186189522Y-139087894D01*
X186086294Y-139191122D01*
X186086286Y-139191132D01*
X186013289Y-139317566D01*
X185997442Y-139376710D01*
X185975500Y-139458599D01*
X182465583Y-139458599D01*
X182493711Y-139430471D01*
X182566712Y-139304029D01*
X182604500Y-139163001D01*
X182604500Y-139016999D01*
X182566712Y-138875971D01*
X182566710Y-138875968D01*
X182566710Y-138875966D01*
X182493713Y-138749532D01*
X182493705Y-138749522D01*
X182390477Y-138646294D01*
X182390467Y-138646286D01*
X182264033Y-138573289D01*
X182231231Y-138564500D01*
X182123001Y-138535500D01*
X181976999Y-138535500D01*
X181890686Y-138558627D01*
X181835966Y-138573289D01*
X181709532Y-138646286D01*
X181709522Y-138646294D01*
X181606294Y-138749522D01*
X181606286Y-138749532D01*
X181533289Y-138875966D01*
X181512616Y-138953122D01*
X181495500Y-139016999D01*
X178571993Y-139016999D01*
X178594500Y-138933001D01*
X178594500Y-138786999D01*
X178556712Y-138645971D01*
X178556710Y-138645968D01*
X178556710Y-138645966D01*
X178483713Y-138519532D01*
X178483705Y-138519522D01*
X178380477Y-138416294D01*
X178380467Y-138416286D01*
X178254033Y-138343289D01*
X178237372Y-138338824D01*
X178113001Y-138305500D01*
X177966999Y-138305500D01*
X177880686Y-138328627D01*
X177825966Y-138343289D01*
X177699532Y-138416286D01*
X177699522Y-138416294D01*
X177596294Y-138519522D01*
X177596286Y-138519532D01*
X177523289Y-138645966D01*
X177523201Y-138646294D01*
X177485500Y-138786999D01*
X175996604Y-138786999D01*
X176093957Y-138689646D01*
X177216603Y-137566999D01*
X184885500Y-137566999D01*
X184885500Y-137713001D01*
X184890623Y-137732120D01*
X184923289Y-137854033D01*
X184996286Y-137980467D01*
X184996294Y-137980477D01*
X185099522Y-138083705D01*
X185099527Y-138083709D01*
X185099529Y-138083711D01*
X185099530Y-138083712D01*
X185099532Y-138083713D01*
X185225966Y-138156710D01*
X185225968Y-138156710D01*
X185225971Y-138156712D01*
X185366999Y-138194500D01*
X185367001Y-138194500D01*
X185512999Y-138194500D01*
X185513001Y-138194500D01*
X185654029Y-138156712D01*
X185654032Y-138156710D01*
X185654033Y-138156710D01*
X185717250Y-138120211D01*
X185780471Y-138083711D01*
X185883711Y-137980471D01*
X185956712Y-137854029D01*
X185994500Y-137713001D01*
X185994500Y-137566999D01*
X185956712Y-137425971D01*
X185956710Y-137425968D01*
X185956710Y-137425966D01*
X185883713Y-137299532D01*
X185883705Y-137299522D01*
X185780477Y-137196294D01*
X185780467Y-137196286D01*
X185654033Y-137123289D01*
X185594823Y-137107424D01*
X185513001Y-137085500D01*
X185366999Y-137085500D01*
X185285177Y-137107424D01*
X185225966Y-137123289D01*
X185099532Y-137196286D01*
X185099522Y-137196294D01*
X184996294Y-137299522D01*
X184996286Y-137299532D01*
X184923289Y-137425966D01*
X184923288Y-137425971D01*
X184885500Y-137566999D01*
X177216603Y-137566999D01*
X177313956Y-137469646D01*
X177676178Y-137107424D01*
X177738490Y-137073398D01*
X177765273Y-137070519D01*
X177852999Y-137070519D01*
X177853001Y-137070519D01*
X177994029Y-137032731D01*
X177994032Y-137032729D01*
X177994033Y-137032729D01*
X178072893Y-136987199D01*
X178120471Y-136959730D01*
X178223711Y-136856490D01*
X178280847Y-136757527D01*
X178296710Y-136730052D01*
X178296710Y-136730051D01*
X178296712Y-136730048D01*
X178334500Y-136589020D01*
X178334500Y-136443018D01*
X178296712Y-136301990D01*
X178296710Y-136301987D01*
X178296710Y-136301985D01*
X178223713Y-136175551D01*
X178223705Y-136175541D01*
X178120477Y-136072313D01*
X178120467Y-136072305D01*
X177994033Y-135999308D01*
X177955540Y-135988994D01*
X177853001Y-135961519D01*
X177706999Y-135961519D01*
X177622990Y-135984029D01*
X177565966Y-135999308D01*
X177439532Y-136072305D01*
X177439525Y-136072311D01*
X177425482Y-136086354D01*
X177363169Y-136120377D01*
X177292354Y-136115311D01*
X177247294Y-136086351D01*
X177199478Y-136038535D01*
X177199468Y-136038527D01*
X177073034Y-135965530D01*
X177056373Y-135961065D01*
X176932002Y-135927741D01*
X176786000Y-135927741D01*
X176699687Y-135950868D01*
X176644967Y-135965530D01*
X176518533Y-136038527D01*
X176518523Y-136038535D01*
X176415295Y-136141763D01*
X176415287Y-136141773D01*
X176342290Y-136268207D01*
X176324652Y-136334033D01*
X176304501Y-136409240D01*
X176304501Y-136555242D01*
X176313552Y-136589020D01*
X176342290Y-136696274D01*
X176415287Y-136822708D01*
X176415295Y-136822718D01*
X176518523Y-136925946D01*
X176518527Y-136925949D01*
X176518530Y-136925952D01*
X176518533Y-136925953D01*
X176518536Y-136925956D01*
X176586748Y-136965338D01*
X176635742Y-137016720D01*
X176649179Y-137086433D01*
X176622792Y-137152345D01*
X176612844Y-137163552D01*
X174875801Y-138900596D01*
X174813491Y-138934620D01*
X174786708Y-138937500D01*
X167332872Y-138937500D01*
X167264751Y-138917498D01*
X167243781Y-138900599D01*
X167193071Y-138849889D01*
X167193070Y-138849888D01*
X167193067Y-138849886D01*
X167066633Y-138776889D01*
X167049972Y-138772424D01*
X166925601Y-138739100D01*
X166779599Y-138739100D01*
X166693286Y-138762227D01*
X166638566Y-138776889D01*
X166512132Y-138849886D01*
X166512122Y-138849894D01*
X166408894Y-138953122D01*
X166408886Y-138953132D01*
X166335889Y-139079566D01*
X166316136Y-139153288D01*
X166298100Y-139220599D01*
X164032456Y-139220599D01*
X163967833Y-139183289D01*
X163951172Y-139178824D01*
X163826801Y-139145500D01*
X163680799Y-139145500D01*
X163615484Y-139163001D01*
X163539766Y-139183289D01*
X163413332Y-139256286D01*
X163413322Y-139256294D01*
X163310094Y-139359522D01*
X163310086Y-139359532D01*
X163237089Y-139485966D01*
X163224298Y-139533705D01*
X163199300Y-139626999D01*
X143841632Y-139626999D01*
X143843283Y-139621376D01*
X143849912Y-139590907D01*
X143853726Y-139585811D01*
X143854502Y-139583171D01*
X143871405Y-139562197D01*
X145496603Y-137936999D01*
X169995500Y-137936999D01*
X169995500Y-138083001D01*
X169995691Y-138083713D01*
X170033289Y-138224033D01*
X170106286Y-138350467D01*
X170106294Y-138350477D01*
X170209522Y-138453705D01*
X170209527Y-138453709D01*
X170209529Y-138453711D01*
X170209530Y-138453712D01*
X170209532Y-138453713D01*
X170335966Y-138526710D01*
X170335968Y-138526710D01*
X170335971Y-138526712D01*
X170476999Y-138564500D01*
X170477001Y-138564500D01*
X170622999Y-138564500D01*
X170623001Y-138564500D01*
X170764029Y-138526712D01*
X170764032Y-138526710D01*
X170764033Y-138526710D01*
X170827250Y-138490211D01*
X170890471Y-138453711D01*
X170993711Y-138350471D01*
X171066712Y-138224029D01*
X171104500Y-138083001D01*
X171104500Y-137936999D01*
X171066712Y-137795971D01*
X171066710Y-137795968D01*
X171066710Y-137795966D01*
X171029139Y-137730892D01*
X171029137Y-137730890D01*
X170993711Y-137669529D01*
X170967912Y-137643730D01*
X170967910Y-137643727D01*
X170890477Y-137566294D01*
X170890467Y-137566286D01*
X170764033Y-137493289D01*
X170747372Y-137488824D01*
X170623001Y-137455500D01*
X170476999Y-137455500D01*
X170390686Y-137478627D01*
X170335966Y-137493289D01*
X170209532Y-137566286D01*
X170209522Y-137566294D01*
X170106294Y-137669522D01*
X170106286Y-137669532D01*
X170033289Y-137795966D01*
X170017730Y-137854033D01*
X169995500Y-137936999D01*
X145496603Y-137936999D01*
X146761797Y-136671805D01*
X146824109Y-136637779D01*
X146850892Y-136634900D01*
X149851068Y-136634900D01*
X149919189Y-136654902D01*
X149965682Y-136708558D01*
X149975786Y-136778832D01*
X149960187Y-136823900D01*
X149943289Y-136853166D01*
X149937456Y-136874937D01*
X149905500Y-136994199D01*
X149905500Y-137140201D01*
X149908754Y-137152345D01*
X149943289Y-137281233D01*
X150016286Y-137407667D01*
X150016294Y-137407677D01*
X150119522Y-137510905D01*
X150119527Y-137510909D01*
X150119529Y-137510911D01*
X150119530Y-137510912D01*
X150119532Y-137510913D01*
X150245966Y-137583910D01*
X150245968Y-137583910D01*
X150245971Y-137583912D01*
X150386999Y-137621700D01*
X150387001Y-137621700D01*
X150532999Y-137621700D01*
X150533001Y-137621700D01*
X150674029Y-137583912D01*
X150674032Y-137583910D01*
X150674033Y-137583910D01*
X150737250Y-137547411D01*
X150800471Y-137510911D01*
X150903711Y-137407671D01*
X150976712Y-137281229D01*
X151014500Y-137140201D01*
X151014500Y-136994199D01*
X150976712Y-136853171D01*
X150976710Y-136853168D01*
X150976710Y-136853166D01*
X150959813Y-136823900D01*
X150943075Y-136754905D01*
X150966295Y-136687813D01*
X151022102Y-136643926D01*
X151068932Y-136634900D01*
X171142331Y-136634900D01*
X171210452Y-136654902D01*
X171256945Y-136708558D01*
X171267049Y-136778832D01*
X171237555Y-136843412D01*
X171231426Y-136849995D01*
X171206490Y-136874930D01*
X171206482Y-136874940D01*
X171133485Y-137001374D01*
X171133484Y-137001379D01*
X171095696Y-137142407D01*
X171095696Y-137288409D01*
X171127651Y-137407667D01*
X171133485Y-137429441D01*
X171171055Y-137494514D01*
X171171060Y-137494522D01*
X171206485Y-137555879D01*
X171232281Y-137581675D01*
X171232284Y-137581679D01*
X171309718Y-137659113D01*
X171309723Y-137659117D01*
X171309725Y-137659119D01*
X171309726Y-137659120D01*
X171309728Y-137659121D01*
X171436162Y-137732118D01*
X171436164Y-137732118D01*
X171436167Y-137732120D01*
X171577195Y-137769908D01*
X171577197Y-137769908D01*
X171723195Y-137769908D01*
X171723197Y-137769908D01*
X171864225Y-137732120D01*
X171864228Y-137732118D01*
X171864229Y-137732118D01*
X171972648Y-137669522D01*
X171990667Y-137659119D01*
X172093907Y-137555879D01*
X172130407Y-137492658D01*
X172166906Y-137429441D01*
X172166906Y-137429440D01*
X172166908Y-137429437D01*
X172204696Y-137288409D01*
X172204696Y-137142407D01*
X172166908Y-137001379D01*
X172166906Y-137001376D01*
X172166906Y-137001374D01*
X172093909Y-136874940D01*
X172093901Y-136874930D01*
X172068966Y-136849995D01*
X172034940Y-136787683D01*
X172040005Y-136716868D01*
X172082552Y-136660032D01*
X172149072Y-136635221D01*
X172158061Y-136634900D01*
X173643867Y-136634900D01*
X173643869Y-136634900D01*
X173734438Y-136610633D01*
X173815639Y-136563751D01*
X175118805Y-135260585D01*
X175181117Y-135226560D01*
X175251932Y-135231624D01*
X175308768Y-135274171D01*
X175333579Y-135340691D01*
X175333900Y-135349680D01*
X175333900Y-135435219D01*
X175313898Y-135503340D01*
X175270900Y-135544338D01*
X175156050Y-135610645D01*
X175156040Y-135610653D01*
X175052812Y-135713881D01*
X175052804Y-135713891D01*
X174979807Y-135840325D01*
X174979806Y-135840330D01*
X174942018Y-135981358D01*
X174942018Y-136127360D01*
X174965156Y-136213713D01*
X174979807Y-136268392D01*
X175052804Y-136394826D01*
X175052812Y-136394836D01*
X175156040Y-136498064D01*
X175156045Y-136498068D01*
X175156047Y-136498070D01*
X175156048Y-136498071D01*
X175156050Y-136498072D01*
X175282484Y-136571069D01*
X175282486Y-136571069D01*
X175282489Y-136571071D01*
X175423517Y-136608859D01*
X175423519Y-136608859D01*
X175569517Y-136608859D01*
X175569519Y-136608859D01*
X175710547Y-136571071D01*
X175710550Y-136571069D01*
X175710551Y-136571069D01*
X175773768Y-136534570D01*
X175836989Y-136498070D01*
X175940229Y-136394830D01*
X175980834Y-136324500D01*
X176013228Y-136268392D01*
X176013228Y-136268391D01*
X176013230Y-136268388D01*
X176051018Y-136127360D01*
X176051018Y-136000142D01*
X176071020Y-135932021D01*
X176114018Y-135891023D01*
X176197195Y-135843001D01*
X176228871Y-135824713D01*
X176332111Y-135721473D01*
X176396096Y-135610648D01*
X176405110Y-135595035D01*
X176405110Y-135595034D01*
X176405112Y-135595031D01*
X176442900Y-135454003D01*
X176442900Y-135376251D01*
X176462902Y-135308130D01*
X176516558Y-135261637D01*
X176568900Y-135250251D01*
X176688750Y-135250251D01*
X176688752Y-135250251D01*
X176829780Y-135212463D01*
X176829783Y-135212461D01*
X176829784Y-135212461D01*
X176908571Y-135166973D01*
X176956222Y-135139462D01*
X177059462Y-135036222D01*
X177132463Y-134909780D01*
X177170251Y-134768752D01*
X177170251Y-134622750D01*
X177132463Y-134481722D01*
X177132461Y-134481719D01*
X177132461Y-134481717D01*
X177059464Y-134355283D01*
X177059456Y-134355273D01*
X176956228Y-134252045D01*
X176956218Y-134252037D01*
X176829784Y-134179040D01*
X176777202Y-134164951D01*
X176688752Y-134141251D01*
X176542750Y-134141251D01*
X176542329Y-134141251D01*
X176474208Y-134121249D01*
X176427715Y-134067593D01*
X176417611Y-133997319D01*
X176447105Y-133932739D01*
X176453234Y-133926156D01*
X177110405Y-133268985D01*
X177172717Y-133234959D01*
X177243532Y-133240024D01*
X177300368Y-133282571D01*
X177325179Y-133349091D01*
X177325500Y-133358080D01*
X177325500Y-133453001D01*
X177342961Y-133518166D01*
X177363289Y-133594033D01*
X177436286Y-133720467D01*
X177436294Y-133720477D01*
X177539522Y-133823705D01*
X177539527Y-133823709D01*
X177539529Y-133823711D01*
X177539530Y-133823712D01*
X177539532Y-133823713D01*
X177665966Y-133896710D01*
X177665968Y-133896710D01*
X177665971Y-133896712D01*
X177806999Y-133934500D01*
X177807001Y-133934500D01*
X177952999Y-133934500D01*
X177953001Y-133934500D01*
X178094029Y-133896712D01*
X178094032Y-133896710D01*
X178094033Y-133896710D01*
X178157250Y-133860211D01*
X178220471Y-133823711D01*
X178323711Y-133720471D01*
X178379819Y-133623289D01*
X178396710Y-133594033D01*
X178396710Y-133594032D01*
X178396712Y-133594029D01*
X178434500Y-133453001D01*
X178434500Y-133306999D01*
X178425848Y-133274709D01*
X178427538Y-133203735D01*
X178467332Y-133144939D01*
X178532596Y-133116991D01*
X178547555Y-133116100D01*
X179909728Y-133116100D01*
X179977849Y-133136102D01*
X179998818Y-133153000D01*
X180049529Y-133203711D01*
X180049530Y-133203712D01*
X180049532Y-133203713D01*
X180175966Y-133276710D01*
X180175968Y-133276710D01*
X180175971Y-133276712D01*
X180316999Y-133314500D01*
X180317001Y-133314500D01*
X180462999Y-133314500D01*
X180463001Y-133314500D01*
X180604029Y-133276712D01*
X180604032Y-133276710D01*
X180604033Y-133276710D01*
X180730429Y-133203735D01*
X180730471Y-133203711D01*
X180833711Y-133100471D01*
X180898965Y-132987448D01*
X180906710Y-132974033D01*
X180906710Y-132974032D01*
X180906712Y-132974029D01*
X180944500Y-132833001D01*
X180944500Y-132686999D01*
X180906712Y-132545971D01*
X180898582Y-132531889D01*
X180881845Y-132462898D01*
X180905065Y-132395806D01*
X180944700Y-132359773D01*
X180971222Y-132344462D01*
X181074462Y-132241222D01*
X181127405Y-132149522D01*
X181147461Y-132114784D01*
X181147461Y-132114783D01*
X181147463Y-132114780D01*
X181185251Y-131973752D01*
X181185251Y-131827750D01*
X181147463Y-131686722D01*
X181147461Y-131686719D01*
X181147461Y-131686717D01*
X181074464Y-131560283D01*
X181074456Y-131560273D01*
X180971228Y-131457045D01*
X180971218Y-131457037D01*
X180844784Y-131384040D01*
X180826239Y-131379071D01*
X180703752Y-131346251D01*
X180557750Y-131346251D01*
X180494193Y-131363281D01*
X180416717Y-131384040D01*
X180290283Y-131457037D01*
X180290278Y-131457041D01*
X180269425Y-131477895D01*
X180239573Y-131507746D01*
X180177264Y-131541770D01*
X180150480Y-131544650D01*
X180147896Y-131544650D01*
X180076466Y-131563788D01*
X180076466Y-131563789D01*
X180070086Y-131565498D01*
X180057325Y-131568918D01*
X179989241Y-131608226D01*
X179989242Y-131608227D01*
X179976129Y-131615798D01*
X179976122Y-131615803D01*
X179864421Y-131727505D01*
X179586129Y-132005796D01*
X179558763Y-132020739D01*
X179532534Y-132037596D01*
X179526232Y-132038502D01*
X179523819Y-132039820D01*
X179497036Y-132042700D01*
X179460844Y-132042700D01*
X179392723Y-132022698D01*
X179346230Y-131969042D01*
X179336126Y-131898768D01*
X179339137Y-131884090D01*
X179342314Y-131872232D01*
X179347467Y-131853001D01*
X179347467Y-131706999D01*
X179309679Y-131565971D01*
X179309677Y-131565968D01*
X179309677Y-131565966D01*
X179236680Y-131439532D01*
X179236672Y-131439522D01*
X179165283Y-131368133D01*
X179131257Y-131305821D01*
X179136322Y-131235006D01*
X179178869Y-131178170D01*
X179245389Y-131153359D01*
X179286990Y-131157332D01*
X179301799Y-131161300D01*
X179301800Y-131161300D01*
X179447799Y-131161300D01*
X179447801Y-131161300D01*
X179588829Y-131123512D01*
X179588832Y-131123510D01*
X179588833Y-131123510D01*
X179675089Y-131073710D01*
X179715271Y-131050511D01*
X179752774Y-131013008D01*
X179815085Y-130978982D01*
X179885901Y-130984046D01*
X179904870Y-130992983D01*
X179998966Y-131047310D01*
X179998968Y-131047310D01*
X179998971Y-131047312D01*
X180139999Y-131085100D01*
X180140001Y-131085100D01*
X180285999Y-131085100D01*
X180286001Y-131085100D01*
X180427029Y-131047312D01*
X180530347Y-130987661D01*
X180599339Y-130970924D01*
X180666431Y-130994144D01*
X180682440Y-131007686D01*
X180688244Y-131013490D01*
X180688249Y-131013494D01*
X180688251Y-131013496D01*
X180688252Y-131013497D01*
X180688254Y-131013498D01*
X180814688Y-131086495D01*
X180814690Y-131086495D01*
X180814693Y-131086497D01*
X180955721Y-131124285D01*
X180955723Y-131124285D01*
X181101721Y-131124285D01*
X181101723Y-131124285D01*
X181242751Y-131086497D01*
X181242754Y-131086495D01*
X181242755Y-131086495D01*
X181264900Y-131073710D01*
X181333895Y-131056972D01*
X181400987Y-131080192D01*
X181444874Y-131135999D01*
X181453900Y-131182829D01*
X181453900Y-133680308D01*
X181433898Y-133748429D01*
X181416995Y-133769403D01*
X179657803Y-135528595D01*
X179595491Y-135562621D01*
X179568708Y-135565500D01*
X179496999Y-135565500D01*
X179410686Y-135588627D01*
X179355966Y-135603289D01*
X179229532Y-135676286D01*
X179229522Y-135676294D01*
X179126294Y-135779522D01*
X179126286Y-135779532D01*
X179053289Y-135905966D01*
X179053288Y-135905971D01*
X179015500Y-136046999D01*
X179015500Y-136193001D01*
X179035651Y-136268207D01*
X179053289Y-136334033D01*
X179126286Y-136460467D01*
X179126294Y-136460477D01*
X179229522Y-136563705D01*
X179229527Y-136563709D01*
X179229529Y-136563711D01*
X179229530Y-136563712D01*
X179229532Y-136563713D01*
X179355966Y-136636710D01*
X179355968Y-136636710D01*
X179355971Y-136636712D01*
X179496999Y-136674500D01*
X179497001Y-136674500D01*
X179642999Y-136674500D01*
X179643001Y-136674500D01*
X179784029Y-136636712D01*
X179784032Y-136636710D01*
X179784033Y-136636710D01*
X179897723Y-136571071D01*
X179910471Y-136563711D01*
X180013711Y-136460471D01*
X180049733Y-136398079D01*
X180101115Y-136349086D01*
X180170829Y-136335650D01*
X180236740Y-136362036D01*
X180277922Y-136419868D01*
X180282226Y-136462235D01*
X180284700Y-136462235D01*
X180284700Y-136470493D01*
X180284700Y-136616495D01*
X180309368Y-136708558D01*
X180322489Y-136757527D01*
X180395486Y-136883961D01*
X180395494Y-136883971D01*
X180498722Y-136987199D01*
X180498727Y-136987203D01*
X180498729Y-136987205D01*
X180498730Y-136987206D01*
X180498732Y-136987207D01*
X180625166Y-137060204D01*
X180625168Y-137060204D01*
X180625171Y-137060206D01*
X180766199Y-137097994D01*
X180766201Y-137097994D01*
X180912199Y-137097994D01*
X180912201Y-137097994D01*
X181053229Y-137060206D01*
X181053232Y-137060204D01*
X181053233Y-137060204D01*
X181128549Y-137016720D01*
X181179671Y-136987205D01*
X181282911Y-136883965D01*
X181338499Y-136787683D01*
X181355910Y-136757527D01*
X181355910Y-136757526D01*
X181355912Y-136757523D01*
X181393700Y-136616495D01*
X181393700Y-136470493D01*
X181355912Y-136329465D01*
X181355910Y-136329462D01*
X181355910Y-136329460D01*
X181282913Y-136203026D01*
X181282905Y-136203016D01*
X181179677Y-136099788D01*
X181179667Y-136099780D01*
X181053233Y-136026783D01*
X181036572Y-136022318D01*
X180912201Y-135988994D01*
X180766199Y-135988994D01*
X180679886Y-136012121D01*
X180625166Y-136026783D01*
X180498732Y-136099780D01*
X180498722Y-136099788D01*
X180395494Y-136203016D01*
X180395486Y-136203026D01*
X180359465Y-136265416D01*
X180308082Y-136314408D01*
X180238368Y-136327843D01*
X180172458Y-136301456D01*
X180131276Y-136243623D01*
X180126994Y-136201259D01*
X180124500Y-136201259D01*
X180124500Y-136121290D01*
X180144502Y-136053169D01*
X180161400Y-136032200D01*
X180732201Y-135461399D01*
X184967100Y-135461399D01*
X184967100Y-135607401D01*
X184991108Y-135697000D01*
X185004889Y-135748433D01*
X185077886Y-135874867D01*
X185077894Y-135874877D01*
X185181122Y-135978105D01*
X185181127Y-135978109D01*
X185181129Y-135978111D01*
X185181130Y-135978112D01*
X185181132Y-135978113D01*
X185307566Y-136051110D01*
X185307568Y-136051110D01*
X185307571Y-136051112D01*
X185448599Y-136088900D01*
X185448601Y-136088900D01*
X185594599Y-136088900D01*
X185594601Y-136088900D01*
X185735629Y-136051112D01*
X185735632Y-136051110D01*
X185735633Y-136051110D01*
X185823912Y-136000142D01*
X185862071Y-135978111D01*
X185965311Y-135874871D01*
X186020355Y-135779532D01*
X186038310Y-135748433D01*
X186038310Y-135748432D01*
X186038312Y-135748429D01*
X186052093Y-135696999D01*
X190965500Y-135696999D01*
X190965500Y-135843001D01*
X190982373Y-135905971D01*
X191003289Y-135984033D01*
X191076286Y-136110467D01*
X191076294Y-136110477D01*
X191179522Y-136213705D01*
X191179527Y-136213709D01*
X191179529Y-136213711D01*
X191179530Y-136213712D01*
X191179532Y-136213713D01*
X191305966Y-136286710D01*
X191305968Y-136286710D01*
X191305971Y-136286712D01*
X191446999Y-136324500D01*
X191447001Y-136324500D01*
X191592999Y-136324500D01*
X191593001Y-136324500D01*
X191734029Y-136286712D01*
X191734032Y-136286710D01*
X191734033Y-136286710D01*
X191808662Y-136243623D01*
X191860471Y-136213711D01*
X191963711Y-136110471D01*
X192005248Y-136038527D01*
X192036710Y-135984033D01*
X192036710Y-135984032D01*
X192036712Y-135984029D01*
X192074500Y-135843001D01*
X192074500Y-135696999D01*
X192036712Y-135555971D01*
X192036710Y-135555968D01*
X192036710Y-135555966D01*
X191963713Y-135429532D01*
X191963705Y-135429522D01*
X191860477Y-135326294D01*
X191860467Y-135326286D01*
X191734033Y-135253289D01*
X191717372Y-135248824D01*
X191593001Y-135215500D01*
X191446999Y-135215500D01*
X191360686Y-135238627D01*
X191305966Y-135253289D01*
X191179532Y-135326286D01*
X191179522Y-135326294D01*
X191076294Y-135429522D01*
X191076286Y-135429532D01*
X191003289Y-135555966D01*
X190990609Y-135603289D01*
X190965500Y-135696999D01*
X186052093Y-135696999D01*
X186076100Y-135607401D01*
X186076100Y-135461399D01*
X186038312Y-135320371D01*
X186038310Y-135320368D01*
X186038310Y-135320366D01*
X185965313Y-135193932D01*
X185965305Y-135193922D01*
X185862077Y-135090694D01*
X185862067Y-135090686D01*
X185735633Y-135017689D01*
X185718972Y-135013224D01*
X185594601Y-134979900D01*
X185448599Y-134979900D01*
X185362286Y-135003027D01*
X185307566Y-135017689D01*
X185181132Y-135090686D01*
X185181122Y-135090694D01*
X185077894Y-135193922D01*
X185077886Y-135193932D01*
X185004889Y-135320366D01*
X185004888Y-135320371D01*
X184967100Y-135461399D01*
X180732201Y-135461399D01*
X182018274Y-134175325D01*
X182018284Y-134175318D01*
X182094945Y-134098657D01*
X182094951Y-134098651D01*
X182141833Y-134017450D01*
X182166100Y-133926881D01*
X182166100Y-132987448D01*
X183420467Y-132987448D01*
X183420467Y-133133450D01*
X183436382Y-133192845D01*
X183458256Y-133274482D01*
X183531253Y-133400916D01*
X183531261Y-133400926D01*
X183634489Y-133504154D01*
X183634494Y-133504158D01*
X183634496Y-133504160D01*
X183634497Y-133504161D01*
X183634499Y-133504162D01*
X183760933Y-133577159D01*
X183760935Y-133577159D01*
X183760938Y-133577161D01*
X183901966Y-133614949D01*
X183901968Y-133614949D01*
X184047966Y-133614949D01*
X184047968Y-133614949D01*
X184188996Y-133577161D01*
X184188999Y-133577159D01*
X184189000Y-133577159D01*
X184252217Y-133540660D01*
X184315438Y-133504160D01*
X184418678Y-133400920D01*
X184460143Y-133329099D01*
X184511525Y-133280107D01*
X184569262Y-133266100D01*
X189569728Y-133266100D01*
X189637849Y-133286102D01*
X189658818Y-133303000D01*
X189709529Y-133353711D01*
X189709530Y-133353712D01*
X189709532Y-133353713D01*
X189835966Y-133426710D01*
X189835968Y-133426710D01*
X189835971Y-133426712D01*
X189976999Y-133464500D01*
X189977001Y-133464500D01*
X190122999Y-133464500D01*
X190123001Y-133464500D01*
X190264029Y-133426712D01*
X190264032Y-133426710D01*
X190264033Y-133426710D01*
X190363854Y-133369078D01*
X190390471Y-133353711D01*
X190493711Y-133250471D01*
X190566712Y-133124029D01*
X190604500Y-132983001D01*
X190604500Y-132836999D01*
X190566712Y-132695971D01*
X190566710Y-132695968D01*
X190566710Y-132695966D01*
X190493713Y-132569532D01*
X190493705Y-132569522D01*
X190390477Y-132466294D01*
X190390467Y-132466286D01*
X190264033Y-132393289D01*
X190216217Y-132380477D01*
X190123001Y-132355500D01*
X189976999Y-132355500D01*
X189890686Y-132378627D01*
X189835966Y-132393289D01*
X189709532Y-132466286D01*
X189709527Y-132466290D01*
X189695351Y-132480467D01*
X189658821Y-132516996D01*
X189596512Y-132551020D01*
X189569728Y-132553900D01*
X184238595Y-132553900D01*
X184197037Y-132545634D01*
X184196973Y-132545875D01*
X184193307Y-132544892D01*
X184190382Y-132544311D01*
X184189000Y-132543738D01*
X184162778Y-132536712D01*
X184047968Y-132505949D01*
X183901966Y-132505949D01*
X183834285Y-132524084D01*
X183760933Y-132543738D01*
X183634499Y-132616735D01*
X183634489Y-132616743D01*
X183531261Y-132719971D01*
X183531253Y-132719981D01*
X183458256Y-132846415D01*
X183449068Y-132880705D01*
X183420467Y-132987448D01*
X182166100Y-132987448D01*
X182166100Y-132066999D01*
X191605500Y-132066999D01*
X191605500Y-132213001D01*
X191622373Y-132275971D01*
X191643289Y-132354033D01*
X191716286Y-132480467D01*
X191716294Y-132480477D01*
X191819522Y-132583705D01*
X191819527Y-132583709D01*
X191819529Y-132583711D01*
X191819530Y-132583712D01*
X191819532Y-132583713D01*
X191945966Y-132656710D01*
X191945968Y-132656710D01*
X191945971Y-132656712D01*
X192086999Y-132694500D01*
X192087001Y-132694500D01*
X192232999Y-132694500D01*
X192233001Y-132694500D01*
X192374029Y-132656712D01*
X192374032Y-132656710D01*
X192374033Y-132656710D01*
X192443266Y-132616738D01*
X192500471Y-132583711D01*
X192603711Y-132480471D01*
X192654046Y-132393288D01*
X192676710Y-132354033D01*
X192676710Y-132354032D01*
X192676712Y-132354029D01*
X192714500Y-132213001D01*
X192714500Y-132066999D01*
X192676712Y-131925971D01*
X192676710Y-131925968D01*
X192676710Y-131925966D01*
X192603713Y-131799532D01*
X192603705Y-131799522D01*
X192500477Y-131696294D01*
X192500467Y-131696286D01*
X192374033Y-131623289D01*
X192346076Y-131615798D01*
X192233001Y-131585500D01*
X192086999Y-131585500D01*
X192002184Y-131608226D01*
X191945966Y-131623289D01*
X191819532Y-131696286D01*
X191819522Y-131696294D01*
X191716294Y-131799522D01*
X191716286Y-131799532D01*
X191643289Y-131925966D01*
X191622162Y-132004813D01*
X191605500Y-132066999D01*
X182166100Y-132066999D01*
X182166100Y-131346999D01*
X184955500Y-131346999D01*
X184955500Y-131493001D01*
X184980285Y-131585500D01*
X184993289Y-131634033D01*
X185066286Y-131760467D01*
X185066294Y-131760477D01*
X185169522Y-131863705D01*
X185169527Y-131863709D01*
X185169529Y-131863711D01*
X185169530Y-131863712D01*
X185169532Y-131863713D01*
X185295966Y-131936710D01*
X185295968Y-131936710D01*
X185295971Y-131936712D01*
X185436999Y-131974500D01*
X185437001Y-131974500D01*
X185582999Y-131974500D01*
X185583001Y-131974500D01*
X185724029Y-131936712D01*
X185724031Y-131936710D01*
X185724033Y-131936710D01*
X185789750Y-131898768D01*
X185850471Y-131863711D01*
X185953711Y-131760471D01*
X186017923Y-131649252D01*
X186026710Y-131634033D01*
X186026710Y-131634032D01*
X186026712Y-131634029D01*
X186064500Y-131493001D01*
X186064500Y-131346999D01*
X186026712Y-131205971D01*
X186026067Y-131204854D01*
X186015366Y-131186318D01*
X185998629Y-131117323D01*
X186021850Y-131050231D01*
X186077658Y-131006344D01*
X186124486Y-130997319D01*
X186205830Y-130997319D01*
X186205832Y-130997319D01*
X186346860Y-130959531D01*
X186346863Y-130959529D01*
X186346864Y-130959529D01*
X186446642Y-130901922D01*
X186473302Y-130886530D01*
X186576542Y-130783290D01*
X186633850Y-130684029D01*
X186649541Y-130656852D01*
X186649541Y-130656851D01*
X186649543Y-130656848D01*
X186687331Y-130515820D01*
X186687331Y-130369818D01*
X186649543Y-130228790D01*
X186649541Y-130228787D01*
X186649541Y-130228785D01*
X186576544Y-130102351D01*
X186576536Y-130102341D01*
X186473308Y-129999113D01*
X186473298Y-129999105D01*
X186346864Y-129926108D01*
X186330203Y-129921643D01*
X186205832Y-129888319D01*
X186059830Y-129888319D01*
X185982684Y-129908990D01*
X185918797Y-129926108D01*
X185792363Y-129999105D01*
X185792353Y-129999113D01*
X185689125Y-130102341D01*
X185689117Y-130102351D01*
X185616120Y-130228785D01*
X185599289Y-130291602D01*
X185578331Y-130369818D01*
X185578331Y-130515820D01*
X185610244Y-130634921D01*
X185616120Y-130656851D01*
X185627465Y-130676501D01*
X185644202Y-130745496D01*
X185620981Y-130812588D01*
X185565173Y-130856475D01*
X185518345Y-130865500D01*
X185436999Y-130865500D01*
X185358536Y-130886524D01*
X185295966Y-130903289D01*
X185169532Y-130976286D01*
X185169522Y-130976294D01*
X185066294Y-131079522D01*
X185066286Y-131079532D01*
X184993289Y-131205966D01*
X184976557Y-131268412D01*
X184955500Y-131346999D01*
X182166100Y-131346999D01*
X182166100Y-130540272D01*
X182186102Y-130472151D01*
X182203000Y-130451181D01*
X182253711Y-130400471D01*
X182326712Y-130274029D01*
X182364500Y-130133001D01*
X182364500Y-129986999D01*
X182326712Y-129845971D01*
X182326710Y-129845968D01*
X182326710Y-129845966D01*
X182253713Y-129719532D01*
X182253705Y-129719522D01*
X182150477Y-129616294D01*
X182150467Y-129616286D01*
X182024034Y-129543290D01*
X182024031Y-129543289D01*
X182024029Y-129543288D01*
X181893227Y-129508240D01*
X181832605Y-129471288D01*
X181801583Y-129407427D01*
X181810012Y-129336933D01*
X181836741Y-129297440D01*
X181903711Y-129230471D01*
X181976712Y-129104029D01*
X182014500Y-128963001D01*
X182014500Y-128816999D01*
X181976712Y-128675971D01*
X181976710Y-128675968D01*
X181976710Y-128675966D01*
X181952700Y-128634380D01*
X181919185Y-128576331D01*
X186795700Y-128576331D01*
X186795700Y-128803669D01*
X186831264Y-129028208D01*
X186831265Y-129028212D01*
X186896981Y-129230467D01*
X186901515Y-129244419D01*
X187004724Y-129446978D01*
X187004726Y-129446981D01*
X187138351Y-129630900D01*
X187299099Y-129791648D01*
X187373868Y-129845971D01*
X187483022Y-129925276D01*
X187685581Y-130028485D01*
X187901792Y-130098736D01*
X188126331Y-130134300D01*
X188126334Y-130134300D01*
X188353666Y-130134300D01*
X188353669Y-130134300D01*
X188578208Y-130098736D01*
X188794419Y-130028485D01*
X188996978Y-129925276D01*
X189180898Y-129791650D01*
X189341650Y-129630898D01*
X189475276Y-129446978D01*
X189578485Y-129244419D01*
X189648736Y-129028208D01*
X189684300Y-128803669D01*
X189684300Y-128616539D01*
X190034200Y-128616539D01*
X190034200Y-128763460D01*
X190054671Y-128866374D01*
X190062860Y-128907542D01*
X190119080Y-129043269D01*
X190173615Y-129124887D01*
X190200698Y-129165419D01*
X190200703Y-129165425D01*
X190304574Y-129269296D01*
X190304580Y-129269301D01*
X190426731Y-129350920D01*
X190562458Y-129407140D01*
X190686521Y-129431817D01*
X190706539Y-129435799D01*
X190706542Y-129435799D01*
X190706545Y-129435800D01*
X190706546Y-129435800D01*
X190853454Y-129435800D01*
X190853455Y-129435800D01*
X190997542Y-129407140D01*
X191133269Y-129350920D01*
X191255420Y-129269301D01*
X191359301Y-129165420D01*
X191440920Y-129043269D01*
X191497140Y-128907542D01*
X191525800Y-128763455D01*
X191525800Y-128616545D01*
X191497140Y-128472458D01*
X191440920Y-128336731D01*
X191359301Y-128214580D01*
X191359296Y-128214574D01*
X191255425Y-128110703D01*
X191255419Y-128110698D01*
X191193648Y-128069424D01*
X191133269Y-128029080D01*
X190997542Y-127972860D01*
X190956374Y-127964671D01*
X190853460Y-127944200D01*
X190853455Y-127944200D01*
X190706545Y-127944200D01*
X190706539Y-127944200D01*
X190583041Y-127968765D01*
X190562458Y-127972860D01*
X190562455Y-127972860D01*
X190562452Y-127972862D01*
X190426731Y-128029080D01*
X190304580Y-128110698D01*
X190304574Y-128110703D01*
X190200703Y-128214574D01*
X190200698Y-128214580D01*
X190119080Y-128336731D01*
X190062862Y-128472452D01*
X190062860Y-128472459D01*
X190034200Y-128616539D01*
X189684300Y-128616539D01*
X189684300Y-128576331D01*
X189648736Y-128351792D01*
X189578485Y-128135581D01*
X189475276Y-127933022D01*
X189429425Y-127869914D01*
X189341648Y-127749099D01*
X189180900Y-127588351D01*
X188996981Y-127454726D01*
X188996980Y-127454725D01*
X188996978Y-127454724D01*
X188794419Y-127351515D01*
X188794416Y-127351514D01*
X188794414Y-127351513D01*
X188578212Y-127281265D01*
X188578210Y-127281264D01*
X188578208Y-127281264D01*
X188353669Y-127245700D01*
X188126331Y-127245700D01*
X187901792Y-127281264D01*
X187901790Y-127281264D01*
X187901787Y-127281265D01*
X187685585Y-127351513D01*
X187685579Y-127351516D01*
X187483018Y-127454726D01*
X187299099Y-127588351D01*
X187138351Y-127749099D01*
X187004726Y-127933018D01*
X186901516Y-128135579D01*
X186901513Y-128135585D01*
X186831265Y-128351787D01*
X186831264Y-128351790D01*
X186831264Y-128351792D01*
X186795700Y-128576331D01*
X181919185Y-128576331D01*
X181903713Y-128549532D01*
X181903705Y-128549522D01*
X181800477Y-128446294D01*
X181800467Y-128446286D01*
X181674033Y-128373289D01*
X181646923Y-128366025D01*
X181533001Y-128335500D01*
X181386999Y-128335500D01*
X181326215Y-128351787D01*
X181245966Y-128373289D01*
X181119532Y-128446286D01*
X181119522Y-128446294D01*
X181016294Y-128549522D01*
X181016286Y-128549532D01*
X180943289Y-128675966D01*
X180922162Y-128754813D01*
X180905500Y-128816999D01*
X180905500Y-128963001D01*
X180922972Y-129028208D01*
X180943289Y-129104033D01*
X181016286Y-129230467D01*
X181016294Y-129230477D01*
X181119522Y-129333705D01*
X181119527Y-129333709D01*
X181119529Y-129333711D01*
X181119530Y-129333712D01*
X181119532Y-129333713D01*
X181245966Y-129406710D01*
X181245968Y-129406710D01*
X181245971Y-129406712D01*
X181376772Y-129441759D01*
X181437394Y-129478711D01*
X181468415Y-129542571D01*
X181459987Y-129613066D01*
X181433256Y-129652561D01*
X181366291Y-129719526D01*
X181366286Y-129719532D01*
X181293288Y-129845969D01*
X181270737Y-129930128D01*
X181233785Y-129990751D01*
X181169924Y-130021772D01*
X181116422Y-130019223D01*
X181101725Y-130015285D01*
X181101723Y-130015285D01*
X180955721Y-130015285D01*
X180869408Y-130038412D01*
X180814688Y-130053074D01*
X180711376Y-130112722D01*
X180642380Y-130129460D01*
X180575289Y-130106239D01*
X180559281Y-130092698D01*
X180553477Y-130086894D01*
X180553467Y-130086886D01*
X180427033Y-130013889D01*
X180371887Y-129999113D01*
X180286001Y-129976100D01*
X180139999Y-129976100D01*
X180054142Y-129999105D01*
X179998966Y-130013889D01*
X179872532Y-130086886D01*
X179872521Y-130086894D01*
X179835023Y-130124393D01*
X179772711Y-130158418D01*
X179701895Y-130153352D01*
X179682929Y-130144416D01*
X179588833Y-130090089D01*
X179572172Y-130085624D01*
X179447801Y-130052300D01*
X179301799Y-130052300D01*
X179215486Y-130075427D01*
X179160766Y-130090089D01*
X179034332Y-130163086D01*
X179034326Y-130163091D01*
X178962584Y-130234833D01*
X178900271Y-130268858D01*
X178829456Y-130263792D01*
X178772620Y-130221245D01*
X178757076Y-130193945D01*
X178755676Y-130190564D01*
X178682680Y-130064132D01*
X178682672Y-130064122D01*
X178579444Y-129960894D01*
X178579434Y-129960886D01*
X178453000Y-129887889D01*
X178421893Y-129879554D01*
X178311968Y-129850100D01*
X178165966Y-129850100D01*
X178049734Y-129881243D01*
X177978758Y-129879554D01*
X177928030Y-129848633D01*
X177693044Y-129613647D01*
X177693042Y-129613646D01*
X177693040Y-129613644D01*
X177611847Y-129566767D01*
X177611845Y-129566766D01*
X177611843Y-129566765D01*
X177521274Y-129542498D01*
X177521273Y-129542498D01*
X167717017Y-129542498D01*
X167717001Y-129542497D01*
X167709283Y-129542497D01*
X167615521Y-129542497D01*
X167544091Y-129561635D01*
X167544091Y-129561636D01*
X167540046Y-129562719D01*
X167524952Y-129566764D01*
X167443751Y-129613646D01*
X167443744Y-129613652D01*
X166203803Y-130853595D01*
X166141491Y-130887620D01*
X166114708Y-130890500D01*
X166042999Y-130890500D01*
X165956686Y-130913627D01*
X165901966Y-130928289D01*
X165775532Y-131001286D01*
X165775522Y-131001294D01*
X165672294Y-131104522D01*
X165672288Y-131104530D01*
X165622851Y-131190157D01*
X165571468Y-131239150D01*
X165501754Y-131252585D01*
X165435843Y-131226198D01*
X165404613Y-131190156D01*
X165340513Y-131079132D01*
X165340505Y-131079122D01*
X165237277Y-130975894D01*
X165237267Y-130975886D01*
X165110833Y-130902889D01*
X165094172Y-130898424D01*
X164969801Y-130865100D01*
X164823799Y-130865100D01*
X164737486Y-130888227D01*
X164682766Y-130902889D01*
X164556332Y-130975886D01*
X164556322Y-130975894D01*
X164453094Y-131079122D01*
X164453086Y-131079132D01*
X164380089Y-131205566D01*
X164365189Y-131261174D01*
X164342394Y-131346251D01*
X164342300Y-131346600D01*
X164342300Y-131363281D01*
X164322298Y-131431402D01*
X164268642Y-131477895D01*
X164248911Y-131484988D01*
X164247000Y-131485500D01*
X164246999Y-131485500D01*
X164180613Y-131503288D01*
X164105966Y-131523289D01*
X163979532Y-131596286D01*
X163979522Y-131596294D01*
X163876294Y-131699522D01*
X163876286Y-131699532D01*
X163803288Y-131825969D01*
X163784385Y-131896515D01*
X163747434Y-131957138D01*
X163683573Y-131988159D01*
X163613078Y-131979729D01*
X163558332Y-131934526D01*
X163540973Y-131896517D01*
X163516712Y-131805971D01*
X163516710Y-131805968D01*
X163516710Y-131805966D01*
X163443713Y-131679532D01*
X163443705Y-131679522D01*
X163340477Y-131576294D01*
X163340467Y-131576286D01*
X163214033Y-131503289D01*
X163193670Y-131497833D01*
X163073001Y-131465500D01*
X162926999Y-131465500D01*
X162840686Y-131488627D01*
X162785966Y-131503289D01*
X162659532Y-131576286D01*
X162659522Y-131576294D01*
X162556294Y-131679522D01*
X162556286Y-131679532D01*
X162483289Y-131805966D01*
X162467924Y-131863311D01*
X162445500Y-131946999D01*
X162445500Y-132093001D01*
X162462300Y-132155700D01*
X162483289Y-132234033D01*
X162495915Y-132255901D01*
X162512653Y-132324896D01*
X162489433Y-132391988D01*
X162433625Y-132435875D01*
X162362950Y-132442624D01*
X162299846Y-132410091D01*
X162297701Y-132407996D01*
X162116559Y-132226854D01*
X162116549Y-132226846D01*
X162035356Y-132179969D01*
X162035354Y-132179968D01*
X162035352Y-132179967D01*
X161944783Y-132155700D01*
X161944782Y-132155700D01*
X157451092Y-132155700D01*
X157421176Y-132146916D01*
X157390707Y-132140288D01*
X157385611Y-132136473D01*
X157382971Y-132135698D01*
X157361997Y-132118795D01*
X157305397Y-132062195D01*
X157271371Y-131999883D01*
X157276436Y-131929068D01*
X157318983Y-131872232D01*
X157385503Y-131847421D01*
X157394492Y-131847100D01*
X157400599Y-131847100D01*
X157400601Y-131847100D01*
X157541629Y-131809312D01*
X157541632Y-131809310D01*
X157541633Y-131809310D01*
X157631282Y-131757551D01*
X157668071Y-131736311D01*
X157771311Y-131633071D01*
X157818353Y-131551591D01*
X157844310Y-131506633D01*
X157844310Y-131506632D01*
X157844312Y-131506629D01*
X157882100Y-131365601D01*
X157882100Y-131219599D01*
X157844312Y-131078571D01*
X157844310Y-131078568D01*
X157844310Y-131078566D01*
X157771313Y-130952132D01*
X157771305Y-130952122D01*
X157668077Y-130848894D01*
X157668067Y-130848886D01*
X157541737Y-130775949D01*
X158601900Y-130775949D01*
X158601900Y-130921951D01*
X158629378Y-131024500D01*
X158639689Y-131062983D01*
X158712686Y-131189417D01*
X158712694Y-131189427D01*
X158815922Y-131292655D01*
X158815927Y-131292659D01*
X158815929Y-131292661D01*
X158815930Y-131292662D01*
X158815932Y-131292663D01*
X158942366Y-131365660D01*
X158942368Y-131365660D01*
X158942371Y-131365662D01*
X159083399Y-131403450D01*
X159083401Y-131403450D01*
X159229399Y-131403450D01*
X159229401Y-131403450D01*
X159370429Y-131365662D01*
X159370432Y-131365660D01*
X159370433Y-131365660D01*
X159433650Y-131329161D01*
X159496871Y-131292661D01*
X159600111Y-131189421D01*
X159649127Y-131104522D01*
X159673110Y-131062983D01*
X159673110Y-131062982D01*
X159673112Y-131062979D01*
X159710900Y-130921951D01*
X159710900Y-130775949D01*
X159673112Y-130634921D01*
X159673110Y-130634918D01*
X159673110Y-130634916D01*
X159600113Y-130508482D01*
X159600105Y-130508472D01*
X159496877Y-130405244D01*
X159496867Y-130405236D01*
X159370433Y-130332239D01*
X159350869Y-130326997D01*
X159229401Y-130294450D01*
X159083399Y-130294450D01*
X158997086Y-130317577D01*
X158942366Y-130332239D01*
X158815932Y-130405236D01*
X158815922Y-130405244D01*
X158712694Y-130508472D01*
X158712686Y-130508482D01*
X158639689Y-130634916D01*
X158622753Y-130698122D01*
X158601900Y-130775949D01*
X157541737Y-130775949D01*
X157541633Y-130775889D01*
X157508790Y-130767089D01*
X157400601Y-130738100D01*
X157254599Y-130738100D01*
X157168286Y-130761227D01*
X157113566Y-130775889D01*
X156987132Y-130848886D01*
X156987122Y-130848894D01*
X156883894Y-130952122D01*
X156883886Y-130952132D01*
X156810889Y-131078566D01*
X156808765Y-131086495D01*
X156802039Y-131111599D01*
X156801607Y-131113210D01*
X156764655Y-131173833D01*
X156700794Y-131204854D01*
X156630300Y-131196426D01*
X156575553Y-131151223D01*
X156558193Y-131113210D01*
X156557762Y-131111601D01*
X156548912Y-131078571D01*
X156548910Y-131078568D01*
X156548910Y-131078566D01*
X156475913Y-130952132D01*
X156475905Y-130952122D01*
X156372677Y-130848894D01*
X156372667Y-130848886D01*
X156246233Y-130775889D01*
X156213390Y-130767089D01*
X156105201Y-130738100D01*
X155959199Y-130738100D01*
X155872886Y-130761227D01*
X155818166Y-130775889D01*
X155691732Y-130848886D01*
X155691722Y-130848894D01*
X155638695Y-130901922D01*
X155576383Y-130935948D01*
X155505568Y-130930883D01*
X155460505Y-130901922D01*
X155407477Y-130848894D01*
X155407467Y-130848886D01*
X155281033Y-130775889D01*
X155248190Y-130767089D01*
X155140001Y-130738100D01*
X154993999Y-130738100D01*
X154907686Y-130761227D01*
X154852966Y-130775889D01*
X154726532Y-130848886D01*
X154726522Y-130848894D01*
X154623294Y-130952122D01*
X154623286Y-130952132D01*
X154550289Y-131078566D01*
X154538247Y-131123510D01*
X154512500Y-131219599D01*
X154512500Y-131365601D01*
X154534623Y-131448166D01*
X154550289Y-131506633D01*
X154623286Y-131633067D01*
X154623294Y-131633077D01*
X154726522Y-131736305D01*
X154726527Y-131736309D01*
X154726529Y-131736311D01*
X154726530Y-131736312D01*
X154726532Y-131736313D01*
X154852966Y-131809310D01*
X154852968Y-131809310D01*
X154852971Y-131809312D01*
X154993999Y-131847100D01*
X154994001Y-131847100D01*
X155139999Y-131847100D01*
X155140001Y-131847100D01*
X155281029Y-131809312D01*
X155281032Y-131809310D01*
X155281033Y-131809310D01*
X155370682Y-131757551D01*
X155407471Y-131736311D01*
X155416277Y-131727505D01*
X155460505Y-131683278D01*
X155522817Y-131649252D01*
X155593632Y-131654317D01*
X155638695Y-131683278D01*
X155691722Y-131736305D01*
X155691727Y-131736309D01*
X155691729Y-131736311D01*
X155691730Y-131736312D01*
X155691732Y-131736313D01*
X155818166Y-131809310D01*
X155818168Y-131809310D01*
X155818171Y-131809312D01*
X155959199Y-131847100D01*
X156030907Y-131847100D01*
X156099028Y-131867102D01*
X156120002Y-131884004D01*
X156962043Y-132726044D01*
X156962064Y-132726067D01*
X157032747Y-132796750D01*
X157032750Y-132796752D01*
X157095532Y-132833000D01*
X157102461Y-132837000D01*
X157113950Y-132843633D01*
X157204519Y-132867900D01*
X157298281Y-132867900D01*
X161698210Y-132867900D01*
X161766331Y-132887902D01*
X161787305Y-132904805D01*
X162578151Y-133695651D01*
X162644451Y-133761951D01*
X162644452Y-133761952D01*
X162644454Y-133761953D01*
X162670516Y-133777000D01*
X162725652Y-133808833D01*
X162816221Y-133833100D01*
X162816223Y-133833100D01*
X168339879Y-133833100D01*
X168339881Y-133833100D01*
X168430450Y-133808833D01*
X168511651Y-133761951D01*
X168822198Y-133451403D01*
X168884509Y-133417380D01*
X168911292Y-133414500D01*
X168982999Y-133414500D01*
X168983001Y-133414500D01*
X169124029Y-133376712D01*
X169124032Y-133376710D01*
X169124033Y-133376710D01*
X169206494Y-133329101D01*
X169250471Y-133303711D01*
X169353711Y-133200471D01*
X169401908Y-133116991D01*
X169426710Y-133074033D01*
X169426710Y-133074032D01*
X169426712Y-133074029D01*
X169464500Y-132933001D01*
X169464500Y-132786999D01*
X169426712Y-132645971D01*
X169426710Y-132645968D01*
X169426710Y-132645966D01*
X169353713Y-132519532D01*
X169353705Y-132519522D01*
X169250477Y-132416294D01*
X169250467Y-132416286D01*
X169124033Y-132343289D01*
X169107372Y-132338824D01*
X168983001Y-132305500D01*
X168836999Y-132305500D01*
X168750686Y-132328627D01*
X168695966Y-132343289D01*
X168569532Y-132416286D01*
X168569522Y-132416294D01*
X168466294Y-132519522D01*
X168466286Y-132519532D01*
X168393289Y-132645966D01*
X168355500Y-132787000D01*
X168355500Y-132858708D01*
X168335498Y-132926829D01*
X168318595Y-132947803D01*
X168182403Y-133083995D01*
X168120091Y-133118021D01*
X168093308Y-133120900D01*
X168002898Y-133120900D01*
X167934777Y-133100898D01*
X167888284Y-133047242D01*
X167878180Y-132976968D01*
X167907674Y-132912388D01*
X167939897Y-132885782D01*
X167948689Y-132880705D01*
X167948688Y-132880705D01*
X167948696Y-132880701D01*
X168051936Y-132777461D01*
X168088436Y-132714240D01*
X168124935Y-132651023D01*
X168124935Y-132651022D01*
X168124937Y-132651019D01*
X168162725Y-132509991D01*
X168162725Y-132363989D01*
X168124937Y-132222961D01*
X168124935Y-132222958D01*
X168124935Y-132222956D01*
X168051938Y-132096522D01*
X168051930Y-132096512D01*
X167948702Y-131993284D01*
X167948692Y-131993276D01*
X167883724Y-131955767D01*
X167857820Y-131928599D01*
X171082432Y-131928599D01*
X171082432Y-132074601D01*
X171110665Y-132179969D01*
X171120221Y-132215633D01*
X171193218Y-132342067D01*
X171193226Y-132342077D01*
X171296454Y-132445305D01*
X171296459Y-132445309D01*
X171296461Y-132445311D01*
X171296462Y-132445312D01*
X171296464Y-132445313D01*
X171422898Y-132518310D01*
X171422900Y-132518310D01*
X171422903Y-132518312D01*
X171563931Y-132556100D01*
X171563933Y-132556100D01*
X171709931Y-132556100D01*
X171709933Y-132556100D01*
X171850961Y-132518312D01*
X171850964Y-132518310D01*
X171850965Y-132518310D01*
X171941073Y-132466286D01*
X171977403Y-132445311D01*
X172080643Y-132342071D01*
X172131474Y-132254029D01*
X172153642Y-132215633D01*
X172153642Y-132215632D01*
X172153644Y-132215629D01*
X172191432Y-132074601D01*
X172191432Y-131928599D01*
X172153644Y-131787571D01*
X172153642Y-131787568D01*
X172153642Y-131787566D01*
X172080645Y-131661132D01*
X172080637Y-131661122D01*
X171977409Y-131557894D01*
X171977399Y-131557886D01*
X171850965Y-131484889D01*
X171834304Y-131480424D01*
X171709933Y-131447100D01*
X171563931Y-131447100D01*
X171484527Y-131468376D01*
X171422898Y-131484889D01*
X171296464Y-131557886D01*
X171296454Y-131557894D01*
X171193226Y-131661122D01*
X171193218Y-131661132D01*
X171120221Y-131787566D01*
X171102688Y-131853001D01*
X171082432Y-131928599D01*
X167857820Y-131928599D01*
X167834731Y-131904384D01*
X167821295Y-131834671D01*
X167847681Y-131768760D01*
X167857622Y-131757559D01*
X167880511Y-131734671D01*
X167953512Y-131608229D01*
X167976875Y-131521032D01*
X168013825Y-131460413D01*
X168077685Y-131429391D01*
X168148180Y-131437819D01*
X168202927Y-131483021D01*
X168214989Y-131505427D01*
X168215486Y-131506626D01*
X168288486Y-131633067D01*
X168288494Y-131633077D01*
X168391722Y-131736305D01*
X168391727Y-131736309D01*
X168391729Y-131736311D01*
X168391730Y-131736312D01*
X168391732Y-131736313D01*
X168518166Y-131809310D01*
X168518168Y-131809310D01*
X168518171Y-131809312D01*
X168659199Y-131847100D01*
X168659201Y-131847100D01*
X168805199Y-131847100D01*
X168805201Y-131847100D01*
X168946229Y-131809312D01*
X168946232Y-131809310D01*
X168946233Y-131809310D01*
X169035882Y-131757551D01*
X169072671Y-131736311D01*
X169175911Y-131633071D01*
X169204709Y-131583190D01*
X169256091Y-131534198D01*
X169325804Y-131520761D01*
X169391715Y-131547148D01*
X169422947Y-131583191D01*
X169446662Y-131624267D01*
X169446670Y-131624277D01*
X169549898Y-131727505D01*
X169549903Y-131727509D01*
X169549905Y-131727511D01*
X169549906Y-131727512D01*
X169549908Y-131727513D01*
X169676342Y-131800510D01*
X169676344Y-131800510D01*
X169676347Y-131800512D01*
X169817375Y-131838300D01*
X169817377Y-131838300D01*
X169963375Y-131838300D01*
X169963377Y-131838300D01*
X170104405Y-131800512D01*
X170104408Y-131800510D01*
X170104409Y-131800510D01*
X170215601Y-131736313D01*
X170230847Y-131727511D01*
X170334087Y-131624271D01*
X170372410Y-131557894D01*
X170407086Y-131497833D01*
X170407086Y-131497832D01*
X170407088Y-131497829D01*
X170444876Y-131356801D01*
X170444876Y-131210799D01*
X170407088Y-131069771D01*
X170407086Y-131069768D01*
X170407086Y-131069766D01*
X170334089Y-130943332D01*
X170334081Y-130943322D01*
X170230853Y-130840094D01*
X170230843Y-130840086D01*
X170104409Y-130767089D01*
X170087748Y-130762624D01*
X169963377Y-130729300D01*
X169817375Y-130729300D01*
X169733000Y-130751908D01*
X169676342Y-130767089D01*
X169549908Y-130840086D01*
X169549898Y-130840094D01*
X169446670Y-130943322D01*
X169446662Y-130943332D01*
X169417865Y-130993210D01*
X169366482Y-131042202D01*
X169296768Y-131055637D01*
X169230857Y-131029250D01*
X169199628Y-130993208D01*
X169175913Y-130952132D01*
X169175905Y-130952122D01*
X169072677Y-130848894D01*
X169072667Y-130848886D01*
X168946233Y-130775889D01*
X168913390Y-130767089D01*
X168805201Y-130738100D01*
X168659199Y-130738100D01*
X168572886Y-130761227D01*
X168518166Y-130775889D01*
X168391732Y-130848886D01*
X168391722Y-130848894D01*
X168288494Y-130952122D01*
X168288486Y-130952132D01*
X168215490Y-131078565D01*
X168215488Y-131078569D01*
X168215488Y-131078571D01*
X168193321Y-131161300D01*
X168192125Y-131165765D01*
X168155173Y-131226387D01*
X168091312Y-131257409D01*
X168020818Y-131248980D01*
X167966071Y-131203777D01*
X167954007Y-131181365D01*
X167953511Y-131180169D01*
X167880513Y-131053732D01*
X167880505Y-131053722D01*
X167777277Y-130950494D01*
X167777267Y-130950486D01*
X167650833Y-130877489D01*
X167604596Y-130865100D01*
X167509801Y-130839700D01*
X167509800Y-130839700D01*
X167501824Y-130837563D01*
X167502273Y-130835886D01*
X167446427Y-130811176D01*
X167407340Y-130751908D01*
X167406501Y-130680916D01*
X167438710Y-130625890D01*
X167773000Y-130291602D01*
X167835312Y-130257577D01*
X167862095Y-130254698D01*
X175370559Y-130254698D01*
X175438680Y-130274700D01*
X175485173Y-130328356D01*
X175494222Y-130388741D01*
X175495500Y-130388741D01*
X175495500Y-130396999D01*
X175495500Y-130543001D01*
X175515764Y-130618629D01*
X175533289Y-130684033D01*
X175606286Y-130810467D01*
X175606294Y-130810477D01*
X175709522Y-130913705D01*
X175709527Y-130913709D01*
X175709529Y-130913711D01*
X175709530Y-130913712D01*
X175709532Y-130913713D01*
X175835966Y-130986710D01*
X175835968Y-130986710D01*
X175835971Y-130986712D01*
X175976999Y-131024500D01*
X175977001Y-131024500D01*
X176122999Y-131024500D01*
X176123001Y-131024500D01*
X176264029Y-130986712D01*
X176264032Y-130986710D01*
X176264033Y-130986710D01*
X176365221Y-130928289D01*
X176390471Y-130913711D01*
X176493711Y-130810471D01*
X176558570Y-130698132D01*
X176566710Y-130684033D01*
X176566710Y-130684032D01*
X176566712Y-130684029D01*
X176604500Y-130543001D01*
X176604500Y-130396999D01*
X176604500Y-130388741D01*
X176605830Y-130388741D01*
X176615458Y-130326997D01*
X176662585Y-130273898D01*
X176729441Y-130254698D01*
X177274701Y-130254698D01*
X177304616Y-130263481D01*
X177335086Y-130270110D01*
X177340181Y-130273924D01*
X177342822Y-130274700D01*
X177363795Y-130291602D01*
X177486910Y-130414717D01*
X177520936Y-130477029D01*
X177515871Y-130547844D01*
X177486910Y-130592907D01*
X177381694Y-130698122D01*
X177381686Y-130698132D01*
X177308689Y-130824566D01*
X177287962Y-130901922D01*
X177270900Y-130965599D01*
X177270900Y-131111601D01*
X177308688Y-131252629D01*
X177308689Y-131252630D01*
X177310826Y-131260606D01*
X177308706Y-131261174D01*
X177315053Y-131320289D01*
X177283265Y-131383771D01*
X177222202Y-131419990D01*
X177191058Y-131423900D01*
X177043119Y-131423900D01*
X176952553Y-131448166D01*
X176952545Y-131448169D01*
X176871352Y-131495046D01*
X176871347Y-131495050D01*
X176852820Y-131513578D01*
X176805049Y-131561349D01*
X176805047Y-131561351D01*
X173800572Y-134565824D01*
X173738260Y-134599850D01*
X173667444Y-134594785D01*
X173610609Y-134552238D01*
X173602358Y-134539729D01*
X173583115Y-134506399D01*
X173583107Y-134506389D01*
X173479879Y-134403161D01*
X173479869Y-134403153D01*
X173353435Y-134330156D01*
X173336774Y-134325691D01*
X173212403Y-134292367D01*
X173066401Y-134292367D01*
X172925373Y-134330155D01*
X172925371Y-134330155D01*
X172925367Y-134330157D01*
X172879402Y-134356694D01*
X172810406Y-134373431D01*
X172743315Y-134350209D01*
X172727309Y-134336669D01*
X172726575Y-134335935D01*
X172726565Y-134335927D01*
X172600131Y-134262930D01*
X172559477Y-134252037D01*
X172459099Y-134225141D01*
X172313097Y-134225141D01*
X172226784Y-134248268D01*
X172172064Y-134262930D01*
X172045630Y-134335927D01*
X172045620Y-134335935D01*
X171942392Y-134439163D01*
X171942384Y-134439173D01*
X171869387Y-134565607D01*
X171869386Y-134565612D01*
X171831598Y-134706640D01*
X171831598Y-134852642D01*
X171864922Y-134977013D01*
X171869387Y-134993674D01*
X171886030Y-135022500D01*
X171902768Y-135091496D01*
X171879547Y-135158588D01*
X171823740Y-135202475D01*
X171776911Y-135211500D01*
X145825519Y-135211500D01*
X145734953Y-135235766D01*
X145734945Y-135235769D01*
X145653752Y-135282646D01*
X145653742Y-135282654D01*
X141366203Y-139570195D01*
X141303891Y-139604221D01*
X141277108Y-139607100D01*
X141196400Y-139607100D01*
X141122132Y-139627000D01*
X141055367Y-139644889D01*
X140928933Y-139717886D01*
X140928923Y-139717894D01*
X140825695Y-139821122D01*
X140825687Y-139821132D01*
X140752690Y-139947566D01*
X140731563Y-140026413D01*
X140714901Y-140088599D01*
X139040103Y-140088599D01*
X139049775Y-140083015D01*
X139092323Y-140040467D01*
X139141545Y-139991246D01*
X139153009Y-139979781D01*
X139153015Y-139979775D01*
X139190973Y-139914029D01*
X139226014Y-139853337D01*
X139226014Y-139853336D01*
X139226016Y-139853333D01*
X139263804Y-139712305D01*
X139263804Y-139566303D01*
X139226016Y-139425275D01*
X139226014Y-139425272D01*
X139226014Y-139425270D01*
X139153017Y-139298836D01*
X139153009Y-139298826D01*
X139049781Y-139195598D01*
X139049771Y-139195590D01*
X138923337Y-139122593D01*
X138896865Y-139115500D01*
X138782305Y-139084804D01*
X138636303Y-139084804D01*
X138549990Y-139107931D01*
X138495270Y-139122593D01*
X138368836Y-139195590D01*
X138368826Y-139195598D01*
X138265598Y-139298826D01*
X138265590Y-139298836D01*
X138192593Y-139425270D01*
X138176330Y-139485966D01*
X138154804Y-139566303D01*
X137336275Y-139566303D01*
X137306712Y-139455971D01*
X137306710Y-139455968D01*
X137306710Y-139455966D01*
X137233713Y-139329532D01*
X137233705Y-139329522D01*
X137130477Y-139226294D01*
X137130467Y-139226286D01*
X137004033Y-139153289D01*
X136987372Y-139148824D01*
X136863001Y-139115500D01*
X136716999Y-139115500D01*
X136630686Y-139138627D01*
X136575966Y-139153289D01*
X136449532Y-139226286D01*
X136449522Y-139226294D01*
X136346294Y-139329522D01*
X136346286Y-139329532D01*
X136273289Y-139455966D01*
X136263718Y-139491688D01*
X136235500Y-139596999D01*
X116463233Y-139596999D01*
X121993233Y-134066999D01*
X149155500Y-134066999D01*
X149155500Y-134213001D01*
X149177126Y-134293711D01*
X149193289Y-134354033D01*
X149266286Y-134480467D01*
X149266294Y-134480477D01*
X149369522Y-134583705D01*
X149369527Y-134583709D01*
X149369529Y-134583711D01*
X149369530Y-134583712D01*
X149369532Y-134583713D01*
X149495966Y-134656710D01*
X149495968Y-134656710D01*
X149495971Y-134656712D01*
X149636999Y-134694500D01*
X149637001Y-134694500D01*
X149782999Y-134694500D01*
X149783001Y-134694500D01*
X149924029Y-134656712D01*
X149924032Y-134656710D01*
X149924033Y-134656710D01*
X150031290Y-134594785D01*
X150050471Y-134583711D01*
X150153711Y-134480471D01*
X150198350Y-134403153D01*
X150226710Y-134354033D01*
X150226710Y-134354032D01*
X150226712Y-134354029D01*
X150264500Y-134213001D01*
X150264500Y-134066999D01*
X150226712Y-133925971D01*
X150226710Y-133925968D01*
X150226710Y-133925966D01*
X150172309Y-133831741D01*
X150153713Y-133799532D01*
X150153705Y-133799522D01*
X150131182Y-133776999D01*
X151085500Y-133776999D01*
X151085500Y-133923001D01*
X151118824Y-134047372D01*
X151123289Y-134064033D01*
X151196286Y-134190467D01*
X151196294Y-134190477D01*
X151299522Y-134293705D01*
X151299527Y-134293709D01*
X151299529Y-134293711D01*
X151299530Y-134293712D01*
X151299532Y-134293713D01*
X151425966Y-134366710D01*
X151425968Y-134366710D01*
X151425971Y-134366712D01*
X151566999Y-134404500D01*
X151567001Y-134404500D01*
X151712999Y-134404500D01*
X151713001Y-134404500D01*
X151854029Y-134366712D01*
X151854032Y-134366710D01*
X151854033Y-134366710D01*
X151917348Y-134330155D01*
X151980471Y-134293711D01*
X152031178Y-134243003D01*
X152093488Y-134208980D01*
X152120272Y-134206100D01*
X158919500Y-134206100D01*
X158987621Y-134226102D01*
X159034114Y-134279758D01*
X159045500Y-134332100D01*
X159045500Y-134337557D01*
X159063437Y-134404500D01*
X159083289Y-134478589D01*
X159156286Y-134605023D01*
X159156294Y-134605033D01*
X159259522Y-134708261D01*
X159259527Y-134708265D01*
X159259529Y-134708267D01*
X159259530Y-134708268D01*
X159259532Y-134708269D01*
X159385966Y-134781266D01*
X159385968Y-134781266D01*
X159385971Y-134781268D01*
X159526999Y-134819056D01*
X159527001Y-134819056D01*
X159672999Y-134819056D01*
X159673001Y-134819056D01*
X159814029Y-134781268D01*
X159814032Y-134781266D01*
X159814033Y-134781266D01*
X159877250Y-134744767D01*
X159940471Y-134708267D01*
X160043711Y-134605027D01*
X160100654Y-134506399D01*
X160116710Y-134478589D01*
X160116710Y-134478588D01*
X160116712Y-134478585D01*
X160149171Y-134357444D01*
X160186123Y-134296822D01*
X160249984Y-134265801D01*
X160270878Y-134264056D01*
X160419111Y-134264056D01*
X160419113Y-134264056D01*
X160560141Y-134226268D01*
X160560144Y-134226266D01*
X160560145Y-134226266D01*
X160623362Y-134189767D01*
X160686583Y-134153267D01*
X160789823Y-134050027D01*
X160826323Y-133986806D01*
X160862822Y-133923589D01*
X160862822Y-133923588D01*
X160862824Y-133923585D01*
X160900612Y-133782557D01*
X160900612Y-133636555D01*
X160862824Y-133495527D01*
X160862822Y-133495524D01*
X160862822Y-133495522D01*
X160789825Y-133369088D01*
X160789817Y-133369078D01*
X160686589Y-133265850D01*
X160686579Y-133265842D01*
X160560145Y-133192845D01*
X160543484Y-133188380D01*
X160419113Y-133155056D01*
X160273111Y-133155056D01*
X160186798Y-133178183D01*
X160132078Y-133192845D01*
X160005644Y-133265842D01*
X160005634Y-133265850D01*
X159902406Y-133369078D01*
X159902398Y-133369088D01*
X159829401Y-133495522D01*
X159796941Y-133616667D01*
X159782212Y-133640830D01*
X159770458Y-133666568D01*
X159763991Y-133670723D01*
X159759989Y-133677290D01*
X159734535Y-133689654D01*
X159710732Y-133704952D01*
X159699810Y-133706522D01*
X159696128Y-133708311D01*
X159675234Y-133710056D01*
X159601292Y-133710056D01*
X159533171Y-133690054D01*
X159512201Y-133673155D01*
X159404095Y-133565049D01*
X159404094Y-133565048D01*
X159404091Y-133565046D01*
X159322898Y-133518169D01*
X159322896Y-133518168D01*
X159322894Y-133518167D01*
X159232325Y-133493900D01*
X159232324Y-133493900D01*
X152120272Y-133493900D01*
X152052151Y-133473898D01*
X152031181Y-133456999D01*
X151980471Y-133406289D01*
X151980470Y-133406288D01*
X151980467Y-133406286D01*
X151854033Y-133333289D01*
X151837372Y-133328824D01*
X151713001Y-133295500D01*
X151566999Y-133295500D01*
X151480686Y-133318627D01*
X151425966Y-133333289D01*
X151299532Y-133406286D01*
X151299522Y-133406294D01*
X151196294Y-133509522D01*
X151196286Y-133509532D01*
X151123289Y-133635966D01*
X151113976Y-133670723D01*
X151085500Y-133776999D01*
X150131182Y-133776999D01*
X150050477Y-133696294D01*
X150050467Y-133696286D01*
X149924033Y-133623289D01*
X149892907Y-133614949D01*
X149783001Y-133585500D01*
X149636999Y-133585500D01*
X149550686Y-133608627D01*
X149495966Y-133623289D01*
X149369532Y-133696286D01*
X149369522Y-133696294D01*
X149266294Y-133799522D01*
X149266286Y-133799532D01*
X149193289Y-133925966D01*
X149174171Y-133997319D01*
X149155500Y-134066999D01*
X121993233Y-134066999D01*
X122337977Y-133722255D01*
X122350343Y-133711409D01*
X122435867Y-133645784D01*
X122464336Y-133629347D01*
X122556222Y-133591287D01*
X122587980Y-133582778D01*
X122678903Y-133570808D01*
X122694833Y-133568711D01*
X122711279Y-133567633D01*
X144154600Y-133567633D01*
X145325234Y-132396999D01*
X150415500Y-132396999D01*
X150415500Y-132543001D01*
X150446846Y-132659986D01*
X150453289Y-132684033D01*
X150526286Y-132810467D01*
X150526294Y-132810477D01*
X150629522Y-132913705D01*
X150629527Y-132913709D01*
X150629529Y-132913711D01*
X150629530Y-132913712D01*
X150629532Y-132913713D01*
X150755966Y-132986710D01*
X150755968Y-132986710D01*
X150755971Y-132986712D01*
X150896999Y-133024500D01*
X150897001Y-133024500D01*
X151042999Y-133024500D01*
X151043001Y-133024500D01*
X151184029Y-132986712D01*
X151184032Y-132986710D01*
X151184033Y-132986710D01*
X151275840Y-132933705D01*
X151310471Y-132913711D01*
X151413711Y-132810471D01*
X151459912Y-132730448D01*
X151486710Y-132684033D01*
X151486710Y-132684032D01*
X151486712Y-132684029D01*
X151524500Y-132543001D01*
X151524500Y-132416999D01*
X152285500Y-132416999D01*
X152285500Y-132563001D01*
X152293940Y-132594500D01*
X152323289Y-132704033D01*
X152396286Y-132830467D01*
X152396294Y-132830477D01*
X152499522Y-132933705D01*
X152499527Y-132933709D01*
X152499529Y-132933711D01*
X152499530Y-132933712D01*
X152499532Y-132933713D01*
X152625966Y-133006710D01*
X152625968Y-133006710D01*
X152625971Y-133006712D01*
X152766999Y-133044500D01*
X152767001Y-133044500D01*
X152912999Y-133044500D01*
X152913001Y-133044500D01*
X153054029Y-133006712D01*
X153054032Y-133006710D01*
X153054033Y-133006710D01*
X153174488Y-132937165D01*
X153180471Y-132933711D01*
X153283711Y-132830471D01*
X153341459Y-132730448D01*
X153356710Y-132704033D01*
X153356710Y-132704032D01*
X153356712Y-132704029D01*
X153394500Y-132563001D01*
X153394500Y-132416999D01*
X153356712Y-132275971D01*
X153356710Y-132275968D01*
X153356710Y-132275966D01*
X153283713Y-132149532D01*
X153283705Y-132149522D01*
X153180477Y-132046294D01*
X153180467Y-132046286D01*
X153054033Y-131973289D01*
X153010819Y-131961710D01*
X152913001Y-131935500D01*
X152766999Y-131935500D01*
X152700613Y-131953288D01*
X152625966Y-131973289D01*
X152499532Y-132046286D01*
X152499522Y-132046294D01*
X152396294Y-132149522D01*
X152396286Y-132149532D01*
X152323289Y-132275966D01*
X152323288Y-132275971D01*
X152285500Y-132416999D01*
X151524500Y-132416999D01*
X151524500Y-132396999D01*
X151486712Y-132255971D01*
X151486710Y-132255968D01*
X151486710Y-132255966D01*
X151413713Y-132129532D01*
X151413705Y-132129522D01*
X151310477Y-132026294D01*
X151310467Y-132026286D01*
X151184033Y-131953289D01*
X151160558Y-131946999D01*
X151043001Y-131915500D01*
X150896999Y-131915500D01*
X150817834Y-131936712D01*
X150755966Y-131953289D01*
X150629532Y-132026286D01*
X150629522Y-132026294D01*
X150526294Y-132129522D01*
X150526286Y-132129532D01*
X150453289Y-132255966D01*
X150453288Y-132255971D01*
X150415500Y-132396999D01*
X145325234Y-132396999D01*
X145422587Y-132299646D01*
X147213761Y-130508472D01*
X149063977Y-128658255D01*
X149076343Y-128647409D01*
X149161867Y-128581784D01*
X149190336Y-128565347D01*
X149282222Y-128527287D01*
X149313980Y-128518778D01*
X149404903Y-128506808D01*
X149420833Y-128504711D01*
X149437279Y-128503633D01*
X170565188Y-128503633D01*
X170565190Y-128503633D01*
X170703480Y-128366029D01*
X170703486Y-128366025D01*
X170713824Y-128355738D01*
X170713825Y-128355738D01*
X170903508Y-128166999D01*
X172335500Y-128166999D01*
X172335500Y-128313001D01*
X172349708Y-128366025D01*
X172373289Y-128454033D01*
X172446286Y-128580467D01*
X172446294Y-128580477D01*
X172549522Y-128683705D01*
X172549527Y-128683709D01*
X172549529Y-128683711D01*
X172549530Y-128683712D01*
X172549532Y-128683713D01*
X172675966Y-128756710D01*
X172675968Y-128756710D01*
X172675971Y-128756712D01*
X172816999Y-128794500D01*
X172817001Y-128794500D01*
X172962999Y-128794500D01*
X172963001Y-128794500D01*
X173104029Y-128756712D01*
X173104032Y-128756710D01*
X173104033Y-128756710D01*
X173167250Y-128720211D01*
X173230471Y-128683711D01*
X173333711Y-128580471D01*
X173378073Y-128503633D01*
X173406710Y-128454033D01*
X173406710Y-128454032D01*
X173406712Y-128454029D01*
X173444500Y-128313001D01*
X173444500Y-128166999D01*
X173406712Y-128025971D01*
X173406710Y-128025968D01*
X173406710Y-128025966D01*
X173333713Y-127899532D01*
X173333705Y-127899522D01*
X173230477Y-127796294D01*
X173230467Y-127796286D01*
X173181231Y-127767860D01*
X173104033Y-127723289D01*
X173087372Y-127718824D01*
X172963001Y-127685500D01*
X172816999Y-127685500D01*
X172730686Y-127708627D01*
X172675966Y-127723289D01*
X172549532Y-127796286D01*
X172549522Y-127796294D01*
X172446294Y-127899522D01*
X172446286Y-127899532D01*
X172373289Y-128025966D01*
X172372744Y-128028000D01*
X172335500Y-128166999D01*
X170903508Y-128166999D01*
X170960090Y-128110698D01*
X171001571Y-128069424D01*
X171406008Y-127666999D01*
X174985500Y-127666999D01*
X174985500Y-127813001D01*
X175005319Y-127886966D01*
X175023289Y-127954033D01*
X175096286Y-128080467D01*
X175096294Y-128080477D01*
X175199522Y-128183705D01*
X175199527Y-128183709D01*
X175199529Y-128183711D01*
X175199530Y-128183712D01*
X175199532Y-128183713D01*
X175325966Y-128256710D01*
X175325968Y-128256710D01*
X175325971Y-128256712D01*
X175466999Y-128294500D01*
X175467001Y-128294500D01*
X175612999Y-128294500D01*
X175613001Y-128294500D01*
X175754029Y-128256712D01*
X175754032Y-128256710D01*
X175754033Y-128256710D01*
X175827014Y-128214574D01*
X175880471Y-128183711D01*
X175983711Y-128080471D01*
X176004245Y-128044904D01*
X176014005Y-128027999D01*
X179074300Y-128027999D01*
X179074300Y-128174001D01*
X179085173Y-128214580D01*
X179112089Y-128315033D01*
X179185086Y-128441467D01*
X179185094Y-128441477D01*
X179288322Y-128544705D01*
X179288327Y-128544709D01*
X179288329Y-128544711D01*
X179288330Y-128544712D01*
X179288332Y-128544713D01*
X179414766Y-128617710D01*
X179414768Y-128617710D01*
X179414771Y-128617712D01*
X179555799Y-128655500D01*
X179555801Y-128655500D01*
X179701799Y-128655500D01*
X179701801Y-128655500D01*
X179842829Y-128617712D01*
X179842832Y-128617710D01*
X179842833Y-128617710D01*
X179933528Y-128565347D01*
X179969271Y-128544711D01*
X180072511Y-128441471D01*
X180124290Y-128351787D01*
X180145510Y-128315033D01*
X180145510Y-128315032D01*
X180145512Y-128315029D01*
X180183300Y-128174001D01*
X180183300Y-128027999D01*
X180145512Y-127886971D01*
X180145510Y-127886968D01*
X180145510Y-127886966D01*
X180072513Y-127760532D01*
X180072505Y-127760522D01*
X179969277Y-127657294D01*
X179969267Y-127657286D01*
X179842833Y-127584289D01*
X179788986Y-127569861D01*
X179701801Y-127546500D01*
X179555799Y-127546500D01*
X179469486Y-127569627D01*
X179414766Y-127584289D01*
X179288332Y-127657286D01*
X179288322Y-127657294D01*
X179185094Y-127760522D01*
X179185086Y-127760532D01*
X179112089Y-127886966D01*
X179112088Y-127886971D01*
X179074300Y-128027999D01*
X176014005Y-128027999D01*
X176055147Y-127956741D01*
X176056710Y-127954033D01*
X176056710Y-127954032D01*
X176056712Y-127954029D01*
X176094500Y-127813001D01*
X176094500Y-127666999D01*
X176056712Y-127525971D01*
X176056710Y-127525968D01*
X176056710Y-127525966D01*
X175983713Y-127399532D01*
X175983705Y-127399522D01*
X175880477Y-127296294D01*
X175880467Y-127296286D01*
X175779270Y-127237860D01*
X175754033Y-127223289D01*
X175737372Y-127218824D01*
X175613001Y-127185500D01*
X175466999Y-127185500D01*
X175399075Y-127203700D01*
X175325966Y-127223289D01*
X175199532Y-127296286D01*
X175199522Y-127296294D01*
X175096294Y-127399522D01*
X175096286Y-127399532D01*
X175023289Y-127525966D01*
X175011528Y-127569861D01*
X174985500Y-127666999D01*
X171406008Y-127666999D01*
X171938658Y-127136999D01*
X180805500Y-127136999D01*
X180805500Y-127283001D01*
X180836721Y-127399522D01*
X180843289Y-127424033D01*
X180916286Y-127550467D01*
X180916294Y-127550477D01*
X181019522Y-127653705D01*
X181019527Y-127653709D01*
X181019529Y-127653711D01*
X181019530Y-127653712D01*
X181019532Y-127653713D01*
X181145966Y-127726710D01*
X181145968Y-127726710D01*
X181145971Y-127726712D01*
X181286999Y-127764500D01*
X181287001Y-127764500D01*
X181432999Y-127764500D01*
X181433001Y-127764500D01*
X181574029Y-127726712D01*
X181574032Y-127726710D01*
X181574033Y-127726710D01*
X181647186Y-127684475D01*
X181700471Y-127653711D01*
X181803711Y-127550471D01*
X181876712Y-127424029D01*
X181914500Y-127283001D01*
X181914500Y-127136999D01*
X181876712Y-126995971D01*
X181876710Y-126995968D01*
X181876710Y-126995966D01*
X181803713Y-126869532D01*
X181803705Y-126869522D01*
X181700477Y-126766294D01*
X181700467Y-126766286D01*
X181574033Y-126693289D01*
X181545870Y-126685743D01*
X181433001Y-126655500D01*
X181286999Y-126655500D01*
X181200686Y-126678627D01*
X181145966Y-126693289D01*
X181019532Y-126766286D01*
X181019522Y-126766294D01*
X180916294Y-126869522D01*
X180916286Y-126869532D01*
X180843289Y-126995966D01*
X180835051Y-127026712D01*
X180805500Y-127136999D01*
X171938658Y-127136999D01*
X172642157Y-126436999D01*
X183645500Y-126436999D01*
X183645500Y-126583001D01*
X183664926Y-126655500D01*
X183683289Y-126724033D01*
X183756286Y-126850467D01*
X183756294Y-126850477D01*
X183859522Y-126953705D01*
X183859527Y-126953709D01*
X183859529Y-126953711D01*
X183859530Y-126953712D01*
X183859532Y-126953713D01*
X183985966Y-127026710D01*
X183985968Y-127026710D01*
X183985971Y-127026712D01*
X184126999Y-127064500D01*
X184127001Y-127064500D01*
X184272999Y-127064500D01*
X184273001Y-127064500D01*
X184414029Y-127026712D01*
X184414032Y-127026710D01*
X184414033Y-127026710D01*
X184477250Y-126990211D01*
X184540471Y-126953711D01*
X184643711Y-126850471D01*
X184680211Y-126787250D01*
X184716710Y-126724033D01*
X184716710Y-126724032D01*
X184716712Y-126724029D01*
X184754500Y-126583001D01*
X184754500Y-126436999D01*
X184716712Y-126295971D01*
X184716710Y-126295968D01*
X184716710Y-126295966D01*
X184643713Y-126169532D01*
X184643705Y-126169522D01*
X184540477Y-126066294D01*
X184540467Y-126066286D01*
X184414033Y-125993289D01*
X184397372Y-125988824D01*
X184273001Y-125955500D01*
X184126999Y-125955500D01*
X184040686Y-125978627D01*
X183985966Y-125993289D01*
X183859532Y-126066286D01*
X183859522Y-126066294D01*
X183756294Y-126169522D01*
X183756286Y-126169532D01*
X183683289Y-126295966D01*
X183671645Y-126339424D01*
X183645500Y-126436999D01*
X172642157Y-126436999D01*
X172740220Y-126339424D01*
X172910962Y-126169532D01*
X175292187Y-123800153D01*
X175516125Y-123577328D01*
X175528487Y-123566536D01*
X175613869Y-123501302D01*
X175642278Y-123484964D01*
X175733917Y-123447140D01*
X175765584Y-123438683D01*
X175854549Y-123427008D01*
X175872109Y-123424704D01*
X175888503Y-123423633D01*
X180272594Y-123423633D01*
X180340715Y-123443635D01*
G37*
%TD.AperFunction*%
%TD*%
%TA.AperFunction,Conductor*%
%TO.N,Net-(C77-Pad1)*%
G36*
X234104460Y-73526860D02*
G01*
X234122976Y-73529297D01*
X234211310Y-73540927D01*
X234243072Y-73549437D01*
X234334952Y-73587495D01*
X234363428Y-73603935D01*
X234448941Y-73669552D01*
X234461323Y-73680412D01*
X236385457Y-75604546D01*
X236396318Y-75616929D01*
X236461932Y-75702439D01*
X236478376Y-75730920D01*
X236516430Y-75822791D01*
X236524943Y-75854562D01*
X236539010Y-75961408D01*
X236540088Y-75977855D01*
X236540088Y-94632208D01*
X236539010Y-94648655D01*
X236524943Y-94755501D01*
X236516430Y-94787272D01*
X236478376Y-94879143D01*
X236461929Y-94907630D01*
X236396324Y-94993127D01*
X236385457Y-95005517D01*
X235667823Y-95723151D01*
X235655432Y-95734018D01*
X235569933Y-95799624D01*
X235541449Y-95816070D01*
X235449578Y-95854124D01*
X235417807Y-95862637D01*
X235310961Y-95876704D01*
X235294514Y-95877782D01*
X229149662Y-95877782D01*
X229133215Y-95876704D01*
X229026368Y-95862637D01*
X228994597Y-95854124D01*
X228902726Y-95816070D01*
X228874245Y-95799626D01*
X228788735Y-95734012D01*
X228776352Y-95723151D01*
X228058718Y-95005517D01*
X228047858Y-94993135D01*
X227982241Y-94907622D01*
X227965801Y-94879146D01*
X227927743Y-94787266D01*
X227919233Y-94755504D01*
X227905166Y-94648654D01*
X227904088Y-94632208D01*
X227904088Y-80309388D01*
X227904087Y-80309386D01*
X227470483Y-79875782D01*
X227470482Y-79875782D01*
X227260062Y-79875782D01*
X225847662Y-79875782D01*
X225831215Y-79874704D01*
X225724368Y-79860637D01*
X225692597Y-79852124D01*
X225600726Y-79814070D01*
X225572245Y-79797626D01*
X225486735Y-79732012D01*
X225474352Y-79721151D01*
X224439218Y-78686017D01*
X224428358Y-78673635D01*
X224362741Y-78588122D01*
X224346301Y-78559646D01*
X224308243Y-78467766D01*
X224299733Y-78436004D01*
X224285666Y-78329154D01*
X224284588Y-78312708D01*
X224284588Y-75088855D01*
X224285666Y-75072409D01*
X224285819Y-75071246D01*
X224299733Y-74965557D01*
X224308242Y-74933799D01*
X224346302Y-74841913D01*
X224362739Y-74813444D01*
X224428364Y-74727920D01*
X224439210Y-74715554D01*
X225474360Y-73680404D01*
X225486726Y-73669558D01*
X225572250Y-73603933D01*
X225600719Y-73587496D01*
X225692605Y-73549436D01*
X225724363Y-73540927D01*
X225815286Y-73528957D01*
X225831216Y-73526860D01*
X225847662Y-73525782D01*
X234088014Y-73525782D01*
X234104460Y-73526860D01*
G37*
%TD.AperFunction*%
%TD*%
%TA.AperFunction,Conductor*%
%TO.N,DC_OUT*%
G36*
X214773719Y-75889802D02*
G01*
X214794693Y-75906705D01*
X215827083Y-76939095D01*
X215861109Y-77001407D01*
X215863988Y-77028190D01*
X215863988Y-85269877D01*
X215873696Y-85318681D01*
X215887433Y-85387742D01*
X215911466Y-85445761D01*
X215933424Y-85498773D01*
X215990706Y-85584501D01*
X216000192Y-85598698D01*
X216444692Y-86043198D01*
X216529672Y-86128178D01*
X216629597Y-86194946D01*
X216662117Y-86208416D01*
X216740628Y-86240937D01*
X216819931Y-86256710D01*
X216858492Y-86264381D01*
X216858495Y-86264381D01*
X216858498Y-86264382D01*
X216978678Y-86264382D01*
X217317284Y-86264382D01*
X217385405Y-86284384D01*
X217431898Y-86338040D01*
X217442002Y-86408314D01*
X217440866Y-86414941D01*
X217431570Y-86461681D01*
X217416588Y-86536998D01*
X217416588Y-86676565D01*
X217443816Y-86813447D01*
X217496056Y-86939563D01*
X217503645Y-87010153D01*
X217496056Y-87036001D01*
X217443816Y-87162116D01*
X217416588Y-87298998D01*
X217416588Y-87299001D01*
X217416588Y-87438563D01*
X217443815Y-87575444D01*
X217443816Y-87575446D01*
X217443817Y-87575451D01*
X217497221Y-87704378D01*
X217497223Y-87704382D01*
X217497224Y-87704383D01*
X217574760Y-87820424D01*
X217673446Y-87919110D01*
X217673449Y-87919112D01*
X217673454Y-87919116D01*
X217770158Y-87983731D01*
X217815686Y-88038207D01*
X217824535Y-88108650D01*
X217793894Y-88172695D01*
X217770160Y-88193260D01*
X217736952Y-88215448D01*
X217736943Y-88215456D01*
X217638262Y-88314137D01*
X217638257Y-88314144D01*
X217560723Y-88430181D01*
X217560721Y-88430185D01*
X217507317Y-88559112D01*
X217480088Y-88695998D01*
X217480088Y-88696001D01*
X217480088Y-88835563D01*
X217507315Y-88972444D01*
X217507316Y-88972446D01*
X217507317Y-88972451D01*
X217560721Y-89101378D01*
X217560727Y-89101389D01*
X217565501Y-89108534D01*
X217586714Y-89176287D01*
X217567929Y-89244753D01*
X217565501Y-89248530D01*
X217560727Y-89255674D01*
X217560721Y-89255685D01*
X217507317Y-89384612D01*
X217480088Y-89521498D01*
X217480088Y-89521501D01*
X217480088Y-89661063D01*
X217507315Y-89797944D01*
X217507316Y-89797946D01*
X217507317Y-89797951D01*
X217560721Y-89926878D01*
X217560727Y-89926889D01*
X217565501Y-89934034D01*
X217586714Y-90001787D01*
X217567929Y-90070253D01*
X217565501Y-90074030D01*
X217560727Y-90081174D01*
X217560721Y-90081185D01*
X217507317Y-90210112D01*
X217480088Y-90346998D01*
X217480088Y-90347001D01*
X217480088Y-90486563D01*
X217507315Y-90623444D01*
X217507316Y-90623446D01*
X217507317Y-90623451D01*
X217560721Y-90752378D01*
X217560727Y-90752389D01*
X217565501Y-90759534D01*
X217586714Y-90827287D01*
X217567929Y-90895753D01*
X217565501Y-90899530D01*
X217560727Y-90906674D01*
X217560721Y-90906685D01*
X217507317Y-91035612D01*
X217480088Y-91172498D01*
X217480088Y-91172501D01*
X217480088Y-91312063D01*
X217507315Y-91448944D01*
X217507316Y-91448946D01*
X217507317Y-91448951D01*
X217560721Y-91577878D01*
X217560727Y-91577889D01*
X217565501Y-91585034D01*
X217586714Y-91652787D01*
X217567929Y-91721253D01*
X217565501Y-91725030D01*
X217560727Y-91732174D01*
X217560721Y-91732185D01*
X217507317Y-91861112D01*
X217480088Y-91997998D01*
X217480088Y-91998001D01*
X217480088Y-92137563D01*
X217507315Y-92274444D01*
X217507316Y-92274446D01*
X217507317Y-92274451D01*
X217560721Y-92403378D01*
X217560727Y-92403389D01*
X217565501Y-92410534D01*
X217586714Y-92478287D01*
X217567929Y-92546753D01*
X217565501Y-92550530D01*
X217560727Y-92557674D01*
X217560721Y-92557685D01*
X217507317Y-92686612D01*
X217507315Y-92686618D01*
X217507315Y-92686620D01*
X217496248Y-92742256D01*
X217480088Y-92823498D01*
X217480088Y-92823501D01*
X217480088Y-92963063D01*
X217507315Y-93099944D01*
X217507316Y-93099946D01*
X217507317Y-93099951D01*
X217560721Y-93228878D01*
X217560727Y-93228889D01*
X217565501Y-93236034D01*
X217586714Y-93303787D01*
X217567929Y-93372253D01*
X217565501Y-93376030D01*
X217560727Y-93383174D01*
X217560721Y-93383185D01*
X217507317Y-93512112D01*
X217480088Y-93648998D01*
X217480088Y-93649001D01*
X217480088Y-93788563D01*
X217507315Y-93925444D01*
X217507316Y-93925446D01*
X217507317Y-93925451D01*
X217560721Y-94054378D01*
X217560727Y-94054389D01*
X217565501Y-94061534D01*
X217586714Y-94129287D01*
X217567929Y-94197753D01*
X217565501Y-94201530D01*
X217560727Y-94208674D01*
X217560721Y-94208685D01*
X217507317Y-94337612D01*
X217507315Y-94337618D01*
X217507315Y-94337620D01*
X217496248Y-94393256D01*
X217480088Y-94474498D01*
X217480088Y-94474501D01*
X217480088Y-94614063D01*
X217507315Y-94750944D01*
X217507316Y-94750946D01*
X217507317Y-94750951D01*
X217560721Y-94879878D01*
X217560727Y-94879889D01*
X217565501Y-94887034D01*
X217586714Y-94954787D01*
X217567929Y-95023253D01*
X217565501Y-95027030D01*
X217560727Y-95034174D01*
X217560721Y-95034185D01*
X217507317Y-95163112D01*
X217480088Y-95299998D01*
X217480088Y-95300001D01*
X217480088Y-95439563D01*
X217507315Y-95576444D01*
X217507316Y-95576446D01*
X217507317Y-95576451D01*
X217560721Y-95705378D01*
X217560727Y-95705389D01*
X217565501Y-95712534D01*
X217586714Y-95780287D01*
X217567929Y-95848753D01*
X217565501Y-95852530D01*
X217560727Y-95859674D01*
X217560721Y-95859685D01*
X217507317Y-95988612D01*
X217480088Y-96125498D01*
X217480088Y-96125501D01*
X217480088Y-96265063D01*
X217507315Y-96401944D01*
X217507316Y-96401946D01*
X217507317Y-96401951D01*
X217560721Y-96530878D01*
X217560727Y-96530889D01*
X217565501Y-96538034D01*
X217586714Y-96605787D01*
X217567929Y-96674253D01*
X217565501Y-96678030D01*
X217560727Y-96685174D01*
X217560721Y-96685185D01*
X217507317Y-96814112D01*
X217480088Y-96950998D01*
X217480088Y-96951001D01*
X217480088Y-97090563D01*
X217507315Y-97227444D01*
X217507316Y-97227446D01*
X217507317Y-97227451D01*
X217560721Y-97356378D01*
X217560723Y-97356382D01*
X217560724Y-97356383D01*
X217638260Y-97472424D01*
X217736946Y-97571110D01*
X217852987Y-97648646D01*
X217852991Y-97648648D01*
X217981918Y-97702052D01*
X217981919Y-97702052D01*
X217981926Y-97702055D01*
X218118807Y-97729282D01*
X218118808Y-97729282D01*
X218162144Y-97729282D01*
X218230265Y-97749284D01*
X218276758Y-97802940D01*
X218288144Y-97855279D01*
X218288250Y-102101097D01*
X218288265Y-102717599D01*
X218288266Y-102717600D01*
X225755807Y-102717600D01*
X225772253Y-102718678D01*
X225790769Y-102721115D01*
X225879103Y-102732745D01*
X225910865Y-102741255D01*
X226002745Y-102779313D01*
X226031224Y-102795756D01*
X226110119Y-102856294D01*
X226133371Y-102879546D01*
X226193907Y-102958437D01*
X226210354Y-102986923D01*
X226248408Y-103078794D01*
X226256921Y-103110565D01*
X226270988Y-103217411D01*
X226272066Y-103233858D01*
X226272066Y-107789341D01*
X226270988Y-107805788D01*
X226256921Y-107912634D01*
X226248408Y-107944405D01*
X226210354Y-108036276D01*
X226193907Y-108064762D01*
X226133374Y-108143650D01*
X226110116Y-108166908D01*
X226031228Y-108227441D01*
X226002742Y-108243888D01*
X225910871Y-108281942D01*
X225879100Y-108290455D01*
X225772254Y-108304522D01*
X225755807Y-108305600D01*
X214091354Y-108305600D01*
X214075056Y-108304541D01*
X213969150Y-108290726D01*
X213937645Y-108282365D01*
X213936613Y-108281942D01*
X213921707Y-108275829D01*
X213846472Y-108244980D01*
X213818168Y-108228818D01*
X213733052Y-108164308D01*
X213720702Y-108153619D01*
X213601671Y-108036276D01*
X211188175Y-105657000D01*
X222098596Y-105657000D01*
X222115941Y-105721730D01*
X222115946Y-105721745D01*
X222205140Y-105937078D01*
X222205145Y-105937088D01*
X222321672Y-106138919D01*
X222321676Y-106138925D01*
X222463556Y-106323826D01*
X222463575Y-106323847D01*
X222628352Y-106488624D01*
X222628373Y-106488643D01*
X222813274Y-106630523D01*
X222813280Y-106630527D01*
X223015111Y-106747054D01*
X223015121Y-106747059D01*
X223230456Y-106836254D01*
X223295200Y-106853601D01*
X224311200Y-106853601D01*
X224375943Y-106836254D01*
X224591278Y-106747059D01*
X224591288Y-106747054D01*
X224793119Y-106630527D01*
X224793125Y-106630523D01*
X224978026Y-106488643D01*
X224978047Y-106488624D01*
X225142824Y-106323847D01*
X225142843Y-106323826D01*
X225284723Y-106138925D01*
X225284727Y-106138919D01*
X225401254Y-105937088D01*
X225401259Y-105937078D01*
X225490453Y-105721745D01*
X225490458Y-105721730D01*
X225507803Y-105657000D01*
X224311200Y-105657000D01*
X224311200Y-106853601D01*
X223295200Y-106853601D01*
X223295200Y-105657000D01*
X222098596Y-105657000D01*
X211188175Y-105657000D01*
X210592742Y-105070009D01*
X223203200Y-105070009D01*
X223203200Y-105227991D01*
X223244089Y-105380591D01*
X223323081Y-105517408D01*
X223434792Y-105629119D01*
X223571609Y-105708111D01*
X223724209Y-105749000D01*
X223882191Y-105749000D01*
X224034791Y-105708111D01*
X224171608Y-105629119D01*
X224283319Y-105517408D01*
X224362311Y-105380591D01*
X224403200Y-105227991D01*
X224403200Y-105070009D01*
X224362311Y-104917409D01*
X224283319Y-104780592D01*
X224171608Y-104668881D01*
X224123317Y-104641000D01*
X224311200Y-104641000D01*
X225507803Y-104641000D01*
X225507803Y-104640999D01*
X225490458Y-104576269D01*
X225490453Y-104576254D01*
X225401259Y-104360921D01*
X225401254Y-104360911D01*
X225284727Y-104159080D01*
X225284723Y-104159074D01*
X225142843Y-103974173D01*
X225142824Y-103974152D01*
X224978047Y-103809375D01*
X224978026Y-103809356D01*
X224793125Y-103667476D01*
X224793119Y-103667472D01*
X224591288Y-103550945D01*
X224591278Y-103550940D01*
X224375945Y-103461746D01*
X224375930Y-103461741D01*
X224311200Y-103444396D01*
X224311200Y-104641000D01*
X224123317Y-104641000D01*
X224034791Y-104589889D01*
X223882191Y-104549000D01*
X223724209Y-104549000D01*
X223571609Y-104589889D01*
X223434792Y-104668881D01*
X223323081Y-104780592D01*
X223244089Y-104917409D01*
X223203200Y-105070009D01*
X210592742Y-105070009D01*
X210157562Y-104640999D01*
X222098596Y-104640999D01*
X222098597Y-104641000D01*
X223295200Y-104641000D01*
X223295200Y-103444396D01*
X223295199Y-103444396D01*
X223230469Y-103461741D01*
X223230454Y-103461746D01*
X223015121Y-103550940D01*
X223015111Y-103550945D01*
X222813280Y-103667472D01*
X222813274Y-103667476D01*
X222628373Y-103809356D01*
X222628352Y-103809375D01*
X222463575Y-103974152D01*
X222463556Y-103974173D01*
X222321676Y-104159074D01*
X222321672Y-104159080D01*
X222205145Y-104360911D01*
X222205140Y-104360921D01*
X222115946Y-104576254D01*
X222115941Y-104576269D01*
X222098596Y-104640999D01*
X210157562Y-104640999D01*
X209481145Y-103974173D01*
X208357430Y-102866390D01*
X207587064Y-102106947D01*
X207576019Y-102094518D01*
X207509305Y-102008639D01*
X207492576Y-101979977D01*
X207453851Y-101887420D01*
X207445185Y-101855383D01*
X207430864Y-101747596D01*
X207429766Y-101731001D01*
X207429766Y-79643134D01*
X207449768Y-79575013D01*
X207466671Y-79554039D01*
X208217217Y-78803493D01*
X211914188Y-78803493D01*
X211914188Y-78962871D01*
X211944384Y-79075565D01*
X211955437Y-79116816D01*
X211955440Y-79116823D01*
X212035125Y-79254841D01*
X212035133Y-79254851D01*
X212147818Y-79367536D01*
X212147823Y-79367540D01*
X212147825Y-79367542D01*
X212285851Y-79447232D01*
X212439799Y-79488482D01*
X212439801Y-79488482D01*
X212599175Y-79488482D01*
X212599177Y-79488482D01*
X212753125Y-79447232D01*
X212891151Y-79367542D01*
X213003848Y-79254845D01*
X213083538Y-79116819D01*
X213124788Y-78962871D01*
X213124788Y-78803493D01*
X213083538Y-78649545D01*
X213003848Y-78511519D01*
X213003846Y-78511517D01*
X213003842Y-78511512D01*
X212891157Y-78398827D01*
X212891147Y-78398819D01*
X212753129Y-78319134D01*
X212753126Y-78319133D01*
X212753125Y-78319132D01*
X212753123Y-78319131D01*
X212753122Y-78319131D01*
X212711871Y-78308078D01*
X212599177Y-78277882D01*
X212439799Y-78277882D01*
X212357301Y-78299987D01*
X212285853Y-78319131D01*
X212285846Y-78319134D01*
X212147828Y-78398819D01*
X212147818Y-78398827D01*
X212035133Y-78511512D01*
X212035125Y-78511522D01*
X211955440Y-78649540D01*
X211955438Y-78649545D01*
X211914188Y-78803493D01*
X208217217Y-78803493D01*
X210282523Y-76738187D01*
X210344835Y-76704161D01*
X210371618Y-76701282D01*
X211136643Y-76701282D01*
X211165928Y-76701282D01*
X211234049Y-76721284D01*
X211255023Y-76738187D01*
X211259946Y-76743110D01*
X211375987Y-76820646D01*
X211375991Y-76820648D01*
X211504918Y-76874052D01*
X211504919Y-76874052D01*
X211504926Y-76874055D01*
X211641807Y-76901282D01*
X211641808Y-76901282D01*
X211781368Y-76901282D01*
X211781369Y-76901282D01*
X211918250Y-76874055D01*
X212047189Y-76820646D01*
X212163230Y-76743110D01*
X212244354Y-76661986D01*
X212306666Y-76627961D01*
X212333449Y-76625082D01*
X212657502Y-76625082D01*
X212767450Y-76595621D01*
X212866027Y-76538708D01*
X213498030Y-75906704D01*
X213560342Y-75872680D01*
X213587125Y-75869800D01*
X214705598Y-75869800D01*
X214773719Y-75889802D01*
G37*
%TD.AperFunction*%
%TD*%
%TA.AperFunction,Conductor*%
%TO.N,Net-(F1-Pad2)*%
G36*
X108212187Y-131573078D02*
G01*
X108230703Y-131575515D01*
X108319037Y-131587145D01*
X108350799Y-131595655D01*
X108442679Y-131633713D01*
X108471158Y-131650156D01*
X108550053Y-131710694D01*
X108573305Y-131733946D01*
X108633841Y-131812837D01*
X108650288Y-131841323D01*
X108688342Y-131933194D01*
X108696855Y-131964965D01*
X108710922Y-132071811D01*
X108712000Y-132088258D01*
X108712000Y-136941321D01*
X108710922Y-136957768D01*
X108696855Y-137064614D01*
X108688342Y-137096385D01*
X108650288Y-137188256D01*
X108633841Y-137216743D01*
X108568236Y-137302240D01*
X108557369Y-137314630D01*
X107533130Y-138338869D01*
X107520739Y-138349736D01*
X107435240Y-138415342D01*
X107406756Y-138431788D01*
X107314885Y-138469842D01*
X107283114Y-138478355D01*
X107176268Y-138492422D01*
X107159821Y-138493500D01*
X87376000Y-138493500D01*
X87376000Y-143373741D01*
X87374922Y-143390187D01*
X87374922Y-143390188D01*
X87360855Y-143497034D01*
X87352342Y-143528805D01*
X87314288Y-143620676D01*
X87297841Y-143649162D01*
X87237308Y-143728050D01*
X87214050Y-143751308D01*
X87135162Y-143811841D01*
X87106676Y-143828288D01*
X87014805Y-143866342D01*
X86983034Y-143874855D01*
X86876188Y-143888922D01*
X86859741Y-143890000D01*
X83120259Y-143890000D01*
X83103812Y-143888922D01*
X82996965Y-143874855D01*
X82965194Y-143866342D01*
X82873323Y-143828288D01*
X82844839Y-143811842D01*
X82765946Y-143751305D01*
X82742694Y-143728053D01*
X82682156Y-143649158D01*
X82665713Y-143620679D01*
X82627655Y-143528799D01*
X82619145Y-143497037D01*
X82605078Y-143390187D01*
X82604000Y-143373741D01*
X82604000Y-141224000D01*
X82096000Y-141224000D01*
X80526259Y-141224000D01*
X80509812Y-141222922D01*
X80402965Y-141208855D01*
X80371194Y-141200342D01*
X80279323Y-141162288D01*
X80250839Y-141145842D01*
X80171946Y-141085305D01*
X80148694Y-141062053D01*
X80088156Y-140983158D01*
X80071713Y-140954679D01*
X80033655Y-140862799D01*
X80025145Y-140831037D01*
X80011078Y-140724187D01*
X80010000Y-140707741D01*
X80010000Y-138140678D01*
X80011078Y-138124232D01*
X80011231Y-138123069D01*
X80025145Y-138017380D01*
X80033654Y-137985622D01*
X80071714Y-137893736D01*
X80088151Y-137865267D01*
X80153776Y-137779743D01*
X80164622Y-137767377D01*
X83474877Y-134457122D01*
X83487243Y-134446276D01*
X83572767Y-134380651D01*
X83601236Y-134364214D01*
X83693122Y-134326154D01*
X83724880Y-134317645D01*
X83821531Y-134304921D01*
X83831733Y-134303578D01*
X83848179Y-134302500D01*
X97700674Y-134302500D01*
X97725255Y-134304920D01*
X97827205Y-134325200D01*
X97827206Y-134325200D01*
X98006794Y-134325200D01*
X98006795Y-134325200D01*
X98108744Y-134304920D01*
X98133326Y-134302500D01*
X102362000Y-134302500D01*
X102362000Y-132088258D01*
X102363078Y-132071812D01*
X102363231Y-132070649D01*
X102377145Y-131964958D01*
X102385654Y-131933202D01*
X102423714Y-131841316D01*
X102440153Y-131812844D01*
X102500698Y-131733941D01*
X102523941Y-131710698D01*
X102602844Y-131650153D01*
X102631316Y-131633714D01*
X102723202Y-131595654D01*
X102754960Y-131587145D01*
X102845883Y-131575175D01*
X102861813Y-131573078D01*
X102878259Y-131572000D01*
X108195741Y-131572000D01*
X108212187Y-131573078D01*
G37*
%TD.AperFunction*%
%TD*%
M02*
