M48
; DRILL file {KiCad 9.0.6-9.0.6~ubuntu24.04.1} date 2025-11-21T22:07:42+0100
; FORMAT={-:-/ absolute / inch / decimal}
; #@! TF.CreationDate,2025-11-21T22:07:42+01:00
; #@! TF.GenerationSoftware,Kicad,Pcbnew,9.0.6-9.0.6~ubuntu24.04.1
; #@! TF.FileFunction,Plated,1,4,PTH
FMAT,2
INCH
; #@! TA.AperFunction,Plated,PTH,ViaDrill
T1C0.0118
; #@! TA.AperFunction,Plated,PTH,ViaDrill
T2C0.0157
; #@! TA.AperFunction,Plated,PTH,ComponentDrill
T3C0.0240
; #@! TA.AperFunction,Plated,PTH,ComponentDrill
T4C0.0315
; #@! TA.AperFunction,Plated,PTH,ComponentDrill
T5C0.0354
; #@! TA.AperFunction,Plated,PTH,ComponentDrill
T6C0.0394
; #@! TA.AperFunction,Plated,PTH,ComponentDrill
T7C0.0400
; #@! TA.AperFunction,Plated,PTH,ComponentDrill
T8C0.0472
; #@! TA.AperFunction,Plated,PTH,ComponentDrill
T9C0.0551
; #@! TA.AperFunction,Plated,PTH,ComponentDrill
T10C0.0591
; #@! TA.AperFunction,Plated,PTH,ComponentDrill
T11C0.0693
; #@! TA.AperFunction,Plated,PTH,ComponentDrill
T12C0.0764
; #@! TA.AperFunction,Plated,PTH,ComponentDrill
T13C0.1260
%
G90
G05
T1
X3.5856Y-2.9543
X3.6111Y-2.9335
X3.743Y-3.949
X4.2192Y-3.1433
X4.237Y-4.036
X4.276Y-4.0303
X4.4285Y-3.7806
X4.459Y-4.7727
X4.4615Y-4.9142
X4.5091Y-5.626
X4.5886Y-5.6717
X4.65Y-5.2551
X4.6543Y-5.7598
X4.6935Y-4.9056
X4.7323Y-5.7283
X4.7323Y-5.7559
X4.8118Y-5.7594
X4.8501Y-5.6273
X4.8528Y-5.5535
X4.8949Y-5.5587
X4.9291Y-5.6669
X4.965Y-3.956
X4.9689Y-5.761
X5.0535Y-2.2281
X5.081Y-2.2281
X5.0862Y-5.7594
X5.1085Y-2.2281
X5.121Y-4.0006
X5.1491Y-5.515
X5.1585Y-3.9256
X5.2009Y-5.4776
X5.215Y-4.219
X5.2169Y-5.2661
X5.2328Y-5.4532
X5.2597Y-5.4987
X5.271Y-4.629
X5.2885Y-4.3823
X5.2941Y-5.5012
X5.3612Y-5.4144
X5.3638Y-5.3268
X5.3654Y-4.2067
X5.3667Y-5.2686
X5.376Y-4.0932
X5.4093Y-4.184
X5.4165Y-5.7618
X5.4327Y-4.2244
X5.4352Y-4.4522
X5.4408Y-5.6776
X5.461Y-5.4976
X5.4802Y-5.6783
X5.509Y-4.1267
X5.5126Y-5.4358
X5.5127Y-4.448
X5.5193Y-4.241
X5.581Y-3.666
X5.5906Y-3.8847
X5.5925Y-5.4299
X5.605Y-4.116
X5.6235Y-4.0781
X5.6272Y-5.4299
X5.6409Y-5.7594
X5.6535Y-5.411
X5.666Y-3.8856
X5.6735Y-3.9536
X5.6763Y-4.196
X5.705Y-4.4539
X5.7233Y-5.396
X5.747Y-4.009
X5.7606Y-5.2776
X5.7803Y-4.577
X5.7823Y-5.424
X5.788Y-4.226
X5.806Y-4.605
X5.814Y-4.245
X5.8205Y-5.2768
X5.8252Y-5.4425
X5.8317Y-4.3347
X5.8346Y-5.7594
X5.835Y-4.494
X5.8668Y-4.6245
X5.869Y-4.3625
X5.8695Y-4.686
X5.8895Y-4.405
X5.8941Y-5.2811
X5.9115Y-4.43
X5.9175Y-5.179
X5.9285Y-4.567
X5.931Y-4.514
X5.9313Y-4.3596
X5.934Y-4.207
X5.9437Y-5.2154
X5.9451Y-4.6275
X5.9825Y-4.5085
X5.9855Y-5.2515
X5.99Y-4.603
X5.9945Y-3.451
X5.9951Y-4.0442
X6.012Y-4.0725
X6.019Y-3.4735
X6.028Y-4.626
X6.0325Y-4.3765
X6.0325Y-4.444
X6.0503Y-3.4912
X6.0509Y-4.556
X6.0701Y-4.2284
X6.0745Y-4.5791
X6.079Y-4.63
X6.097Y-4.376
X6.097Y-4.442
X6.0991Y-4.5564
X6.1002Y-4.2452
X6.1006Y-5.2032
X6.105Y-5.169
X6.1071Y-5.2915
X6.116Y-4.629
X6.122Y-3.427
X6.143Y-5.169
X6.155Y-4.5775
X6.1675Y-4.4955
X6.1874Y-5.3028
X6.1935Y-4.3215
X6.194Y-5.169
X6.2017Y-4.4224
X6.2025Y-4.4724
X6.204Y-4.378
X6.2062Y-4.3485
X6.228Y-4.4375
X6.243Y-5.2705
X6.245Y-4.711
X6.2634Y-4.2587
X6.266Y-5.1515
X6.3125Y-4.6855
X6.3128Y-5.2642
X6.3415Y-4.6
X6.368Y-5.1913
X6.3905Y-5.269
X6.3925Y-4.6245
X6.4299Y-5.4477
X6.4415Y-4.2634
X6.442Y-4.1531
X6.447Y-5.5
X6.4575Y-5.3963
X6.492Y-5.174
X6.4925Y-4.2642
X6.54Y-5.175
X6.544Y-4.2634
X6.546Y-3.4281
X6.5685Y-5.578
X6.569Y-5.484
X6.592Y-5.173
X6.598Y-4.2626
X6.5987Y-5.2141
X6.5988Y-4.0725
X6.629Y-4.0485
X6.643Y-5.169
X6.6484Y-5.5291
X6.65Y-5.2307
X6.674Y-3.997
X6.6744Y-5.5547
X6.675Y-3.961
X6.6785Y-3.4256
X6.6785Y-3.5156
X6.6886Y-5.1687
X6.692Y-4.155
X6.692Y-4.71
X6.7005Y-5.3951
X6.714Y-5.4468
X6.7185Y-3.4331
X6.7185Y-3.8956
X6.7235Y-5.3951
X6.7574Y-5.1969
X6.76Y-4.599
X6.7626Y-5.3949
X6.7635Y-3.6606
X6.7635Y-3.7206
X6.772Y-5.071
X6.7835Y-3.2556
X6.7835Y-3.9981
X6.7869Y-5.3063
X6.805Y-4.674
X6.8054Y-3.7529
X6.8165Y-5.3089
X6.904Y-4.96
X6.9075Y-5.3533
X6.91Y-5.016
X6.9179Y-5.1398
X6.9291Y-5.5244
X6.9314Y-5.3714
X6.934Y-5.33
X6.9394Y-3.4925
X6.963Y-5.3733
X6.9693Y-5.1398
X6.986Y-5.246
X7.001Y-5.159
X7.004Y-4.932
X7.0173Y-5.134
X7.022Y-4.5155
X7.0317Y-5.2009
X7.041Y-5.373
X7.0458Y-3.0881
X7.062Y-5.142
X7.072Y-5.0433
X7.072Y-5.2543
X7.078Y-4.05
X7.0864Y-5.1962
X7.095Y-5.139
X7.096Y-4.951
X7.1158Y-5.3757
X7.1271Y-5.1405
X7.1335Y-5.511
X7.1345Y-3.4547
X7.135Y-5.22
X7.136Y-3.0606
X7.1378Y-4.1625
X7.147Y-5.093
X7.148Y-3.6476
X7.163Y-4.917
X7.176Y-5.068
X7.1878Y-3.026
X7.1931Y-3.5335
X7.1937Y-3.428
X7.1937Y-3.45
X7.195Y-5.461
X7.2024Y-4.1996
X7.2085Y-4.4285
X7.215Y-4.234
X7.216Y-3.169
X7.217Y-4.171
X7.2178Y-4.028
X7.2197Y-4.1339
X7.2417Y-2.9508
X7.2417Y-3.6492
X7.243Y-4.4265
X7.253Y-5.451
X7.26Y-4.995
X7.2735Y-4.435
X7.284Y-2.887
X7.2886Y-2.9752
X7.3035Y-5.174
X7.304Y-5.336
X7.308Y-4.2
X7.3161Y-3.0264
X7.319Y-4.925
X7.32Y-4.285
X7.328Y-5.4515
X7.3603Y-4.9823
X7.408Y-4.285
X7.45Y-3.839
X7.4709Y-3.5028
X7.4886Y-3.4354
X7.5095Y-4.9375
X7.5219Y-3.435
X7.5264Y-3.5177
X7.5551Y-3.4352
X7.564Y-4.987
X7.6215Y-4.99
X7.6355Y-5.4495
X7.652Y-2.969
X7.66Y-3.465
X7.6671Y-3.2801
X7.722Y-3.651
X7.73Y-2.944
X7.881Y-2.874
X7.92Y-4.746
X7.9374Y-2.4087
X7.961Y-3.243
X7.9885Y-3.328
X7.991Y-4.382
X8.0235Y-2.4081
X8.086Y-3.353
X8.272Y-2.786
X8.343Y-2.555
X8.3517Y-5.1522
X8.3669Y-3.1056
X8.3819Y-2.6571
X8.411Y-4.967
X8.418Y-2.268
X8.425Y-2.337
X8.4851Y-2.9222
X8.8164Y-2.2099
X8.8164Y-2.2339
X8.8164Y-2.2579
X8.8164Y-2.2819
X8.8164Y-2.3059
X8.8404Y-2.2099
X8.8404Y-2.2339
X8.8404Y-2.2579
X8.8404Y-2.2819
X8.8404Y-2.3059
X8.896Y-4.86
X9.0099Y-4.8603
X9.116Y-4.86
T2
X2.7575Y-3.3008
X2.8223Y-3.7215
X2.8594Y-4.8375
X2.886Y-4.077
X2.8937Y-3.1579
X2.9Y-3.756
X2.9861Y-3.6567
X3.015Y-3.9775
X3.0375Y-3.9225
X3.042Y-4.02
X3.0609Y-3.3155
X3.0633Y-2.8242
X3.0636Y-2.8777
X3.065Y-3.19
X3.1Y-3.245
X3.1Y-3.3675
X3.1452Y-3.7876
X3.1626Y-3.8917
X3.2061Y-3.8776
X3.2183Y-3.0672
X3.2382Y-3.7182
X3.2683Y-2.8642
X3.2775Y-4.76
X3.2778Y-3.4603
X3.2783Y-3.2842
X3.2948Y-3.1547
X3.3183Y-2.8642
X3.3186Y-2.9917
X3.3225Y-3.3925
X3.3277Y-3.2626
X3.3599Y-3.3718
X3.365Y-4.885
X3.3793Y-3.0302
X3.3852Y-3.6576
X3.3958Y-2.8367
X3.4034Y-3.4025
X3.431Y-4.152
X3.4436Y-2.7792
X3.4675Y-4.485
X3.5225Y-3.135
X3.5466Y-3.7237
X3.5581Y-3.2816
X3.5697Y-3.6487
X3.575Y-4.556
X3.5907Y-3.6872
X3.6Y-4.9275
X3.6102Y-3.7262
X3.621Y-4.348
X3.6425Y-5.22
X3.645Y-5.045
X3.6507Y-3.9302
X3.6535Y-4.348
X3.6547Y-3.8912
X3.6552Y-2.8801
X3.6586Y-3.0167
X3.686Y-4.348
X3.708Y-4.888
X3.7325Y-5.1725
X3.743Y-4.118
X3.7442Y-3.8381
X3.7737Y-4.144
X3.855Y-5.2525
X3.9325Y-5.135
X4.0547Y-2.8797
X4.0825Y-3.64
X4.1112Y-4.035
X4.1475Y-3.6175
X4.165Y-3.2022
X4.1989Y-2.1052
X4.2122Y-2.5988
X4.2425Y-2.4205
X4.265Y-2.376
X4.2723Y-3.2442
X4.285Y-4.8097
X4.301Y-3.8381
X4.3225Y-2.5397
X4.3325Y-4.9522
X4.3343Y-3.2201
X4.3414Y-2.1047
X4.3419Y-2.7222
X4.3441Y-2.8024
X4.3445Y-2.6673
X4.3642Y-3.3222
X4.375Y-4.845
X4.375Y-4.99
X4.4185Y-2.9381
X4.4194Y-2.8047
X4.4228Y-3.1169
X4.4252Y-3.226
X4.4647Y-3.3822
X4.4649Y-2.9992
X4.5394Y-3.4332
X4.5772Y-3.1922
X4.5772Y-3.5317
X4.6017Y-2.9532
X4.6039Y-2.7627
X4.6077Y-3.7842
X4.6358Y-3.7534
X4.6482Y-3.6307
X4.6619Y-2.5447
X4.6619Y-2.6222
X4.6727Y-3.7292
X4.696Y-3.0281
X4.7169Y-3.3222
X4.7567Y-2.3717
X4.7713Y-3.215
X4.7844Y-2.0047
X4.7844Y-2.0397
X4.7844Y-2.0772
X4.7844Y-2.1147
X4.8157Y-2.3493
X4.8169Y-2.0047
X4.8169Y-2.0397
X4.8169Y-2.0772
X4.8169Y-2.1147
X4.8494Y-2.0047
X4.8494Y-2.0397
X4.8494Y-2.0772
X4.8494Y-2.1147
X4.8617Y-3.3822
X4.8685Y-3.7412
X4.8819Y-2.0047
X4.8819Y-2.0397
X4.8819Y-2.0772
X4.8819Y-2.1147
X4.8835Y-3.4747
X4.8835Y-3.5772
X4.8933Y-2.3484
X4.8934Y-2.424
X4.966Y-3.0272
X5.032Y-4.7718
X5.0552Y-3.2427
X5.0752Y-4.0572
X5.1369Y-4.1842
X5.1394Y-4.0587
X5.1847Y-4.1067
X5.2127Y-4.5982
X5.2227Y-4.1382
X5.2469Y-3.4647
X5.2469Y-3.6572
X5.26Y-4.235
X5.2897Y-2.9387
X5.2897Y-2.9722
X5.2897Y-3.0057
X5.2897Y-3.0392
X5.2897Y-3.0727
X5.2985Y-3.8381
X5.2992Y-4.0587
X5.2997Y-4.1922
X5.3333Y-4.8623
X5.3599Y-4.5846
X5.3977Y-4.7571
X5.4154Y-4.0162
X5.4457Y-3.6572
X5.515Y-3.781
X5.5153Y-3.9499
X5.5783Y-4.6453
X5.6118Y-4.8047
X5.6245Y-4.4722
X5.6342Y-3.7567
X5.6344Y-2.0022
X5.6442Y-2.4572
X5.6442Y-2.8397
X5.6644Y-2.0022
X5.6944Y-2.0022
X5.7244Y-2.0022
X5.726Y-3.7842
X5.7544Y-2.0022
X5.7567Y-2.1747
X5.7934Y-3.4707
X5.8025Y-3.744
X5.8604Y-3.4652
X5.886Y-2.4572
X5.8997Y-3.0007
X5.9472Y-3.4932
X6.0907Y-4.0932
X6.1666Y-3.5164
X6.1705Y-2.8835
X6.2717Y-2.8787
X6.3852Y-3.2688
X6.3867Y-3.7877
X6.392Y-3.934
X6.4795Y-3.728
X6.4907Y-2.9997
X6.4952Y-3.9352
X6.5535Y-4.095
X6.5592Y-3.7877
X6.6082Y-3.4217
X6.666Y-2.3333
X6.736Y-2.4257
X6.7885Y-2.9656
X6.8132Y-2.3356
X6.8542Y-2.9777
X7.021Y-2.4081
X7.136Y-2.9231
X7.1935Y-3.8381
X7.2519Y-2.3838
X7.3385Y-2.4356
X7.4892Y-2.1622
X7.4892Y-2.1997
X7.4892Y-2.2397
X7.4892Y-2.2772
X7.5202Y-2.4442
X7.5202Y-2.8377
X7.5217Y-2.1622
X7.5217Y-2.1997
X7.5217Y-2.2397
X7.5217Y-2.2772
X7.5542Y-2.1622
X7.5542Y-2.1997
X7.5542Y-2.2397
X7.5542Y-2.2772
X7.5867Y-2.1622
X7.5867Y-2.1997
X7.5867Y-2.2397
X7.5867Y-2.2772
X7.601Y-3.9156
X7.66Y-4.002
X7.6832Y-2.3572
X7.7046Y-4.3143
X7.7046Y-4.3593
X7.7046Y-4.4068
X7.7046Y-4.4518
X7.727Y-4.224
X7.7996Y-4.3143
X7.7996Y-4.3593
X7.7996Y-4.4068
X7.7996Y-4.4543
X7.8Y-4.215
X7.8571Y-4.2818
X7.8867Y-4.9622
X7.9167Y-4.9622
X7.922Y-4.124
X7.943Y-4.525
X7.945Y-4.645
X7.9467Y-4.9622
X7.947Y-2.884
X8.0385Y-4.5906
X8.039Y-4.647
X8.072Y-4.222
X8.084Y-3.5642
X8.1242Y-5.1422
X8.1242Y-5.3197
X8.147Y-4.143
X8.1608Y-4.4619
X8.1917Y-5.4822
X8.205Y-4.3857
X8.2169Y-2.9481
X8.2176Y-2.8597
X8.2185Y-4.6431
X8.2383Y-3.1647
X8.2383Y-3.1972
X8.2383Y-3.2297
X8.2383Y-3.2622
X8.2383Y-3.2947
X8.2383Y-3.3272
X8.2383Y-3.3597
X8.2383Y-3.3922
X8.2426Y-4.4619
X8.2742Y-5.2347
X8.2742Y-5.2647
X8.3042Y-5.2347
X8.3042Y-5.2647
X8.3057Y-3.1647
X8.3057Y-3.1972
X8.3057Y-3.2297
X8.3057Y-3.2622
X8.3057Y-3.2947
X8.3057Y-3.3272
X8.3057Y-3.3597
X8.3057Y-3.3922
X8.3351Y-2.9997
X8.3801Y-3.4947
X8.3801Y-3.5272
X8.3801Y-3.5597
X8.3801Y-3.5922
X8.3801Y-3.6247
X8.3801Y-3.6572
X8.3801Y-3.6897
X8.3801Y-3.7222
X8.3801Y-3.7547
X8.3801Y-3.7872
X8.3801Y-3.8197
X8.3876Y-3.9722
X8.3876Y-4.0572
X8.3976Y-2.8122
X8.3976Y-2.8772
X8.4226Y-3.9722
X8.4226Y-4.0572
X8.4276Y-3.4097
X8.4276Y-3.4397
X8.4601Y-2.9572
X8.4776Y-2.7997
X8.4776Y-2.8322
X8.484Y-4.8145
X8.484Y-4.846
X8.484Y-4.878
X8.5101Y-2.7997
X8.5101Y-2.8322
X8.535Y-4.814
X8.535Y-4.8461
X8.535Y-4.879
X8.5426Y-2.7997
X8.5426Y-2.8322
X8.5626Y-3.1672
X8.5776Y-2.9272
X8.5876Y-3.4097
X8.5876Y-3.4397
X8.5901Y-3.4947
X8.5901Y-3.5272
X8.5901Y-3.5597
X8.5901Y-3.5922
X8.5901Y-3.6247
X8.5901Y-3.6572
X8.5901Y-3.6897
X8.5901Y-3.7222
X8.5901Y-3.7547
X8.5901Y-3.7872
X8.5901Y-3.8197
X8.6101Y-3.1147
X8.6101Y-3.1472
X8.6201Y-2.8122
X8.6251Y-2.7597
X8.6343Y-3.4396
X8.6343Y-3.4671
X8.6426Y-3.1147
X8.6426Y-3.1472
X8.6643Y-3.4396
X8.6643Y-3.4671
X8.6751Y-3.1147
X8.6751Y-3.1472
X8.6776Y-2.8422
X8.6943Y-3.4396
X8.6943Y-3.4671
X8.7076Y-3.1147
X8.7076Y-3.1472
X8.7101Y-2.8947
X8.7243Y-3.4396
X8.7243Y-3.4671
X8.7401Y-2.8947
X8.7401Y-3.1147
X8.7401Y-3.1472
X8.7543Y-3.4396
X8.7543Y-3.4671
X8.7701Y-2.8947
X8.7876Y-3.3722
X8.8001Y-2.8947
X8.8376Y-3.7072
X8.8376Y-3.7972
X8.8451Y-3.1597
X8.8451Y-3.1897
X8.8451Y-3.2222
X8.8451Y-3.2547
X8.8451Y-3.2872
X8.8451Y-3.3197
X8.8451Y-3.3522
X8.8451Y-3.3847
X8.8451Y-3.4172
X8.8451Y-3.4497
X8.8451Y-3.4822
X8.8451Y-3.5147
X8.8701Y-3.7072
X8.8701Y-3.7972
X8.9709Y-2.5273
X8.9709Y-2.5973
X8.9709Y-2.6298
X9.0001Y-2.5272
X9.0009Y-2.5973
X9.0009Y-2.6298
X9.0309Y-2.5273
X9.0309Y-2.5973
X9.0309Y-2.6298
X9.0576Y-3.1897
X9.0576Y-3.2222
X9.0576Y-3.2547
X9.0576Y-3.2872
X9.0576Y-3.3197
X9.0576Y-3.3522
X9.0576Y-3.3847
X9.0576Y-3.4172
X9.0576Y-3.4497
X9.0576Y-3.4822
X9.0576Y-3.5147
X9.0801Y-2.9697
X9.0801Y-3.0022
X9.0801Y-3.0347
X9.0801Y-3.0647
T3
X2.7Y-3.35
X2.7Y-3.65
X4.0839Y-3.228
X5.859Y-3.943
X6.9421Y-2.9406
X7.57Y-4.1
X7.57Y-4.56
X7.6Y-2.38
X7.8Y-3.45
X7.85Y-3.9
X7.85Y-4.1
X8.3311Y-2.2685
X8.42Y-4.3
X8.42Y-4.56
T4
X7.4575Y-2.9972
X7.4575Y-3.1953
X7.4579Y-3.0961
X7.5362Y-2.9972
X7.5362Y-3.1953
X7.5366Y-3.0961
X7.9826Y-2.96
X8.0614Y-2.96
T5
X2.5409Y-3.9764
X2.6159Y-3.9764
X2.6909Y-3.9764
T6
X2.4776Y-2.8634
X2.4776Y-2.9634
X2.4776Y-3.139
X2.4776Y-3.239
X2.5776Y-2.8634
X2.5776Y-2.9634
X2.5776Y-3.139
X2.5776Y-3.239
X2.6776Y-3.139
X2.6776Y-3.239
X2.9976Y-5.5118
X2.9976Y-5.6118
X3.0976Y-5.5118
X3.0976Y-5.6118
X3.1976Y-5.5118
X3.1976Y-5.6118
X3.2976Y-5.5118
X3.2976Y-5.6118
X3.3976Y-5.5118
X3.3976Y-5.6118
X3.4976Y-5.5118
X3.4976Y-5.6118
X3.5976Y-5.5118
X3.5976Y-5.6118
X3.6976Y-5.5118
X3.6976Y-5.6118
X3.7976Y-5.5118
X3.7976Y-5.6118
X3.8976Y-5.5118
X3.8976Y-5.6118
T7
X5.1042Y-2.3897
X5.3042Y-2.3897
X5.5942Y-2.3717
X5.6942Y-2.3717
X5.7942Y-2.3717
T8
X8.8111Y-4.1397
X8.8111Y-4.7303
X9.2049Y-4.1397
X9.2049Y-4.7303
T9
X2.5512Y-3.4252
X2.5512Y-3.563
X2.5512Y-3.7008
T10
X4.1875Y-4.3843
X4.1875Y-5.2701
T11
X8.815Y-5.44
X8.9709Y-5.44
X9.1268Y-5.44
X9.2827Y-5.44
T12
X2.3858Y-4.4075
X2.3858Y-5.1575
X2.9882Y-4.4075
X2.9882Y-5.1575
X3.2874Y-4.4075
X3.2874Y-5.1575
T13
X2.7362Y-2.4803
X2.7362Y-5.7874
T5
G00X6.0649Y-2.3706
M15
G01X5.998Y-2.3706
M16
G05
G00X6.2991Y-2.3706
M15
G01X6.1928Y-2.3706
M16
G05
G00X6.494Y-2.3706
M15
G01X6.4271Y-2.3706
M16
G05
M30
